<mxfile host="Electron" agent="Mozilla/5.0 (Macintosh; Intel Mac OS X 10_15_7) AppleWebKit/537.36 (KHTML, like Gecko) draw.io/24.7.17 Chrome/128.0.6613.36 Electron/32.0.1 Safari/537.36" version="24.7.17">
  <diagram name="Page-1" id="eHFOe4v2xoYau3oBD07v">
    <mxGraphModel dx="2204" dy="1915" grid="1" gridSize="10" guides="1" tooltips="1" connect="1" arrows="1" fold="1" page="1" pageScale="1" pageWidth="850" pageHeight="1100" math="0" shadow="0">
      <root>
        <UserObject label="" animation="BACKGROUND&#xa;show TuEcQPFBkwgy0ww-vpvm-84 fade&#xa;show TuEcQPFBkwgy0ww-vpvm-103 fade&#xa;show TuEcQPFBkwgy0ww-vpvm-85 fade&#xa;show TuEcQPFBkwgy0ww-vpvm-86 fade&#xa;show TuEcQPFBkwgy0ww-vpvm-87 fade&#xa;show TuEcQPFBkwgy0ww-vpvm-88 fade&#xa;show TuEcQPFBkwgy0ww-vpvm-98 fade&#xa;show TuEcQPFBkwgy0ww-vpvm-100 fade&#xa;show TuEcQPFBkwgy0ww-vpvm-89 fade&#xa;show TuEcQPFBkwgy0ww-vpvm-99 fade&#xa;show TuEcQPFBkwgy0ww-vpvm-90 fade&#xa;show TuEcQPFBkwgy0ww-vpvm-91 fade&#xa;show TuEcQPFBkwgy0ww-vpvm-102 fade&#xa;show TuEcQPFBkwgy0ww-vpvm-106 fade&#xa;show TuEcQPFBkwgy0ww-vpvm-92 fade&#xa;show TuEcQPFBkwgy0ww-vpvm-94 fade&#xa;show TuEcQPFBkwgy0ww-vpvm-104 fade&#xa;show TuEcQPFBkwgy0ww-vpvm-105 fade&#xa;show TuEcQPFBkwgy0ww-vpvm-95 fade&#xa;show TuEcQPFBkwgy0ww-vpvm-96 fade&#xa;show TuEcQPFBkwgy0ww-vpvm-97 fade&#xa;show TuEcQPFBkwgy0ww-vpvm-130 fade&#xa;show TuEcQPFBkwgy0ww-vpvm-129 fade&#xa;show TuEcQPFBkwgy0ww-vpvm-133 fade&#xa;wait 1000&#xa;&#xa;PULL&#xa;show TuEcQPFBkwgy0ww-vpvm-131 fade&#xa;wait 3000&#xa;&#xa;TEST&#xa;UNIT TEST&#xa;show TuEcQPFBkwgy0ww-vpvm-115 fade&#xa;show TuEcQPFBkwgy0ww-vpvm-132 fade&#xa;flow TuEcQPFBkwgy0ww-vpvm-132 start&#xa;wait 2000&#xa;hide TuEcQPFBkwgy0ww-vpvm-132&#xa;hide TuEcQPFBkwgy0ww-vpvm-131&#xa;CODE LINTER&#xa;show TuEcQPFBkwgy0ww-vpvm-113 fade&#xa;show TuEcQPFBkwgy0ww-vpvm-117 fade&#xa;flow TuEcQPFBkwgy0ww-vpvm-113 start&#xa;wait 3000&#xa;COVERAGE REPORT&#xa;show TuEcQPFBkwgy0ww-vpvm-116 fade&#xa;show TuEcQPFBkwgy0ww-vpvm-118 fade&#xa;flow TuEcQPFBkwgy0ww-vpvm-116 start&#xa;wait 3000&#xa;TRANSITION OUT&#xa;hide TuEcQPFBkwgy0ww-vpvm-118&#xa;hide TuEcQPFBkwgy0ww-vpvm-116&#xa;hide TuEcQPFBkwgy0ww-vpvm-117&#xa;hide TuEcQPFBkwgy0ww-vpvm-113&#xa;&#xa;SECURITY&#xa;SAST&#xa;show TuEcQPFBkwgy0ww-vpvm-114 fade&#xa;show TuEcQPFBkwgy0ww-vpvm-121 fade&#xa;flow TuEcQPFBkwgy0ww-vpvm-114 start&#xa;wait 2000&#xa;hide TuEcQPFBkwgy0ww-vpvm-115&#xa;hide TuEcQPFBkwgy0ww-vpvm-114&#xa;SBOM&#xa;show TuEcQPFBkwgy0ww-vpvm-120 fade&#xa;show TuEcQPFBkwgy0ww-vpvm-122 fade&#xa;flow TuEcQPFBkwgy0ww-vpvm-120 start&#xa;wait 3000&#xa;TRANSITION OUT&#xa;hide TuEcQPFBkwgy0ww-vpvm-120&#xa;hide TuEcQPFBkwgy0ww-vpvm-122&#xa;&#xa;BUILD&#xa;BUILD PROCESS&#xa;show TuEcQPFBkwgy0ww-vpvm-119 fade&#xa;show TuEcQPFBkwgy0ww-vpvm-79 fade&#xa;flow TuEcQPFBkwgy0ww-vpvm-119 start&#xa;wait 2000&#xa;hide TuEcQPFBkwgy0ww-vpvm-119&#xa;hide TuEcQPFBkwgy0ww-vpvm-121&#xa;PACKAGE&#xa;show TuEcQPFBkwgy0ww-vpvm-78 fade&#xa;show TuEcQPFBkwgy0ww-vpvm-81 fade&#xa;flow TuEcQPFBkwgy0ww-vpvm-78 start&#xa;wait 3000&#xa;REGISTRY&#xa;show TuEcQPFBkwgy0ww-vpvm-80 fade&#xa;show TuEcQPFBkwgy0ww-vpvm-82 fade&#xa;flow TuEcQPFBkwgy0ww-vpvm-80 start&#xa;wait 3000&#xa;TRANSITION OUT&#xa;hide TuEcQPFBkwgy0ww-vpvm-83 &#xa;hide TuEcQPFBkwgy0ww-vpvm-78 &#xa;hide TuEcQPFBkwgy0ww-vpvm-81 &#xa;hide TuEcQPFBkwgy0ww-vpvm-78 &#xa;hide TuEcQPFBkwgy0ww-vpvm-80 &#xa;hide TuEcQPFBkwgy0ww-vpvm-82 &#xa;&#xa;RELEASE&#xa;TAG&#xa;show TuEcQPFBkwgy0ww-vpvm-108 fade&#xa;show TuEcQPFBkwgy0ww-vpvm-125 fade&#xa;flow TuEcQPFBkwgy0ww-vpvm-108 start&#xa;wait 2000&#xa;hide TuEcQPFBkwgy0ww-vpvm-108&#xa;hide TuEcQPFBkwgy0ww-vpvm-79&#xa;DEPLOY&#xa;show TuEcQPFBkwgy0ww-vpvm-124 fade&#xa;show TuEcQPFBkwgy0ww-vpvm-126 fade&#xa;flow TuEcQPFBkwgy0ww-vpvm-124 start&#xa;wait 3000&#xa;TRANSITION OUT&#xa;hide TuEcQPFBkwgy0ww-vpvm-124&#xa;hide TuEcQPFBkwgy0ww-vpvm-126&#xa;&#xa;NOTIFY&#xa;show TuEcQPFBkwgy0ww-vpvm-123 fade&#xa;show TuEcQPFBkwgy0ww-vpvm-127 fade&#xa;flow TuEcQPFBkwgy0ww-vpvm-123 start&#xa;wait 2000&#xa;hide TuEcQPFBkwgy0ww-vpvm-125&#xa;hide TuEcQPFBkwgy0ww-vpvm-123&#xa;wait 3000&#xa;&#xa;&#xa;show TuEcQPFBkwgy0ww-vpvm-78 fade&#xa;show TuEcQPFBkwgy0ww-vpvm-79 fade&#xa;show TuEcQPFBkwgy0ww-vpvm-80 fade&#xa;show TuEcQPFBkwgy0ww-vpvm-81 fade&#xa;show TuEcQPFBkwgy0ww-vpvm-82 fade&#xa;show TuEcQPFBkwgy0ww-vpvm-108 fade&#xa;show TuEcQPFBkwgy0ww-vpvm-113 fade&#xa;show TuEcQPFBkwgy0ww-vpvm-114 fade&#xa;show TuEcQPFBkwgy0ww-vpvm-115 fade&#xa;show TuEcQPFBkwgy0ww-vpvm-116 fade&#xa;show TuEcQPFBkwgy0ww-vpvm-117 fade&#xa;show TuEcQPFBkwgy0ww-vpvm-118 fade&#xa;show TuEcQPFBkwgy0ww-vpvm-119 fade&#xa;show TuEcQPFBkwgy0ww-vpvm-120 fade&#xa;show TuEcQPFBkwgy0ww-vpvm-121 fade&#xa;show TuEcQPFBkwgy0ww-vpvm-122 fade&#xa;show TuEcQPFBkwgy0ww-vpvm-123 fade&#xa;show TuEcQPFBkwgy0ww-vpvm-124 fade&#xa;show TuEcQPFBkwgy0ww-vpvm-125 fade&#xa;show TuEcQPFBkwgy0ww-vpvm-126 fade&#xa;show TuEcQPFBkwgy0ww-vpvm-127 fade&#xa;show TuEcQPFBkwgy0ww-vpvm-132 fade&#xa;show TuEcQPFBkwgy0ww-vpvm-131 fade&#xa;flow TuEcQPFBkwgy0ww-vpvm-78 start&#xa;flow TuEcQPFBkwgy0ww-vpvm-80 start&#xa;flow TuEcQPFBkwgy0ww-vpvm-108 start&#xa;flow TuEcQPFBkwgy0ww-vpvm-113 start&#xa;flow TuEcQPFBkwgy0ww-vpvm-114 start&#xa;flow TuEcQPFBkwgy0ww-vpvm-116 start&#xa;flow TuEcQPFBkwgy0ww-vpvm-119 start&#xa;flow TuEcQPFBkwgy0ww-vpvm-120 start&#xa;flow TuEcQPFBkwgy0ww-vpvm-123 start&#xa;flow TuEcQPFBkwgy0ww-vpvm-124 start&#xa;flow TuEcQPFBkwgy0ww-vpvm-132 start&#xa;wait 3000&#xa;&#xa;hide TuEcQPFBkwgy0ww-vpvm-78&#xa;hide TuEcQPFBkwgy0ww-vpvm-79&#xa;hide TuEcQPFBkwgy0ww-vpvm-80&#xa;hide TuEcQPFBkwgy0ww-vpvm-81&#xa;hide TuEcQPFBkwgy0ww-vpvm-82&#xa;hide TuEcQPFBkwgy0ww-vpvm-108&#xa;hide TuEcQPFBkwgy0ww-vpvm-113&#xa;hide TuEcQPFBkwgy0ww-vpvm-114&#xa;hide TuEcQPFBkwgy0ww-vpvm-115&#xa;hide TuEcQPFBkwgy0ww-vpvm-116&#xa;hide TuEcQPFBkwgy0ww-vpvm-117&#xa;hide TuEcQPFBkwgy0ww-vpvm-118&#xa;hide TuEcQPFBkwgy0ww-vpvm-119&#xa;hide TuEcQPFBkwgy0ww-vpvm-120&#xa;hide TuEcQPFBkwgy0ww-vpvm-121&#xa;hide TuEcQPFBkwgy0ww-vpvm-122&#xa;hide TuEcQPFBkwgy0ww-vpvm-123&#xa;hide TuEcQPFBkwgy0ww-vpvm-124&#xa;hide TuEcQPFBkwgy0ww-vpvm-125&#xa;hide TuEcQPFBkwgy0ww-vpvm-126&#xa;hide TuEcQPFBkwgy0ww-vpvm-127&#xa;hide TuEcQPFBkwgy0ww-vpvm-132&#xa;hide TuEcQPFBkwgy0ww-vpvm-131&#xa;wait 1000&#xa;hide TuEcQPFBkwgy0ww-vpvm-84&#xa;hide TuEcQPFBkwgy0ww-vpvm-103&#xa;hide TuEcQPFBkwgy0ww-vpvm-85&#xa;hide TuEcQPFBkwgy0ww-vpvm-86&#xa;hide TuEcQPFBkwgy0ww-vpvm-87&#xa;hide TuEcQPFBkwgy0ww-vpvm-88&#xa;hide TuEcQPFBkwgy0ww-vpvm-98&#xa;hide TuEcQPFBkwgy0ww-vpvm-100&#xa;hide TuEcQPFBkwgy0ww-vpvm-89&#xa;hide TuEcQPFBkwgy0ww-vpvm-99&#xa;hide TuEcQPFBkwgy0ww-vpvm-90&#xa;hide TuEcQPFBkwgy0ww-vpvm-91&#xa;hide TuEcQPFBkwgy0ww-vpvm-102&#xa;hide TuEcQPFBkwgy0ww-vpvm-106&#xa;hide TuEcQPFBkwgy0ww-vpvm-92&#xa;hide TuEcQPFBkwgy0ww-vpvm-94&#xa;hide TuEcQPFBkwgy0ww-vpvm-104&#xa;hide TuEcQPFBkwgy0ww-vpvm-105&#xa;hide TuEcQPFBkwgy0ww-vpvm-95&#xa;hide TuEcQPFBkwgy0ww-vpvm-96&#xa;hide TuEcQPFBkwgy0ww-vpvm-97&#xa;hide TuEcQPFBkwgy0ww-vpvm-130&#xa;hide TuEcQPFBkwgy0ww-vpvm-129&#xa;&#xa;" id="0">
          <mxCell />
        </UserObject>
        <mxCell id="TuEcQPFBkwgy0ww-vpvm-52" value="Background" style="" parent="0" />
        <mxCell id="TuEcQPFBkwgy0ww-vpvm-84" style="edgeStyle=orthogonalEdgeStyle;rounded=0;orthogonalLoop=1;jettySize=auto;html=1;exitX=0.5;exitY=1;exitDx=0;exitDy=0;fontColor=#D9D9D9;strokeColor=#E3E3E3;" parent="TuEcQPFBkwgy0ww-vpvm-52" source="TuEcQPFBkwgy0ww-vpvm-85" target="TuEcQPFBkwgy0ww-vpvm-87" edge="1">
          <mxGeometry relative="1" as="geometry" />
        </mxCell>
        <mxCell id="TuEcQPFBkwgy0ww-vpvm-103" style="edgeStyle=orthogonalEdgeStyle;rounded=0;orthogonalLoop=1;jettySize=auto;html=1;exitX=1;exitY=0.5;exitDx=0;exitDy=0;entryX=0;entryY=0.5;entryDx=0;entryDy=0;strokeColor=#E3E3E3;fontColor=#D9D9D9;" parent="TuEcQPFBkwgy0ww-vpvm-52" source="TuEcQPFBkwgy0ww-vpvm-85" target="TuEcQPFBkwgy0ww-vpvm-95" edge="1">
          <mxGeometry relative="1" as="geometry" />
        </mxCell>
        <mxCell id="TuEcQPFBkwgy0ww-vpvm-85" value="Build Process" style="shape=image;editableCssRules=\.[haloColor,layerColor];imageAspect=0;aspect=fixed;verticalLabelPosition=bottom;verticalAlign=top;image=data:image/svg+xml,PHN2ZyB4bWxucz0iaHR0cDovL3d3dy53My5vcmcvMjAwMC9zdmciIHdpZHRoPSIxMDAuMDMyIiBoZWlnaHQ9IjEwMC4wMzIiIHZpZXdCb3g9IjAgMCA3NSA3NSIgZmlsbD0ibm9uZSIgZmlsbC1ydWxlPSJldmVub2RkIiBvdmVyZmxvdz0idmlzaWJsZSIgc3Ryb2tlLWxpbmVjYXA9InNxdWFyZSIgc3Ryb2tlLW1pdGVybGltaXQ9IjMiIGNvbG9yLWludGVycG9sYXRpb24tZmlsdGVycz0ic1JHQiI+JiN4YTsgIDxzdHlsZSB0eXBlPSJ0ZXh0L2NzcyI+LmhhbG9Db2xvciB7IGZpbGw6IHJnYigyMjcsIDIyNywgMjI3KTsgfSAubGF5ZXJDb2xvciB7IGZpbGw6IHJnYigyMjcsIDIyNywgMjI3KTsgfSA8L3N0eWxlPiYjeGE7ICA8Y2lyY2xlIHI9IjM3LjUiIGN4PSIzNy41IiBjeT0iMzcuNSIgY29sb3ItaW50ZXJwb2xhdGlvbi1maWx0ZXJzPSJzUkdCIiBmaWxsPSIjYTJhMmEyIiBjbGFzcz0iaGFsb0NvbG9yIi8+JiN4YTsgIDxjaXJjbGUgZmlsbD0iI2EyYTJhMiIgcj0iMzIuNSIgY3g9IjM3LjQ0OSIgY3k9IjM3LjUwMyIgY29sb3ItaW50ZXJwb2xhdGlvbi1maWx0ZXJzPSJzUkdCIiBzdHlsZT0iIiBjbGFzcz0ibGF5ZXJDb2xvciIvPiYjeGE7ICA8ZyBmaWxsPSIjZmZmIiB0cmFuc2Zvcm09Im1hdHJpeCgxLCAwLCAwLCAxLCA4LjQyNjU5NywgNy45NDQwOTkpIj4mI3hhOyAgICA8Y2lyY2xlIGN4PSIzMCIgY3k9IjUxLjYiIHI9IjMuMiIvPiYjeGE7ICAgIDxjaXJjbGUgY3g9IjI5LjYiIGN5PSI3LjgiIHI9IjMuMiIvPiYjeGE7ICAgIDxjaXJjbGUgY3g9IjMwIiBjeT0iMzcuMSIgcj0iMy4yIi8+JiN4YTsgICAgPGNpcmNsZSBjeD0iMzAiIGN5PSIyMi40IiByPSIzLjIiLz4mI3hhOyAgICA8Y2lyY2xlIGN4PSI0OC40IiBjeT0iMjIuNCIgcj0iNi4yIi8+JiN4YTsgICAgPGNpcmNsZSBjeD0iMTEuMSIgY3k9IjM3LjEiIHI9IjYuMiIvPiYjeGE7ICA8L2c+JiN4YTsgIDxwYXRoIGQ9Ik0gMzkuNzI4IDE3LjI0NCBMIDUzLjEyOCAyNy4wNDQgTSAyMi45MjggNDIuODQ0IEwgMzcuMjI4IDMwLjc0NCBNIDIyLjQyOCA0Ny40NDQgTCAzNy42MjggNTkuNTQ0IE0gMzkuMzI4IDQ0LjA0NCBMIDU1LjMyOCAzMi4wNDQiIGZpbGw9Im5vbmUiIHN0cm9rZT0iI2ZmZiIgc3Ryb2tlLXdpZHRoPSIyIiBzdHJva2UtbWl0ZXJsaW1pdD0iMTAiLz4mI3hhOzwvc3ZnPg==;perimeter=ellipsePerimeter;fontColor=#D9D9D9;" parent="TuEcQPFBkwgy0ww-vpvm-52" vertex="1">
          <mxGeometry x="450" y="10" width="60" height="60" as="geometry" />
        </mxCell>
        <mxCell id="TuEcQPFBkwgy0ww-vpvm-86" style="edgeStyle=orthogonalEdgeStyle;rounded=0;orthogonalLoop=1;jettySize=auto;html=1;exitX=0.5;exitY=1;exitDx=0;exitDy=0;fontColor=#D9D9D9;strokeColor=#E3E3E3;" parent="TuEcQPFBkwgy0ww-vpvm-52" source="TuEcQPFBkwgy0ww-vpvm-87" target="TuEcQPFBkwgy0ww-vpvm-88" edge="1">
          <mxGeometry relative="1" as="geometry" />
        </mxCell>
        <mxCell id="TuEcQPFBkwgy0ww-vpvm-87" value="Package" style="shape=image;editableCssRules=\.[haloColor,layerColor];verticalLabelPosition=bottom;labelBackgroundColor=none;verticalAlign=top;aspect=fixed;imageAspect=0;image=data:image/svg+xml,PHN2ZyB4bWxucz0iaHR0cDovL3d3dy53My5vcmcvMjAwMC9zdmciIHZpZXdCb3g9IjAgMCA1OS41IDU5LjUiPiYjeGE7ICA8c3R5bGUgdHlwZT0idGV4dC9jc3MiPi5oYWxvQ29sb3IgeyBmaWxsOiByZ2IoMjI3LCAyMjcsIDIyNyk7IH0gLmxheWVyQ29sb3IgeyBmaWxsOiByZ2IoMjI3LCAyMjcsIDIyNyk7IH0gPC9zdHlsZT4mI3hhOyAgPGNpcmNsZSBjeD0iMjkuOCIgY3k9IjI5LjgiIHI9IjI5LjgiIGNsYXNzPSJoYWxvQ29sb3IiIHN0eWxlPSIiIGZpbGw9IiNhMmEyYTIiLz4mI3hhOyAgPGNpcmNsZSBmaWxsPSIjYTJhMmEyIiBjbGFzcz0ibGF5ZXJDb2xvciIgY3g9IjI5Ljc3IiBjeT0iMjkuODI1IiByPSIyNC44IiBzdHlsZT0iIi8+JiN4YTsgIDxwYXRoIGQ9Ik0gNDMuNDI2IDQxLjE5NyBMIDQzLjQyNiAyMi4wNjYgTCAzMi45MzMgMTYuNjU1IEwgMzYuNDg5IDE0Ljg0MiBMIDQ3LjI1IDIwLjMzNyBMIDQ3LjI1IDM5LjI4OCBaIE0gMjkuODczIDI3Ljg5MiBMIDIwLjU3OSAyMy4wODQgTCAzMS4xMTcgMTcuNjc1IEwgNDAuMzc0IDIyLjQyNiBaIE0gMzAuNzE2IDQwLjU2OSBMIDMwLjcxNiAyOS4zMTkgTCA0MS43NjggMjMuNTEgTCA0MS43NjggMzQuODg2IFogTSAxOC43NTQgMzUuMzgzIEwgMTguNzU0IDI0LjA1IEwgMjguOTE5IDI5LjI1NyBMIDI4LjkxOSA0MC42NTQgWiBNIDEyLjI1IDMyLjA1MSBMIDEyLjI1IDIwLjMyMyBMIDI5LjY5MiAxMS4zMTMgTCAzNC41ODIgMTMuODY4IEwgMTcuMDE2IDIyLjk2IEwgMTcuMDE2IDM0LjQ2OCBaIE0gMTIuMjUgMzkuMjYxIEwgMTIuMjUgMzMuOTMyIEwgMjkuODMxIDQyLjk1OSBMIDQxLjc2NyAzNi43MzMgTCA0MS43NjcgNDIuMDQ5IEwgMjkuNzA3IDQ4LjE4OCBaIiBmaWxsPSIjZmZmIi8+JiN4YTs8L3N2Zz4=;fontColor=#D9D9D9;" parent="TuEcQPFBkwgy0ww-vpvm-52" vertex="1">
          <mxGeometry x="450" y="130" width="60" height="60" as="geometry" />
        </mxCell>
        <UserObject label="Registry" tooltip="An Existing Workflow is a workflow, subsystem, or ancillary system which already exists outside the current scope." id="TuEcQPFBkwgy0ww-vpvm-88">
          <mxCell style="shape=image;editableCssRules=\.[haloColor,layerColor];imageAspect=0;verticalLabelPosition=bottom;verticalAlign=top;image=data:image/svg+xml,PHN2ZyB4bWxucz0iaHR0cDovL3d3dy53My5vcmcvMjAwMC9zdmciIHdpZHRoPSIxMDJweCIgaGVpZ2h0PSIxMDAuMDMyIiB2aWV3Qm94PSIwIDAgNzUgNzUiIGZpbGw9Im5vbmUiIGZpbGwtcnVsZT0iZXZlbm9kZCIgb3ZlcmZsb3c9InZpc2libGUiIHN0cm9rZS1saW5lY2FwPSJzcXVhcmUiIHN0cm9rZS1taXRlcmxpbWl0PSIzIiBjb2xvci1pbnRlcnBvbGF0aW9uLWZpbHRlcnM9InNSR0IiPiYjeGE7ICA8c3R5bGUgdHlwZT0idGV4dC9jc3MiPi5sYXllckNvbG9yIHsgZmlsbDogcmdiKDIyNywgMjI3LCAyMjcpOyB9IC5oYWxvQ29sb3IgeyBmaWxsOiByZ2IoMjI3LCAyMjcsIDIyNyk7IH0gPC9zdHlsZT4mI3hhOyAgPGNpcmNsZSBjbGFzcz0iaGFsb0NvbG9yIiByPSIzNy41IiBjeD0iMzcuNTU0IiBjeT0iMzcuNSIgY29sb3ItaW50ZXJwb2xhdGlvbi1maWx0ZXJzPSJzUkdCIiBmaWxsLW9wYWNpdHk9Ii45OCIgc3R5bGU9IiIgZmlsbD0iI2EyYTJhMiIvPiYjeGE7ICA8Y2lyY2xlIGNsYXNzPSJsYXllckNvbG9yIiByPSIzMi41IiBjeD0iMzcuMzgiIGN5PSIzNy4yNjEiIGNvbG9yLWludGVycG9sYXRpb24tZmlsdGVycz0ic1JHQiIgZmlsbC1vcGFjaXR5PSIuOTgiIGZpbGw9IiNhMmEyYTIiLz4mI3hhOyAgPGcgdHJhbnNmb3JtPSJtYXRyaXgoMSwgMCwgMCwgMSwgMi45MDA3NjYsIDMuMTExNjczKSI+JiN4YTsgICAgPHBhdGggZD0iTSAzNS4wNSA5LjAyIEwgMzUuMDcgOS4wMyBMIDM1LjEgOS4wNCBMIDM1LjEyIDkuMDUgTCAzNS4xNCA5LjA2IEwgMzUuMTYgOS4wNyBMIDM1LjE5IDkuMDggTCAzNS4yMSA5LjA5IEwgMzUuMjQgOS4xIEwgMzUuMjYgOS4xMSBMIDM1LjI5IDkuMTIgTCAzNS4zMSA5LjEzIEwgMzUuMzkgOS4xNiBMIDM1LjQxIDkuMTcgTCAzNS40NCA5LjE4IEwgMzUuNDYgOS4xOSBMIDM1LjQ5IDkuMiBMIDM1LjUxIDkuMjEgTCAzNS41MyA5LjIyIEwgMzUuNTYgOS4yMyBMIDM1LjU4IDkuMjQgTCAzNS42IDkuMjUgTCAzNS42MyA5LjI2IEwgMzUuNjUgOS4yNyBMIDM1LjY3IDkuMjggTCAzNS42OSA5LjI5IEwgMzUuNzEgOS4zIEwgMzcuNTEgMTAuMyBMIDQ0LjIxIDE0LjEgTCA0NC4yNyAxNC4xMyBMIDQ0LjMzIDE0LjE2IEwgNDQuMzggMTQuMiBMIDQ0LjQzIDE0LjIzIEwgNDQuNDkgMTQuMjcgTCA0NC41MyAxNC4zMSBMIDQ0LjU4IDE0LjM1IEwgNDQuNjMgMTQuNCBMIDQ0LjY3IDE0LjQ0IEwgNDQuNzEgMTQuNDkgTCA0NC43NSAxNC41NCBMIDQ0Ljc5IDE0LjU4IEwgNDQuODIgMTQuNjMgTCA0NC44NSAxNC42OCBMIDQ0Ljg5IDE0Ljc0IEwgNDQuOTEgMTQuNzkgTCA0NC45NCAxNC44NCBMIDQ0Ljk3IDE0LjkgTCA0NC45OSAxNC45NSBMIDQ1LjAxIDE1LjAxIEwgNDUuMDMgMTUuMDcgTCA0NS4wNSAxNS4xMiBMIDQ1LjA2IDE1LjE4IEwgNDUuMDcgMTUuMjQgTCA0NS4wOSAxNS4zIEwgNDUuMDkgMTUuMzYgTCA0NS4xIDE1LjQyIEwgNDUuMTEgMTUuNDggTCA0NS4xMSAxNS41NCBMIDQ1LjExIDE1LjYgTCA0NS4xMSAxNy40IEwgNDUuMTEgMTcuNDEgTCA0NS4xMSAxNy40MiBMIDQ1LjExIDE3LjQzIEwgNDUuMTIgMTcuNDQgTCA0NS4xMiAxNy40NiBMIDQ1LjEyIDE3LjQ3IEwgNDUuMTMgMTcuNDggTCA0NS4xMyAxNy40OSBMIDQ1LjE0IDE3LjUxIEwgNDUuMTQgMTcuNTIgTCA0NS4xNSAxNy41MyBMIDQ1LjE1IDE3LjU1IEwgNDUuMTYgMTcuNTYgTCA0NS4xNyAxNy41NyBMIDQ1LjE3IDE3LjU5IEwgNDUuMTggMTcuNiBMIDQ1LjE5IDE3LjYxIEwgNDUuMiAxNy42MiBMIDQ1LjIxIDE3LjYzIEwgNDUuMjEgMTcuNjQgTCA0NS4yMiAxNy42NSBMIDQ1LjIzIDE3LjY2IEwgNDUuMjQgMTcuNjcgTCA0NS4yNSAxNy42OCBMIDQ1LjI2IDE3LjY4IEwgNDUuMjcgMTcuNjkgTCA0NS4yOCAxNy42OSBMIDQ1LjI5IDE3LjcgTCA0NS4zIDE3LjcgTCA0NS4zMSAxNy43IEwgNTMuNzEgMjIuNSBMIDUzLjc3IDIyLjUzIEwgNTMuODMgMjIuNTYgTCA1My44OSAyMi42IEwgNTMuOTQgMjIuNjQgTCA1NCAyMi42NyBMIDU0LjA1IDIyLjcxIEwgNTQuMSAyMi43NiBMIDU0LjE1IDIyLjggTCA1NC4yIDIyLjg1IEwgNTQuMjQgMjIuOSBMIDU0LjI5IDIyLjk0IEwgNTQuMzMgMjMgTCA1NC4zNyAyMy4wNSBMIDU0LjQgMjMuMSBMIDU0LjQ0IDIzLjE2IEwgNTQuNDcgMjMuMjEgTCA1NC41MSAyMy4yNyBMIDU0LjU0IDIzLjMzIEwgNTQuNTYgMjMuMzkgTCA1NC41OSAyMy40NSBMIDU0LjYxIDIzLjUxIEwgNTQuNjMgMjMuNTcgTCA1NC42NSAyMy42NCBMIDU0LjY3IDIzLjcgTCA1NC42OCAyMy43NyBMIDU0LjY5IDIzLjgzIEwgNTQuNyAyMy45IEwgNTQuNzEgMjMuOTYgTCA1NC43MSAyNC4wMyBMIDU0LjcxIDI0LjEgTCA1NC43MSAzMy45IEwgNTQuNzEgMzMuOTEgTCA1NC43MSAzMy45MiBMIDU0LjcxIDMzLjkzIEwgNTQuNzIgMzMuOTQgTCA1NC43MiAzMy45NSBMIDU0LjcyIDMzLjk2IEwgNTQuNzMgMzMuOTcgTCA1NC43MyAzMy45OCBMIDU0Ljc0IDMzLjk5IEwgNTQuNzQgMzQgTCA1NC43NSAzNC4wMSBMIDU0Ljc1IDM0LjAyIEwgNTQuNzYgMzQuMDMgTCA1NC43NyAzNC4wNCBMIDU0Ljc3IDM0LjA1IEwgNTQuNzggMzQuMDYgTCA1NC43OSAzNC4wNyBMIDU0LjggMzQuMDggTCA1NC44MSAzNC4wOSBMIDU0LjgxIDM0LjEgTCA1NC44MiAzNC4xMSBMIDU0LjgzIDM0LjEyIEwgNTQuODQgMzQuMTMgTCA1NC44NSAzNC4xNCBMIDU0Ljg2IDM0LjE1IEwgNTQuODcgMzQuMTYgTCA1NC44OCAzNC4xNyBMIDU0LjkxIDM0LjIgTCA1Ni4zMSAzNSBMIDU2LjM3IDM1LjAzIEwgNTYuNDMgMzUuMDYgTCA1Ni40OCAzNS4xIEwgNTYuNTQgMzUuMTMgTCA1Ni41OSAzNS4xNyBMIDU2LjY0IDM1LjIxIEwgNTYuNjkgMzUuMjYgTCA1Ni43NCAzNS4zIEwgNTYuNzkgMzUuMzQgTCA1Ni44MyAzNS4zOSBMIDU2Ljg4IDM1LjQ0IEwgNTYuOTIgMzUuNDkgTCA1Ni45NSAzNS41NCBMIDU2Ljk5IDM1LjU5IEwgNTcuMDIgMzUuNjUgTCA1Ny4wNSAzNS43IEwgNTcuMDggMzUuNzYgTCA1Ny4xMSAzNS44MiBMIDU3LjEzIDM1Ljg4IEwgNTcuMTYgMzUuOTQgTCA1Ny4xNyAzNiBMIDU3LjE5IDM2LjA2IEwgNTcuMiAzNi4xMyBMIDU3LjIxIDM2LjE5IEwgNTcuMjIgMzYuMjYgTCA1Ny4yMyAzNi4zMyBMIDU3LjIzIDM2LjM5IEwgNTcuMjIgMzYuNDYgTCA1Ny4yMiAzNi41MyBMIDU3LjIxIDM2LjYgTCA1Ny4yMSA0Ni4zIEwgNTcuMjEgNDYuMzcgTCA1Ny4yMSA0Ni40NCBMIDU3LjIgNDYuNTEgTCA1Ny4xOSA0Ni41NyBMIDU3LjE5IDQ2LjY0IEwgNTcuMTcgNDYuNzEgTCA1Ny4xNiA0Ni43NyBMIDU3LjE1IDQ2LjgzIEwgNTcuMTMgNDYuOSBMIDU3LjExIDQ2Ljk2IEwgNTcuMDkgNDcuMDIgTCA1Ny4wNyA0Ny4wOCBMIDU3LjA0IDQ3LjE0IEwgNTcuMDEgNDcuMTkgTCA1Ni45OSA0Ny4yNSBMIDU2Ljk1IDQ3LjMgTCA1Ni45MiA0Ny4zNiBMIDU2Ljg5IDQ3LjQxIEwgNTYuODUgNDcuNDYgTCA1Ni44MSA0Ny41MSBMIDU2Ljc3IDQ3LjU1IEwgNTYuNzMgNDcuNiBMIDU2LjY4IDQ3LjY0IEwgNTYuNjMgNDcuNjggTCA1Ni41OSA0Ny43MyBMIDU2LjUzIDQ3Ljc2IEwgNTYuNDggNDcuOCBMIDU2LjQzIDQ3Ljg0IEwgNTYuMzcgNDcuODcgTCA1Ni4zMSA0Ny45IEwgNDcuNzEgNTIuOCBMIDQ3LjY2IDUyLjgzIEwgNDcuNjEgNTIuODYgTCA0Ny41NiA1Mi44OCBMIDQ3LjUxIDUyLjkgTCA0Ny40NSA1Mi45MiBMIDQ3LjQgNTIuOTQgTCA0Ny4zNSA1Mi45NiBMIDQ3LjI5IDUyLjk4IEwgNDcuMjQgNTIuOTkgTCA0Ny4xOSA1MyBMIDQ3LjEzIDUzLjAxIEwgNDcuMDggNTMuMDIgTCA0Ny4wMiA1My4wMiBMIDQ2Ljk3IDUzLjAyIEwgNDYuOTEgNTMuMDIgTCA0Ni44NiA1My4wMiBMIDQ2LjggNTMuMDIgTCA0Ni43NSA1My4wMiBMIDQ2LjY5IDUzLjAxIEwgNDYuNjQgNTMgTCA0Ni41OCA1Mi45OSBMIDQ2LjUzIDUyLjk4IEwgNDYuNDcgNTIuOTYgTCA0Ni40MiA1Mi45NCBMIDQ2LjM3IDUyLjkyIEwgNDYuMzIgNTIuOSBMIDQ2LjI2IDUyLjg4IEwgNDYuMjEgNTIuODYgTCA0Ni4xNiA1Mi44MyBMIDQ2LjExIDUyLjggTCA0NC41MSA1MS45IEwgNDQuNSA1MS44OSBMIDQ0LjQ5IDUxLjg4IEwgNDQuNDggNTEuODcgTCA0NC40NyA1MS44NiBMIDQ0LjQ1IDUxLjg2IEwgNDQuNDQgNTEuODUgTCA0NC40MyA1MS44NSBMIDQ0LjQxIDUxLjg0IEwgNDQuNCA1MS44NCBMIDQ0LjM5IDUxLjgzIEwgNDQuMzcgNTEuODMgTCA0NC4zNiA1MS44MyBMIDQ0LjM0IDUxLjgzIEwgNDQuMzMgNTEuODIgTCA0NC4zMSA1MS44MiBMIDQ0LjMgNTEuODIgTCA0NC4yOCA1MS44MyBMIDQ0LjI3IDUxLjgzIEwgNDQuMjUgNTEuODMgTCA0NC4yNCA1MS44MyBMIDQ0LjIyIDUxLjg0IEwgNDQuMjEgNTEuODQgTCA0NC4xOSA1MS44NSBMIDQ0LjE4IDUxLjg1IEwgNDQuMTcgNTEuODYgTCA0NC4xNiA1MS44NiBMIDQ0LjE0IDUxLjg3IEwgNDQuMTMgNTEuODggTCA0NC4xMiA1MS44OSBMIDQ0LjExIDUxLjkgTCAzOC44MSA1NC45IEwgMzUuNDEgNTYuOSBMIDM0LjIxIDU2LjkgTCAzMy45MSA1Ni43IEwgMjUuNjEgNTEuOSBMIDI1LjYgNTEuODkgTCAyNS41OSA1MS44OCBMIDI1LjU4IDUxLjg3IEwgMjUuNTcgNTEuODYgTCAyNS41NiA1MS44NiBMIDI1LjU1IDUxLjg1IEwgMjUuNTQgNTEuODUgTCAyNS41MyA1MS44NCBMIDI1LjUyIDUxLjg0IEwgMjUuNTEgNTEuODMgTCAyNS41IDUxLjgzIEwgMjUuNDkgNTEuODMgTCAyNS40OCA1MS44MyBMIDI1LjQ3IDUxLjgyIEwgMjUuNDYgNTEuODIgTCAyNS40NSA1MS44MiBMIDI1LjQ0IDUxLjgzIEwgMjUuNDMgNTEuODMgTCAyNS40MiA1MS44MyBMIDI1LjQxIDUxLjgzIEwgMjUuNCA1MS44NCBMIDI1LjM5IDUxLjg0IEwgMjUuMzggNTEuODUgTCAyNS4zNyA1MS44NSBMIDI1LjM2IDUxLjg2IEwgMjUuMzUgNTEuODYgTCAyNS4zNCA1MS44NyBMIDI1LjMzIDUxLjg4IEwgMjUuMzIgNTEuODkgTCAyNS4zMSA1MS45IEwgMjMuNzEgNTIuOCBMIDIzLjY2IDUyLjgzIEwgMjMuNjEgNTIuODYgTCAyMy41NiA1Mi44OCBMIDIzLjUxIDUyLjkgTCAyMy40NSA1Mi45MiBMIDIzLjQgNTIuOTQgTCAyMy4zNSA1Mi45NiBMIDIzLjI5IDUyLjk4IEwgMjMuMjQgNTIuOTkgTCAyMy4xOSA1MyBMIDIzLjEzIDUzLjAxIEwgMjMuMDggNTMuMDIgTCAyMy4wMiA1My4wMiBMIDIyLjk3IDUzLjAyIEwgMjIuOTEgNTMuMDIgTCAyMi44NiA1My4wMiBMIDIyLjggNTMuMDIgTCAyMi43NSA1My4wMiBMIDIyLjY5IDUzLjAxIEwgMjIuNjQgNTMgTCAyMi41OCA1Mi45OSBMIDIyLjUzIDUyLjk4IEwgMjIuNDcgNTIuOTYgTCAyMi40MiA1Mi45NCBMIDIyLjM3IDUyLjkyIEwgMjIuMzIgNTIuOSBMIDIyLjI2IDUyLjg4IEwgMjIuMjEgNTIuODYgTCAyMi4xNiA1Mi44MyBMIDIyLjExIDUyLjggTCAxMy40MSA0Ny44IEwgMTMuMzYgNDcuNzcgTCAxMy4zMSA0Ny43NCBMIDEzLjI3IDQ3LjcgTCAxMy4yMiA0Ny42NyBMIDEzLjE4IDQ3LjYzIEwgMTMuMTQgNDcuNiBMIDEzLjA5IDQ3LjU2IEwgMTMuMDYgNDcuNTIgTCAxMy4wMiA0Ny40OCBMIDEyLjk4IDQ3LjQ0IEwgMTIuOTUgNDcuMzkgTCAxMi45MSA0Ny4zNSBMIDEyLjg4IDQ3LjMgTCAxMi44NSA0Ny4yNiBMIDEyLjgyIDQ3LjIxIEwgMTIuOCA0Ny4xNiBMIDEyLjc3IDQ3LjExIEwgMTIuNzUgNDcuMDYgTCAxMi43MyA0Ny4wMSBMIDEyLjcxIDQ2Ljk2IEwgMTIuNjkgNDYuOTEgTCAxMi42NyA0Ni44NiBMIDEyLjY2IDQ2LjggTCAxMi42NSA0Ni43NSBMIDEyLjY0IDQ2LjY5IEwgMTIuNjMgNDYuNjMgTCAxMi42MiA0Ni41OCBMIDEyLjYxIDQ2LjUyIEwgMTIuNjEgNDYuNDYgTCAxMi42MSA0Ni40IEwgMTIuNjEgMzYuNCBMIDEyLjYxIDM2LjM1IEwgMTIuNjEgMzYuMyBMIDEyLjYyIDM2LjI1IEwgMTIuNjMgMzYuMiBMIDEyLjY0IDM2LjE1IEwgMTIuNjUgMzYuMSBMIDEyLjY2IDM2LjA1IEwgMTIuNjcgMzYgTCAxMi42OSAzNS45NSBMIDEyLjcxIDM1LjkxIEwgMTIuNzMgMzUuODYgTCAxMi43NSAzNS44MSBMIDEyLjc3IDM1Ljc3IEwgMTIuOCAzNS43MiBMIDEyLjgyIDM1LjY3IEwgMTIuODUgMzUuNjMgTCAxMi44OCAzNS41OSBMIDEyLjkxIDM1LjU0IEwgMTIuOTUgMzUuNSBMIDEyLjk4IDM1LjQ2IEwgMTMuMDIgMzUuNDIgTCAxMy4wNiAzNS4zOCBMIDEzLjA5IDM1LjM0IEwgMTMuMTQgMzUuMyBMIDEzLjE4IDM1LjI3IEwgMTMuMjIgMzUuMjMgTCAxMy4yNyAzNS4yIEwgMTMuMzEgMzUuMTYgTCAxMy4zNiAzNS4xMyBMIDEzLjQxIDM1LjEgTCAxMy40NiAzNS4wNyBMIDEzLjUxIDM1LjA0IEwgMTMuNTYgMzUuMDEgTCAxMy42MSAzNC45OCBMIDEzLjY2IDM0Ljk1IEwgMTMuNzEgMzQuOTIgTCAxMy43NiAzNC44OSBMIDEzLjgxIDM0Ljg2IEwgMTMuODYgMzQuODMgTCAxMy45MSAzNC44IEwgMTMuOTYgMzQuNzcgTCAxNC4wMSAzNC43NSBMIDE0LjA2IDM0LjcyIEwgMTQuMTEgMzQuNjkgTCAxNC4xNiAzNC42NiBMIDE0LjIxIDM0LjYzIEwgMTQuMjYgMzQuNjEgTCAxNC4zMSAzNC41OCBMIDE0LjM2IDM0LjU1IEwgMTQuNDEgMzQuNTMgTCAxNC40NiAzNC41IEwgMTQuNTEgMzQuNDggTCAxNC41NiAzNC40NSBMIDE0LjYxIDM0LjQzIEwgMTQuNjYgMzQuNDEgTCAxNC43MSAzNC4zOCBMIDE0Ljc2IDM0LjM2IEwgMTQuODEgMzQuMzQgTCAxNC44NiAzNC4zMiBMIDE0LjkxIDM0LjMgTCAxNC45MiAzNC4yOSBMIDE0LjkzIDM0LjI4IEwgMTQuOTQgMzQuMjcgTCAxNC45NSAzNC4yNiBMIDE0Ljk2IDM0LjI1IEwgMTQuOTcgMzQuMjQgTCAxNC45OCAzNC4yMyBMIDE0Ljk5IDM0LjIyIEwgMTUgMzQuMjEgTCAxNS4wMSAzNC4yIEwgMTUuMDIgMzQuMTggTCAxNS4wMiAzNC4xNyBMIDE1LjAzIDM0LjE2IEwgMTUuMDQgMzQuMTUgTCAxNS4wNSAzNC4xNCBMIDE1LjA2IDM0LjEyIEwgMTUuMDYgMzQuMTEgTCAxNS4wNyAzNC4xIEwgMTUuMDggMzQuMDggTCAxNS4wOCAzNC4wNyBMIDE1LjA5IDM0LjA2IEwgMTUuMDkgMzQuMDQgTCAxNS4xIDM0LjAyIEwgMTUuMSAzNC4wMSBMIDE1LjEgMzMuOTkgTCAxNS4xMSAzMy45NyBMIDE1LjExIDMzLjk2IEwgMTUuMTEgMzMuOTQgTCAxNS4xMSAzMy45MiBMIDE1LjExIDMzLjkgTCAxNS4xMSAyMy43IEwgMTUuMTIgMjMuNjUgTCAxNS4xMyAyMy42IEwgMTUuMTUgMjMuNTUgTCAxNS4xNiAyMy41IEwgMTUuMTggMjMuNDUgTCAxNS4xOSAyMy40IEwgMTUuMjEgMjMuMzUgTCAxNS4yMyAyMy4zIEwgMTUuMjUgMjMuMjYgTCAxNS4yOCAyMy4yMSBMIDE1LjMgMjMuMTYgTCAxNS4zMyAyMy4xMiBMIDE1LjM1IDIzLjA3IEwgMTUuMzggMjMuMDMgTCAxNS40MSAyMi45OSBMIDE1LjQ0IDIyLjk0IEwgMTUuNDcgMjIuOSBMIDE1LjUxIDIyLjg2IEwgMTUuNTQgMjIuODMgTCAxNS41OCAyMi43OSBMIDE1LjYxIDIyLjc1IEwgMTUuNjUgMjIuNzIgTCAxNS42OSAyMi42OCBMIDE1LjczIDIyLjY1IEwgMTUuNzggMjIuNjIgTCAxNS44MiAyMi41OSBMIDE1Ljg3IDIyLjU3IEwgMTUuOTEgMjIuNTQgTCAxNS45NiAyMi41MiBMIDE2LjAxIDIyLjUgTCAyNC41MSAxNy43IEwgMjQuNTMgMTcuNjkgTCAyNC41NSAxNy42OCBMIDI0LjU3IDE3LjY3IEwgMjQuNTggMTcuNjYgTCAyNC42IDE3LjY1IEwgMjQuNjEgMTcuNjQgTCAyNC42MiAxNy42MyBMIDI0LjYzIDE3LjYyIEwgMjQuNjQgMTcuNjEgTCAyNC42NSAxNy42IEwgMjQuNjYgMTcuNTggTCAyNC42NyAxNy41NyBMIDI0LjY3IDE3LjU2IEwgMjQuNjggMTcuNTUgTCAyNC42OSAxNy41NCBMIDI0LjY5IDE3LjUyIEwgMjQuNjkgMTcuNTEgTCAyNC43IDE3LjUgTCAyNC43IDE3LjQ4IEwgMjQuNyAxNy40NyBMIDI0LjcxIDE3LjQ2IEwgMjQuNzEgMTcuNDQgTCAyNC43MSAxNy40MiBMIDI0LjcxIDE3LjQxIEwgMjQuNzEgMTcuMzkgTCAyNC43MSAxNy4zNyBMIDI0LjcxIDE3LjM2IEwgMjQuNzEgMTcuMzQgTCAyNC43MSAxNy4zMiBMIDI0LjcxIDE1LjYgTCAyNC43MSAxNS41MyBMIDI0LjcyIDE1LjQ2IEwgMjQuNzIgMTUuMzkgTCAyNC43MyAxNS4zMiBMIDI0Ljc0IDE1LjI1IEwgMjQuNzYgMTUuMTggTCAyNC43NyAxNS4xMiBMIDI0Ljc5IDE1LjA1IEwgMjQuODEgMTQuOTggTCAyNC44NCAxNC45MiBMIDI0Ljg2IDE0Ljg1IEwgMjQuODkgMTQuNzkgTCAyNC45MiAxNC43MyBMIDI0Ljk1IDE0LjY3IEwgMjQuOTkgMTQuNjEgTCAyNS4wMiAxNC41NiBMIDI1LjA2IDE0LjUgTCAyNS4xIDE0LjQ1IEwgMjUuMTQgMTQuNCBMIDI1LjE5IDE0LjM1IEwgMjUuMjMgMTQuMyBMIDI1LjI4IDE0LjI2IEwgMjUuMzMgMTQuMjEgTCAyNS4zOCAxNC4xOCBMIDI1LjQzIDE0LjE0IEwgMjUuNDggMTQuMSBMIDI1LjU0IDE0LjA3IEwgMjUuNTkgMTQuMDUgTCAyNS42NSAxNC4wMiBMIDI1LjcxIDE0IEwgMzEuNzEgMTAuNiBMIDMxLjc3IDEwLjU1IEwgMzEuODQgMTAuNSBMIDMxLjkxIDEwLjQ1IEwgMzEuOTggMTAuNCBMIDMyLjA1IDEwLjM1IEwgMzIuMTMgMTAuMyBMIDMyLjIxIDEwLjI1IEwgMzIuMjkgMTAuMiBMIDMyLjM3IDEwLjE1IEwgMzIuNDYgMTAuMSBMIDMyLjU0IDEwLjA0IEwgMzIuNjMgOS45OSBMIDMyLjcyIDkuOTQgTCAzMi44MiA5Ljg5IEwgMzIuOTEgOS44NCBMIDMzLjAxIDkuNzggTCAzMy4xIDkuNzMgTCAzMy4yIDkuNjggTCAzMy4zIDkuNjIgTCAzMy40IDkuNTcgTCAzMy41IDkuNTIgTCAzMy42IDkuNDYgTCAzMy43IDkuNCBMIDMzLjggOS4zNSBMIDMzLjkxIDkuMjkgTCAzNC4wMSA5LjIzIEwgMzQuMTEgOS4xOCBMIDM0LjIxIDkuMTIgTCAzNC4zMSA5LjA2IEwgMzQuNDEgOSBMIDM1LjAxIDkgTCAzNS4wMyA5LjAxIEwgMzUuMDUgOS4wMiBaIE0gMTguMTEgMjQuNyBMIDE4LjA5IDI0LjcyIEwgMTguMDggMjQuNzMgTCAxOC4wNyAyNC43NCBMIDE4LjA2IDI0Ljc1IEwgMTguMDUgMjQuNzYgTCAxOC4wNCAyNC43NyBMIDE4LjAzIDI0Ljc4IEwgMTguMDIgMjQuNzkgTCAxOC4wMiAyNC44IEwgMTguMDEgMjQuODEgTCAxOCAyNC44MiBMIDE3Ljk5IDI0LjgzIEwgMTcuOTkgMjQuODQgTCAxNy45OCAyNC44NSBMIDE3Ljk4IDI0Ljg2IEwgMTcuOTggMjQuODggTCAxNy45NyAyNC44OSBMIDE3Ljk3IDI0LjkgTCAxNy45NyAyNC45MSBMIDE3Ljk3IDI0LjkyIEwgMTcuOTcgMjQuOTMgTCAxNy45NyAyNC45NCBMIDE3Ljk4IDI0Ljk1IEwgMTcuOTggMjQuOTYgTCAxNy45OSAyNC45NyBMIDE3Ljk5IDI0Ljk4IEwgMTggMjQuOTkgTCAxOC4wMSAyNSBMIDE4LjAxIDMyLjUgTCAxOC4xMSAzMi40IEwgMjEuODEgMzAuMyBMIDIxLjg3IDMwLjI3IEwgMjEuOTIgMzAuMjQgTCAyMS45OCAzMC4yMiBMIDIyLjA0IDMwLjE5IEwgMjIuMDkgMzAuMTcgTCAyMi4xNSAzMC4xNSBMIDIyLjIxIDMwLjEzIEwgMjIuMjcgMzAuMTIgTCAyMi4zMyAzMC4xMSBMIDIyLjM5IDMwLjEgTCAyMi40NSAzMC4wOSBMIDIyLjUxIDMwLjA4IEwgMjIuNTcgMzAuMDggTCAyMi42MyAzMC4wNyBMIDIyLjY5IDMwLjA3IEwgMjIuNzUgMzAuMDggTCAyMi44MSAzMC4wOCBMIDIyLjg3IDMwLjA5IEwgMjIuOTMgMzAuMSBMIDIyLjk5IDMwLjExIEwgMjMuMDUgMzAuMTIgTCAyMy4xMSAzMC4xMyBMIDIzLjE3IDMwLjE1IEwgMjMuMjMgMzAuMTcgTCAyMy4yOSAzMC4xOSBMIDIzLjM0IDMwLjIyIEwgMjMuNCAzMC4yNCBMIDIzLjQ2IDMwLjI3IEwgMjMuNTEgMzAuMyBMIDMyLjExIDM1LjIgTCAzMi4xNyAzNS4yMyBMIDMyLjIzIDM1LjI3IEwgMzIuMjkgMzUuMyBMIDMyLjM0IDM1LjM0IEwgMzIuMzkgMzUuMzggTCAzMi40NCAzNS40MiBMIDMyLjQ5IDM1LjQ2IEwgMzIuNTQgMzUuNTEgTCAzMi41OCAzNS41NiBMIDMyLjYyIDM1LjYgTCAzMi42NiAzNS42NSBMIDMyLjcgMzUuNyBMIDMyLjc0IDM1Ljc2IEwgMzIuNzcgMzUuODEgTCAzMi44IDM1Ljg2IEwgMzIuODMgMzUuOTIgTCAzMi44NiAzNS45OCBMIDMyLjg4IDM2LjAzIEwgMzIuOSAzNi4wOSBMIDMyLjkyIDM2LjE1IEwgMzIuOTQgMzYuMjEgTCAzMi45NiAzNi4yNyBMIDMyLjk3IDM2LjMzIEwgMzIuOTggMzYuMzkgTCAzMi45OSAzNi40NSBMIDMzIDM2LjUxIEwgMzMuMDEgMzYuNTggTCAzMy4wMSAzNi42NCBMIDMzLjAxIDM2LjcgTCAzMy4wMSA0Ni41IEwgMzMuMDEgNDYuNTYgTCAzMy4wMSA0Ni42MiBMIDMzIDQ2LjY5IEwgMzIuOTkgNDYuNzUgTCAzMi45OCA0Ni44MSBMIDMyLjk3IDQ2Ljg3IEwgMzIuOTYgNDYuOTMgTCAzMi45NCA0Ni45OSBMIDMyLjkyIDQ3LjA1IEwgMzIuOSA0Ny4xMSBMIDMyLjg4IDQ3LjE3IEwgMzIuODYgNDcuMjIgTCAzMi44MyA0Ny4yOCBMIDMyLjggNDcuMzMgTCAzMi43NyA0Ny4zOSBMIDMyLjc0IDQ3LjQ0IEwgMzIuNyA0Ny40OSBMIDMyLjY2IDQ3LjU0IEwgMzIuNjIgNDcuNTkgTCAzMi41OCA0Ny42NCBMIDMyLjU0IDQ3LjY5IEwgMzIuNDkgNDcuNzMgTCAzMi40NCA0Ny43OCBMIDMyLjM5IDQ3LjgyIEwgMzIuMzQgNDcuODYgTCAzMi4yOSA0Ny45IEwgMzIuMjMgNDcuOTMgTCAzMi4xNyA0Ny45NyBMIDMyLjExIDQ4IEwgMjguNjEgNTAgTCAyOC40MSA1MC4xIEwgMjguNTEgNTAuMiBMIDM0LjYxIDUzLjcgTCAzNC42MiA1My43MSBMIDM0LjYzIDUzLjcyIEwgMzQuNjQgNTMuNzMgTCAzNC42NSA1My43MyBMIDM0LjY2IDUzLjc0IEwgMzQuNjcgNTMuNzUgTCAzNC42OCA1My43NSBMIDM0LjY5IDUzLjc2IEwgMzQuNyA1My43NiBMIDM0LjcxIDUzLjc3IEwgMzQuNzIgNTMuNzcgTCAzNC43NCA1My43NyBMIDM0Ljc1IDUzLjc3IEwgMzQuNzYgNTMuNzcgTCAzNC43NyA1My43NyBMIDM0Ljc4IDUzLjc3IEwgMzQuNzkgNTMuNzcgTCAzNC44IDUzLjc3IEwgMzQuODEgNTMuNzcgTCAzNC44MiA1My43NiBMIDM0LjgzIDUzLjc2IEwgMzQuODQgNTMuNzUgTCAzNC44NSA1My43NSBMIDM0Ljg2IDUzLjc0IEwgMzQuODcgNTMuNzMgTCAzNC44OCA1My43MyBMIDM0Ljg5IDUzLjcyIEwgMzQuOSA1My43MSBMIDM0LjkxIDUzLjcgTCA0MC45MSA1MC4zIEwgNDEuMTEgNTAuMiBMIDQwLjkxIDUwLjEgTCAzNy40MSA0OC4xIEwgMzcuMzUgNDguMDcgTCAzNy4yOSA0OC4wMyBMIDM3LjIzIDQ4IEwgMzcuMTggNDcuOTYgTCAzNy4xMyA0Ny45MiBMIDM3LjA4IDQ3Ljg4IEwgMzcuMDMgNDcuODMgTCAzNi45OCA0Ny43OSBMIDM2Ljk0IDQ3Ljc0IEwgMzYuOSA0Ny42OSBMIDM2Ljg2IDQ3LjY0IEwgMzYuODIgNDcuNTkgTCAzNi43OCA0Ny41MyBMIDM2Ljc1IDQ3LjQ4IEwgMzYuNzIgNDcuNDIgTCAzNi42OSA0Ny4zNiBMIDM2LjY3IDQ3LjMgTCAzNi42NCA0Ny4yNCBMIDM2LjYyIDQ3LjE4IEwgMzYuNiA0Ny4xMiBMIDM2LjU4IDQ3LjA1IEwgMzYuNTYgNDYuOTkgTCAzNi41NSA0Ni45MiBMIDM2LjU0IDQ2Ljg1IEwgMzYuNTMgNDYuNzggTCAzNi41MiA0Ni43MSBMIDM2LjUyIDQ2LjY0IEwgMzYuNTEgNDYuNTcgTCAzNi41MSA0Ni41IEwgMzYuNTEgMzYuOCBMIDM2LjUxIDM2LjczIEwgMzYuNTIgMzYuNjYgTCAzNi41MiAzNi41OSBMIDM2LjUzIDM2LjUyIEwgMzYuNTQgMzYuNDUgTCAzNi41NSAzNi4zOCBMIDM2LjU2IDM2LjMxIEwgMzYuNTggMzYuMjUgTCAzNi42IDM2LjE4IEwgMzYuNjIgMzYuMTIgTCAzNi42NCAzNi4wNiBMIDM2LjY3IDM2IEwgMzYuNjkgMzUuOTQgTCAzNi43MiAzNS44OCBMIDM2Ljc1IDM1LjgyIEwgMzYuNzggMzUuNzcgTCAzNi44MiAzNS43MSBMIDM2Ljg2IDM1LjY2IEwgMzYuOSAzNS42MSBMIDM2Ljk0IDM1LjU2IEwgMzYuOTggMzUuNTEgTCAzNy4wMyAzNS40NyBMIDM3LjA4IDM1LjQyIEwgMzcuMTMgMzUuMzggTCAzNy4xOCAzNS4zNCBMIDM3LjIzIDM1LjMgTCAzNy4yOSAzNS4yNyBMIDM3LjM1IDM1LjIzIEwgMzcuNDEgMzUuMiBMIDQ1LjkxIDMwLjQgTCA0NS45NyAzMC4zNiBMIDQ2LjAzIDMwLjMyIEwgNDYuMDkgMzAuMjkgTCA0Ni4xNiAzMC4yNiBMIDQ2LjIyIDMwLjIzIEwgNDYuMjkgMzAuMiBMIDQ2LjM1IDMwLjE4IEwgNDYuNDIgMzAuMTYgTCA0Ni40OSAzMC4xNCBMIDQ2LjU1IDMwLjEzIEwgNDYuNjIgMzAuMTIgTCA0Ni42OSAzMC4xMSBMIDQ2Ljc2IDMwLjEgTCA0Ni44MyAzMC4xIEwgNDYuOSAzMC4xIEwgNDYuOTYgMzAuMSBMIDQ3LjAzIDMwLjExIEwgNDcuMSAzMC4xMiBMIDQ3LjE3IDMwLjEzIEwgNDcuMjQgMzAuMTQgTCA0Ny4zIDMwLjE2IEwgNDcuMzcgMzAuMTggTCA0Ny40NCAzMC4yIEwgNDcuNSAzMC4yMyBMIDQ3LjU3IDMwLjI2IEwgNDcuNjMgMzAuMjkgTCA0Ny42OSAzMC4zMiBMIDQ3Ljc1IDMwLjM2IEwgNDcuODEgMzAuNCBMIDUxLjQxIDMyLjUgTCA1MS42MSAzMi42IEwgNTEuNjEgMjUuMyBMIDUxLjYxIDI1LjI5IEwgNTEuNjEgMjUuMjggTCA1MS42MSAyNS4yNyBMIDUxLjYxIDI1LjI1IEwgNTEuNiAyNS4yNCBMIDUxLjYgMjUuMjMgTCA1MS41OSAyNS4yMSBMIDUxLjU5IDI1LjIgTCA1MS41OSAyNS4xOSBMIDUxLjU4IDI1LjE3IEwgNTEuNTcgMjUuMTYgTCA1MS41NyAyNS4xNSBMIDUxLjU2IDI1LjEzIEwgNTEuNTUgMjUuMTIgTCA1MS41NCAyNS4xMSBMIDUxLjU0IDI1LjA5IEwgNTEuNTMgMjUuMDggTCA1MS41MiAyNS4wNyBMIDUxLjUxIDI1LjA2IEwgNTEuNSAyNS4wNSBMIDUxLjQ5IDI1LjA0IEwgNTEuNDggMjUuMDMgTCA1MS40NyAyNS4wMiBMIDUxLjQ2IDI1LjAyIEwgNTEuNDUgMjUuMDEgTCA1MS40NCAyNS4wMSBMIDUxLjQzIDI1IEwgNTEuNDIgMjUgTCA1MS40MSAyNSBMIDQ1LjIxIDIxLjQgTCA0NS4wMSAyMS4zIEwgNDUuMDEgMjUuNCBMIDQ1LjAxIDI1LjQ2IEwgNDUuMDEgMjUuNTIgTCA0NSAyNS41OSBMIDQ0Ljk5IDI1LjY1IEwgNDQuOTggMjUuNzEgTCA0NC45NyAyNS43NyBMIDQ0Ljk2IDI1LjgzIEwgNDQuOTQgMjUuODkgTCA0NC45MiAyNS45NSBMIDQ0LjkgMjYuMDEgTCA0NC44OCAyNi4wNyBMIDQ0Ljg2IDI2LjEyIEwgNDQuODMgMjYuMTggTCA0NC44IDI2LjIzIEwgNDQuNzcgMjYuMjkgTCA0NC43NCAyNi4zNCBMIDQ0LjcgMjYuMzkgTCA0NC42NiAyNi40NCBMIDQ0LjYyIDI2LjQ5IEwgNDQuNTggMjYuNTQgTCA0NC41NCAyNi41OSBMIDQ0LjQ5IDI2LjYzIEwgNDQuNDQgMjYuNjggTCA0NC4zOSAyNi43MiBMIDQ0LjM0IDI2Ljc2IEwgNDQuMjkgMjYuOCBMIDQ0LjIzIDI2LjgzIEwgNDQuMTcgMjYuODcgTCA0NC4xMSAyNi45IEwgMzUuNjEgMzEuOCBMIDM1LjU2IDMxLjgzIEwgMzUuNSAzMS44NiBMIDM1LjQ1IDMxLjg4IEwgMzUuMzkgMzEuOTEgTCAzNS4zNCAzMS45MyBMIDM1LjI4IDMxLjk1IEwgMzUuMjIgMzEuOTYgTCAzNS4xNiAzMS45OCBMIDM1LjEgMzEuOTkgTCAzNS4wMyAzMiBMIDM0Ljk3IDMyLjAxIEwgMzQuOTEgMzIuMDIgTCAzNC44NSAzMi4wMiBMIDM0Ljc4IDMyLjAyIEwgMzQuNzIgMzIuMDIgTCAzNC42NSAzMi4wMiBMIDM0LjU5IDMyLjAyIEwgMzQuNTIgMzIuMDEgTCAzNC40NiAzMiBMIDM0LjM5IDMxLjk5IEwgMzQuMzIgMzEuOTggTCAzNC4yNiAzMS45NiBMIDM0LjE5IDMxLjk1IEwgMzQuMTMgMzEuOTMgTCAzNC4wNiAzMS45MSBMIDM0IDMxLjg4IEwgMzMuOTQgMzEuODYgTCAzMy44NyAzMS44MyBMIDMzLjgxIDMxLjggTCAyNS4zMSAyNi45IEwgMjUuMjUgMjYuODcgTCAyNS4xOSAyNi44MyBMIDI1LjEzIDI2LjggTCAyNS4wOCAyNi43NiBMIDI1LjAzIDI2LjcyIEwgMjQuOTggMjYuNjggTCAyNC45MyAyNi42MyBMIDI0Ljg4IDI2LjU5IEwgMjQuODQgMjYuNTQgTCAyNC44IDI2LjQ5IEwgMjQuNzYgMjYuNDQgTCAyNC43MiAyNi4zOSBMIDI0LjY4IDI2LjM0IEwgMjQuNjUgMjYuMjkgTCAyNC42MiAyNi4yMyBMIDI0LjU5IDI2LjE4IEwgMjQuNTcgMjYuMTIgTCAyNC41NCAyNi4wNyBMIDI0LjUyIDI2LjAxIEwgMjQuNSAyNS45NSBMIDI0LjQ4IDI1Ljg5IEwgMjQuNDYgMjUuODMgTCAyNC40NSAyNS43NyBMIDI0LjQ0IDI1LjcxIEwgMjQuNDMgMjUuNjUgTCAyNC40MiAyNS41OSBMIDI0LjQyIDI1LjUyIEwgMjQuNDEgMjUuNDYgTCAyNC40MSAyNS40IEwgMjQuNDEgMjEuMiBMIDI0LjMxIDIxLjIgTCAxOC4xMSAyNC43IFogTSAxNS41MiA0NS43NiBMIDE1LjU1IDQ1LjgxIEwgMTUuNTggNDUuODYgTCAxNS42IDQ1Ljg5IEwgMTUuNjEgNDUuOSBMIDE2LjczIDQ2LjU0IEwgMTcuODEgNDcuMTYgTCAyMS4wMSA0OSBMIDIxLjIxIDQ5LjEgTCAyMS4yMSA0Mi45IEwgMjEuMiA0Mi44MyBMIDIxLjE3IDQyLjc1IEwgMjEuMTIgNDIuNjggTCAyMS4wNyA0Mi42MiBMIDIxLjAxIDQyLjYgTCAxOS45MSA0MS45OCBMIDE4Ljg1IDQxLjM4IEwgMTUuNzEgMzkuNiBMIDE1LjUxIDM5LjMgTCAxNS41MSA0NS43IEwgMTUuNTIgNDUuNzYgWiBNIDQ4LjUxIDQyLjQgTCA0OC40NSA0Mi40NiBMIDQ4LjQgNDIuNTIgTCA0OC4zNSA0Mi41OCBMIDQ4LjMyIDQyLjY0IEwgNDguMzEgNDIuNyBMIDQ4LjMxIDQ5IEwgNDguNTEgNDguOSBMIDUzLjgxIDQ1LjkgTCA1My44NyA0NS44NCBMIDUzLjkyIDQ1Ljc4IEwgNTMuOTcgNDUuNzIgTCA1NCA0NS42NiBMIDU0LjAxIDQ1LjYgTCA1NC4wMSAzOS4zIEwgNTMuODEgMzkuNCBMIDQ4LjUxIDQyLjQgWiBNIDI0LjQxIDQyLjQgTCAyNC4zNSA0Mi40NiBMIDI0LjMgNDIuNTIgTCAyNC4yNSA0Mi41OCBMIDI0LjIyIDQyLjY0IEwgMjQuMjEgNDIuNyBMIDI0LjIxIDQ5IEwgMjQuNDEgNDguOSBMIDI5LjgxIDQ1LjggTCAyOS44NyA0NS43NCBMIDI5LjkyIDQ1LjY4IEwgMjkuOTcgNDUuNjIgTCAzMCA0NS41NiBMIDMwLjAxIDQ1LjUgTCAzMC4wMSAzOS4zIEwgMjkuNzEgMzkuNCBMIDI0LjQxIDQyLjQgWiBNIDM5LjUyIDQ1LjY3IEwgMzkuNTUgNDUuNzUgTCAzOS42IDQ1LjgyIEwgMzkuNjUgNDUuODggTCAzOS43MSA0NS45IEwgNDUuMDEgNDguOSBMIDQ1LjIxIDQ5IEwgNDUuMjEgNDIuNyBMIDQ1LjIgNDIuNjQgTCA0NS4xNyA0Mi41OCBMIDQ1LjEyIDQyLjUyIEwgNDUuMDcgNDIuNDYgTCA0NS4wMSA0Mi40IEwgNDMuMjIgNDEuMzggTCA0Mi4wNSA0MC43MiBMIDQwLjYxIDM5LjkgTCAzOS41MSAzOS4zIEwgMzkuNTEgNDUuNiBMIDM5LjUyIDQ1LjY3IFogTSA0Ni42NyAzMy4zNSBMIDQ2LjYxIDMzLjQgTCA0NS40OSAzNC4wNCBMIDQ0LjQxIDM0LjY2IEwgNDEuMjEgMzYuNSBMIDQxLjExIDM2LjYgTCA0MS4yMSAzNi43IEwgNDYuNjEgMzkuOCBMIDQ2LjY3IDM5Ljg1IEwgNDYuNzMgMzkuODcgTCA0Ni43OSAzOS44NyBMIDQ2Ljg1IDM5Ljg1IEwgNDYuOTEgMzkuOCBMIDQ3LjcgMzkuMzQgTCA0OC40NiAzOC45IEwgNTAuNzEgMzcuNiBMIDUyLjQxIDM2LjYgTCA0OS4xNSAzNC43IEwgNDguMDUgMzQuMDYgTCA0Ni45MSAzMy40IEwgNDYuODUgMzMuMzUgTCA0Ni43OSAzMy4zMyBMIDQ2LjczIDMzLjMzIEwgNDYuNjcgMzMuMzUgWiBNIDIyLjY3IDMzLjM1IEwgMjIuNjEgMzMuNCBMIDE3LjkxIDM2LjEgTCAxNy4xMSAzNi42IEwgMjIuNjEgMzkuOCBMIDIyLjkxIDM5LjggTCAyOC4yMSAzNi44IEwgMjguNDEgMzYuNyBMIDI4LjMxIDM2LjUgTCAyNS4xMSAzNC42NiBMIDI0LjAzIDM0LjA0IEwgMjIuOTEgMzMuNCBMIDIyLjg1IDMzLjM1IEwgMjIuNzkgMzMuMzMgTCAyMi43MyAzMy4zMyBMIDIyLjY3IDMzLjM1IFogTSAyNy41MiAyNC41NyBMIDI3LjU1IDI0LjY1IEwgMjcuNiAyNC43MiBMIDI3LjY1IDI0Ljc4IEwgMjcuNzEgMjQuOCBMIDMzLjAxIDI3LjggTCAzMy4yMSAyNy45IEwgMzMuMjEgMjEuNiBMIDMzLjIgMjEuNTQgTCAzMy4xNyAyMS40OCBMIDMzLjEyIDIxLjQyIEwgMzMuMDcgMjEuMzYgTCAzMy4wMSAyMS4zIEwgMzIuMSAyMC43OCBMIDMxLjIyIDIwLjI4IEwgMzAuMDUgMTkuNjIgTCAyOC42MSAxOC44IEwgMjcuNTEgMTguMiBMIDI3LjUxIDI0LjUgTCAyNy41MiAyNC41NyBaIE0gMzYuNTEgMjEuMyBMIDM2LjQ1IDIxLjM2IEwgMzYuNCAyMS40MiBMIDM2LjM1IDIxLjQ4IEwgMzYuMzIgMjEuNTQgTCAzNi4zMSAyMS42IEwgMzYuMzEgMjcuOSBMIDM2LjUxIDI3LjggTCA0MS44MSAyNC44IEwgNDEuODcgMjQuNzQgTCA0MS45MiAyNC42OCBMIDQxLjk3IDI0LjYyIEwgNDIgMjQuNTYgTCA0Mi4wMSAyNC41IEwgNDIuMDEgMTguMiBMIDQxLjgxIDE4LjMgTCAzNi41MSAyMS4zIFogTSAzNC41NyAxMi4zNSBMIDM0LjUxIDEyLjQgTCAzMC45MSAxNC41IEwgMjkuMTEgMTUuNSBMIDMyLjM3IDE3LjM5IEwgMzMuNDcgMTguMDMgTCAzNC42MSAxOC43IEwgMzQuNjcgMTguNzUgTCAzNC43MyAxOC43NyBMIDM0Ljc5IDE4Ljc3IEwgMzQuODUgMTguNzUgTCAzNC45MSAxOC43IEwgNDAuMjEgMTUuNyBMIDQwLjQxIDE1LjYgTCA0MC4yMSAxNS41IEwgMzcuMDEgMTMuNjYgTCAzNS45MyAxMy4wNCBMIDM0LjgxIDEyLjQgTCAzNC43NSAxMi4zNSBMIDM0LjY5IDEyLjMzIEwgMzQuNjMgMTIuMzMgTCAzNC41NyAxMi4zNSBaIiBzdHlsZT0iZmlsbDogcmdiKDI1NSwgMjU1LCAyNTUpOyIvPiYjeGE7ICAgIDxnPiYjeGE7ICAgICAgPHBhdGggZD0iTSAzNS4wNSA5LjAyIEwgMzUuMDcgOS4wMyBMIDM1LjEgOS4wNCBMIDM1LjEyIDkuMDUgTCAzNS4xNCA5LjA2IEwgMzUuMTYgOS4wNyBMIDM1LjE5IDkuMDggTCAzNS4yMSA5LjA5IEwgMzUuMjQgOS4xIEwgMzUuMjYgOS4xMSBMIDM1LjI5IDkuMTIgTCAzNS4zMSA5LjEzIEwgMzUuMzkgOS4xNiBMIDM1LjQxIDkuMTcgTCAzNS40NCA5LjE4IEwgMzUuNDYgOS4xOSBMIDM1LjQ5IDkuMiBMIDM1LjUxIDkuMjEgTCAzNS41MyA5LjIyIEwgMzUuNTYgOS4yMyBMIDM1LjU4IDkuMjQgTCAzNS42IDkuMjUgTCAzNS42MyA5LjI2IEwgMzUuNjUgOS4yNyBMIDM1LjY3IDkuMjggTCAzNS42OSA5LjI5IEwgMzUuNzEgOS4zIEwgMzcuNTEgMTAuMyBMIDQ0LjIxIDE0LjEgTCA0NC4yNyAxNC4xMyBMIDQ0LjMzIDE0LjE2IEwgNDQuMzggMTQuMiBMIDQ0LjQzIDE0LjIzIEwgNDQuNDkgMTQuMjcgTCA0NC41MyAxNC4zMSBMIDQ0LjU4IDE0LjM1IEwgNDQuNjMgMTQuNCBMIDQ0LjY3IDE0LjQ0IEwgNDQuNzEgMTQuNDkgTCA0NC43NSAxNC41NCBMIDQ0Ljc5IDE0LjU4IEwgNDQuODIgMTQuNjMgTCA0NC44NSAxNC42OCBMIDQ0Ljg5IDE0Ljc0IEwgNDQuOTEgMTQuNzkgTCA0NC45NCAxNC44NCBMIDQ0Ljk3IDE0LjkgTCA0NC45OSAxNC45NSBMIDQ1LjAxIDE1LjAxIEwgNDUuMDMgMTUuMDcgTCA0NS4wNSAxNS4xMiBMIDQ1LjA2IDE1LjE4IEwgNDUuMDcgMTUuMjQgTCA0NS4wOSAxNS4zIEwgNDUuMDkgMTUuMzYgTCA0NS4xIDE1LjQyIEwgNDUuMTEgMTUuNDggTCA0NS4xMSAxNS41NCBMIDQ1LjExIDE1LjYgTCA0NS4xMSAxNy40IEwgNDUuMTEgMTcuNDEgTCA0NS4xMSAxNy40MiBMIDQ1LjExIDE3LjQzIEwgNDUuMTIgMTcuNDQgTCA0NS4xMiAxNy40NiBMIDQ1LjEyIDE3LjQ3IEwgNDUuMTMgMTcuNDggTCA0NS4xMyAxNy40OSBMIDQ1LjE0IDE3LjUxIEwgNDUuMTQgMTcuNTIgTCA0NS4xNSAxNy41MyBMIDQ1LjE1IDE3LjU1IEwgNDUuMTYgMTcuNTYgTCA0NS4xNyAxNy41NyBMIDQ1LjE3IDE3LjU5IEwgNDUuMTggMTcuNiBMIDQ1LjE5IDE3LjYxIEwgNDUuMiAxNy42MiBMIDQ1LjIxIDE3LjYzIEwgNDUuMjEgMTcuNjQgTCA0NS4yMiAxNy42NSBMIDQ1LjIzIDE3LjY2IEwgNDUuMjQgMTcuNjcgTCA0NS4yNSAxNy42OCBMIDQ1LjI2IDE3LjY4IEwgNDUuMjcgMTcuNjkgTCA0NS4yOCAxNy42OSBMIDQ1LjI5IDE3LjcgTCA0NS4zIDE3LjcgTCA0NS4zMSAxNy43IEwgNTMuNzEgMjIuNSBMIDUzLjc3IDIyLjUzIEwgNTMuODMgMjIuNTYgTCA1My44OSAyMi42IEwgNTMuOTQgMjIuNjQgTCA1NCAyMi42NyBMIDU0LjA1IDIyLjcxIEwgNTQuMSAyMi43NiBMIDU0LjE1IDIyLjggTCA1NC4yIDIyLjg1IEwgNTQuMjQgMjIuOSBMIDU0LjI5IDIyLjk0IEwgNTQuMzMgMjMgTCA1NC4zNyAyMy4wNSBMIDU0LjQgMjMuMSBMIDU0LjQ0IDIzLjE2IEwgNTQuNDcgMjMuMjEgTCA1NC41MSAyMy4yNyBMIDU0LjU0IDIzLjMzIEwgNTQuNTYgMjMuMzkgTCA1NC41OSAyMy40NSBMIDU0LjYxIDIzLjUxIEwgNTQuNjMgMjMuNTcgTCA1NC42NSAyMy42NCBMIDU0LjY3IDIzLjcgTCA1NC42OCAyMy43NyBMIDU0LjY5IDIzLjgzIEwgNTQuNyAyMy45IEwgNTQuNzEgMjMuOTYgTCA1NC43MSAyNC4wMyBMIDU0LjcxIDI0LjEgTCA1NC43MSAzMy45IEwgNTQuNzEgMzMuOTEgTCA1NC43MSAzMy45MiBMIDU0LjcxIDMzLjkzIEwgNTQuNzIgMzMuOTQgTCA1NC43MiAzMy45NSBMIDU0LjcyIDMzLjk2IEwgNTQuNzMgMzMuOTcgTCA1NC43MyAzMy45OCBMIDU0Ljc0IDMzLjk5IEwgNTQuNzQgMzQgTCA1NC43NSAzNC4wMSBMIDU0Ljc1IDM0LjAyIEwgNTQuNzYgMzQuMDMgTCA1NC43NyAzNC4wNCBMIDU0Ljc3IDM0LjA1IEwgNTQuNzggMzQuMDYgTCA1NC43OSAzNC4wNyBMIDU0LjggMzQuMDggTCA1NC44MSAzNC4wOSBMIDU0LjgxIDM0LjEgTCA1NC44MiAzNC4xMSBMIDU0LjgzIDM0LjEyIEwgNTQuODQgMzQuMTMgTCA1NC44NSAzNC4xNCBMIDU0Ljg2IDM0LjE1IEwgNTQuODcgMzQuMTYgTCA1NC44OCAzNC4xNyBMIDU0LjkxIDM0LjIgTCA1Ni4zMSAzNSBMIDU2LjM3IDM1LjAzIEwgNTYuNDMgMzUuMDYgTCA1Ni40OCAzNS4xIEwgNTYuNTQgMzUuMTMgTCA1Ni41OSAzNS4xNyBMIDU2LjY0IDM1LjIxIEwgNTYuNjkgMzUuMjYgTCA1Ni43NCAzNS4zIEwgNTYuNzkgMzUuMzQgTCA1Ni44MyAzNS4zOSBMIDU2Ljg4IDM1LjQ0IEwgNTYuOTIgMzUuNDkgTCA1Ni45NSAzNS41NCBMIDU2Ljk5IDM1LjU5IEwgNTcuMDIgMzUuNjUgTCA1Ny4wNSAzNS43IEwgNTcuMDggMzUuNzYgTCA1Ny4xMSAzNS44MiBMIDU3LjEzIDM1Ljg4IEwgNTcuMTYgMzUuOTQgTCA1Ny4xNyAzNiBMIDU3LjE5IDM2LjA2IEwgNTcuMiAzNi4xMyBMIDU3LjIxIDM2LjE5IEwgNTcuMjIgMzYuMjYgTCA1Ny4yMyAzNi4zMyBMIDU3LjIzIDM2LjM5IEwgNTcuMjIgMzYuNDYgTCA1Ny4yMiAzNi41MyBMIDU3LjIxIDM2LjYgTCA1Ny4yMSA0Ni4zIEwgNTcuMjEgNDYuMzcgTCA1Ny4yMSA0Ni40NCBMIDU3LjIgNDYuNTEgTCA1Ny4xOSA0Ni41NyBMIDU3LjE5IDQ2LjY0IEwgNTcuMTcgNDYuNzEgTCA1Ny4xNiA0Ni43NyBMIDU3LjE1IDQ2LjgzIEwgNTcuMTMgNDYuOSBMIDU3LjExIDQ2Ljk2IEwgNTcuMDkgNDcuMDIgTCA1Ny4wNyA0Ny4wOCBMIDU3LjA0IDQ3LjE0IEwgNTcuMDEgNDcuMTkgTCA1Ni45OSA0Ny4yNSBMIDU2Ljk1IDQ3LjMgTCA1Ni45MiA0Ny4zNiBMIDU2Ljg5IDQ3LjQxIEwgNTYuODUgNDcuNDYgTCA1Ni44MSA0Ny41MSBMIDU2Ljc3IDQ3LjU1IEwgNTYuNzMgNDcuNiBMIDU2LjY4IDQ3LjY0IEwgNTYuNjMgNDcuNjggTCA1Ni41OSA0Ny43MyBMIDU2LjUzIDQ3Ljc2IEwgNTYuNDggNDcuOCBMIDU2LjQzIDQ3Ljg0IEwgNTYuMzcgNDcuODcgTCA1Ni4zMSA0Ny45IEwgNDcuNzEgNTIuOCBMIDQ3LjY2IDUyLjgzIEwgNDcuNjEgNTIuODYgTCA0Ny41NiA1Mi44OCBMIDQ3LjUxIDUyLjkgTCA0Ny40NSA1Mi45MiBMIDQ3LjQgNTIuOTQgTCA0Ny4zNSA1Mi45NiBMIDQ3LjI5IDUyLjk4IEwgNDcuMjQgNTIuOTkgTCA0Ny4xOSA1MyBMIDQ3LjEzIDUzLjAxIEwgNDcuMDggNTMuMDIgTCA0Ny4wMiA1My4wMiBMIDQ2Ljk3IDUzLjAyIEwgNDYuOTEgNTMuMDIgTCA0Ni44NiA1My4wMiBMIDQ2LjggNTMuMDIgTCA0Ni43NSA1My4wMiBMIDQ2LjY5IDUzLjAxIEwgNDYuNjQgNTMgTCA0Ni41OCA1Mi45OSBMIDQ2LjUzIDUyLjk4IEwgNDYuNDcgNTIuOTYgTCA0Ni40MiA1Mi45NCBMIDQ2LjM3IDUyLjkyIEwgNDYuMzIgNTIuOSBMIDQ2LjI2IDUyLjg4IEwgNDYuMjEgNTIuODYgTCA0Ni4xNiA1Mi44MyBMIDQ2LjExIDUyLjggTCA0NC41MSA1MS45IEwgNDQuNSA1MS44OSBMIDQ0LjQ5IDUxLjg4IEwgNDQuNDggNTEuODcgTCA0NC40NyA1MS44NiBMIDQ0LjQ1IDUxLjg2IEwgNDQuNDQgNTEuODUgTCA0NC40MyA1MS44NSBMIDQ0LjQxIDUxLjg0IEwgNDQuNCA1MS44NCBMIDQ0LjM5IDUxLjgzIEwgNDQuMzcgNTEuODMgTCA0NC4zNiA1MS44MyBMIDQ0LjM0IDUxLjgzIEwgNDQuMzMgNTEuODIgTCA0NC4zMSA1MS44MiBMIDQ0LjMgNTEuODIgTCA0NC4yOCA1MS44MyBMIDQ0LjI3IDUxLjgzIEwgNDQuMjUgNTEuODMgTCA0NC4yNCA1MS44MyBMIDQ0LjIyIDUxLjg0IEwgNDQuMjEgNTEuODQgTCA0NC4xOSA1MS44NSBMIDQ0LjE4IDUxLjg1IEwgNDQuMTcgNTEuODYgTCA0NC4xNiA1MS44NiBMIDQ0LjE0IDUxLjg3IEwgNDQuMTMgNTEuODggTCA0NC4xMiA1MS44OSBMIDQ0LjExIDUxLjkgTCAzOC44MSA1NC45IEwgMzUuNDEgNTYuOSBMIDM0LjIxIDU2LjkgTCAzMy45MSA1Ni43IEwgMjUuNjEgNTEuOSBMIDI1LjYgNTEuODkgTCAyNS41OSA1MS44OCBMIDI1LjU4IDUxLjg3IEwgMjUuNTcgNTEuODYgTCAyNS41NiA1MS44NiBMIDI1LjU1IDUxLjg1IEwgMjUuNTQgNTEuODUgTCAyNS41MyA1MS44NCBMIDI1LjUyIDUxLjg0IEwgMjUuNTEgNTEuODMgTCAyNS41IDUxLjgzIEwgMjUuNDkgNTEuODMgTCAyNS40OCA1MS44MyBMIDI1LjQ3IDUxLjgyIEwgMjUuNDYgNTEuODIgTCAyNS40NSA1MS44MiBMIDI1LjQ0IDUxLjgzIEwgMjUuNDMgNTEuODMgTCAyNS40MiA1MS44MyBMIDI1LjQxIDUxLjgzIEwgMjUuNCA1MS44NCBMIDI1LjM5IDUxLjg0IEwgMjUuMzggNTEuODUgTCAyNS4zNyA1MS44NSBMIDI1LjM2IDUxLjg2IEwgMjUuMzUgNTEuODYgTCAyNS4zNCA1MS44NyBMIDI1LjMzIDUxLjg4IEwgMjUuMzIgNTEuODkgTCAyNS4zMSA1MS45IEwgMjMuNzEgNTIuOCBMIDIzLjY2IDUyLjgzIEwgMjMuNjEgNTIuODYgTCAyMy41NiA1Mi44OCBMIDIzLjUxIDUyLjkgTCAyMy40NSA1Mi45MiBMIDIzLjQgNTIuOTQgTCAyMy4zNSA1Mi45NiBMIDIzLjI5IDUyLjk4IEwgMjMuMjQgNTIuOTkgTCAyMy4xOSA1MyBMIDIzLjEzIDUzLjAxIEwgMjMuMDggNTMuMDIgTCAyMy4wMiA1My4wMiBMIDIyLjk3IDUzLjAyIEwgMjIuOTEgNTMuMDIgTCAyMi44NiA1My4wMiBMIDIyLjggNTMuMDIgTCAyMi43NSA1My4wMiBMIDIyLjY5IDUzLjAxIEwgMjIuNjQgNTMgTCAyMi41OCA1Mi45OSBMIDIyLjUzIDUyLjk4IEwgMjIuNDcgNTIuOTYgTCAyMi40MiA1Mi45NCBMIDIyLjM3IDUyLjkyIEwgMjIuMzIgNTIuOSBMIDIyLjI2IDUyLjg4IEwgMjIuMjEgNTIuODYgTCAyMi4xNiA1Mi44MyBMIDIyLjExIDUyLjggTCAxMy40MSA0Ny44IEwgMTMuMzYgNDcuNzcgTCAxMy4zMSA0Ny43NCBMIDEzLjI3IDQ3LjcgTCAxMy4yMiA0Ny42NyBMIDEzLjE4IDQ3LjYzIEwgMTMuMTQgNDcuNiBMIDEzLjA5IDQ3LjU2IEwgMTMuMDYgNDcuNTIgTCAxMy4wMiA0Ny40OCBMIDEyLjk4IDQ3LjQ0IEwgMTIuOTUgNDcuMzkgTCAxMi45MSA0Ny4zNSBMIDEyLjg4IDQ3LjMgTCAxMi44NSA0Ny4yNiBMIDEyLjgyIDQ3LjIxIEwgMTIuOCA0Ny4xNiBMIDEyLjc3IDQ3LjExIEwgMTIuNzUgNDcuMDYgTCAxMi43MyA0Ny4wMSBMIDEyLjcxIDQ2Ljk2IEwgMTIuNjkgNDYuOTEgTCAxMi42NyA0Ni44NiBMIDEyLjY2IDQ2LjggTCAxMi42NSA0Ni43NSBMIDEyLjY0IDQ2LjY5IEwgMTIuNjMgNDYuNjMgTCAxMi42MiA0Ni41OCBMIDEyLjYxIDQ2LjUyIEwgMTIuNjEgNDYuNDYgTCAxMi42MSA0Ni40IEwgMTIuNjEgMzYuNCBMIDEyLjYxIDM2LjM1IEwgMTIuNjEgMzYuMyBMIDEyLjYyIDM2LjI1IEwgMTIuNjMgMzYuMiBMIDEyLjY0IDM2LjE1IEwgMTIuNjUgMzYuMSBMIDEyLjY2IDM2LjA1IEwgMTIuNjcgMzYgTCAxMi42OSAzNS45NSBMIDEyLjcxIDM1LjkxIEwgMTIuNzMgMzUuODYgTCAxMi43NSAzNS44MSBMIDEyLjc3IDM1Ljc3IEwgMTIuOCAzNS43MiBMIDEyLjgyIDM1LjY3IEwgMTIuODUgMzUuNjMgTCAxMi44OCAzNS41OSBMIDEyLjkxIDM1LjU0IEwgMTIuOTUgMzUuNSBMIDEyLjk4IDM1LjQ2IEwgMTMuMDIgMzUuNDIgTCAxMy4wNiAzNS4zOCBMIDEzLjA5IDM1LjM0IEwgMTMuMTQgMzUuMyBMIDEzLjE4IDM1LjI3IEwgMTMuMjIgMzUuMjMgTCAxMy4yNyAzNS4yIEwgMTMuMzEgMzUuMTYgTCAxMy4zNiAzNS4xMyBMIDEzLjQxIDM1LjEgTCAxMy40NiAzNS4wNyBMIDEzLjUxIDM1LjA0IEwgMTMuNTYgMzUuMDEgTCAxMy42MSAzNC45OCBMIDEzLjY2IDM0Ljk1IEwgMTMuNzEgMzQuOTIgTCAxMy43NiAzNC44OSBMIDEzLjgxIDM0Ljg2IEwgMTMuODYgMzQuODMgTCAxMy45MSAzNC44IEwgMTMuOTYgMzQuNzcgTCAxNC4wMSAzNC43NSBMIDE0LjA2IDM0LjcyIEwgMTQuMTEgMzQuNjkgTCAxNC4xNiAzNC42NiBMIDE0LjIxIDM0LjYzIEwgMTQuMjYgMzQuNjEgTCAxNC4zMSAzNC41OCBMIDE0LjM2IDM0LjU1IEwgMTQuNDEgMzQuNTMgTCAxNC40NiAzNC41IEwgMTQuNTEgMzQuNDggTCAxNC41NiAzNC40NSBMIDE0LjYxIDM0LjQzIEwgMTQuNjYgMzQuNDEgTCAxNC43MSAzNC4zOCBMIDE0Ljc2IDM0LjM2IEwgMTQuODEgMzQuMzQgTCAxNC44NiAzNC4zMiBMIDE0LjkxIDM0LjMgTCAxNC45MiAzNC4yOSBMIDE0LjkzIDM0LjI4IEwgMTQuOTQgMzQuMjcgTCAxNC45NSAzNC4yNiBMIDE0Ljk2IDM0LjI1IEwgMTQuOTcgMzQuMjQgTCAxNC45OCAzNC4yMyBMIDE0Ljk5IDM0LjIyIEwgMTUgMzQuMjEgTCAxNS4wMSAzNC4yIEwgMTUuMDIgMzQuMTggTCAxNS4wMiAzNC4xNyBMIDE1LjAzIDM0LjE2IEwgMTUuMDQgMzQuMTUgTCAxNS4wNSAzNC4xNCBMIDE1LjA2IDM0LjEyIEwgMTUuMDYgMzQuMTEgTCAxNS4wNyAzNC4xIEwgMTUuMDggMzQuMDggTCAxNS4wOCAzNC4wNyBMIDE1LjA5IDM0LjA2IEwgMTUuMDkgMzQuMDQgTCAxNS4xIDM0LjAyIEwgMTUuMSAzNC4wMSBMIDE1LjEgMzMuOTkgTCAxNS4xMSAzMy45NyBMIDE1LjExIDMzLjk2IEwgMTUuMTEgMzMuOTQgTCAxNS4xMSAzMy45MiBMIDE1LjExIDMzLjkgTCAxNS4xMSAyMy43IEwgMTUuMTIgMjMuNjUgTCAxNS4xMyAyMy42IEwgMTUuMTUgMjMuNTUgTCAxNS4xNiAyMy41IEwgMTUuMTggMjMuNDUgTCAxNS4xOSAyMy40IEwgMTUuMjEgMjMuMzUgTCAxNS4yMyAyMy4zIEwgMTUuMjUgMjMuMjYgTCAxNS4yOCAyMy4yMSBMIDE1LjMgMjMuMTYgTCAxNS4zMyAyMy4xMiBMIDE1LjM1IDIzLjA3IEwgMTUuMzggMjMuMDMgTCAxNS40MSAyMi45OSBMIDE1LjQ0IDIyLjk0IEwgMTUuNDcgMjIuOSBMIDE1LjUxIDIyLjg2IEwgMTUuNTQgMjIuODMgTCAxNS41OCAyMi43OSBMIDE1LjYxIDIyLjc1IEwgMTUuNjUgMjIuNzIgTCAxNS42OSAyMi42OCBMIDE1LjczIDIyLjY1IEwgMTUuNzggMjIuNjIgTCAxNS44MiAyMi41OSBMIDE1Ljg3IDIyLjU3IEwgMTUuOTEgMjIuNTQgTCAxNS45NiAyMi41MiBMIDE2LjAxIDIyLjUgTCAyNC41MSAxNy43IEwgMjQuNTMgMTcuNjkgTCAyNC41NSAxNy42OCBMIDI0LjU3IDE3LjY3IEwgMjQuNTggMTcuNjYgTCAyNC42IDE3LjY1IEwgMjQuNjEgMTcuNjQgTCAyNC42MiAxNy42MyBMIDI0LjYzIDE3LjYyIEwgMjQuNjQgMTcuNjEgTCAyNC42NSAxNy42IEwgMjQuNjYgMTcuNTggTCAyNC42NyAxNy41NyBMIDI0LjY3IDE3LjU2IEwgMjQuNjggMTcuNTUgTCAyNC42OSAxNy41NCBMIDI0LjY5IDE3LjUyIEwgMjQuNjkgMTcuNTEgTCAyNC43IDE3LjUgTCAyNC43IDE3LjQ4IEwgMjQuNyAxNy40NyBMIDI0LjcxIDE3LjQ2IEwgMjQuNzEgMTcuNDQgTCAyNC43MSAxNy40MiBMIDI0LjcxIDE3LjQxIEwgMjQuNzEgMTcuMzkgTCAyNC43MSAxNy4zNyBMIDI0LjcxIDE3LjM2IEwgMjQuNzEgMTcuMzQgTCAyNC43MSAxNy4zMiBMIDI0LjcxIDE1LjYgTCAyNC43MSAxNS41MyBMIDI0LjcyIDE1LjQ2IEwgMjQuNzIgMTUuMzkgTCAyNC43MyAxNS4zMiBMIDI0Ljc0IDE1LjI1IEwgMjQuNzYgMTUuMTggTCAyNC43NyAxNS4xMiBMIDI0Ljc5IDE1LjA1IEwgMjQuODEgMTQuOTggTCAyNC44NCAxNC45MiBMIDI0Ljg2IDE0Ljg1IEwgMjQuODkgMTQuNzkgTCAyNC45MiAxNC43MyBMIDI0Ljk1IDE0LjY3IEwgMjQuOTkgMTQuNjEgTCAyNS4wMiAxNC41NiBMIDI1LjA2IDE0LjUgTCAyNS4xIDE0LjQ1IEwgMjUuMTQgMTQuNCBMIDI1LjE5IDE0LjM1IEwgMjUuMjMgMTQuMyBMIDI1LjI4IDE0LjI2IEwgMjUuMzMgMTQuMjEgTCAyNS4zOCAxNC4xOCBMIDI1LjQzIDE0LjE0IEwgMjUuNDggMTQuMSBMIDI1LjU0IDE0LjA3IEwgMjUuNTkgMTQuMDUgTCAyNS42NSAxNC4wMiBMIDI1LjcxIDE0IEwgMzEuNzEgMTAuNiBMIDMxLjc3IDEwLjU1IEwgMzEuODQgMTAuNSBMIDMxLjkxIDEwLjQ1IEwgMzEuOTggMTAuNCBMIDMyLjA1IDEwLjM1IEwgMzIuMTMgMTAuMyBMIDMyLjIxIDEwLjI1IEwgMzIuMjkgMTAuMiBMIDMyLjM3IDEwLjE1IEwgMzIuNDYgMTAuMSBMIDMyLjU0IDEwLjA0IEwgMzIuNjMgOS45OSBMIDMyLjcyIDkuOTQgTCAzMi44MiA5Ljg5IEwgMzIuOTEgOS44NCBMIDMzLjAxIDkuNzggTCAzMy4xIDkuNzMgTCAzMy4yIDkuNjggTCAzMy4zIDkuNjIgTCAzMy40IDkuNTcgTCAzMy41IDkuNTIgTCAzMy42IDkuNDYgTCAzMy43IDkuNCBMIDMzLjggOS4zNSBMIDMzLjkxIDkuMjkgTCAzNC4wMSA5LjIzIEwgMzQuMTEgOS4xOCBMIDM0LjIxIDkuMTIgTCAzNC4zMSA5LjA2IEwgMzQuNDEgOSBMIDM1LjAxIDkgTCAzNS4wMyA5LjAxIEwgMzUuMDUgOS4wMiBaIE0gMTguMTEgMjQuNyBMIDE4LjA5IDI0LjcyIEwgMTguMDggMjQuNzMgTCAxOC4wNyAyNC43NCBMIDE4LjA2IDI0Ljc1IEwgMTguMDUgMjQuNzYgTCAxOC4wNCAyNC43NyBMIDE4LjAzIDI0Ljc4IEwgMTguMDIgMjQuNzkgTCAxOC4wMiAyNC44IEwgMTguMDEgMjQuODEgTCAxOCAyNC44MiBMIDE3Ljk5IDI0LjgzIEwgMTcuOTkgMjQuODQgTCAxNy45OCAyNC44NSBMIDE3Ljk4IDI0Ljg2IEwgMTcuOTggMjQuODggTCAxNy45NyAyNC44OSBMIDE3Ljk3IDI0LjkgTCAxNy45NyAyNC45MSBMIDE3Ljk3IDI0LjkyIEwgMTcuOTcgMjQuOTMgTCAxNy45NyAyNC45NCBMIDE3Ljk4IDI0Ljk1IEwgMTcuOTggMjQuOTYgTCAxNy45OSAyNC45NyBMIDE3Ljk5IDI0Ljk4IEwgMTggMjQuOTkgTCAxOC4wMSAyNSBMIDE4LjAxIDMyLjUgTCAxOC4xMSAzMi40IEwgMjEuODEgMzAuMyBMIDIxLjg3IDMwLjI3IEwgMjEuOTIgMzAuMjQgTCAyMS45OCAzMC4yMiBMIDIyLjA0IDMwLjE5IEwgMjIuMDkgMzAuMTcgTCAyMi4xNSAzMC4xNSBMIDIyLjIxIDMwLjEzIEwgMjIuMjcgMzAuMTIgTCAyMi4zMyAzMC4xMSBMIDIyLjM5IDMwLjEgTCAyMi40NSAzMC4wOSBMIDIyLjUxIDMwLjA4IEwgMjIuNTcgMzAuMDggTCAyMi42MyAzMC4wNyBMIDIyLjY5IDMwLjA3IEwgMjIuNzUgMzAuMDggTCAyMi44MSAzMC4wOCBMIDIyLjg3IDMwLjA5IEwgMjIuOTMgMzAuMSBMIDIyLjk5IDMwLjExIEwgMjMuMDUgMzAuMTIgTCAyMy4xMSAzMC4xMyBMIDIzLjE3IDMwLjE1IEwgMjMuMjMgMzAuMTcgTCAyMy4yOSAzMC4xOSBMIDIzLjM0IDMwLjIyIEwgMjMuNCAzMC4yNCBMIDIzLjQ2IDMwLjI3IEwgMjMuNTEgMzAuMyBMIDMyLjExIDM1LjIgTCAzMi4xNyAzNS4yMyBMIDMyLjIzIDM1LjI3IEwgMzIuMjkgMzUuMyBMIDMyLjM0IDM1LjM0IEwgMzIuMzkgMzUuMzggTCAzMi40NCAzNS40MiBMIDMyLjQ5IDM1LjQ2IEwgMzIuNTQgMzUuNTEgTCAzMi41OCAzNS41NiBMIDMyLjYyIDM1LjYgTCAzMi42NiAzNS42NSBMIDMyLjcgMzUuNyBMIDMyLjc0IDM1Ljc2IEwgMzIuNzcgMzUuODEgTCAzMi44IDM1Ljg2IEwgMzIuODMgMzUuOTIgTCAzMi44NiAzNS45OCBMIDMyLjg4IDM2LjAzIEwgMzIuOSAzNi4wOSBMIDMyLjkyIDM2LjE1IEwgMzIuOTQgMzYuMjEgTCAzMi45NiAzNi4yNyBMIDMyLjk3IDM2LjMzIEwgMzIuOTggMzYuMzkgTCAzMi45OSAzNi40NSBMIDMzIDM2LjUxIEwgMzMuMDEgMzYuNTggTCAzMy4wMSAzNi42NCBMIDMzLjAxIDM2LjcgTCAzMy4wMSA0Ni41IEwgMzMuMDEgNDYuNTYgTCAzMy4wMSA0Ni42MiBMIDMzIDQ2LjY5IEwgMzIuOTkgNDYuNzUgTCAzMi45OCA0Ni44MSBMIDMyLjk3IDQ2Ljg3IEwgMzIuOTYgNDYuOTMgTCAzMi45NCA0Ni45OSBMIDMyLjkyIDQ3LjA1IEwgMzIuOSA0Ny4xMSBMIDMyLjg4IDQ3LjE3IEwgMzIuODYgNDcuMjIgTCAzMi44MyA0Ny4yOCBMIDMyLjggNDcuMzMgTCAzMi43NyA0Ny4zOSBMIDMyLjc0IDQ3LjQ0IEwgMzIuNyA0Ny40OSBMIDMyLjY2IDQ3LjU0IEwgMzIuNjIgNDcuNTkgTCAzMi41OCA0Ny42NCBMIDMyLjU0IDQ3LjY5IEwgMzIuNDkgNDcuNzMgTCAzMi40NCA0Ny43OCBMIDMyLjM5IDQ3LjgyIEwgMzIuMzQgNDcuODYgTCAzMi4yOSA0Ny45IEwgMzIuMjMgNDcuOTMgTCAzMi4xNyA0Ny45NyBMIDMyLjExIDQ4IEwgMjguNjEgNTAgTCAyOC40MSA1MC4xIEwgMjguNTEgNTAuMiBMIDM0LjYxIDUzLjcgTCAzNC42MiA1My43MSBMIDM0LjYzIDUzLjcyIEwgMzQuNjQgNTMuNzMgTCAzNC42NSA1My43MyBMIDM0LjY2IDUzLjc0IEwgMzQuNjcgNTMuNzUgTCAzNC42OCA1My43NSBMIDM0LjY5IDUzLjc2IEwgMzQuNyA1My43NiBMIDM0LjcxIDUzLjc3IEwgMzQuNzIgNTMuNzcgTCAzNC43NCA1My43NyBMIDM0Ljc1IDUzLjc3IEwgMzQuNzYgNTMuNzcgTCAzNC43NyA1My43NyBMIDM0Ljc4IDUzLjc3IEwgMzQuNzkgNTMuNzcgTCAzNC44IDUzLjc3IEwgMzQuODEgNTMuNzcgTCAzNC44MiA1My43NiBMIDM0LjgzIDUzLjc2IEwgMzQuODQgNTMuNzUgTCAzNC44NSA1My43NSBMIDM0Ljg2IDUzLjc0IEwgMzQuODcgNTMuNzMgTCAzNC44OCA1My43MyBMIDM0Ljg5IDUzLjcyIEwgMzQuOSA1My43MSBMIDM0LjkxIDUzLjcgTCA0MC45MSA1MC4zIEwgNDEuMTEgNTAuMiBMIDQwLjkxIDUwLjEgTCAzNy40MSA0OC4xIEwgMzcuMzUgNDguMDcgTCAzNy4yOSA0OC4wMyBMIDM3LjIzIDQ4IEwgMzcuMTggNDcuOTYgTCAzNy4xMyA0Ny45MiBMIDM3LjA4IDQ3Ljg4IEwgMzcuMDMgNDcuODMgTCAzNi45OCA0Ny43OSBMIDM2Ljk0IDQ3Ljc0IEwgMzYuOSA0Ny42OSBMIDM2Ljg2IDQ3LjY0IEwgMzYuODIgNDcuNTkgTCAzNi43OCA0Ny41MyBMIDM2Ljc1IDQ3LjQ4IEwgMzYuNzIgNDcuNDIgTCAzNi42OSA0Ny4zNiBMIDM2LjY3IDQ3LjMgTCAzNi42NCA0Ny4yNCBMIDM2LjYyIDQ3LjE4IEwgMzYuNiA0Ny4xMiBMIDM2LjU4IDQ3LjA1IEwgMzYuNTYgNDYuOTkgTCAzNi41NSA0Ni45MiBMIDM2LjU0IDQ2Ljg1IEwgMzYuNTMgNDYuNzggTCAzNi41MiA0Ni43MSBMIDM2LjUyIDQ2LjY0IEwgMzYuNTEgNDYuNTcgTCAzNi41MSA0Ni41IEwgMzYuNTEgMzYuOCBMIDM2LjUxIDM2LjczIEwgMzYuNTIgMzYuNjYgTCAzNi41MiAzNi41OSBMIDM2LjUzIDM2LjUyIEwgMzYuNTQgMzYuNDUgTCAzNi41NSAzNi4zOCBMIDM2LjU2IDM2LjMxIEwgMzYuNTggMzYuMjUgTCAzNi42IDM2LjE4IEwgMzYuNjIgMzYuMTIgTCAzNi42NCAzNi4wNiBMIDM2LjY3IDM2IEwgMzYuNjkgMzUuOTQgTCAzNi43MiAzNS44OCBMIDM2Ljc1IDM1LjgyIEwgMzYuNzggMzUuNzcgTCAzNi44MiAzNS43MSBMIDM2Ljg2IDM1LjY2IEwgMzYuOSAzNS42MSBMIDM2Ljk0IDM1LjU2IEwgMzYuOTggMzUuNTEgTCAzNy4wMyAzNS40NyBMIDM3LjA4IDM1LjQyIEwgMzcuMTMgMzUuMzggTCAzNy4xOCAzNS4zNCBMIDM3LjIzIDM1LjMgTCAzNy4yOSAzNS4yNyBMIDM3LjM1IDM1LjIzIEwgMzcuNDEgMzUuMiBMIDQ1LjkxIDMwLjQgTCA0NS45NyAzMC4zNiBMIDQ2LjAzIDMwLjMyIEwgNDYuMDkgMzAuMjkgTCA0Ni4xNiAzMC4yNiBMIDQ2LjIyIDMwLjIzIEwgNDYuMjkgMzAuMiBMIDQ2LjM1IDMwLjE4IEwgNDYuNDIgMzAuMTYgTCA0Ni40OSAzMC4xNCBMIDQ2LjU1IDMwLjEzIEwgNDYuNjIgMzAuMTIgTCA0Ni42OSAzMC4xMSBMIDQ2Ljc2IDMwLjEgTCA0Ni44MyAzMC4xIEwgNDYuOSAzMC4xIEwgNDYuOTYgMzAuMSBMIDQ3LjAzIDMwLjExIEwgNDcuMSAzMC4xMiBMIDQ3LjE3IDMwLjEzIEwgNDcuMjQgMzAuMTQgTCA0Ny4zIDMwLjE2IEwgNDcuMzcgMzAuMTggTCA0Ny40NCAzMC4yIEwgNDcuNSAzMC4yMyBMIDQ3LjU3IDMwLjI2IEwgNDcuNjMgMzAuMjkgTCA0Ny42OSAzMC4zMiBMIDQ3Ljc1IDMwLjM2IEwgNDcuODEgMzAuNCBMIDUxLjQxIDMyLjUgTCA1MS42MSAzMi42IEwgNTEuNjEgMjUuMyBMIDUxLjYxIDI1LjI5IEwgNTEuNjEgMjUuMjggTCA1MS42MSAyNS4yNyBMIDUxLjYxIDI1LjI1IEwgNTEuNiAyNS4yNCBMIDUxLjYgMjUuMjMgTCA1MS41OSAyNS4yMSBMIDUxLjU5IDI1LjIgTCA1MS41OSAyNS4xOSBMIDUxLjU4IDI1LjE3IEwgNTEuNTcgMjUuMTYgTCA1MS41NyAyNS4xNSBMIDUxLjU2IDI1LjEzIEwgNTEuNTUgMjUuMTIgTCA1MS41NCAyNS4xMSBMIDUxLjU0IDI1LjA5IEwgNTEuNTMgMjUuMDggTCA1MS41MiAyNS4wNyBMIDUxLjUxIDI1LjA2IEwgNTEuNSAyNS4wNSBMIDUxLjQ5IDI1LjA0IEwgNTEuNDggMjUuMDMgTCA1MS40NyAyNS4wMiBMIDUxLjQ2IDI1LjAyIEwgNTEuNDUgMjUuMDEgTCA1MS40NCAyNS4wMSBMIDUxLjQzIDI1IEwgNTEuNDIgMjUgTCA1MS40MSAyNSBMIDQ1LjIxIDIxLjQgTCA0NS4wMSAyMS4zIEwgNDUuMDEgMjUuNCBMIDQ1LjAxIDI1LjQ2IEwgNDUuMDEgMjUuNTIgTCA0NSAyNS41OSBMIDQ0Ljk5IDI1LjY1IEwgNDQuOTggMjUuNzEgTCA0NC45NyAyNS43NyBMIDQ0Ljk2IDI1LjgzIEwgNDQuOTQgMjUuODkgTCA0NC45MiAyNS45NSBMIDQ0LjkgMjYuMDEgTCA0NC44OCAyNi4wNyBMIDQ0Ljg2IDI2LjEyIEwgNDQuODMgMjYuMTggTCA0NC44IDI2LjIzIEwgNDQuNzcgMjYuMjkgTCA0NC43NCAyNi4zNCBMIDQ0LjcgMjYuMzkgTCA0NC42NiAyNi40NCBMIDQ0LjYyIDI2LjQ5IEwgNDQuNTggMjYuNTQgTCA0NC41NCAyNi41OSBMIDQ0LjQ5IDI2LjYzIEwgNDQuNDQgMjYuNjggTCA0NC4zOSAyNi43MiBMIDQ0LjM0IDI2Ljc2IEwgNDQuMjkgMjYuOCBMIDQ0LjIzIDI2LjgzIEwgNDQuMTcgMjYuODcgTCA0NC4xMSAyNi45IEwgMzUuNjEgMzEuOCBMIDM1LjU2IDMxLjgzIEwgMzUuNSAzMS44NiBMIDM1LjQ1IDMxLjg4IEwgMzUuMzkgMzEuOTEgTCAzNS4zNCAzMS45MyBMIDM1LjI4IDMxLjk1IEwgMzUuMjIgMzEuOTYgTCAzNS4xNiAzMS45OCBMIDM1LjEgMzEuOTkgTCAzNS4wMyAzMiBMIDM0Ljk3IDMyLjAxIEwgMzQuOTEgMzIuMDIgTCAzNC44NSAzMi4wMiBMIDM0Ljc4IDMyLjAyIEwgMzQuNzIgMzIuMDIgTCAzNC42NSAzMi4wMiBMIDM0LjU5IDMyLjAyIEwgMzQuNTIgMzIuMDEgTCAzNC40NiAzMiBMIDM0LjM5IDMxLjk5IEwgMzQuMzIgMzEuOTggTCAzNC4yNiAzMS45NiBMIDM0LjE5IDMxLjk1IEwgMzQuMTMgMzEuOTMgTCAzNC4wNiAzMS45MSBMIDM0IDMxLjg4IEwgMzMuOTQgMzEuODYgTCAzMy44NyAzMS44MyBMIDMzLjgxIDMxLjggTCAyNS4zMSAyNi45IEwgMjUuMjUgMjYuODcgTCAyNS4xOSAyNi44MyBMIDI1LjEzIDI2LjggTCAyNS4wOCAyNi43NiBMIDI1LjAzIDI2LjcyIEwgMjQuOTggMjYuNjggTCAyNC45MyAyNi42MyBMIDI0Ljg4IDI2LjU5IEwgMjQuODQgMjYuNTQgTCAyNC44IDI2LjQ5IEwgMjQuNzYgMjYuNDQgTCAyNC43MiAyNi4zOSBMIDI0LjY4IDI2LjM0IEwgMjQuNjUgMjYuMjkgTCAyNC42MiAyNi4yMyBMIDI0LjU5IDI2LjE4IEwgMjQuNTcgMjYuMTIgTCAyNC41NCAyNi4wNyBMIDI0LjUyIDI2LjAxIEwgMjQuNSAyNS45NSBMIDI0LjQ4IDI1Ljg5IEwgMjQuNDYgMjUuODMgTCAyNC40NSAyNS43NyBMIDI0LjQ0IDI1LjcxIEwgMjQuNDMgMjUuNjUgTCAyNC40MiAyNS41OSBMIDI0LjQyIDI1LjUyIEwgMjQuNDEgMjUuNDYgTCAyNC40MSAyNS40IEwgMjQuNDEgMjEuMiBMIDI0LjMxIDIxLjIgTCAxOC4xMSAyNC43IFogTSAxNS41MiA0NS43NiBMIDE1LjU1IDQ1LjgxIEwgMTUuNTggNDUuODYgTCAxNS42IDQ1Ljg5IEwgMTUuNjEgNDUuOSBMIDE2LjczIDQ2LjU0IEwgMTcuODEgNDcuMTYgTCAyMS4wMSA0OSBMIDIxLjIxIDQ5LjEgTCAyMS4yMSA0Mi45IEwgMjEuMiA0Mi44MyBMIDIxLjE3IDQyLjc1IEwgMjEuMTIgNDIuNjggTCAyMS4wNyA0Mi42MiBMIDIxLjAxIDQyLjYgTCAxOS45MSA0MS45OCBMIDE4Ljg1IDQxLjM4IEwgMTUuNzEgMzkuNiBMIDE1LjUxIDM5LjMgTCAxNS41MSA0NS43IEwgMTUuNTIgNDUuNzYgWiBNIDQ4LjUxIDQyLjQgTCA0OC40NSA0Mi40NiBMIDQ4LjQgNDIuNTIgTCA0OC4zNSA0Mi41OCBMIDQ4LjMyIDQyLjY0IEwgNDguMzEgNDIuNyBMIDQ4LjMxIDQ5IEwgNDguNTEgNDguOSBMIDUzLjgxIDQ1LjkgTCA1My44NyA0NS44NCBMIDUzLjkyIDQ1Ljc4IEwgNTMuOTcgNDUuNzIgTCA1NCA0NS42NiBMIDU0LjAxIDQ1LjYgTCA1NC4wMSAzOS4zIEwgNTMuODEgMzkuNCBMIDQ4LjUxIDQyLjQgWiBNIDI0LjQxIDQyLjQgTCAyNC4zNSA0Mi40NiBMIDI0LjMgNDIuNTIgTCAyNC4yNSA0Mi41OCBMIDI0LjIyIDQyLjY0IEwgMjQuMjEgNDIuNyBMIDI0LjIxIDQ5IEwgMjQuNDEgNDguOSBMIDI5LjgxIDQ1LjggTCAyOS44NyA0NS43NCBMIDI5LjkyIDQ1LjY4IEwgMjkuOTcgNDUuNjIgTCAzMCA0NS41NiBMIDMwLjAxIDQ1LjUgTCAzMC4wMSAzOS4zIEwgMjkuNzEgMzkuNCBMIDI0LjQxIDQyLjQgWiBNIDM5LjUyIDQ1LjY3IEwgMzkuNTUgNDUuNzUgTCAzOS42IDQ1LjgyIEwgMzkuNjUgNDUuODggTCAzOS43MSA0NS45IEwgNDUuMDEgNDguOSBMIDQ1LjIxIDQ5IEwgNDUuMjEgNDIuNyBMIDQ1LjIgNDIuNjQgTCA0NS4xNyA0Mi41OCBMIDQ1LjEyIDQyLjUyIEwgNDUuMDcgNDIuNDYgTCA0NS4wMSA0Mi40IEwgNDMuMjIgNDEuMzggTCA0Mi4wNSA0MC43MiBMIDQwLjYxIDM5LjkgTCAzOS41MSAzOS4zIEwgMzkuNTEgNDUuNiBMIDM5LjUyIDQ1LjY3IFogTSA0Ni42NyAzMy4zNSBMIDQ2LjYxIDMzLjQgTCA0NS40OSAzNC4wNCBMIDQ0LjQxIDM0LjY2IEwgNDEuMjEgMzYuNSBMIDQxLjExIDM2LjYgTCA0MS4yMSAzNi43IEwgNDYuNjEgMzkuOCBMIDQ2LjY3IDM5Ljg1IEwgNDYuNzMgMzkuODcgTCA0Ni43OSAzOS44NyBMIDQ2Ljg1IDM5Ljg1IEwgNDYuOTEgMzkuOCBMIDQ3LjcgMzkuMzQgTCA0OC40NiAzOC45IEwgNTAuNzEgMzcuNiBMIDUyLjQxIDM2LjYgTCA0OS4xNSAzNC43IEwgNDguMDUgMzQuMDYgTCA0Ni45MSAzMy40IEwgNDYuODUgMzMuMzUgTCA0Ni43OSAzMy4zMyBMIDQ2LjczIDMzLjMzIEwgNDYuNjcgMzMuMzUgWiBNIDIyLjY3IDMzLjM1IEwgMjIuNjEgMzMuNCBMIDE3LjkxIDM2LjEgTCAxNy4xMSAzNi42IEwgMjIuNjEgMzkuOCBMIDIyLjkxIDM5LjggTCAyOC4yMSAzNi44IEwgMjguNDEgMzYuNyBMIDI4LjMxIDM2LjUgTCAyNS4xMSAzNC42NiBMIDI0LjAzIDM0LjA0IEwgMjIuOTEgMzMuNCBMIDIyLjg1IDMzLjM1IEwgMjIuNzkgMzMuMzMgTCAyMi43MyAzMy4zMyBMIDIyLjY3IDMzLjM1IFogTSAyNy41MiAyNC41NyBMIDI3LjU1IDI0LjY1IEwgMjcuNiAyNC43MiBMIDI3LjY1IDI0Ljc4IEwgMjcuNzEgMjQuOCBMIDMzLjAxIDI3LjggTCAzMy4yMSAyNy45IEwgMzMuMjEgMjEuNiBMIDMzLjIgMjEuNTQgTCAzMy4xNyAyMS40OCBMIDMzLjEyIDIxLjQyIEwgMzMuMDcgMjEuMzYgTCAzMy4wMSAyMS4zIEwgMzIuMSAyMC43OCBMIDMxLjIyIDIwLjI4IEwgMzAuMDUgMTkuNjIgTCAyOC42MSAxOC44IEwgMjcuNTEgMTguMiBMIDI3LjUxIDI0LjUgTCAyNy41MiAyNC41NyBaIE0gMzYuNTEgMjEuMyBMIDM2LjQ1IDIxLjM2IEwgMzYuNCAyMS40MiBMIDM2LjM1IDIxLjQ4IEwgMzYuMzIgMjEuNTQgTCAzNi4zMSAyMS42IEwgMzYuMzEgMjcuOSBMIDM2LjUxIDI3LjggTCA0MS44MSAyNC44IEwgNDEuODcgMjQuNzQgTCA0MS45MiAyNC42OCBMIDQxLjk3IDI0LjYyIEwgNDIgMjQuNTYgTCA0Mi4wMSAyNC41IEwgNDIuMDEgMTguMiBMIDQxLjgxIDE4LjMgTCAzNi41MSAyMS4zIFogTSAzNC41NyAxMi4zNSBMIDM0LjUxIDEyLjQgTCAzMC45MSAxNC41IEwgMjkuMTEgMTUuNSBMIDMyLjM3IDE3LjM5IEwgMzMuNDcgMTguMDMgTCAzNC42MSAxOC43IEwgMzQuNjcgMTguNzUgTCAzNC43MyAxOC43NyBMIDM0Ljc5IDE4Ljc3IEwgMzQuODUgMTguNzUgTCAzNC45MSAxOC43IEwgNDAuMjEgMTUuNyBMIDQwLjQxIDE1LjYgTCA0MC4yMSAxNS41IEwgMzcuMDEgMTMuNjYgTCAzNS45MyAxMy4wNCBMIDM0LjgxIDEyLjQgTCAzNC43NSAxMi4zNSBMIDM0LjY5IDEyLjMzIEwgMzQuNjMgMTIuMzMgTCAzNC41NyAxMi4zNSBaIiBzdHlsZT0iZmlsbDogcmdiKDI1NSwgMjU1LCAyNTUpOyIvPiYjeGE7ICAgIDwvZz4mI3hhOyAgPC9nPiYjeGE7PC9zdmc+;aspect=fixed;shadow=0;glass=0;dashed=1;dashPattern=1 4;strokeColor=#000000;strokeWidth=1;fillColor=none;gradientColor=none;align=center;fontColor=#D9D9D9;" parent="TuEcQPFBkwgy0ww-vpvm-52" vertex="1">
            <mxGeometry x="450" y="250" width="60" height="60" as="geometry" />
          </mxCell>
        </UserObject>
        <mxCell id="TuEcQPFBkwgy0ww-vpvm-98" style="edgeStyle=orthogonalEdgeStyle;rounded=0;orthogonalLoop=1;jettySize=auto;html=1;exitX=0.5;exitY=1;exitDx=0;exitDy=0;entryX=0.5;entryY=0;entryDx=0;entryDy=0;fontColor=#D9D9D9;strokeColor=#E3E3E3;" parent="TuEcQPFBkwgy0ww-vpvm-52" source="TuEcQPFBkwgy0ww-vpvm-89" target="TuEcQPFBkwgy0ww-vpvm-90" edge="1">
          <mxGeometry relative="1" as="geometry" />
        </mxCell>
        <mxCell id="TuEcQPFBkwgy0ww-vpvm-100" style="edgeStyle=orthogonalEdgeStyle;rounded=0;orthogonalLoop=1;jettySize=auto;html=1;exitX=1;exitY=0.5;exitDx=0;exitDy=0;entryX=0;entryY=0.5;entryDx=0;entryDy=0;strokeColor=#E3E3E3;fontColor=#D9D9D9;" parent="TuEcQPFBkwgy0ww-vpvm-52" source="TuEcQPFBkwgy0ww-vpvm-89" target="TuEcQPFBkwgy0ww-vpvm-92" edge="1">
          <mxGeometry relative="1" as="geometry" />
        </mxCell>
        <UserObject label="Unit Tests" tooltip="A Third Party Client is an external client which interacts with a process, service, or system." id="TuEcQPFBkwgy0ww-vpvm-89">
          <mxCell style="shape=image;editableCssRules=\.[haloColor,layerColor];imageAspect=0;aspect=fixed;verticalLabelPosition=bottom;verticalAlign=top;image=data:image/svg+xml,PHN2ZyB4bWxucz0iaHR0cDovL3d3dy53My5vcmcvMjAwMC9zdmciIHZpZXdCb3g9IjAgMCA2MC41IDYwLjUiPiYjeGE7ICA8c3R5bGUgdHlwZT0idGV4dC9jc3MiPi5oYWxvQ29sb3IgeyBmaWxsOiByZ2IoMjI3LCAyMjcsIDIyNyk7IH0gLmxheWVyQ29sb3IgeyBmaWxsOiByZ2IoMjI3LCAyMjcsIDIyNyk7IH0gPC9zdHlsZT4mI3hhOyAgPGNpcmNsZSBjeD0iMzAuMyIgY3k9IjMwLjMiIHI9IjMwLjMiIGZpbGw9IiNhMmEyYTIiIHN0eWxlPSIiIGNsYXNzPSJoYWxvQ29sb3IiLz4mI3hhOyAgPGNpcmNsZSBjbGFzcz0ibGF5ZXJDb2xvciIgY3g9IjMwLjM5IiBjeT0iMjkuOTc3IiByPSIyNS4zIiBmaWxsPSIjYTJhMmEyIiBzdHlsZT0iIi8+JiN4YTsgIDxwYXRoIGQ9Ik0gMzguMDQyIDIwLjM2NiBMIDM1LjQ0MiAyMC4zNjYgQyAzNS40NDIgMjIuMTY2IDM1LjA0MiAyNC4wNjYgMzQuMzQyIDI1Ljc2NiBMIDI2LjI0MiAyMS44NjYgQyAyNy4wNDIgMTkuMTY2IDI1LjU0MiAxNi4yNjYgMjIuNzQyIDE1LjQ2NiBDIDIxLjM5NyAxNS4wNzIgMTkuOTQ5IDE1LjI1MyAxOC43NDIgMTUuOTY2IEwgMTYuODQyIDE0LjA2NiBMIDE1LjA0MiAxNS44NjYgTCAxNi45NDIgMTcuNzY2IEMgMTUuNTQyIDIwLjE2NiAxNi4zNDIgMjMuMzY2IDE4Ljc0MiAyNC43NjYgQyAxOS45NDIgMjUuNDY2IDIxLjQ0MiAyNS42NjYgMjIuNzQyIDI1LjI2NiBMIDMzLjg0MiA0OC4xNjYgTCAzNS4wNDIgNDcuNTY2IEwgMjguOTQyIDM1LjA2NiBDIDMyLjAzNCAzMy40NzUgMzQuNTUxIDMwLjk1OCAzNi4xNDIgMjcuODY2IEwgNDguNzQyIDMzLjk2NiBMIDQ5LjM0MiAzMi43NjYgTCAzNi44NDIgMjYuNjY2IEMgMzcuNjQyIDI0Ljc2NiAzOC4wNDIgMjIuNTY2IDM4LjA0MiAyMC4zNjYgWiBNIDIwLjQ0MiAxOS40NjYgQyAyMC45NDIgMTguOTY2IDIxLjc0MiAxOC45NjYgMjIuMjQyIDE5LjQ2NiBDIDIyLjc0MiAxOS45NjYgMjIuNzQyIDIwLjc2NiAyMi4yNDIgMjEuMjY2IEMgMjEuNzQyIDIxLjc2NiAyMC45NDIgMjEuNzY2IDIwLjQ0MiAyMS4yNjYgQyAyMC4wNDIgMjAuNzY2IDIwLjA0MiAxOS45NjYgMjAuNDQyIDE5LjQ2NiBaIE0gMjcuOTQyIDMyLjc2NiBMIDI0LjA0MiAyNC42NjYgQyAyNC44NDIgMjQuMjY2IDI1LjQ0MiAyMy41NjYgMjUuODQyIDIyLjg2NiBMIDMzLjk0MiAyNi43NjYgQyAzMi41NDIgMjkuMzY2IDMwLjQ0MiAzMS40NjYgMjcuOTQyIDMyLjc2NiBaIiBmaWxsPSIjZmZmIi8+JiN4YTs8L3N2Zz4=;shadow=0;glass=0;dashed=1;dashPattern=1 4;strokeColor=#000000;strokeWidth=1;fillColor=none;gradientColor=none;align=center;fontColor=#D9D9D9;" parent="TuEcQPFBkwgy0ww-vpvm-52" vertex="1">
            <mxGeometry x="130" y="10" width="60" height="60" as="geometry" />
          </mxCell>
        </UserObject>
        <mxCell id="TuEcQPFBkwgy0ww-vpvm-99" style="edgeStyle=orthogonalEdgeStyle;rounded=0;orthogonalLoop=1;jettySize=auto;html=1;exitX=0.5;exitY=1;exitDx=0;exitDy=0;entryX=0.5;entryY=0;entryDx=0;entryDy=0;strokeColor=#E3E3E3;fontColor=#D9D9D9;" parent="TuEcQPFBkwgy0ww-vpvm-52" source="TuEcQPFBkwgy0ww-vpvm-90" target="TuEcQPFBkwgy0ww-vpvm-91" edge="1">
          <mxGeometry relative="1" as="geometry" />
        </mxCell>
        <mxCell id="TuEcQPFBkwgy0ww-vpvm-90" value="Code Linter" style="shape=image;editableCssRules=\.[haloColor,layerColor];verticalLabelPosition=bottom;labelBackgroundColor=none;verticalAlign=top;aspect=fixed;imageAspect=0;image=data:image/svg+xml,PHN2ZyB4bWxucz0iaHR0cDovL3d3dy53My5vcmcvMjAwMC9zdmciIHZpZXdCb3g9IjAgMCA1OS41IDU5LjUiPiYjeGE7ICA8c3R5bGUgdHlwZT0idGV4dC9jc3MiPi5oYWxvQ29sb3IgeyBmaWxsOiByZ2IoMjI3LCAyMjcsIDIyNyk7IH0gLmxheWVyQ29sb3IgeyBmaWxsOiByZ2IoMjI3LCAyMjcsIDIyNyk7IH0gPC9zdHlsZT4mI3hhOyAgPGNpcmNsZSBjeD0iMjkuOCIgY3k9IjI5LjgiIHI9IjI5LjgiIGNsYXNzPSJoYWxvQ29sb3IiIHN0eWxlPSIiIGZpbGw9IiNhMmEyYTIiLz4mI3hhOyAgPGNpcmNsZSBmaWxsPSIjYTJhMmEyIiBjbGFzcz0ibGF5ZXJDb2xvciIgY3g9IjI5Ljc3IiBjeT0iMjkuODI1IiByPSIyNC44IiBzdHlsZT0iIi8+JiN4YTsgIDxnIGZpbGw9IiNmZmYiIHRyYW5zZm9ybT0ibWF0cml4KDAuODYzNTUxLCAwLCAwLCAwLjg2MzU1MSwgMy42NzI2MzYsIDMuNjk2MjUyKSI+JiN4YTsgICAgPHBhdGggZD0iTTQzLjQgMjQuNWMtMS4xIDAtMS45LjgtMS45IDEuOSAwIC43LjMgMS4zLjkgMS42bC0zLjcgOC4yYy0uMiAwLS4zLS4xLS41LS4xLS40IDAtLjguMS0xLjEuM2wtLjgtNGMuNy0uMyAxLjItMSAxLjItMS44IDAtMS4xLS45LTEuOS0yLTEuOS0uNiAwLTEuMS4yLTEuNS42bC0yLS40Yy0uMS0xLS45LTEuNy0xLjktMS44LS4xIDAtLjIuMS0uNC4xbC0xLjUtNC44Yy4xLS4zLjEtLjUuMi0uOCAwLTEuMS0uOS0yLTEuOS0yLTEuMSAwLTEuOS44LTEuOSAxLjlsLTcuOCA2LjZjLS43LS44LTEuOS0uOS0yLjctLjJzLS45IDEuOS0uMiAyLjcgMS45LjkgMi43LjJjLjQtLjMuNi0uOC42LTEuM1YyOWw3LjYtNi41YTEuNzggMS43OCAwIDAgMCAxLjYgMWMuNCAwIC44LS4xIDEuMS0uNGwxLjQgNC4zYy0uNS4zLS44LjktLjggMS41IDAgMS4xLjkgMS45IDEuOSAxLjkuOCAwIDEuNS0uNSAxLjctMS4ybDEuNi40di41Yy4xIDEgLjggMS44IDEuOCAxLjlsMSA0LjhjLS4xLjItLjEuNS0uMS43IDAgMS4xLjggMS45IDEuOSAxLjlzMS45LS44IDEuOS0xLjljMC0uNi0uMi0xLjEtLjYtMS41bDMuOC04LjNoLjNjMS4xLjEgMi0uNyAyLjEtMS44cy0uNy0yLTEuOC0yLjFjMCAuMy0uMS4zLS4yLjN6bS0yOC4xIDYuMmExLjExIDEuMTEgMCAwIDEtMS4xLTEuMSAxLjExIDEuMTEgMCAwIDEgMS4xLTEuMSAxLjExIDEuMTEgMCAwIDEgMS4xIDEuMSAxLjExIDEuMTEgMCAwIDEtMS4xIDEuMXptMTEuMS03LjlhMS4xMSAxLjExIDAgMCAxLTEuMS0xLjEgMS4xMSAxLjExIDAgMCAxIDEuMS0xLjEgMS4xMSAxLjExIDAgMCAxIDEuMSAxLjEgMS4xMSAxLjExIDAgMCAxLTEuMSAxLjF6bTMuNyA3LjRhMS4xMSAxLjExIDAgMCAxLTEuMS0xLjEgMS4xMSAxLjExIDAgMCAxIDEuMS0xLjFjLjYgMCAxIC41IDEuMSAxIDAgLjctLjUgMS4xLTEuMSAxLjIgMC0uMSAwLS4xIDAgMHptMS45LS43di0uNC40em0yLjQgMS4yYTEuMTEgMS4xMSAwIDAgMSAxLjEtMS4xIDEuMTEgMS4xMSAwIDAgMSAxLjEgMS4xIDEuMTEgMS4xMSAwIDAgMS0xLjEgMS4xYy0uNyAwLTEuMS0uNS0xLjEtMS4xem0xIDEuOXptMi43IDYuNmExLjExIDEuMTEgMCAwIDEtMS4xLTEuMSAxLjExIDEuMTEgMCAwIDEgMS4xLTEuMSAxLjExIDEuMTEgMCAwIDEgMS4xIDEuMSAxLjI3IDEuMjcgMCAwIDEtMS4xIDEuMXptNS4zLTExLjZhMS4xMSAxLjExIDAgMCAxLTEuMS0xLjEgMS4xMSAxLjExIDAgMCAxIDEuMS0xLjEgMS4xMSAxLjExIDAgMCAxIDEuMSAxLjEgMS4yNyAxLjI3IDAgMCAxLTEuMSAxLjF6TTguMyAxNmwuMyAxLjYgNS42LS45LjQgNS42IDEuNi0uMS0uNS03LjR6Ii8+JiN4YTsgICAgPHBhdGggZD0iTTI5LjkgNTEuOGEyMi4yIDIyLjIgMCAwIDEtNS4xLS42Yy0xMS42LTIuOC0xOC44LTE0LjQtMTYtMjYgLjktMy43IDIuNy03LjEgNS40LTkuOWwxLjQgMS4zYy03LjUgOC03IDIwLjQuOSAyNy45IDYuNSA2LjEgMTYuMiA3LjEgMjMuNyAyLjVsMSAxLjZjLTMuNSAyLjEtNy40IDMuMi0xMS4zIDMuMnptMjIuMy04LjdsLS40LTEuNi01LjUgMS40LS45LTUuNy0xLjYuMyAxLjEgNy4zeiIvPiYjeGE7ICAgIDxwYXRoIGQ9Ik00Ni4zIDQ0LjFsLTEuNC0xLjJjNy04LjMgNi0yMC44LTIuMy0yNy44LTYuNS01LjUtMTUuOC02LjItMjMtMS44bC0xLTEuNmMxMC4xLTYuMiAyMy40LTMgMjkuNiA3LjIgNC45IDcuOSA0LjEgMTguMS0xLjkgMjUuMnoiLz4mI3hhOyAgPC9nPiYjeGE7PC9zdmc+;fontColor=#D9D9D9;" parent="TuEcQPFBkwgy0ww-vpvm-52" vertex="1">
          <mxGeometry x="130" y="130" width="60" height="60" as="geometry" />
        </mxCell>
        <mxCell id="TuEcQPFBkwgy0ww-vpvm-91" value="Coverage&#xa;Report" style="shape=image;editableCssRules=\.[haloColor,layerColor];verticalLabelPosition=bottom;labelBackgroundColor=none;verticalAlign=top;aspect=fixed;imageAspect=0;image=data:image/svg+xml,PHN2ZyB4bWxucz0iaHR0cDovL3d3dy53My5vcmcvMjAwMC9zdmciIHZpZXdCb3g9IjAgMCA2MCA2MCI+JiN4YTsgIDxzdHlsZSB0eXBlPSJ0ZXh0L2NzcyI+LmhhbG9Db2xvciB7IGZpbGw6IHJnYigyMjcsIDIyNywgMjI3KTsgfSAubGF5ZXJDb2xvciB7IGZpbGw6IHJnYigyMjcsIDIyNywgMjI3KTsgfSA8L3N0eWxlPiYjeGE7ICA8ZWxsaXBzZSBjeD0iMzAiIGN5PSIyOS45NSIgcng9IjMwIiByeT0iMzAiIGZpbGw9IiNhMmEyYTIiIHN0eWxlPSIiIGNsYXNzPSJoYWxvQ29sb3IiLz4mI3hhOyAgPGVsbGlwc2UgY3g9IjMwIiBjeT0iMzAiIHJ4PSIyNSIgcnk9IjI1IiBmaWxsPSIjYTJhMmEyIiBjbGFzcz0ibGF5ZXJDb2xvciIvPiYjeGE7ICA8cGF0aCBkPSJNIDI1Ljg2IDM2LjQ0NSBDIDIzLjU5MyAzNC4xOCAyMy41OTMgMzAuNTA5IDI1Ljg2IDI4LjE2NSBDIDI4LjEyNSAyNS44MjEgMzEuNzk2IDI1Ljg5OSAzNC4xNCAyOC4xNjUgQyAzNi40MDcgMzAuNDMgMzYuNDA3IDM0LjEwMiAzNC4xNCAzNi40NDUgTCAzNS43ODIgMzguMDg3IEMgMzguOTg1IDM0Ljk2MSAzOC45ODUgMjkuNzI3IDM1Ljc4MiAyNi42MDIgQyAzMi41NzkgMjMuNDc3IDI3LjQyMSAyMy4zOTkgMjQuMjE4IDI2LjYwMiBDIDIxLjAxNSAyOS43OTEgMjEuMDE1IDM0Ljk3NiAyNC4yMTggMzguMTY0IEwgMjUuODYgMzYuNDQ1IFogTSAyOC44MjggNDAuNTA4IEwgMzEuMTcyIDQwLjUwOCBMIDMwIDMwLjAzOSBaIE0gMTIuNSAxNS45NzcgTCAxMi41IDQ0LjAyMyBMIDQ3LjUgNDQuMDIzIEwgNDcuNSAxNS45NzcgTCAxMi41IDE1Ljk3NyBaIE0gNDYuMzI4IDQyLjg1MiBMIDEzLjY3MiA0Mi44NTIgTCAxMy42NzIgMjEuODM2IEwgNDYuMzI4IDIxLjgzNiBMIDQ2LjMyOCA0Mi44NTIgWiIgZmlsbD0iI2ZmZiIvPiYjeGE7PC9zdmc+;fontColor=#D9D9D9;" parent="TuEcQPFBkwgy0ww-vpvm-52" vertex="1">
          <mxGeometry x="130" y="250" width="60" height="60" as="geometry" />
        </mxCell>
        <mxCell id="TuEcQPFBkwgy0ww-vpvm-102" style="edgeStyle=orthogonalEdgeStyle;rounded=0;orthogonalLoop=1;jettySize=auto;html=1;exitX=1;exitY=0.5;exitDx=0;exitDy=0;entryX=0;entryY=0.5;entryDx=0;entryDy=0;strokeColor=#E3E3E3;fontColor=#D9D9D9;" parent="TuEcQPFBkwgy0ww-vpvm-52" source="TuEcQPFBkwgy0ww-vpvm-92" target="TuEcQPFBkwgy0ww-vpvm-85" edge="1">
          <mxGeometry relative="1" as="geometry" />
        </mxCell>
        <mxCell id="TuEcQPFBkwgy0ww-vpvm-106" style="edgeStyle=orthogonalEdgeStyle;rounded=0;orthogonalLoop=1;jettySize=auto;html=1;exitX=0.5;exitY=1;exitDx=0;exitDy=0;entryX=0.5;entryY=0;entryDx=0;entryDy=0;strokeColor=#E3E3E3;fontColor=#D9D9D9;" parent="TuEcQPFBkwgy0ww-vpvm-52" source="TuEcQPFBkwgy0ww-vpvm-92" target="TuEcQPFBkwgy0ww-vpvm-94" edge="1">
          <mxGeometry relative="1" as="geometry" />
        </mxCell>
        <UserObject label="SAST Scans" tooltip="Service Discovery is a process, service, or system that monitors the state of another process, service, or system." id="TuEcQPFBkwgy0ww-vpvm-92">
          <mxCell style="shape=image;editableCssRules=\.[haloColor,layerColor];imageAspect=0;aspect=fixed;verticalLabelPosition=bottom;verticalAlign=top;image=data:image/svg+xml,PHN2ZyB4bWxucz0iaHR0cDovL3d3dy53My5vcmcvMjAwMC9zdmciIHZpZXdCb3g9IjAgMCA1OS41IDU5LjUiPiYjeGE7ICA8c3R5bGUgdHlwZT0idGV4dC9jc3MiPi5oYWxvQ29sb3IgeyBmaWxsOiByZ2IoMjI3LCAyMjcsIDIyNyk7IH0gLmxheWVyQ29sb3IgeyBmaWxsOiByZ2IoMjI3LCAyMjcsIDIyNyk7IH0gPC9zdHlsZT4mI3hhOyAgPGNpcmNsZSBjeD0iMjkuOCIgY3k9IjI5LjgiIHI9IjI5LjgiIGZpbGw9IiNhMmEyYTIiIGNsYXNzPSJoYWxvQ29sb3IiLz4mI3hhOyAgPGNpcmNsZSBmaWxsPSIjYTJhMmEyIiBjbGFzcz0ibGF5ZXJDb2xvciIgY3g9IjI5Ljc3IiBjeT0iMjkuODI1IiByPSIyNC44IiBzdHlsZT0iIi8+JiN4YTsgIDxnIGZpbGw9IiNmZmYiIHRyYW5zZm9ybT0ibWF0cml4KDEsIDAsIDAsIDEsIC0wLjE4MjQ5LCAtMS4xMzI0NTUpIj4mI3hhOyAgICA8cGF0aCBkPSJNMjUuMSAxMi4zYTEyLjc2IDEyLjc2IDAgMCAwLTEyLjggMTIuOCAxMi43NiAxMi43NiAwIDAgMCAxMi44IDEyLjggMTIuNzYgMTIuNzYgMCAwIDAgMTIuOC0xMi44YzAtNy01LjctMTIuOC0xMi44LTEyLjh6bTAgMjQuNGExMS42MSAxMS42MSAwIDAgMS0xMS42LTExLjYgMTEuNjEgMTEuNjEgMCAwIDEgMTEuNi0xMS42IDExLjYxIDExLjYxIDAgMCAxIDExLjYgMTEuNiAxMS42MSAxMS42MSAwIDAgMS0xMS42IDExLjZ6bTEwLjQ0MyAyLjM0MmwzLjQ2NS0zLjQ2NSA4LjEzMiA4LjEzMi0zLjQ2NSAzLjQ2NXoiLz4mI3hhOyAgICA8Y2lyY2xlIGN4PSIzNS42IiBjeT0iMzUuNiIgcj0iMS4yIi8+JiN4YTsgIDwvZz4mI3hhOzwvc3ZnPg==;shadow=0;glass=0;dashed=1;dashPattern=1 4;strokeColor=#000000;strokeWidth=1;fillColor=none;gradientColor=none;align=center;fontColor=#D9D9D9;" parent="TuEcQPFBkwgy0ww-vpvm-52" vertex="1">
            <mxGeometry x="290" y="10" width="60" height="60" as="geometry" />
          </mxCell>
        </UserObject>
        <UserObject label="SBOM Scans" tooltip="A Cache stores data so that future requests for that data can be served faster." id="TuEcQPFBkwgy0ww-vpvm-94">
          <mxCell style="shape=image;editableCssRules=\.[haloColor,layerColor];imageAspect=0;aspect=fixed;verticalLabelPosition=bottom;verticalAlign=top;image=data:image/svg+xml,PHN2ZyB4bWxucz0iaHR0cDovL3d3dy53My5vcmcvMjAwMC9zdmciIHZpZXdCb3g9IjAgMCA1OS41IDU5LjUiPiYjeGE7ICA8c3R5bGUgdHlwZT0idGV4dC9jc3MiPi5oYWxvQ29sb3IgeyBmaWxsOiByZ2IoMjI3LCAyMjcsIDIyNyk7IH0gLmxheWVyQ29sb3IgeyBmaWxsOiByZ2IoMjI3LCAyMjcsIDIyNyk7IH0gPC9zdHlsZT4mI3hhOyAgPGNpcmNsZSBjeD0iMjkuOCIgY3k9IjI5LjgiIHI9IjI5LjgiIGNsYXNzPSJoYWxvQ29sb3IiIHN0eWxlPSIiIGZpbGw9IiNhMmEyYTIiLz4mI3hhOyAgPGNpcmNsZSBmaWxsPSIjYTJhMmEyIiBjbGFzcz0ibGF5ZXJDb2xvciIgY3g9IjI5Ljc3IiBjeT0iMjkuODI1IiByPSIyNC44IiBzdHlsZT0iIi8+JiN4YTsgIDxnIHRyYW5zZm9ybT0ibWF0cml4KDEsIDAsIDAsIDEsIC01MS41MjE2MTgsIDQuMjE0MDA5KSI+JiN4YTsgICAgPHJlY3QgaWQ9InN2Z181IiBzdHJva2U9IiNmZmZmZmYiIGhlaWdodD0iNS4yMjIiIHdpZHRoPSI4LjM3OSIgeT0iMTIuMTA5IiB4PSI4MS40NTYiIHN0cm9rZS13aWR0aD0iMCIgZmlsbD0iI2ZmZmZmZiIvPiYjeGE7ICAgIDxyZWN0IGlkPSJzdmdfNyIgc3Ryb2tlPSIjZmZmZmZmIiBoZWlnaHQ9IjUuMjIyIiB3aWR0aD0iOC4zNzkiIHk9IjEyLjE2IiB4PSI5MS41MjMiIHN0cm9rZS13aWR0aD0iMCIgZmlsbD0iI2ZmZmZmZiIvPiYjeGE7ICAgIDxyZWN0IGlkPSJzdmdfMyIgc3Ryb2tlPSIjZmZmZmZmIiBoZWlnaHQ9IjUuMjIyIiB3aWR0aD0iOC4zNzkiIHk9IjEyLjE3MyIgeD0iNjIuMzY1IiBzdHJva2Utd2lkdGg9IjAiIGZpbGw9IiNmZmZmZmYiLz4mI3hhOyAgICA8cmVjdCBpZD0ic3ZnXzYiIHN0cm9rZT0iI2ZmZmZmZiIgaGVpZ2h0PSI1LjIyMiIgd2lkdGg9IjguMzc5IiB5PSIxOS4xMjYiIHg9IjcxLjY1NSIgc3Ryb2tlLXdpZHRoPSIwIiBmaWxsPSIjZmZmZmZmIi8+JiN4YTsgICAgPHJlY3QgaWQ9InN2Z184IiBzdHJva2U9IiNmZmZmZmYiIGhlaWdodD0iNS4yMjIiIHdpZHRoPSI4LjM3OSIgeT0iMzMuMTU5IiB4PSI5MS4yNTgiIHN0cm9rZS13aWR0aD0iMCIgZmlsbD0iI2ZmZmZmZiIvPiYjeGE7ICAgIDxyZWN0IGlkPSJzdmdfOSIgc3Ryb2tlPSIjZmZmZmZmIiBoZWlnaHQ9IjUuMjIyIiB3aWR0aD0iOC4zNzkiIHk9IjEyLjEwOSIgeD0iODAuOTgyIiBzdHJva2Utd2lkdGg9IjAiIGZpbGw9IiNmZmZmZmYiLz4mI3hhOyAgICA8cmVjdCBpZD0ic3ZnXzExIiBzdHJva2U9IiNmZmZmZmYiIGhlaWdodD0iNS4yMjIiIHdpZHRoPSI4LjM3OSIgeT0iMzMuNDg1IiB4PSI3MS42NTUiIHN0cm9rZS13aWR0aD0iMCIgZmlsbD0iI2ZmZmZmZiIvPiYjeGE7ICAgIDxyZWN0IGlkPSJzdmdfMTIiIHN0cm9rZT0iI2ZmZmZmZiIgaGVpZ2h0PSI1LjIyMiIgd2lkdGg9IjguMzc5IiB5PSIzMy42NDkiIHg9IjYyLjAxMSIgc3Ryb2tlLXdpZHRoPSIwIiBmaWxsPSIjZmZmZmZmIi8+JiN4YTsgICAgPHJlY3QgaWQ9InN2Z18xMyIgc3Ryb2tlPSIjZmZmZmZmIiBoZWlnaHQ9IjUuMjIyIiB3aWR0aD0iOC4zNzkiIHk9IjI2Ljc5NSIgeD0iNjEuODUzIiBzdHJva2Utd2lkdGg9IjAiIGZpbGw9IiNmZmZmZmYiLz4mI3hhOyAgICA8cmVjdCBpZD0ic3ZnXzE0IiBzdHJva2U9IiNmZmZmZmYiIGhlaWdodD0iNS4yMjIiIHdpZHRoPSI4LjM3OSIgeT0iMjYuNzk1IiB4PSI3MS42NTUiIHN0cm9rZS13aWR0aD0iMCIgZmlsbD0iI2ZmZmZmZiIvPiYjeGE7ICAgIDxyZWN0IGlkPSJzdmdfMTUiIHN0cm9rZT0iI2ZmZmZmZiIgaGVpZ2h0PSI1LjIyMiIgd2lkdGg9IjguMzc5IiB5PSIyNi43OTUiIHg9IjgxLjQ1NiIgc3Ryb2tlLXdpZHRoPSIwIiBmaWxsPSIjZmZmZmZmIi8+JiN4YTsgICAgPHJlY3QgaWQ9InN2Z18xNiIgc3Ryb2tlPSIjZmZmZmZmIiBoZWlnaHQ9IjUuMjIyIiB3aWR0aD0iOC4zNzkiIHk9IjE5LjI4OSIgeD0iOTEuNDE2IiBzdHJva2Utd2lkdGg9IjAiIGZpbGw9IiNmZmZmZmYiLz4mI3hhOyAgPC9nPiYjeGE7PC9zdmc+;shadow=0;glass=0;dashed=1;dashPattern=1 4;strokeColor=#000000;strokeWidth=1;fillColor=none;gradientColor=none;align=center;fontColor=#D9D9D9;" parent="TuEcQPFBkwgy0ww-vpvm-52" vertex="1">
            <mxGeometry x="290" y="130" width="60" height="60" as="geometry" />
          </mxCell>
        </UserObject>
        <mxCell id="TuEcQPFBkwgy0ww-vpvm-104" style="edgeStyle=orthogonalEdgeStyle;rounded=0;orthogonalLoop=1;jettySize=auto;html=1;exitX=1;exitY=0.5;exitDx=0;exitDy=0;entryX=0;entryY=0.5;entryDx=0;entryDy=0;strokeColor=#E3E3E3;fontColor=#D9D9D9;" parent="TuEcQPFBkwgy0ww-vpvm-52" source="TuEcQPFBkwgy0ww-vpvm-95" target="TuEcQPFBkwgy0ww-vpvm-97" edge="1">
          <mxGeometry relative="1" as="geometry" />
        </mxCell>
        <mxCell id="TuEcQPFBkwgy0ww-vpvm-105" style="edgeStyle=orthogonalEdgeStyle;rounded=0;orthogonalLoop=1;jettySize=auto;html=1;exitX=0.5;exitY=1;exitDx=0;exitDy=0;entryX=0.5;entryY=0;entryDx=0;entryDy=0;strokeColor=#E3E3E3;fontColor=#D9D9D9;" parent="TuEcQPFBkwgy0ww-vpvm-52" source="TuEcQPFBkwgy0ww-vpvm-95" target="TuEcQPFBkwgy0ww-vpvm-96" edge="1">
          <mxGeometry relative="1" as="geometry" />
        </mxCell>
        <mxCell id="TuEcQPFBkwgy0ww-vpvm-95" value="Tag Release" style="shape=image;editableCssRules=\.[haloColor,layerColor];imageAspect=0;aspect=fixed;verticalLabelPosition=bottom;verticalAlign=top;image=data:image/svg+xml,PHN2ZyB4bWxucz0iaHR0cDovL3d3dy53My5vcmcvMjAwMC9zdmciIHdpZHRoPSIxMDAuMDMyIiBoZWlnaHQ9IjEwMC4wMzIiIHZpZXdCb3g9IjAgMCA3NSA3NSIgZmlsbD0ibm9uZSIgZmlsbC1ydWxlPSJldmVub2RkIiBvdmVyZmxvdz0idmlzaWJsZSIgc3Ryb2tlLWxpbmVjYXA9InNxdWFyZSIgc3Ryb2tlLW1pdGVybGltaXQ9IjMiIGNvbG9yLWludGVycG9sYXRpb24tZmlsdGVycz0ic1JHQiI+JiN4YTsgIDxzdHlsZSB0eXBlPSJ0ZXh0L2NzcyI+LmhhbG9Db2xvciB7IGZpbGw6IHJnYigyMjcsIDIyNywgMjI3KTsgfSAubGF5ZXJDb2xvciB7IGZpbGw6IHJnYigyMjcsIDIyNywgMjI3KTsgfSA8L3N0eWxlPiYjeGE7ICA8Y2lyY2xlIHI9IjM3LjUiIGN4PSIzNy41IiBjeT0iMzcuNSIgY29sb3ItaW50ZXJwb2xhdGlvbi1maWx0ZXJzPSJzUkdCIiBmaWxsPSIjYTJhMmEyIiBjbGFzcz0iaGFsb0NvbG9yIi8+JiN4YTsgIDxjaXJjbGUgZmlsbD0iI2EyYTJhMiIgcj0iMzIuNSIgY3g9IjM3LjQ0OSIgY3k9IjM3LjUwMyIgY29sb3ItaW50ZXJwb2xhdGlvbi1maWx0ZXJzPSJzUkdCIiBzdHlsZT0iIiBjbGFzcz0ibGF5ZXJDb2xvciIvPiYjeGE7ICA8cGF0aCBkPSJNIDE1LjI3OSA0Ny42MDEgTCA2MC4xNDEgNDcuNjAxIEwgNjAuMTQxIDUwLjMyMyBMIDE1LjI3OSA1MC4zMjMgWiBNIDE2Ljc3IDI0LjA5MiBMIDU4LjQwMiAyNC4wOTIgTCA1OC40MDIgMjYuODE0IEwgMTYuNzcgMjYuODE0IFogTSAxMi4yOTYgNTEuOTMxIEwgNjMgNTEuOTMxIEwgNjMgNTQuNjUzIEwgMTIuMjk2IDU0LjY1MyBaIE0gMzcuNjQ4IDEzLjU3NiBMIDEzLjc4NyAyMS40OTQgTCAxMy43ODcgMjIuOTc5IEwgNjEuNTA4IDIyLjk3OSBMIDYxLjUwOCAyMS40OTQgWiBNIDE2Ljc3IDI4LjE3NSBMIDIxLjk4OSAyOC4xNzUgTCAyMS45ODkgNDYuNDg3IEwgMTYuNzcgNDYuNDg3IFogTSA1My4zMDYgMjguMTc1IEwgNTguNTI2IDI4LjE3NSBMIDU4LjUyNiA0Ni40ODcgTCA1My4zMDYgNDYuNDg3IFogTSAzNS4wMzggMjguMTc1IEwgNDAuMjU4IDI4LjE3NSBMIDQwLjI1OCA0Ni40ODcgTCAzNS4wMzggNDYuNDg3IFogTSAyNS45NjYgMjguMTc1IEwgMzEuMTg2IDI4LjE3NSBMIDMxLjE4NiA0Ni40ODcgTCAyNS45NjYgNDYuNDg3IFogTSA0NC4zNTkgMjguMTc1IEwgNDkuNTc4IDI4LjE3NSBMIDQ5LjU3OCA0Ni40ODcgTCA0NC4zNTkgNDYuNDg3IFoiIGZpbGw9IiNmZmYiIHN0eWxlPSIiLz4mI3hhOzwvc3ZnPg==;perimeter=rectanglePerimeter;fontColor=#D9D9D9;" parent="TuEcQPFBkwgy0ww-vpvm-52" vertex="1">
          <mxGeometry x="610" y="10" width="60" height="60" as="geometry" />
        </mxCell>
        <mxCell id="TuEcQPFBkwgy0ww-vpvm-96" value="Deploy" style="shape=image;editableCssRules=\.[haloColor,layerColor];verticalLabelPosition=bottom;labelBackgroundColor=none;verticalAlign=top;aspect=fixed;imageAspect=0;image=data:image/svg+xml,PHN2ZyB4bWxucz0iaHR0cDovL3d3dy53My5vcmcvMjAwMC9zdmciIHZpZXdCb3g9IjAgMCA1OS41IDU5LjUiPiYjeGE7ICA8c3R5bGUgdHlwZT0idGV4dC9jc3MiPi5oYWxvQ29sb3IgeyBmaWxsOiByZ2IoMjI3LCAyMjcsIDIyNyk7IH0gLmxheWVyQ29sb3IgeyBmaWxsOiByZ2IoMjI3LCAyMjcsIDIyNyk7IH0gPC9zdHlsZT4mI3hhOyAgPGNpcmNsZSBjeD0iMjkuOCIgY3k9IjI5LjgiIHI9IjI5LjgiIGNsYXNzPSJoYWxvQ29sb3IiIHN0eWxlPSIiIGZpbGw9IiNhMmEyYTIiLz4mI3hhOyAgPGNpcmNsZSBmaWxsPSIjYTJhMmEyIiBjbGFzcz0ibGF5ZXJDb2xvciIgY3g9IjI5Ljc3IiBjeT0iMjkuODI1IiByPSIyNC44IiBzdHlsZT0iIi8+JiN4YTsgIDxwYXRoIGQ9Ik0gMTMuMjc2IDQyLjM0NyBMIDE1LjcyNiAzOS4xODUgTCAxNi40MzggMzkuNzM1IEwgMTMuOTg4IDQyLjg5NyBaIE0gMTMuNjU2IDQ1LjE5NyBMIDE3LjMyNiA0MS41MTMgTCAxNy45NjQgNDIuMTQ4IEwgMTQuMjk0IDQ1LjgzMiBaIE0gMTYuNTI2IDQ1LjQyOSBMIDE5Ljc3MSA0Mi45MjMgTCAyMC4zMjEgNDMuNjM1IEwgMTcuMDc2IDQ2LjE0MSBaIE0gNDUuMDgzIDE0LjQ5MiBDIDQ1LjA4MyAxNC40OTIgMzcuNzgzIDguMjkyIDI2LjI4MyAyNC44OTIgTCAyNC45ODMgMjYuNjkyIEMgMTguMzgzIDI2LjM5MiAxNC41ODMgMzMuMTkyIDE0LjU4MyAzMy4xOTIgTCAxOS42ODMgMzQuNTkyIEwgMTguNDgzIDM2LjI5MiBMIDE4LjQ4MyAzNi4zOTIgQyAxOC40ODMgMzYuMzkyIDE4LjA4MyAzNi45OTIgMjAuMDgzIDM5LjI5MiBMIDIwLjE4MyAzOS4zOTIgQyAyMC4yODMgMzkuNDkyIDIwLjM4MyAzOS40OTIgMjAuNDgzIDM5LjU5MiBDIDIyLjM4MyA0MS4xOTIgMjMuMDgzIDQxLjE5MiAyMy4yODMgNDEuMTkyIEwgMjMuNDgzIDQxLjA5MiBMIDI1LjI4MyAzOS44OTIgTCAyNi42ODMgNDUuMTkyIEMgMjYuNjgzIDQ1LjE5MiAzMy40ODMgNDEuMzkyIDMzLjA4MyAzNC43OTIgTCAzMy4wODMgMzQuNDkyIEwgMzQuNzgzIDMzLjI5MiBDIDUxLjI4MyAyMS43OTIgNDUuMDgzIDE0LjQ5MiA0NS4wODMgMTQuNDkyIFogTSAzNS42ODMgMjcuMjkyIEMgMzMuODgzIDI3LjI5MiAzMi40ODMgMjUuODkyIDMyLjM4MyAyNC4wOTIgQyAzMi4zODMgMjIuMjkyIDMzLjc4MyAyMC44OTIgMzUuNTgzIDIwLjc5MiBDIDM3LjM4MyAyMC43OTIgMzguNzgzIDIyLjE5MiAzOC44ODMgMjMuOTkyIEMgMzguODgzIDI1Ljc5MiAzNy40ODMgMjcuMjkyIDM1LjY4MyAyNy4yOTIgWiIgZmlsbD0iI2ZmZiIvPiYjeGE7PC9zdmc+;fontColor=#D9D9D9;" parent="TuEcQPFBkwgy0ww-vpvm-52" vertex="1">
          <mxGeometry x="610" y="130" width="60" height="60" as="geometry" />
        </mxCell>
        <UserObject label="Notify" tooltip="A Message Queue is a software-engineering component used for inter-process communication, or for inter-thread communication within the same process." id="TuEcQPFBkwgy0ww-vpvm-97">
          <mxCell style="shape=image;editableCssRules=\.[haloColor,layerColor];imageAspect=0;aspect=fixed;verticalLabelPosition=bottom;verticalAlign=top;image=data:image/svg+xml,PHN2ZyB4bWxucz0iaHR0cDovL3d3dy53My5vcmcvMjAwMC9zdmciIHZpZXdCb3g9IjAgMCA1OC44IDU4LjciPiYjeGE7ICA8c3R5bGUgdHlwZT0idGV4dC9jc3MiPi5oYWxvQ29sb3IgeyBmaWxsOiByZ2IoMjI3LCAyMjcsIDIyNyk7IH0gLmxheWVyQ29sb3IgeyBmaWxsOiByZ2IoMjI3LCAyMjcsIDIyNyk7IH0gPC9zdHlsZT4mI3hhOyAgPGNpcmNsZSBjeD0iMjkuNDU0IiBjeT0iMjkuNDMzIiByPSIyOS40IiBjbGFzcz0iaGFsb0NvbG9yIiBzdHlsZT0iIiBmaWxsPSIjYTJhMmEyIi8+JiN4YTsgIDxjaXJjbGUgY2xhc3M9ImxheWVyQ29sb3IiIGN4PSIyOS4yMzciIGN5PSIyOS42MDUiIHI9IjI0Ljg3OCIgc3R5bGU9IiIgdHJhbnNmb3JtPSJtYXRyaXgoMC45ODA3NjksIDAsIDAsIDEsIDAuNjkwODEzLCAtMC4xNikiLz4mI3hhOyAgPHBhdGggZD0iTSAyOS42MiAxMS4zMzUgTCA5LjkyIDIwLjczNSBMIDkuOTIgMzkuNjM1IEwgNDkuNDIgMzkuNjM1IEwgNDkuNDIgMjAuNzM1IEwgMjkuNjIgMTEuMzM1IFogTSAxNy44MiAxOS42MzUgTCA0MS41MiAxOS42MzUgTCA0MS41MiAyNC42MzUgTCAyOS42MiAzMC4zMzUgTCAxNy43MiAyNC42MzUgTCAxNy43MiAxOS42MzUgWiBNIDQ4LjEyIDM4LjQzNSBMIDExLjEyIDM4LjQzNSBMIDExLjEyIDIyLjUzNSBMIDI5LjUyIDMxLjMzNSBMIDQ3LjkyIDIyLjUzNSBMIDQ4LjEyIDM4LjQzNSBaIiBmaWxsPSIjZmZmIi8+JiN4YTs8L3N2Zz4=;shadow=0;glass=0;dashed=1;dashPattern=1 4;strokeColor=#000000;strokeWidth=1;fillColor=none;gradientColor=none;align=center;fontColor=#D9D9D9;" parent="TuEcQPFBkwgy0ww-vpvm-52" vertex="1">
            <mxGeometry x="770" y="10" width="60" height="60" as="geometry" />
          </mxCell>
        </UserObject>
        <mxCell id="TuEcQPFBkwgy0ww-vpvm-130" style="edgeStyle=orthogonalEdgeStyle;rounded=0;orthogonalLoop=1;jettySize=auto;html=1;exitX=1;exitY=0.5;exitDx=0;exitDy=0;entryX=0;entryY=0.5;entryDx=0;entryDy=0;strokeColor=#E3E3E3;" parent="TuEcQPFBkwgy0ww-vpvm-52" source="TuEcQPFBkwgy0ww-vpvm-129" target="TuEcQPFBkwgy0ww-vpvm-89" edge="1">
          <mxGeometry relative="1" as="geometry" />
        </mxCell>
        <mxCell id="Z7yxuIP9AFndSdzFpjQd-6" style="edgeStyle=orthogonalEdgeStyle;rounded=0;orthogonalLoop=1;jettySize=auto;html=1;exitX=0.5;exitY=1;exitDx=0;exitDy=0;entryX=0.5;entryY=0;entryDx=0;entryDy=0;strokeColor=#E3E3E3;" parent="TuEcQPFBkwgy0ww-vpvm-52" source="TuEcQPFBkwgy0ww-vpvm-129" target="Z7yxuIP9AFndSdzFpjQd-5" edge="1">
          <mxGeometry relative="1" as="geometry" />
        </mxCell>
        <UserObject label="Pull Source&#xa;Code" tooltip="A Web Layer is the Web component of a multi-layer architecture." id="TuEcQPFBkwgy0ww-vpvm-129">
          <mxCell style="shape=image;editableCssRules=\.[haloColor,layerColor];imageAspect=0;aspect=fixed;verticalLabelPosition=bottom;verticalAlign=top;image=data:image/svg+xml,PHN2ZyB4bWxucz0iaHR0cDovL3d3dy53My5vcmcvMjAwMC9zdmciIHZpZXdCb3g9IjAgMCA2MC4zIDYwLjIiPiYjeGE7ICA8c3R5bGUgdHlwZT0idGV4dC9jc3MiPi5oYWxvQ29sb3IgeyBmaWxsOiByZ2IoMjI3LCAyMjcsIDIyNyk7IH0gLmxheWVyQ29sb3IgeyBmaWxsOiByZ2IoMjI3LCAyMjcsIDIyNyk7IH0gPC9zdHlsZT4mI3hhOyAgPGNpcmNsZSBjeD0iMzAuMDYzIiBjeT0iMzAuMTA2IiByPSIzMC4xIiBzdHlsZT0iIiBmaWxsPSIjYTJhMmEyIiBjbGFzcz0iaGFsb0NvbG9yIi8+JiN4YTsgIDxjaXJjbGUgY2xhc3M9ImxheWVyQ29sb3IiIGN4PSIzMC4yMzIiIGN5PSIyOS44MyIgcj0iMjUuMSIgZmlsbD0iI2EyYTJhMiIgc3R5bGU9IiIvPiYjeGE7ICA8cGF0aCBkPSJNIDQyLjAyMiAyOS4zOTQgTCA0MC41MjIgMzAuOTk0IEwgNDQuMTIyIDM0LjU5NCBMIDM4LjAyMiAzNC41OTQgTCAzOC4wMjIgMjEuMzk0IEwgMjkuMjIyIDEyLjU5NCBMIDE2LjAyMiAxMi41OTQgTCAxNi4wMjIgNDUuNDk0IEwgMzcuOTIyIDQ1LjQ5NCBMIDM3LjkyMiAzNi42OTQgTCA0NC4xMjIgMzYuNjk0IEwgNDAuNTIyIDQwLjI5NCBMIDQyLjAyMiA0MS43OTQgTCA0OC4zMjIgMzUuNDk0IEwgNDIuMDIyIDI5LjM5NCBaIE0gMzUuODIyIDQzLjI5NCBMIDE4LjIyMiA0My4yOTQgTCAxOC4yMjIgMTQuNzk0IEwgMjguMTIyIDE0Ljc5NCBMIDI4LjEyMiAyMi40OTQgTCAzNS44MjIgMjIuNDk0IEwgMzUuODIyIDM0LjU5NCBMIDI4LjEyMiAzNC41OTQgTCAyOC4xMjIgMzYuNzk0IEwgMzUuODIyIDM2Ljc5NCBMIDM1LjgyMiA0My4yOTQgWiIgZmlsbD0iI2ZmZiIvPiYjeGE7PC9zdmc+;shadow=0;glass=0;dashed=1;dashPattern=1 4;strokeColor=#000000;strokeWidth=1;fillColor=none;gradientColor=none;align=center;fontColor=#D9D9D9;" parent="TuEcQPFBkwgy0ww-vpvm-52" vertex="1">
            <mxGeometry x="-30" y="10" width="60" height="60" as="geometry" />
          </mxCell>
        </UserObject>
        <UserObject label="Pull Source&#xa;Code" tooltip="A Web Layer is the Web component of a multi-layer architecture." id="Z7yxuIP9AFndSdzFpjQd-5">
          <mxCell style="shape=image;editableCssRules=\.[haloColor,layerColor];imageAspect=0;aspect=fixed;verticalLabelPosition=bottom;verticalAlign=top;image=data:image/svg+xml,PHN2ZyB4bWxucz0iaHR0cDovL3d3dy53My5vcmcvMjAwMC9zdmciIHdpZHRoPSIxMDAuMDMyIiBoZWlnaHQ9IjEwMC4wMzIiIHZpZXdCb3g9IjAgMCA3NSA3NSIgZmlsbD0ibm9uZSIgZmlsbC1ydWxlPSJldmVub2RkIiBvdmVyZmxvdz0idmlzaWJsZSIgc3Ryb2tlLWxpbmVjYXA9InNxdWFyZSIgc3Ryb2tlLW1pdGVybGltaXQ9IjMiIGNvbG9yLWludGVycG9sYXRpb24tZmlsdGVycz0ic1JHQiI+JiN4YTsgIDxzdHlsZSB0eXBlPSJ0ZXh0L2NzcyI+LmhhbG9Db2xvciB7IGZpbGw6IHJnYigyMjcsIDIyNywgMjI3KTsgfSAubGF5ZXJDb2xvciB7IGZpbGw6IHJnYigyMjcsIDIyNywgMjI3KTsgfSA8L3N0eWxlPiYjeGE7ICA8Y2lyY2xlIHI9IjM3LjUiIGN4PSIzNy41IiBjeT0iMzcuNSIgY29sb3ItaW50ZXJwb2xhdGlvbi1maWx0ZXJzPSJzUkdCIiBmaWxsPSIjYTJhMmEyIiBjbGFzcz0iaGFsb0NvbG9yIi8+JiN4YTsgIDxjaXJjbGUgZmlsbD0iI2EyYTJhMiIgcj0iMzIuNSIgY3g9IjM3LjQ0OSIgY3k9IjM3LjUwMyIgY29sb3ItaW50ZXJwb2xhdGlvbi1maWx0ZXJzPSJzUkdCIiBzdHlsZT0iIiBjbGFzcz0ibGF5ZXJDb2xvciIvPiYjeGE7ICA8cGF0aCBkPSJNIDIxLjE4MyAyMy44NTIgTCA1NC44ODMgMjMuODUyIEwgNTQuODgzIDQ3Ljk1MiBMIDIxLjE4MyA0Ny45NTIgWiIgc3R5bGU9IiIgY2xhc3M9ImxheWVyQ29sb3IiLz4mI3hhOyAgPHBhdGggZD0iTSA1MS42NzkgNTQuNDYyIEwgMzEuNjM0IDU2LjM3OCBDIDMxLjI4NCA1Ni4zNzggMzAuOTM1IDU2LjM3OCAzMC45MzUgNTYuODI5IEMgMzAuNzM2IDU3LjkzNiAyOS42MiA1OC42NTcgMjguNDg3IDU4LjQwNyBDIDI3LjkwNSA1OC4yOTUgMjcuNDM4IDU3Ljk1NyAyNy4yMDUgNTcuNjE4IEMgMjYuNzM5IDU2Ljk0MiAyNi43MzkgNTYuMDQgMjcuMjA1IDU1LjM2NCBMIDI3LjQzOCA1NS4wMjYgTCAxNS4yMDIgMzguMjMgTCAyMy45NDIgMTkuODU2IEMgMjMuMjQzIDE5LjQwNSAyMi43NzcgMTguNTAzIDIzLjAxIDE3LjcxNCBDIDIzLjEyNiAxNi44MTIgMjMuOTQyIDE2LjEzNiAyNC44NzQgMTYuMDIzIEMgMjUuODA3IDE1LjkxIDI2LjYyMyAxNi4zNjEgMjYuOTcyIDE3LjE1IEMgMjcuMjA1IDE3LjYwMSAyNy4zMjIgMTcuNjAxIDI3Ljc4OCAxNy42MDEgTCAzNy42OTQgMTYuNjk5IEwgNDcuOTQ5IDE1Ljc5OCBMIDU5LjcyIDMxLjkxNyBDIDU5LjgzNyAzMi4xNDMgNjAuMTg2IDMyLjI1NSA2MC40MTkgMzIuMTQzIEMgNjEuNDY4IDMxLjgwNCA2Mi42MzQgMzIuMzY4IDYyLjk4MyAzMy40OTUgQyA2My4xIDMzLjk0NiA2My4xIDM0LjUxIDYyLjg2NyAzNC45NjEgQyA2Mi41MTcgMzUuNzUgNjEuNzAxIDM2LjIwMSA2MC43NjkgMzYuMDg4IEMgNjAuNDE5IDM1Ljk3NSA2MC4wNyAzNi4yMDEgNjAuMDcgMzYuNTM5IEwgNTEuNzk1IDUzLjg5OCBDIDUxLjc5NSA1NC4wMTEgNTEuNjc5IDU0LjIzNyA1MS42NzkgNTQuNDYyIFogTSA0NS44NTIgMzguMTE3IEwgNDUuODUyIDM3Ljg5MiBMIDQ0LjU3IDMxLjU3OSBDIDQ0LjQ1MyAzMS4zNTQgNDQuMzM3IDMxLjEyOCA0NC4xMDQgMzEuMDE1IEwgMzcuMjI4IDI4LjY0OCBDIDM2Ljk5NSAyOC41MzUgMzYuNzYyIDI4LjY0OCAzNi41MjkgMjguNzYxIEwgMzEuNTE3IDMyLjkzMiBDIDMxLjQwMSAzMy4xNTcgMzEuMjg0IDMzLjM4MyAzMS4yODQgMzMuNjA4IEwgMzIuNjgzIDQwLjM3MiBDIDMyLjc5OSA0MC41OTcgMzIuOTE2IDQwLjgyMiAzMy4xNDkgNDAuOTM1IEwgMzkuNTU5IDQzLjA3NyBDIDM5Ljc5MiA0My4xOSA0MC4wMjUgNDMuMDc3IDQwLjI1OCA0Mi45NjQgTCA0NS42MTkgMzguNDU1IEMgNDUuNzM1IDM4LjM0MiA0NS44NTIgMzguMjMgNDUuODUyIDM4LjExNyBaIE0gMjQuNzU4IDMwLjMzOSBMIDI0LjY0MSAzMC4zMzkgTCAxNS43ODQgMzguMjMgTCAyNS45MjMgNDMuNzUzIEMgMjUuODA3IDQzLjMwMiAyNS44MDcgNDIuOTY0IDI1LjY5IDQyLjYyNiBMIDI1LjM0MSA0MC41OTcgQyAyNS4zNDEgNDAuNDg0IDI1LjEwOCA0MC4zNzIgMjQuOTkxIDQwLjM3MiBDIDIzLjk0MiA0MC4yNTkgMjMuMTI2IDM5LjQ3IDIzLjAxIDM4LjQ1NSBDIDIzLjAxIDM3LjU1MyAyMy41OTMgMzYuNjUyIDI0LjUyNSAzNi4zMTMgQyAyNC43NDMgMzYuMjA2IDI0Ljg3OSAzNS45ODggMjQuODc0IDM1Ljc1IEwgMjQuODc0IDMzLjYwOCBDIDI0Ljc1OCAzMi40ODEgMjQuNzU4IDMxLjM1NCAyNC43NTggMzAuMzM5IFogTSA0MC4wMjUgNTAuMTc5IEwgNTEuMjEzIDU0LjAxMSBMIDUxLjU2MiA0Mi41MTMgTCA0OS4yMzEgNDQuNTQyIEMgNDkuODE0IDQ1Ljg5NSA0OS42OTggNDYuNzk3IDQ4Ljc2NSA0Ny4zNiBDIDQ3LjgzMyA0OC4wMzcgNDYuNDM0IDQ3LjkyNCA0NS43MzUgNDcuMDIyIEwgNDAuMDI1IDUwLjE3OSBaIE0gMTYuNDg0IDM4LjkwNiBMIDE2LjQ4NCAzOS4yNDQgTCAyNy4zMjIgNTQuMTI0IEMgMjcuNDU1IDU0LjI2NCAyNy42MTIgNTQuMzc5IDI3Ljc4OCA1NC40NjIgQyAyNy45MDUgNTQuMjM3IDI3LjkwNSA1NC4xMjQgMjcuOTA1IDUzLjg5OCBMIDI2LjI3MyA0NS40NDQgQyAyNi4yNzMgNDQuNTQyIDI1LjY5IDQzLjc1MyAyNC43NTggNDMuNDE1IEMgMjQuMjkyIDQzLjE5IDIzLjk0MiA0Mi45NjQgMjMuNTkzIDQyLjczOSBMIDE2LjQ4NCAzOC45MDYgWiBNIDUwLjE2NCA1NC4xMjQgTCA1MC4wNDcgNTQuMDExIEwgMzkuNzkyIDUwLjUxNyBDIDM5LjYxNCA1MC40MDMgMzkuMzg1IDUwLjQwMyAzOS4yMDkgNTAuNTE3IEwgMzAuOTM1IDU1LjEzOCBDIDMwLjgxOCA1NS4yNTEgMzAuODE4IDU1LjQ3NyAzMC43MDEgNTUuNTg5IEMgMzAuODMgNTUuNzA5IDMwLjk5MiA1NS43ODcgMzEuMTY4IDU1LjgxNSBDIDMxLjYzNCA1NS44MTUgMzIuMSA1NS43MDIgMzIuNTY2IDU1LjcwMiBMIDQ2Ljc4NCA1NC40NjIgTCA1MC4xNjQgNTQuMTI0IFogTSAzOC4wNDQgMjEuMzIxIEwgMzguMDQ0IDIxLjQzNCBDIDM4Ljg1OSAyMS42NTkgMzkuNzkyIDIxLjk5NyA0MC42MDcgMjIuMTEgQyA0MC44NCAyMi4xMSA0MS4wNzQgMjEuOTk3IDQxLjE5IDIxLjg4NSBDIDQxLjc3MyAyMS4wOTYgNDIuODIyIDIwLjg3IDQzLjc1NCAyMS4zMjEgQyA0NC42OCAyMS43MzYgNDUuMTcxIDIyLjczMSA0NC45MTkgMjMuNjg4IEMgNDQuODAzIDIzLjkxNCA0NC45MTkgMjQuMjUyIDQ1LjE1MiAyNC4zNjUgTCA0OS41ODEgMjcuMDcgQyA0OS42OTggMjcuMTgzIDQ5LjgxNCAyNy4xODMgNTAuMDQ3IDI3LjI5NiBMIDQ3LjQ4MyAxNi4zNjEgTCAzOC4wNDQgMjEuMzIxIFogTSAxNi4xMzQgMzcuMTAzIEMgMTYuMjUxIDM3LjEwMyAxNi4zNjcgMzYuOTkgMTYuNDg0IDM2Ljg3NyBMIDI0LjQwOCAyOS43NzUgQyAyNC42MTkgMjkuNTYyIDI0Ljc0NCAyOS4yODIgMjQuNzU4IDI4Ljk4NiBMIDI0Ljc1OCAyMC4xOTQgQyAyNC43NTggMjAuMDgxIDI0LjY0MSAxOS45NjggMjQuNTI1IDE5Ljg1NiBDIDI0LjUyNSAxOS44NTYgMjQuMjkyIDE5Ljk2OCAyNC4xNzUgMjAuMDgxIEMgMjQuMDU5IDIwLjE5NCAyNC4wNTkgMjAuMzA3IDI0LjA1OSAyMC40MTkgTCAxNi40ODQgMzYuNDI2IEwgMTYuMTM0IDM3LjEwMyBaIE0gNTEuNjc5IDUyLjg4NCBDIDUxLjc5NSA1Mi43NzEgNTEuOTEyIDUyLjY1OCA1MS45MTIgNTIuNTQ2IEwgNTkuNzIgMzYuMjAxIEwgNTkuNzIgMzUuNjM3IEMgNTkuNDg3IDM1LjYzNyA1OS4zNyAzNS43NSA1OS4xMzcgMzUuODYzIEwgNTMuMzEgNDAuODIyIEMgNTIuMjYxIDQxLjQ5OSA1MS43OTUgNDIuNzM5IDUxLjc5NSA0My44NjYgTCA1MS42NzkgNTIuODg0IFogTSA0OC40MTYgMTcuMTUgTCA0OC40MTYgMTcuNDg4IEwgNTAuNzQ2IDI3LjE4MyBDIDUwLjg2MyAyNy40MDggNTAuOTc5IDI3LjYzNCA1MS4zMjkgMjcuODU5IEwgNTkuMDIxIDMyLjQ4MSBDIDU5LjEzNyAzMi41OTQgNTkuMjU0IDMyLjU5NCA1OS4zNyAzMi43MDYgTCA1OS43MiAzMi43MDYgTCA1OS43MiAzMi4zNjggQyA1OS43MiAzMi4yNTUgNTkuNjAzIDMyLjE0MyA1OS40ODcgMzIuMDMgTCA0OC45OTggMTcuNzE0IEMgNDguNjQ5IDE3LjQ4OCA0OC41MzIgMTcuMzc2IDQ4LjQxNiAxNy4xNSBaIE0gNDYuNTUxIDE2LjI0OSBMIDQ2LjA4NSAxNi4yNDkgTCA0MS43NzMgMTYuNTg3IEwgMzAuNTg1IDE3LjcxNCBMIDI3LjQzOCAxOC4wNTIgQyAyNy4zMjIgMTguMDUyIDI3LjIwNSAxOC4xNjUgMjcuMDg5IDE4LjI3OCBDIDI3LjIwNSAxOC4zOSAyNy4zMjIgMTguMzkgMjcuNDM4IDE4LjUwMyBDIDI3LjU1NSAxOC41MDMgMjcuNjcxIDE4LjYxNiAyNy43ODggMTguNjE2IEwgMzYuODc4IDIxLjIwOCBDIDM3LjIyOCAyMS4zMjEgMzcuNTc3IDIxLjIwOCAzNy45MjcgMjEuMDk2IEMgNDAuNjIxIDE5LjYyNSA0My4zNDEgMTguMTk2IDQ2LjA4NSAxNi44MTIgQyA0Ni4wODUgMTYuNTg3IDQ2LjIwMSAxNi4zNjEgNDYuNTUxIDE2LjI0OSBaIE0gMzMuNjE1IDQ3LjkyNCBMIDMzLjYxNSA0Ny41ODYgTCAzMi4zMzMgNDEuMTYxIEMgMzIuMjE3IDQwLjkzNSAzMi4xIDQwLjcxIDMxLjg2NyA0MC41OTcgTCAyNy4zMjIgMzkuMTMyIEMgMjYuNTA2IDM4LjkwNiAyNi41MDYgNDAuMDMzIDI1LjgwNyA0MC4xNDYgQyAyNS42OSA0MC4xNDYgMjUuNjkgNDAuMzcyIDI1LjY5IDQwLjQ4NCBMIDI1LjY5IDQwLjU5NyBMIDI2LjI3MyA0My42NDEgQyAyNi4zOSA0My44NjYgMjYuNTA2IDQ0LjA5MSAyNi43MzkgNDQuMjA0IEwgMjkuMzAzIDQ1LjY3IEwgMzMuNjE1IDQ3LjkyNCBaIE0gMzQuNDMxIDQ4LjI2MiBMIDM5LjMyNSA0OS45NTMgQyAzOS41NTkgNDkuOTUzIDM5Ljc5MiA0OS45NTMgMzkuOTA4IDQ5LjcyOCBMIDQ0LjQ1MyA0Ny4yNDggQyA0NS4xNTIgNDYuOTEgNDUuNjE5IDQ2LjU3MSA0NS4zODYgNDUuNjcgQyA0NS4yNjkgNDUuMzMxIDQ1LjI2OSA0NS4yMTkgNDQuOTE5IDQ1LjEwNiBMIDQwLjYwNyA0My42NDEgQyA0MC4zNzQgNDMuNjQxIDQwLjAyNSA0My42NDEgMzkuNzkyIDQzLjg2NiBMIDM1LjM2MyA0Ny40NzMgTCAzNC40MzEgNDguMjYyIFogTSAyOS4zMDMgMjYuMDU2IEwgMjUuNTc0IDI5LjMyNSBDIDI1LjM0MSAyOS41NSAyNS4yMjQgMjkuODg4IDI1LjIyNCAzMC4yMjYgTCAyNS4yMjQgMzQuNzM1IEMgMjUuMjI0IDM1LjUyNCAyNS4xMDggMzYuMjAxIDI2LjE1NiAzNi40MjYgQyAyNi4zMjggMzYuNjU3IDI2LjY4MyAzNi42NTcgMjYuODU2IDM2LjQyNiBMIDMwLjM1MiAzMy4zODMgQyAzMC40NjggMzMuMjcgMzAuNTg1IDMzLjA0NCAzMC41ODUgMzIuODE5IEwgMjkuMzAzIDI2LjA1NiBaIE0gNDQuNjg2IDI0LjQ3NyBDIDQ0LjQ1MyAyNC43MDMgNDQuMTA0IDI0LjgxNiA0My44NzEgMjUuMDQxIEMgNDMuNTIxIDI1LjE1NCA0My41MjEgMjUuMjY2IDQzLjUyMSAyNS42MDUgTCA0NC40NTMgMzAuMzM5IEMgNDQuNTcgMzAuNTY1IDQ0LjY4NiAzMC43OSA0NC45MTkgMzAuOTAzIEwgNDguNDE2IDMyLjE0MyBMIDUxLjMyOSAzMy4xNTcgTCA1MS4zMjkgMzIuOTMyIEwgNTAuMTY0IDI4LjE5NyBDIDUwLjE2NCAyOC4wODUgNTAuMDQ3IDI3Ljk3MiA0OS45MzEgMjcuODU5IEwgNDQuNjg2IDI0LjQ3NyBaIE0gNDAuODQgMjIuNjc0IEwgMzcuOTI3IDIxLjg4NSBDIDM3LjU3NyAyMS43NzIgMzcuMjI4IDIxLjg4NSAzNi45OTUgMjEuOTk3IEwgMzAuNzAxIDI1LjM3OSBDIDMwLjU4NSAyNS40OTIgMzAuMzUyIDI1LjYwNSAzMC4xMTkgMjUuNzE3IEMgMzAuMzUyIDI1LjgzIDMwLjU4NSAyNS45NDMgMzAuNzAxIDI1Ljk0MyBMIDM1LjU5NiAyNy42MzQgQyAzNi40MTIgMjguMDg1IDM3LjQ2MSAyNy44NTkgMzguMDQ0IDI3LjE4MyBDIDM5LjA5MiAyNi4xNjggNDAuMjU4IDI1LjM3OSA0MS4xOSAyNC40NzcgTCA0MC44NCAyMi42NzQgWiBNIDUxLjY3OSAzMy45NDYgTCA0Ni42NjggMzguMTE3IEMgNDYuMzE4IDM4LjM0MiA0Ni4yMDEgMzguNzkzIDQ2LjMxOCAzOS4xMzIgTCA0Ny4wMTcgNDIuODUxIEMgNDcuMTM0IDQzLjQxNSA0Ny4yNSA0My44NjYgNDcuOTQ5IDQzLjc1MyBDIDQ4LjE4MyA0My43NTMgNDguMjk5IDQzLjg2NiA0OC41MzIgNDMuOTc5IEMgNDguODgyIDQ0LjIwNCA0OC45OTggNDQuMDkxIDQ5LjIzMSA0My44NjYgQyA0OS44MTQgNDMuMzAyIDUwLjUxMyA0Mi43MzkgNTEuMjEzIDQyLjE3NSBDIDUxLjQ0NiA0MS45NSA1MS41NjIgNDEuNzI0IDUxLjU2MiA0MS40OTkgTCA1MS42NzkgMzUuNTI0IEwgNTEuNjc5IDMzLjk0NiBaIE0gMjYuNTA2IDQ0LjU0MiBMIDI2LjUwNiA0NC44ODEgTCAyOC4yNTQgNTMuNzg2IEMgMjguMzcxIDU0LjU3NSAyOC45NTMgNTQuMjM3IDI5LjQyIDU0LjQ2MiBDIDI5Ljg4NiA1NC42ODggMjkuODg2IDU0LjM0OSAzMC4wMDIgNTQuMTI0IEwgMzMuMzgyIDQ4LjkzOSBDIDMzLjQ5OCA0OC44MjYgMzMuNDk4IDQ4LjcxMyAzMy42MTUgNDguNDg4IEwgMjYuNTA2IDQ0LjU0MiBaIE0gMzYuNzYyIDIxLjU0NyBDIDM2LjY0NSAyMS41NDcgMzYuNjQ1IDIxLjQzNCAzNi41MjkgMjEuNDM0IEwgMjcuMzIyIDE4Ljg0MSBDIDI2LjczOSAxOC42MTYgMjYuNzM5IDE5LjI5MiAyNi4zOSAxOS41MTggQyAyNi4yNzMgMTkuNTE4IDI2LjI3MyAxOS45NjggMjYuMzkgMjAuMDgxIEwgMjkuMzAzIDI1LjE1NCBDIDI5LjQyIDI1LjI2NiAyOS40MiAyNS4zNzkgMjkuNTM2IDI1LjQ5MiBMIDM2Ljc2MiAyMS41NDcgWiBNIDUyLjAyOCA0MS4zODYgQyA1Mi4xNDUgNDEuMjczIDUyLjM3OCA0MS4xNjEgNTIuNDk1IDQxLjA0OCBMIDU4Ljc4OCAzNS42MzcgQyA1OS4zNyAzNS4xODYgNTkuMDIxIDM0Ljg0OCA1OC45MDQgMzQuNTEgQyA1OC43OTIgMzQuMjk5IDU4LjU2NiAzNC4xNjggNTguMzIyIDM0LjE3MiBMIDUyLjAyOCAzMy44MzQgTCA1Mi4wMjggNDEuMzg2IFogTSAzMi42ODMgNDAuODIyIEwgMzQuMDgxIDQ3LjgxMSBMIDM5LjY3NSA0My4xOSBMIDMyLjY4MyA0MC44MjIgWiBNIDQ0LjMzNyAzMC42NzcgQyA0NC4xMDQgMjguODc0IDQzLjYzNyAyNy4xODMgNDMuMjg4IDI1LjQ5MiBDIDQzLjI4OCAyNS4zNzkgNDMuMTcxIDI1LjI2NiA0My4wNTUgMjUuMjY2IEMgNDIuNDcyIDI1LjE1NCA0MS44ODkgMjQuOTI4IDQxLjMwNyAyNC44MTYgTCAzNy4yMjggMjguMzEgTCA0NC4zMzcgMzAuNjc3IFogTSAzMS4xNjggMzIuOTMyIEwgMzYuNjQ1IDI4LjQyMyBMIDI5Ljc2OSAyNi4wNTYgTCAzMS4xNjggMzIuOTMyIFogTSA0Ni4wODUgMzguMDA0IEwgNTEuNTYyIDMzLjQ5NSBMIDQ0LjY4NiAzMS4xMjggTCA0Ni4wODUgMzguMDA0IFogTSAzMC44MTggMzMuNDk1IEwgMjYuODU2IDM2Ljc2NCBDIDI2LjczOSAzNi44NzcgMjYuNzM5IDM2Ljk5IDI2Ljg1NiAzNy4xMDMgQyAyNi45NzIgMzcuNjY2IDI3LjA4OSAzOC4yMyAyNy4zMjIgMzguNzkzIEwgMzIuMzMzIDQwLjQ4NCBMIDMwLjgxOCAzMy40OTUgWiBNIDQ1LjM4NiA0NC45OTMgTCA0Ny4wMTcgNDMuNjQxIEwgNDYuMDg1IDM4LjY4MSBMIDQwLjQ5MSA0My4zMDIgTCA0NS4zODYgNDQuOTkzIFogTSAyNS4yMjQgMjguOTg2IEwgMjUuMzQxIDI5LjA5OSBMIDI4Ljk1MyAyNS44MyBDIDI5LjA3IDI1LjcxNyAyOC45NTMgMjUuMzc5IDI4Ljk1MyAyNS4yNjYgTCAyNi4xNTYgMjAuNDE5IEMgMjYuMDQgMjAuMTk0IDI1LjkyMyAxOS44NTYgMjUuNTc0IDE5Ljk2OCBDIDI1LjM0MSAyMC4wODEgMjUuMjI0IDIwLjQxOSAyNS4yMjQgMjAuNjQ1IEwgMjUuMjI0IDI4Ljk4NiBaIE0gMzguOTc2IDUwLjE3OSBMIDM0LjU0NyA0OC43MTMgQyAzNC4xOTggNDguNiAzMy45NjUgNDguNzEzIDMzLjczMiA0OS4wNTEgQyAzMi41NjMgNTAuNzU1IDMxLjQzNyA1Mi40ODQgMzAuMzUyIDU0LjIzNyBDIDMwLjIzNSA1NC40NjIgMzAuMjM1IDU0LjY4OCAzMC4yMzUgNTQuOTEzIEMgMzAuNDY4IDU0LjkxMyAzMC43MDEgNTQuOCAzMC45MzUgNTQuOCBMIDM3LjkyNyA1MC45NjggTCAzOC45NzYgNTAuMTc5IFogTSA1MC44NjMgMjguMTk3IEwgNTEuOTEyIDMyLjU5NCBDIDUxLjkxMiAzMy4wNDQgNTIuMjYxIDMzLjI3IDUyLjcyOCAzMy4yNyBMIDU4LjMyMiAzMy42MDggQyA1OC41NTUgMzMuNjA4IDU4Ljc4OCAzMy4zODMgNTguOTA0IDMzLjM4MyBDIDU4Ljc4OCAzMy4xNTcgNTguNjcxIDMyLjkzMiA1OC41NTUgMzIuODE5IEwgNTEuMzI5IDI4LjUzNSBMIDUwLjg2MyAyOC4xOTcgWiIgc3R5bGU9IiIvPiYjeGE7ICA8ZyBmaWxsPSIjZmZmIiB0cmFuc2Zvcm09Im1hdHJpeCgxLjQwMjExNywgMCwgMCwgMS4zNTYyMDgsIC02LjgwODA4MywgLTYuMTkyMDE5KSIgc3R5bGU9IiI+JiN4YTsgICAgPHBhdGggZD0iTTM5IDM0LjFjLS4xLjEtLjEuMi0uMi4zbC00LjYgNGMtLjIuMS0uNC4xLS42LjFsLTUuNS0xLjljLS4yLS4xLS4zLS4zLS40LS41bC0xLjItNmMwLS4yIDAtLjQuMi0uNmw0LjMtMy43Yy4yLS4xLjQtLjIuNi0uMWw1LjkgMi4xYy4yLjEuNC4yLjQuNWwxLjEgNS42di4yem0tMTguMS02Ljl2NC43YS41NS41NSAwIDAgMS0uMy41Yy0uOC4zLTEuMyAxLTEuMyAxLjkuMS45LjggMS42IDEuNyAxLjcuMSAwIC4zLjEuMy4ybC4zIDEuOGMwIC4zLjEuNi4yIDFsLTguNy00LjkgNy42LTcgLjIuMXpNMzQgNDQuOGw0LjgtMi44Yy42LjggMS44IDEgMi42LjQuOC0uNS45LTEuNC40LTIuNWwyLTEuOC0uMiAxMC4xLTkuNi0zLjR6bS0yMC4yLTEwbDYuMSAzLjUgMSAuNmMuNy4zIDEuMi45IDEuMyAxLjdsMS40IDcuNWMwIC4yIDAgLjMtLjEuNS0uMS0uMS0uMy0uMi0uNC0uM2wtOS4zLTEzLjJ2LS4zeiIvPiYjeGE7ICAgIDxwYXRoIGQ9Ik00Mi43IDQ4LjNsLTIuOS4zLTEyLjIgMS4xYy0uNCAwLS44LjEtMS4yLjFhLjc2Ljc2IDAgMCAxLS40LS4yYy4xLS4xLjEtLjMuMi0uNGw3LjEtNC4xYS40NS40NSAwIDAgMSAuNSAwbDguOCAzLjEuMS4xek0zMi4zIDE5LjJsOC4yLTQuNSAyLjIgOS43YS43Ni43NiAwIDAgMS0uNC0uMmwtMy44LTIuNGMtLjItLjEtLjMtLjQtLjItLjZhMS44MiAxLjgyIDAgMCAwLTEtMi4xYy0uOC0uNC0xLjctLjEtMi4yLjUtLjEuMi0uMy4yLS41LjItLjggMC0xLjYtLjMtMi4zLS42em0tMTguOCAxNGMuMS0uMy4yLS40LjItLjVsNi41LTE0LjJjMC0uMS4xLS4yLjEtLjMuMS0uMS4yLS4yLjMtLjIuMS4xLjIuMi4yLjN2Ny44YzAgLjMtLjEuNS0uMy43bC02LjggNi4zcy0uMS4xLS4yLjF6bTMwLjUgMTRsLjEtNy45Yy0uMS0xLjEuNC0yLjEgMS4zLTIuN2w1LTQuNGMuMS0uMS4zLS4yLjUtLjJ2LjVMNDQuMiA0N2MwIC4xLS4xLjItLjEuM2wtLjEtLjF6bS0yLjgtMzEuN2MuMi4yLjMuNC40LjVsOSAxMi43Yy4xLjEuMS4yLjIuM3YuM2gtLjNjLS4xIDAtLjItLjEtLjMtLjJMNDMuNyAyNWMtLjItLjEtLjQtLjMtLjUtLjZsLTItOC42Yy0uMS0uMS0uMS0uMiAwLS4zem0tMS42LS44Yy0uMi4xLS4zLjItLjUuM2wtNyAzLjhjLS4zLjEtLjYuMi0uOS4xbC03LjgtMi4zYy0uMSAwLS4yIDAtLjMtLjFzLS4yLS4xLS4zLS4yYy4xLS4xLjItLjIuMy0uMmwyLjctLjMgOS42LS45IDMuNy0uM2EuOS45IDAgMCAwIC41LjF6TTI4LjUgNDIuOGwtMy43LTIuMS0yLjItMS4zYy0uMi0uMS0uMy0uMy0uNC0uNWwtLjUtMi43di0uMWwuMS0uM2MuNi0uMS42LTEuMSAxLjMtLjlsMy45IDEuM2MuMi4xLjMuMy40LjVsMS4xIDUuN3YuNHptLjcuM2wuOC0uNyAzLjgtMy4yYy4yLS4yLjQtLjIuNy0uMmwzLjcgMS4zYy4zLjEuMy4zLjQuNS4yLjgtLjIgMS4xLS44IDEuNGwtMy45IDIuMmMtLjIuMS0uMy4yLS41LjJsLTQuMi0xLjV6Ii8+JiN4YTsgICAgPHBhdGggZD0iTTI0LjggMjMuNGwxLjIgNmMwIC4yLS4xLjQtLjIuNWwtMyAyLjdhLjM3LjM3IDAgMCAxLS42IDBjLS45LS4yLS44LS44LS44LTEuNXYtNGMwLS4zLjEtLjYuMy0uOGwzLjEtMi45ek0zOCAyMmw0LjYgMi45Yy4xLjEuMi4yLjIuM2wxIDQuMnYuMmwtMi41LS45LTMtMS4xYy0uMi0uMS0uNC0uMy0uNC0uNWwtLjgtNC4yYzAtLjMgMC0uNC4zLS41LjItLjEuNC0uMy42LS40em0tMy4zLTEuNmwuNCAxLjZjLS45LjgtMS45IDEuNS0yLjcgMi40LS41LjYtMS40LjgtMi4xLjQtMS40LS42LTIuOC0xLTQuMi0xLjUtLjItLjEtLjMtLjEtLjUtLjIuMi0uMS4zLS4yLjUtLjNsNS40LTNjLjMtLjEuNS0uMi44LS4xLjcuMSAxLjYuNSAyLjQuN3ptOS4zIDEwdjEuNGwtLjEgNS4zYzAgLjItLjEuNS0uMy42LS41LjUtMS4xIDEtMS43IDEuNS0uMi4yLS40LjMtLjYuMS0uMS0uMS0uMy0uMi0uNS0uMi0uNi4xLS43LS4zLS44LS44bC0uNi0zLjNjLS4xLS40IDAtLjcuMy0uOWw0LjMtMy43em0tMjEuNiA5LjRsNi4xIDMuNGMtLjEuMi0uMS4zLS4yLjRsLTIuOSA0LjZjLS4xLjItLjIuNS0uNS4zcy0uOC4xLTEtLjZMMjIuNCA0MHYtLjJ6bTguOC0yMC40bC02LjEgMy40Yy0uMS0uMS0uMS0uMi0uMi0uM0wyMi40IDE4Yy0uMS0uMS0uMS0uNCAwLS41LjMtLjIuMi0uNy44LS42bDcuOCAyLjNjMCAuMS4xLjIuMi4yek00NC40IDM3di02LjhsNS40LjNhLjU1LjU1IDAgMCAxIC41LjNjLjEuMy40LjYtLjEgMWwtNS40IDQuOC0uNC40em0tMTYuNi0uNGw2IDIuMS00LjggNC4xLTEuMi02LjJ6Ii8+JiN4YTsgICAgPHBhdGggZD0iTTM3LjggMjcuNWwtNi4yLTIuMiAzLjUtMy4xYTExLjMxIDExLjMxIDAgMCAwIDEuNS40Yy4xIDAgLjIuMS4yLjIuNCAxLjUuNyAzIDEgNC43em0tMTEuNCAybC0xLjItNi4yIDUuOSAyLjEtNC43IDQuMXptMTIuOCA0LjZMMzggMjhsNS44IDIuMS00LjYgNHpNMjYuMSAzMGwxLjIgNi4zLTQuMy0xLjZjLS4yLS42LS4zLTEuMS0uNC0xLjV2LS4zbDMuNS0yLjl6bTEyLjUgMTAuMmwtNC4yLTEuNSA0LjgtNC4xLjggNC40LTEuNCAxLjJ6TTIxLjMgMjZ2LTcuNGMwLS4yLjEtLjQuMy0uNi4zLS4yLjQuMi41LjRsMi40IDQuM2MuMS4xLjEuNCAwIC41LTEgMS0yLjEgMS45LTMuMiAyLjh6bTExLjggMTguOGwtMSAuNi02IDMuNGMtLjEuMS0uMy4yLS41LjIgMC0uMiAwLS40LjEtLjZsMi45LTQuNmMuMi0uMy4zLS40LjctLjMgMS4yLjUgMi41LjkgMy44IDEuM3ptMTAuMi0xOS41bC41LjMgNi4xIDMuOGMuMi4xLjIuMy4zLjUtLjIuMS0uNC4yLS41LjJsLTQuOC0uM2MtLjQgMC0uNy0uMi0uNy0uNi0uMi0xLjItLjUtMi41LS45LTMuOXoiLz4mI3hhOyAgPC9nPiYjeGE7PC9zdmc+;shadow=0;glass=0;dashed=1;dashPattern=1 4;strokeColor=#000000;strokeWidth=1;fillColor=none;gradientColor=none;align=center;fontColor=#D9D9D9;mageAspect=0;" parent="TuEcQPFBkwgy0ww-vpvm-52" vertex="1">
            <mxGeometry x="-30" y="130" width="60" height="60" as="geometry" />
          </mxCell>
        </UserObject>
        <mxCell id="Z7yxuIP9AFndSdzFpjQd-12" value="&lt;div style=&quot;line-height: 200%;&quot;&gt;&lt;font style=&quot;font-size: 18px;&quot; face=&quot;Verdana&quot;&gt;&lt;br&gt;&lt;/font&gt;&lt;/div&gt;&lt;font style=&quot;font-size: 18px;&quot; face=&quot;Verdana&quot;&gt;Code is formatted and linted&lt;/font&gt;&lt;span style=&quot;color: rgba(0, 0, 0, 0); font-family: monospace; font-size: 0px; text-align: start; text-wrap: nowrap;&quot;&gt;%3CmxGraphModel%3E%3Croot%3E%3CmxCell%20id%3D%220%22%2F%3E%3CmxCell%20id%3D%221%22%20parent%3D%220%22%2F%3E%3CmxCell%20id%3D%222%22%20value%3D%22%26lt%3Bfont%20style%3D%26quot%3Bfont-size%3A%2018px%3B%26quot%3B%20face%3D%26quot%3BVerdana%26quot%3B%26gt%3BSource%20code%20is%20fetched%20as%20the%20first%20stage%20in%20the%20pipeline.%26lt%3B%2Ffont%26gt%3B%22%20style%3D%22text%3Bhtml%3D1%3Balign%3Dcenter%3BverticalAlign%3Dtop%3BwhiteSpace%3Dwrap%3Brounded%3D0%3BfontColor%3D%23808080%3B%22%20vertex%3D%221%22%20parent%3D%221%22%3E%3CmxGeometry%20y%3D%22390%22%20width%3D%22800%22%20height%3D%2290%22%20as%3D%22geometry%22%2F%3E%3C%2FmxCell%3E%3C%2Froot%3E%3C%2FmxGraphModel%3E&lt;/span&gt;" style="text;html=1;align=center;verticalAlign=top;whiteSpace=wrap;rounded=0;fontColor=#808080;" parent="TuEcQPFBkwgy0ww-vpvm-52" vertex="1">
          <mxGeometry y="360" width="800" height="90" as="geometry" />
        </mxCell>
        <mxCell id="Z7yxuIP9AFndSdzFpjQd-14" value="&lt;div style=&quot;line-height: 200%;&quot;&gt;&lt;font style=&quot;font-size: 18px;&quot; face=&quot;Verdana&quot;&gt;&lt;br&gt;&lt;/font&gt;&lt;/div&gt;&lt;div style=&quot;line-height: 200%;&quot;&gt;&lt;font style=&quot;font-size: 18px;&quot; face=&quot;Verdana&quot;&gt;&lt;br&gt;&lt;/font&gt;&lt;/div&gt;&lt;font face=&quot;Verdana&quot;&gt;&lt;span style=&quot;font-size: 18px;&quot;&gt;Test coverage and linting report is generated and stored&lt;/span&gt;&lt;/font&gt;" style="text;html=1;align=center;verticalAlign=top;whiteSpace=wrap;rounded=0;fontColor=#808080;" parent="TuEcQPFBkwgy0ww-vpvm-52" vertex="1">
          <mxGeometry y="360" width="800" height="90" as="geometry" />
        </mxCell>
        <mxCell id="Z7yxuIP9AFndSdzFpjQd-15" value="&lt;div style=&quot;line-height: 200%;&quot;&gt;&lt;span style=&quot;font-size: 18px; font-family: Verdana; background-color: initial;&quot;&gt;Static code scans are run to detect security issues&lt;/span&gt;&lt;br&gt;&lt;/div&gt;" style="text;html=1;align=center;verticalAlign=top;whiteSpace=wrap;rounded=0;fontColor=#808080;" parent="TuEcQPFBkwgy0ww-vpvm-52" vertex="1">
          <mxGeometry y="360" width="800" height="90" as="geometry" />
        </mxCell>
        <mxCell id="Z7yxuIP9AFndSdzFpjQd-16" value="&lt;div style=&quot;line-height: 200%;&quot;&gt;&lt;font style=&quot;font-size: 18px;&quot; face=&quot;Verdana&quot;&gt;&lt;br&gt;&lt;/font&gt;&lt;/div&gt;&lt;font face=&quot;Verdana&quot;&gt;&lt;span style=&quot;font-size: 18px;&quot;&gt;The entire SBOM is scanned for known vulnerabilities&lt;/span&gt;&lt;/font&gt;" style="text;html=1;align=center;verticalAlign=top;whiteSpace=wrap;rounded=0;fontColor=#808080;" parent="TuEcQPFBkwgy0ww-vpvm-52" vertex="1">
          <mxGeometry y="360" width="800" height="90" as="geometry" />
        </mxCell>
        <mxCell id="Z7yxuIP9AFndSdzFpjQd-17" value="&lt;div style=&quot;line-height: 200%;&quot;&gt;&lt;font style=&quot;font-size: 18px;&quot; face=&quot;Verdana&quot;&gt;&lt;br&gt;&lt;/font&gt;&lt;/div&gt;&lt;font face=&quot;Verdana&quot;&gt;&lt;span style=&quot;font-size: 18px;&quot;&gt;Which generates an artifact (e.g. a jar, or minified JS files)&lt;/span&gt;&lt;/font&gt;" style="text;html=1;align=center;verticalAlign=top;whiteSpace=wrap;rounded=0;fontColor=#808080;" parent="TuEcQPFBkwgy0ww-vpvm-52" vertex="1">
          <mxGeometry y="360" width="800" height="90" as="geometry" />
        </mxCell>
        <mxCell id="Z7yxuIP9AFndSdzFpjQd-18" value="&lt;div style=&quot;line-height: 200%;&quot;&gt;&lt;font style=&quot;font-size: 18px;&quot; face=&quot;Verdana&quot;&gt;&lt;br&gt;&lt;/font&gt;&lt;/div&gt;&lt;div style=&quot;line-height: 200%;&quot;&gt;&lt;font style=&quot;font-size: 18px;&quot; face=&quot;Verdana&quot;&gt;&lt;br&gt;&lt;/font&gt;&lt;/div&gt;&lt;font face=&quot;Verdana&quot;&gt;&lt;span style=&quot;font-size: 18px;&quot;&gt;And the build artifact is stored in a remote registry&amp;nbsp;&lt;/span&gt;&lt;/font&gt;" style="text;html=1;align=center;verticalAlign=top;whiteSpace=wrap;rounded=0;fontColor=#808080;" parent="TuEcQPFBkwgy0ww-vpvm-52" vertex="1">
          <mxGeometry y="360" width="800" height="90" as="geometry" />
        </mxCell>
        <mxCell id="Z7yxuIP9AFndSdzFpjQd-19" value="&lt;div style=&quot;line-height: 200%;&quot;&gt;&lt;span style=&quot;font-size: 18px; font-family: Verdana; background-color: initial;&quot;&gt;The build is triggered&lt;/span&gt;&lt;br&gt;&lt;/div&gt;" style="text;html=1;align=center;verticalAlign=top;whiteSpace=wrap;rounded=0;fontColor=#808080;" parent="TuEcQPFBkwgy0ww-vpvm-52" vertex="1">
          <mxGeometry y="360" width="800" height="90" as="geometry" />
        </mxCell>
        <mxCell id="Z7yxuIP9AFndSdzFpjQd-20" value="&lt;div style=&quot;line-height: 200%;&quot;&gt;&lt;span style=&quot;font-size: 18px; font-family: Verdana; background-color: initial;&quot;&gt;The source code commit is tagged with a semantic version&lt;/span&gt;&lt;br&gt;&lt;/div&gt;" style="text;html=1;align=center;verticalAlign=top;whiteSpace=wrap;rounded=0;fontColor=#808080;" parent="TuEcQPFBkwgy0ww-vpvm-52" vertex="1">
          <mxGeometry y="360" width="800" height="90" as="geometry" />
        </mxCell>
        <mxCell id="Z7yxuIP9AFndSdzFpjQd-21" value="&lt;div style=&quot;line-height: 200%;&quot;&gt;&lt;font style=&quot;font-size: 18px;&quot; face=&quot;Verdana&quot;&gt;&lt;br&gt;&lt;/font&gt;&lt;/div&gt;&lt;font face=&quot;Verdana&quot;&gt;&lt;span style=&quot;font-size: 18px;&quot;&gt;And a deployment is pushed to the lower environment, usually development&lt;/span&gt;&lt;/font&gt;" style="text;html=1;align=center;verticalAlign=top;whiteSpace=wrap;rounded=0;fontColor=#808080;" parent="TuEcQPFBkwgy0ww-vpvm-52" vertex="1">
          <mxGeometry y="360" width="800" height="90" as="geometry" />
        </mxCell>
        <mxCell id="Z7yxuIP9AFndSdzFpjQd-22" value="&lt;div style=&quot;line-height: 200%;&quot;&gt;&lt;span style=&quot;font-size: 18px; font-family: Verdana; background-color: initial;&quot;&gt;Finally, the development team is notified of the successful build&lt;/span&gt;&lt;br&gt;&lt;/div&gt;" style="text;html=1;align=center;verticalAlign=top;whiteSpace=wrap;rounded=0;fontColor=#808080;" parent="TuEcQPFBkwgy0ww-vpvm-52" vertex="1">
          <mxGeometry y="360" width="800" height="90" as="geometry" />
        </mxCell>
        <mxCell id="TuEcQPFBkwgy0ww-vpvm-43" value="Text" style="" parent="0" />
        <mxCell id="Z7yxuIP9AFndSdzFpjQd-10" value="&lt;div style=&quot;line-height: 200%;&quot;&gt;&lt;span style=&quot;font-size: 18px; font-family: Verdana; background-color: initial;&quot;&gt;&lt;br&gt;&lt;/span&gt;&lt;/div&gt;&lt;div style=&quot;line-height: 200%;&quot;&gt;&lt;font face=&quot;Verdana&quot;&gt;&lt;span style=&quot;font-size: 18px;&quot;&gt;Dependencies are fetched and installed&lt;/span&gt;&lt;/font&gt;&lt;/div&gt;" style="text;html=1;align=center;verticalAlign=top;whiteSpace=wrap;rounded=0;fontColor=#808080;" parent="TuEcQPFBkwgy0ww-vpvm-43" vertex="1">
          <mxGeometry y="360" width="800" height="90" as="geometry" />
        </mxCell>
        <mxCell id="Z7yxuIP9AFndSdzFpjQd-3" value="&lt;font style=&quot;font-size: 18px;&quot; face=&quot;Verdana&quot;&gt;Source code is fetched as the first stage in the pipeline.&lt;/font&gt;" style="text;html=1;align=center;verticalAlign=top;whiteSpace=wrap;rounded=0;fontColor=#808080;" parent="TuEcQPFBkwgy0ww-vpvm-43" vertex="1">
          <mxGeometry y="360" width="800" height="90" as="geometry" />
        </mxCell>
        <mxCell id="Z7yxuIP9AFndSdzFpjQd-4" value="&lt;div style=&quot;line-height: 200%;&quot;&gt;&lt;span style=&quot;font-size: 18px; font-family: Verdana; background-color: initial;&quot;&gt;Unit tests are run&lt;/span&gt;&lt;br&gt;&lt;/div&gt;" style="text;html=1;align=center;verticalAlign=top;whiteSpace=wrap;rounded=0;fontColor=#808080;" parent="TuEcQPFBkwgy0ww-vpvm-43" vertex="1">
          <mxGeometry y="360" width="800" height="90" as="geometry" />
        </mxCell>
        <mxCell id="1" value="Anim" style="" parent="0" />
        <mxCell id="TuEcQPFBkwgy0ww-vpvm-78" style="edgeStyle=orthogonalEdgeStyle;rounded=0;orthogonalLoop=1;jettySize=auto;html=1;exitX=0.5;exitY=1;exitDx=0;exitDy=0;fontSize=12;" parent="1" source="TuEcQPFBkwgy0ww-vpvm-79" target="TuEcQPFBkwgy0ww-vpvm-81" edge="1">
          <mxGeometry relative="1" as="geometry" />
        </mxCell>
        <mxCell id="TuEcQPFBkwgy0ww-vpvm-79" value="Build Process" style="shape=image;editableCssRules=\.[haloColor,layerColor];imageAspect=0;aspect=fixed;verticalLabelPosition=bottom;verticalAlign=top;image=data:image/svg+xml,PHN2ZyB4bWxucz0iaHR0cDovL3d3dy53My5vcmcvMjAwMC9zdmciIHdpZHRoPSIxMDAuMDMyIiBoZWlnaHQ9IjEwMC4wMzIiIHZpZXdCb3g9IjAgMCA3NSA3NSIgZmlsbD0ibm9uZSIgZmlsbC1ydWxlPSJldmVub2RkIiBvdmVyZmxvdz0idmlzaWJsZSIgc3Ryb2tlLWxpbmVjYXA9InNxdWFyZSIgc3Ryb2tlLW1pdGVybGltaXQ9IjMiIGNvbG9yLWludGVycG9sYXRpb24tZmlsdGVycz0ic1JHQiI+JiN4YTsgIDxzdHlsZSB0eXBlPSJ0ZXh0L2NzcyI+LmhhbG9Db2xvciB7IGZpbGw6IHJnYigwLCA4MCwgMjM5KTsgfSAubGF5ZXJDb2xvciB7IGZpbGw6IHJnYigwLCA4MCwgMjM5KTsgfSA8L3N0eWxlPiYjeGE7ICA8Y2lyY2xlIHI9IjM3LjUiIGN4PSIzNy41IiBjeT0iMzcuNSIgY29sb3ItaW50ZXJwb2xhdGlvbi1maWx0ZXJzPSJzUkdCIiBmaWxsPSIjYTJhMmEyIiBjbGFzcz0iaGFsb0NvbG9yIi8+JiN4YTsgIDxjaXJjbGUgZmlsbD0iI2EyYTJhMiIgcj0iMzIuNSIgY3g9IjM3LjQ0OSIgY3k9IjM3LjUwMyIgY29sb3ItaW50ZXJwb2xhdGlvbi1maWx0ZXJzPSJzUkdCIiBzdHlsZT0iIiBjbGFzcz0ibGF5ZXJDb2xvciIvPiYjeGE7ICA8ZyBmaWxsPSIjZmZmIiB0cmFuc2Zvcm09Im1hdHJpeCgxLCAwLCAwLCAxLCA4LjQyNjU5NywgNy45NDQwOTkpIj4mI3hhOyAgICA8Y2lyY2xlIGN4PSIzMCIgY3k9IjUxLjYiIHI9IjMuMiIvPiYjeGE7ICAgIDxjaXJjbGUgY3g9IjI5LjYiIGN5PSI3LjgiIHI9IjMuMiIvPiYjeGE7ICAgIDxjaXJjbGUgY3g9IjMwIiBjeT0iMzcuMSIgcj0iMy4yIi8+JiN4YTsgICAgPGNpcmNsZSBjeD0iMzAiIGN5PSIyMi40IiByPSIzLjIiLz4mI3hhOyAgICA8Y2lyY2xlIGN4PSI0OC40IiBjeT0iMjIuNCIgcj0iNi4yIi8+JiN4YTsgICAgPGNpcmNsZSBjeD0iMTEuMSIgY3k9IjM3LjEiIHI9IjYuMiIvPiYjeGE7ICA8L2c+JiN4YTsgIDxwYXRoIGQ9Ik0gMzkuNzI4IDE3LjI0NCBMIDUzLjEyOCAyNy4wNDQgTSAyMi45MjggNDIuODQ0IEwgMzcuMjI4IDMwLjc0NCBNIDIyLjQyOCA0Ny40NDQgTCAzNy42MjggNTkuNTQ0IE0gMzkuMzI4IDQ0LjA0NCBMIDU1LjMyOCAzMi4wNDQiIGZpbGw9Im5vbmUiIHN0cm9rZT0iI2ZmZiIgc3Ryb2tlLXdpZHRoPSIyIiBzdHJva2UtbWl0ZXJsaW1pdD0iMTAiLz4mI3hhOzwvc3ZnPg==;perimeter=ellipsePerimeter;fontSize=12;" parent="1" vertex="1">
          <mxGeometry x="450" y="10" width="60" height="60" as="geometry" />
        </mxCell>
        <mxCell id="TuEcQPFBkwgy0ww-vpvm-80" style="edgeStyle=orthogonalEdgeStyle;rounded=0;orthogonalLoop=1;jettySize=auto;html=1;exitX=0.5;exitY=1;exitDx=0;exitDy=0;fontSize=12;" parent="1" source="TuEcQPFBkwgy0ww-vpvm-81" target="TuEcQPFBkwgy0ww-vpvm-82" edge="1">
          <mxGeometry relative="1" as="geometry" />
        </mxCell>
        <mxCell id="TuEcQPFBkwgy0ww-vpvm-81" value="Package" style="shape=image;editableCssRules=\.[haloColor,layerColor];verticalLabelPosition=bottom;labelBackgroundColor=none;verticalAlign=top;aspect=fixed;imageAspect=0;image=data:image/svg+xml,PHN2ZyB4bWxucz0iaHR0cDovL3d3dy53My5vcmcvMjAwMC9zdmciIHZpZXdCb3g9IjAgMCA1OS41IDU5LjUiPiYjeGE7ICA8c3R5bGUgdHlwZT0idGV4dC9jc3MiPi5oYWxvQ29sb3IgeyBmaWxsOiByZ2IoMCwgODAsIDIzOSk7IH0gLmxheWVyQ29sb3IgeyBmaWxsOiByZ2IoMCwgODAsIDIzOSk7IH0gPC9zdHlsZT4mI3hhOyAgPGNpcmNsZSBjeD0iMjkuOCIgY3k9IjI5LjgiIHI9IjI5LjgiIGNsYXNzPSJoYWxvQ29sb3IiIHN0eWxlPSIiIGZpbGw9IiNhMmEyYTIiLz4mI3hhOyAgPGNpcmNsZSBmaWxsPSIjYTJhMmEyIiBjbGFzcz0ibGF5ZXJDb2xvciIgY3g9IjI5Ljc3IiBjeT0iMjkuODI1IiByPSIyNC44IiBzdHlsZT0iIi8+JiN4YTsgIDxwYXRoIGQ9Ik0gNDMuNDI2IDQxLjE5NyBMIDQzLjQyNiAyMi4wNjYgTCAzMi45MzMgMTYuNjU1IEwgMzYuNDg5IDE0Ljg0MiBMIDQ3LjI1IDIwLjMzNyBMIDQ3LjI1IDM5LjI4OCBaIE0gMjkuODczIDI3Ljg5MiBMIDIwLjU3OSAyMy4wODQgTCAzMS4xMTcgMTcuNjc1IEwgNDAuMzc0IDIyLjQyNiBaIE0gMzAuNzE2IDQwLjU2OSBMIDMwLjcxNiAyOS4zMTkgTCA0MS43NjggMjMuNTEgTCA0MS43NjggMzQuODg2IFogTSAxOC43NTQgMzUuMzgzIEwgMTguNzU0IDI0LjA1IEwgMjguOTE5IDI5LjI1NyBMIDI4LjkxOSA0MC42NTQgWiBNIDEyLjI1IDMyLjA1MSBMIDEyLjI1IDIwLjMyMyBMIDI5LjY5MiAxMS4zMTMgTCAzNC41ODIgMTMuODY4IEwgMTcuMDE2IDIyLjk2IEwgMTcuMDE2IDM0LjQ2OCBaIE0gMTIuMjUgMzkuMjYxIEwgMTIuMjUgMzMuOTMyIEwgMjkuODMxIDQyLjk1OSBMIDQxLjc2NyAzNi43MzMgTCA0MS43NjcgNDIuMDQ5IEwgMjkuNzA3IDQ4LjE4OCBaIiBmaWxsPSIjZmZmIi8+JiN4YTs8L3N2Zz4=;fontSize=12;" parent="1" vertex="1">
          <mxGeometry x="450" y="130" width="60" height="60" as="geometry" />
        </mxCell>
        <UserObject label="Registry" tooltip="An Existing Workflow is a workflow, subsystem, or ancillary system which already exists outside the current scope." id="TuEcQPFBkwgy0ww-vpvm-82">
          <mxCell style="shape=image;editableCssRules=\.[haloColor,layerColor];imageAspect=0;verticalLabelPosition=bottom;verticalAlign=top;image=data:image/svg+xml,PHN2ZyB4bWxucz0iaHR0cDovL3d3dy53My5vcmcvMjAwMC9zdmciIHdpZHRoPSIxMDJweCIgaGVpZ2h0PSIxMDAuMDMyIiB2aWV3Qm94PSIwIDAgNzUgNzUiIGZpbGw9Im5vbmUiIGZpbGwtcnVsZT0iZXZlbm9kZCIgb3ZlcmZsb3c9InZpc2libGUiIHN0cm9rZS1saW5lY2FwPSJzcXVhcmUiIHN0cm9rZS1taXRlcmxpbWl0PSIzIiBjb2xvci1pbnRlcnBvbGF0aW9uLWZpbHRlcnM9InNSR0IiPiYjeGE7ICA8c3R5bGUgdHlwZT0idGV4dC9jc3MiPi5sYXllckNvbG9yIHsgZmlsbDogcmdiKDAsIDgwLCAyMzkpOyB9IC5oYWxvQ29sb3IgeyBmaWxsOiByZ2IoMCwgODAsIDIzOSk7IH0gPC9zdHlsZT4mI3hhOyAgPGNpcmNsZSBjbGFzcz0iaGFsb0NvbG9yIiByPSIzNy41IiBjeD0iMzcuNTU0IiBjeT0iMzcuNSIgY29sb3ItaW50ZXJwb2xhdGlvbi1maWx0ZXJzPSJzUkdCIiBmaWxsLW9wYWNpdHk9Ii45OCIgc3R5bGU9IiIgZmlsbD0iI2EyYTJhMiIvPiYjeGE7ICA8Y2lyY2xlIGNsYXNzPSJsYXllckNvbG9yIiByPSIzMi41IiBjeD0iMzcuMzgiIGN5PSIzNy4yNjEiIGNvbG9yLWludGVycG9sYXRpb24tZmlsdGVycz0ic1JHQiIgZmlsbC1vcGFjaXR5PSIuOTgiIGZpbGw9IiNhMmEyYTIiLz4mI3hhOyAgPGcgdHJhbnNmb3JtPSJtYXRyaXgoMSwgMCwgMCwgMSwgMi45MDA3NjYsIDMuMTExNjczKSI+JiN4YTsgICAgPHBhdGggZD0iTSAzNS4wNSA5LjAyIEwgMzUuMDcgOS4wMyBMIDM1LjEgOS4wNCBMIDM1LjEyIDkuMDUgTCAzNS4xNCA5LjA2IEwgMzUuMTYgOS4wNyBMIDM1LjE5IDkuMDggTCAzNS4yMSA5LjA5IEwgMzUuMjQgOS4xIEwgMzUuMjYgOS4xMSBMIDM1LjI5IDkuMTIgTCAzNS4zMSA5LjEzIEwgMzUuMzkgOS4xNiBMIDM1LjQxIDkuMTcgTCAzNS40NCA5LjE4IEwgMzUuNDYgOS4xOSBMIDM1LjQ5IDkuMiBMIDM1LjUxIDkuMjEgTCAzNS41MyA5LjIyIEwgMzUuNTYgOS4yMyBMIDM1LjU4IDkuMjQgTCAzNS42IDkuMjUgTCAzNS42MyA5LjI2IEwgMzUuNjUgOS4yNyBMIDM1LjY3IDkuMjggTCAzNS42OSA5LjI5IEwgMzUuNzEgOS4zIEwgMzcuNTEgMTAuMyBMIDQ0LjIxIDE0LjEgTCA0NC4yNyAxNC4xMyBMIDQ0LjMzIDE0LjE2IEwgNDQuMzggMTQuMiBMIDQ0LjQzIDE0LjIzIEwgNDQuNDkgMTQuMjcgTCA0NC41MyAxNC4zMSBMIDQ0LjU4IDE0LjM1IEwgNDQuNjMgMTQuNCBMIDQ0LjY3IDE0LjQ0IEwgNDQuNzEgMTQuNDkgTCA0NC43NSAxNC41NCBMIDQ0Ljc5IDE0LjU4IEwgNDQuODIgMTQuNjMgTCA0NC44NSAxNC42OCBMIDQ0Ljg5IDE0Ljc0IEwgNDQuOTEgMTQuNzkgTCA0NC45NCAxNC44NCBMIDQ0Ljk3IDE0LjkgTCA0NC45OSAxNC45NSBMIDQ1LjAxIDE1LjAxIEwgNDUuMDMgMTUuMDcgTCA0NS4wNSAxNS4xMiBMIDQ1LjA2IDE1LjE4IEwgNDUuMDcgMTUuMjQgTCA0NS4wOSAxNS4zIEwgNDUuMDkgMTUuMzYgTCA0NS4xIDE1LjQyIEwgNDUuMTEgMTUuNDggTCA0NS4xMSAxNS41NCBMIDQ1LjExIDE1LjYgTCA0NS4xMSAxNy40IEwgNDUuMTEgMTcuNDEgTCA0NS4xMSAxNy40MiBMIDQ1LjExIDE3LjQzIEwgNDUuMTIgMTcuNDQgTCA0NS4xMiAxNy40NiBMIDQ1LjEyIDE3LjQ3IEwgNDUuMTMgMTcuNDggTCA0NS4xMyAxNy40OSBMIDQ1LjE0IDE3LjUxIEwgNDUuMTQgMTcuNTIgTCA0NS4xNSAxNy41MyBMIDQ1LjE1IDE3LjU1IEwgNDUuMTYgMTcuNTYgTCA0NS4xNyAxNy41NyBMIDQ1LjE3IDE3LjU5IEwgNDUuMTggMTcuNiBMIDQ1LjE5IDE3LjYxIEwgNDUuMiAxNy42MiBMIDQ1LjIxIDE3LjYzIEwgNDUuMjEgMTcuNjQgTCA0NS4yMiAxNy42NSBMIDQ1LjIzIDE3LjY2IEwgNDUuMjQgMTcuNjcgTCA0NS4yNSAxNy42OCBMIDQ1LjI2IDE3LjY4IEwgNDUuMjcgMTcuNjkgTCA0NS4yOCAxNy42OSBMIDQ1LjI5IDE3LjcgTCA0NS4zIDE3LjcgTCA0NS4zMSAxNy43IEwgNTMuNzEgMjIuNSBMIDUzLjc3IDIyLjUzIEwgNTMuODMgMjIuNTYgTCA1My44OSAyMi42IEwgNTMuOTQgMjIuNjQgTCA1NCAyMi42NyBMIDU0LjA1IDIyLjcxIEwgNTQuMSAyMi43NiBMIDU0LjE1IDIyLjggTCA1NC4yIDIyLjg1IEwgNTQuMjQgMjIuOSBMIDU0LjI5IDIyLjk0IEwgNTQuMzMgMjMgTCA1NC4zNyAyMy4wNSBMIDU0LjQgMjMuMSBMIDU0LjQ0IDIzLjE2IEwgNTQuNDcgMjMuMjEgTCA1NC41MSAyMy4yNyBMIDU0LjU0IDIzLjMzIEwgNTQuNTYgMjMuMzkgTCA1NC41OSAyMy40NSBMIDU0LjYxIDIzLjUxIEwgNTQuNjMgMjMuNTcgTCA1NC42NSAyMy42NCBMIDU0LjY3IDIzLjcgTCA1NC42OCAyMy43NyBMIDU0LjY5IDIzLjgzIEwgNTQuNyAyMy45IEwgNTQuNzEgMjMuOTYgTCA1NC43MSAyNC4wMyBMIDU0LjcxIDI0LjEgTCA1NC43MSAzMy45IEwgNTQuNzEgMzMuOTEgTCA1NC43MSAzMy45MiBMIDU0LjcxIDMzLjkzIEwgNTQuNzIgMzMuOTQgTCA1NC43MiAzMy45NSBMIDU0LjcyIDMzLjk2IEwgNTQuNzMgMzMuOTcgTCA1NC43MyAzMy45OCBMIDU0Ljc0IDMzLjk5IEwgNTQuNzQgMzQgTCA1NC43NSAzNC4wMSBMIDU0Ljc1IDM0LjAyIEwgNTQuNzYgMzQuMDMgTCA1NC43NyAzNC4wNCBMIDU0Ljc3IDM0LjA1IEwgNTQuNzggMzQuMDYgTCA1NC43OSAzNC4wNyBMIDU0LjggMzQuMDggTCA1NC44MSAzNC4wOSBMIDU0LjgxIDM0LjEgTCA1NC44MiAzNC4xMSBMIDU0LjgzIDM0LjEyIEwgNTQuODQgMzQuMTMgTCA1NC44NSAzNC4xNCBMIDU0Ljg2IDM0LjE1IEwgNTQuODcgMzQuMTYgTCA1NC44OCAzNC4xNyBMIDU0LjkxIDM0LjIgTCA1Ni4zMSAzNSBMIDU2LjM3IDM1LjAzIEwgNTYuNDMgMzUuMDYgTCA1Ni40OCAzNS4xIEwgNTYuNTQgMzUuMTMgTCA1Ni41OSAzNS4xNyBMIDU2LjY0IDM1LjIxIEwgNTYuNjkgMzUuMjYgTCA1Ni43NCAzNS4zIEwgNTYuNzkgMzUuMzQgTCA1Ni44MyAzNS4zOSBMIDU2Ljg4IDM1LjQ0IEwgNTYuOTIgMzUuNDkgTCA1Ni45NSAzNS41NCBMIDU2Ljk5IDM1LjU5IEwgNTcuMDIgMzUuNjUgTCA1Ny4wNSAzNS43IEwgNTcuMDggMzUuNzYgTCA1Ny4xMSAzNS44MiBMIDU3LjEzIDM1Ljg4IEwgNTcuMTYgMzUuOTQgTCA1Ny4xNyAzNiBMIDU3LjE5IDM2LjA2IEwgNTcuMiAzNi4xMyBMIDU3LjIxIDM2LjE5IEwgNTcuMjIgMzYuMjYgTCA1Ny4yMyAzNi4zMyBMIDU3LjIzIDM2LjM5IEwgNTcuMjIgMzYuNDYgTCA1Ny4yMiAzNi41MyBMIDU3LjIxIDM2LjYgTCA1Ny4yMSA0Ni4zIEwgNTcuMjEgNDYuMzcgTCA1Ny4yMSA0Ni40NCBMIDU3LjIgNDYuNTEgTCA1Ny4xOSA0Ni41NyBMIDU3LjE5IDQ2LjY0IEwgNTcuMTcgNDYuNzEgTCA1Ny4xNiA0Ni43NyBMIDU3LjE1IDQ2LjgzIEwgNTcuMTMgNDYuOSBMIDU3LjExIDQ2Ljk2IEwgNTcuMDkgNDcuMDIgTCA1Ny4wNyA0Ny4wOCBMIDU3LjA0IDQ3LjE0IEwgNTcuMDEgNDcuMTkgTCA1Ni45OSA0Ny4yNSBMIDU2Ljk1IDQ3LjMgTCA1Ni45MiA0Ny4zNiBMIDU2Ljg5IDQ3LjQxIEwgNTYuODUgNDcuNDYgTCA1Ni44MSA0Ny41MSBMIDU2Ljc3IDQ3LjU1IEwgNTYuNzMgNDcuNiBMIDU2LjY4IDQ3LjY0IEwgNTYuNjMgNDcuNjggTCA1Ni41OSA0Ny43MyBMIDU2LjUzIDQ3Ljc2IEwgNTYuNDggNDcuOCBMIDU2LjQzIDQ3Ljg0IEwgNTYuMzcgNDcuODcgTCA1Ni4zMSA0Ny45IEwgNDcuNzEgNTIuOCBMIDQ3LjY2IDUyLjgzIEwgNDcuNjEgNTIuODYgTCA0Ny41NiA1Mi44OCBMIDQ3LjUxIDUyLjkgTCA0Ny40NSA1Mi45MiBMIDQ3LjQgNTIuOTQgTCA0Ny4zNSA1Mi45NiBMIDQ3LjI5IDUyLjk4IEwgNDcuMjQgNTIuOTkgTCA0Ny4xOSA1MyBMIDQ3LjEzIDUzLjAxIEwgNDcuMDggNTMuMDIgTCA0Ny4wMiA1My4wMiBMIDQ2Ljk3IDUzLjAyIEwgNDYuOTEgNTMuMDIgTCA0Ni44NiA1My4wMiBMIDQ2LjggNTMuMDIgTCA0Ni43NSA1My4wMiBMIDQ2LjY5IDUzLjAxIEwgNDYuNjQgNTMgTCA0Ni41OCA1Mi45OSBMIDQ2LjUzIDUyLjk4IEwgNDYuNDcgNTIuOTYgTCA0Ni40MiA1Mi45NCBMIDQ2LjM3IDUyLjkyIEwgNDYuMzIgNTIuOSBMIDQ2LjI2IDUyLjg4IEwgNDYuMjEgNTIuODYgTCA0Ni4xNiA1Mi44MyBMIDQ2LjExIDUyLjggTCA0NC41MSA1MS45IEwgNDQuNSA1MS44OSBMIDQ0LjQ5IDUxLjg4IEwgNDQuNDggNTEuODcgTCA0NC40NyA1MS44NiBMIDQ0LjQ1IDUxLjg2IEwgNDQuNDQgNTEuODUgTCA0NC40MyA1MS44NSBMIDQ0LjQxIDUxLjg0IEwgNDQuNCA1MS44NCBMIDQ0LjM5IDUxLjgzIEwgNDQuMzcgNTEuODMgTCA0NC4zNiA1MS44MyBMIDQ0LjM0IDUxLjgzIEwgNDQuMzMgNTEuODIgTCA0NC4zMSA1MS44MiBMIDQ0LjMgNTEuODIgTCA0NC4yOCA1MS44MyBMIDQ0LjI3IDUxLjgzIEwgNDQuMjUgNTEuODMgTCA0NC4yNCA1MS44MyBMIDQ0LjIyIDUxLjg0IEwgNDQuMjEgNTEuODQgTCA0NC4xOSA1MS44NSBMIDQ0LjE4IDUxLjg1IEwgNDQuMTcgNTEuODYgTCA0NC4xNiA1MS44NiBMIDQ0LjE0IDUxLjg3IEwgNDQuMTMgNTEuODggTCA0NC4xMiA1MS44OSBMIDQ0LjExIDUxLjkgTCAzOC44MSA1NC45IEwgMzUuNDEgNTYuOSBMIDM0LjIxIDU2LjkgTCAzMy45MSA1Ni43IEwgMjUuNjEgNTEuOSBMIDI1LjYgNTEuODkgTCAyNS41OSA1MS44OCBMIDI1LjU4IDUxLjg3IEwgMjUuNTcgNTEuODYgTCAyNS41NiA1MS44NiBMIDI1LjU1IDUxLjg1IEwgMjUuNTQgNTEuODUgTCAyNS41MyA1MS44NCBMIDI1LjUyIDUxLjg0IEwgMjUuNTEgNTEuODMgTCAyNS41IDUxLjgzIEwgMjUuNDkgNTEuODMgTCAyNS40OCA1MS44MyBMIDI1LjQ3IDUxLjgyIEwgMjUuNDYgNTEuODIgTCAyNS40NSA1MS44MiBMIDI1LjQ0IDUxLjgzIEwgMjUuNDMgNTEuODMgTCAyNS40MiA1MS44MyBMIDI1LjQxIDUxLjgzIEwgMjUuNCA1MS44NCBMIDI1LjM5IDUxLjg0IEwgMjUuMzggNTEuODUgTCAyNS4zNyA1MS44NSBMIDI1LjM2IDUxLjg2IEwgMjUuMzUgNTEuODYgTCAyNS4zNCA1MS44NyBMIDI1LjMzIDUxLjg4IEwgMjUuMzIgNTEuODkgTCAyNS4zMSA1MS45IEwgMjMuNzEgNTIuOCBMIDIzLjY2IDUyLjgzIEwgMjMuNjEgNTIuODYgTCAyMy41NiA1Mi44OCBMIDIzLjUxIDUyLjkgTCAyMy40NSA1Mi45MiBMIDIzLjQgNTIuOTQgTCAyMy4zNSA1Mi45NiBMIDIzLjI5IDUyLjk4IEwgMjMuMjQgNTIuOTkgTCAyMy4xOSA1MyBMIDIzLjEzIDUzLjAxIEwgMjMuMDggNTMuMDIgTCAyMy4wMiA1My4wMiBMIDIyLjk3IDUzLjAyIEwgMjIuOTEgNTMuMDIgTCAyMi44NiA1My4wMiBMIDIyLjggNTMuMDIgTCAyMi43NSA1My4wMiBMIDIyLjY5IDUzLjAxIEwgMjIuNjQgNTMgTCAyMi41OCA1Mi45OSBMIDIyLjUzIDUyLjk4IEwgMjIuNDcgNTIuOTYgTCAyMi40MiA1Mi45NCBMIDIyLjM3IDUyLjkyIEwgMjIuMzIgNTIuOSBMIDIyLjI2IDUyLjg4IEwgMjIuMjEgNTIuODYgTCAyMi4xNiA1Mi44MyBMIDIyLjExIDUyLjggTCAxMy40MSA0Ny44IEwgMTMuMzYgNDcuNzcgTCAxMy4zMSA0Ny43NCBMIDEzLjI3IDQ3LjcgTCAxMy4yMiA0Ny42NyBMIDEzLjE4IDQ3LjYzIEwgMTMuMTQgNDcuNiBMIDEzLjA5IDQ3LjU2IEwgMTMuMDYgNDcuNTIgTCAxMy4wMiA0Ny40OCBMIDEyLjk4IDQ3LjQ0IEwgMTIuOTUgNDcuMzkgTCAxMi45MSA0Ny4zNSBMIDEyLjg4IDQ3LjMgTCAxMi44NSA0Ny4yNiBMIDEyLjgyIDQ3LjIxIEwgMTIuOCA0Ny4xNiBMIDEyLjc3IDQ3LjExIEwgMTIuNzUgNDcuMDYgTCAxMi43MyA0Ny4wMSBMIDEyLjcxIDQ2Ljk2IEwgMTIuNjkgNDYuOTEgTCAxMi42NyA0Ni44NiBMIDEyLjY2IDQ2LjggTCAxMi42NSA0Ni43NSBMIDEyLjY0IDQ2LjY5IEwgMTIuNjMgNDYuNjMgTCAxMi42MiA0Ni41OCBMIDEyLjYxIDQ2LjUyIEwgMTIuNjEgNDYuNDYgTCAxMi42MSA0Ni40IEwgMTIuNjEgMzYuNCBMIDEyLjYxIDM2LjM1IEwgMTIuNjEgMzYuMyBMIDEyLjYyIDM2LjI1IEwgMTIuNjMgMzYuMiBMIDEyLjY0IDM2LjE1IEwgMTIuNjUgMzYuMSBMIDEyLjY2IDM2LjA1IEwgMTIuNjcgMzYgTCAxMi42OSAzNS45NSBMIDEyLjcxIDM1LjkxIEwgMTIuNzMgMzUuODYgTCAxMi43NSAzNS44MSBMIDEyLjc3IDM1Ljc3IEwgMTIuOCAzNS43MiBMIDEyLjgyIDM1LjY3IEwgMTIuODUgMzUuNjMgTCAxMi44OCAzNS41OSBMIDEyLjkxIDM1LjU0IEwgMTIuOTUgMzUuNSBMIDEyLjk4IDM1LjQ2IEwgMTMuMDIgMzUuNDIgTCAxMy4wNiAzNS4zOCBMIDEzLjA5IDM1LjM0IEwgMTMuMTQgMzUuMyBMIDEzLjE4IDM1LjI3IEwgMTMuMjIgMzUuMjMgTCAxMy4yNyAzNS4yIEwgMTMuMzEgMzUuMTYgTCAxMy4zNiAzNS4xMyBMIDEzLjQxIDM1LjEgTCAxMy40NiAzNS4wNyBMIDEzLjUxIDM1LjA0IEwgMTMuNTYgMzUuMDEgTCAxMy42MSAzNC45OCBMIDEzLjY2IDM0Ljk1IEwgMTMuNzEgMzQuOTIgTCAxMy43NiAzNC44OSBMIDEzLjgxIDM0Ljg2IEwgMTMuODYgMzQuODMgTCAxMy45MSAzNC44IEwgMTMuOTYgMzQuNzcgTCAxNC4wMSAzNC43NSBMIDE0LjA2IDM0LjcyIEwgMTQuMTEgMzQuNjkgTCAxNC4xNiAzNC42NiBMIDE0LjIxIDM0LjYzIEwgMTQuMjYgMzQuNjEgTCAxNC4zMSAzNC41OCBMIDE0LjM2IDM0LjU1IEwgMTQuNDEgMzQuNTMgTCAxNC40NiAzNC41IEwgMTQuNTEgMzQuNDggTCAxNC41NiAzNC40NSBMIDE0LjYxIDM0LjQzIEwgMTQuNjYgMzQuNDEgTCAxNC43MSAzNC4zOCBMIDE0Ljc2IDM0LjM2IEwgMTQuODEgMzQuMzQgTCAxNC44NiAzNC4zMiBMIDE0LjkxIDM0LjMgTCAxNC45MiAzNC4yOSBMIDE0LjkzIDM0LjI4IEwgMTQuOTQgMzQuMjcgTCAxNC45NSAzNC4yNiBMIDE0Ljk2IDM0LjI1IEwgMTQuOTcgMzQuMjQgTCAxNC45OCAzNC4yMyBMIDE0Ljk5IDM0LjIyIEwgMTUgMzQuMjEgTCAxNS4wMSAzNC4yIEwgMTUuMDIgMzQuMTggTCAxNS4wMiAzNC4xNyBMIDE1LjAzIDM0LjE2IEwgMTUuMDQgMzQuMTUgTCAxNS4wNSAzNC4xNCBMIDE1LjA2IDM0LjEyIEwgMTUuMDYgMzQuMTEgTCAxNS4wNyAzNC4xIEwgMTUuMDggMzQuMDggTCAxNS4wOCAzNC4wNyBMIDE1LjA5IDM0LjA2IEwgMTUuMDkgMzQuMDQgTCAxNS4xIDM0LjAyIEwgMTUuMSAzNC4wMSBMIDE1LjEgMzMuOTkgTCAxNS4xMSAzMy45NyBMIDE1LjExIDMzLjk2IEwgMTUuMTEgMzMuOTQgTCAxNS4xMSAzMy45MiBMIDE1LjExIDMzLjkgTCAxNS4xMSAyMy43IEwgMTUuMTIgMjMuNjUgTCAxNS4xMyAyMy42IEwgMTUuMTUgMjMuNTUgTCAxNS4xNiAyMy41IEwgMTUuMTggMjMuNDUgTCAxNS4xOSAyMy40IEwgMTUuMjEgMjMuMzUgTCAxNS4yMyAyMy4zIEwgMTUuMjUgMjMuMjYgTCAxNS4yOCAyMy4yMSBMIDE1LjMgMjMuMTYgTCAxNS4zMyAyMy4xMiBMIDE1LjM1IDIzLjA3IEwgMTUuMzggMjMuMDMgTCAxNS40MSAyMi45OSBMIDE1LjQ0IDIyLjk0IEwgMTUuNDcgMjIuOSBMIDE1LjUxIDIyLjg2IEwgMTUuNTQgMjIuODMgTCAxNS41OCAyMi43OSBMIDE1LjYxIDIyLjc1IEwgMTUuNjUgMjIuNzIgTCAxNS42OSAyMi42OCBMIDE1LjczIDIyLjY1IEwgMTUuNzggMjIuNjIgTCAxNS44MiAyMi41OSBMIDE1Ljg3IDIyLjU3IEwgMTUuOTEgMjIuNTQgTCAxNS45NiAyMi41MiBMIDE2LjAxIDIyLjUgTCAyNC41MSAxNy43IEwgMjQuNTMgMTcuNjkgTCAyNC41NSAxNy42OCBMIDI0LjU3IDE3LjY3IEwgMjQuNTggMTcuNjYgTCAyNC42IDE3LjY1IEwgMjQuNjEgMTcuNjQgTCAyNC42MiAxNy42MyBMIDI0LjYzIDE3LjYyIEwgMjQuNjQgMTcuNjEgTCAyNC42NSAxNy42IEwgMjQuNjYgMTcuNTggTCAyNC42NyAxNy41NyBMIDI0LjY3IDE3LjU2IEwgMjQuNjggMTcuNTUgTCAyNC42OSAxNy41NCBMIDI0LjY5IDE3LjUyIEwgMjQuNjkgMTcuNTEgTCAyNC43IDE3LjUgTCAyNC43IDE3LjQ4IEwgMjQuNyAxNy40NyBMIDI0LjcxIDE3LjQ2IEwgMjQuNzEgMTcuNDQgTCAyNC43MSAxNy40MiBMIDI0LjcxIDE3LjQxIEwgMjQuNzEgMTcuMzkgTCAyNC43MSAxNy4zNyBMIDI0LjcxIDE3LjM2IEwgMjQuNzEgMTcuMzQgTCAyNC43MSAxNy4zMiBMIDI0LjcxIDE1LjYgTCAyNC43MSAxNS41MyBMIDI0LjcyIDE1LjQ2IEwgMjQuNzIgMTUuMzkgTCAyNC43MyAxNS4zMiBMIDI0Ljc0IDE1LjI1IEwgMjQuNzYgMTUuMTggTCAyNC43NyAxNS4xMiBMIDI0Ljc5IDE1LjA1IEwgMjQuODEgMTQuOTggTCAyNC44NCAxNC45MiBMIDI0Ljg2IDE0Ljg1IEwgMjQuODkgMTQuNzkgTCAyNC45MiAxNC43MyBMIDI0Ljk1IDE0LjY3IEwgMjQuOTkgMTQuNjEgTCAyNS4wMiAxNC41NiBMIDI1LjA2IDE0LjUgTCAyNS4xIDE0LjQ1IEwgMjUuMTQgMTQuNCBMIDI1LjE5IDE0LjM1IEwgMjUuMjMgMTQuMyBMIDI1LjI4IDE0LjI2IEwgMjUuMzMgMTQuMjEgTCAyNS4zOCAxNC4xOCBMIDI1LjQzIDE0LjE0IEwgMjUuNDggMTQuMSBMIDI1LjU0IDE0LjA3IEwgMjUuNTkgMTQuMDUgTCAyNS42NSAxNC4wMiBMIDI1LjcxIDE0IEwgMzEuNzEgMTAuNiBMIDMxLjc3IDEwLjU1IEwgMzEuODQgMTAuNSBMIDMxLjkxIDEwLjQ1IEwgMzEuOTggMTAuNCBMIDMyLjA1IDEwLjM1IEwgMzIuMTMgMTAuMyBMIDMyLjIxIDEwLjI1IEwgMzIuMjkgMTAuMiBMIDMyLjM3IDEwLjE1IEwgMzIuNDYgMTAuMSBMIDMyLjU0IDEwLjA0IEwgMzIuNjMgOS45OSBMIDMyLjcyIDkuOTQgTCAzMi44MiA5Ljg5IEwgMzIuOTEgOS44NCBMIDMzLjAxIDkuNzggTCAzMy4xIDkuNzMgTCAzMy4yIDkuNjggTCAzMy4zIDkuNjIgTCAzMy40IDkuNTcgTCAzMy41IDkuNTIgTCAzMy42IDkuNDYgTCAzMy43IDkuNCBMIDMzLjggOS4zNSBMIDMzLjkxIDkuMjkgTCAzNC4wMSA5LjIzIEwgMzQuMTEgOS4xOCBMIDM0LjIxIDkuMTIgTCAzNC4zMSA5LjA2IEwgMzQuNDEgOSBMIDM1LjAxIDkgTCAzNS4wMyA5LjAxIEwgMzUuMDUgOS4wMiBaIE0gMTguMTEgMjQuNyBMIDE4LjA5IDI0LjcyIEwgMTguMDggMjQuNzMgTCAxOC4wNyAyNC43NCBMIDE4LjA2IDI0Ljc1IEwgMTguMDUgMjQuNzYgTCAxOC4wNCAyNC43NyBMIDE4LjAzIDI0Ljc4IEwgMTguMDIgMjQuNzkgTCAxOC4wMiAyNC44IEwgMTguMDEgMjQuODEgTCAxOCAyNC44MiBMIDE3Ljk5IDI0LjgzIEwgMTcuOTkgMjQuODQgTCAxNy45OCAyNC44NSBMIDE3Ljk4IDI0Ljg2IEwgMTcuOTggMjQuODggTCAxNy45NyAyNC44OSBMIDE3Ljk3IDI0LjkgTCAxNy45NyAyNC45MSBMIDE3Ljk3IDI0LjkyIEwgMTcuOTcgMjQuOTMgTCAxNy45NyAyNC45NCBMIDE3Ljk4IDI0Ljk1IEwgMTcuOTggMjQuOTYgTCAxNy45OSAyNC45NyBMIDE3Ljk5IDI0Ljk4IEwgMTggMjQuOTkgTCAxOC4wMSAyNSBMIDE4LjAxIDMyLjUgTCAxOC4xMSAzMi40IEwgMjEuODEgMzAuMyBMIDIxLjg3IDMwLjI3IEwgMjEuOTIgMzAuMjQgTCAyMS45OCAzMC4yMiBMIDIyLjA0IDMwLjE5IEwgMjIuMDkgMzAuMTcgTCAyMi4xNSAzMC4xNSBMIDIyLjIxIDMwLjEzIEwgMjIuMjcgMzAuMTIgTCAyMi4zMyAzMC4xMSBMIDIyLjM5IDMwLjEgTCAyMi40NSAzMC4wOSBMIDIyLjUxIDMwLjA4IEwgMjIuNTcgMzAuMDggTCAyMi42MyAzMC4wNyBMIDIyLjY5IDMwLjA3IEwgMjIuNzUgMzAuMDggTCAyMi44MSAzMC4wOCBMIDIyLjg3IDMwLjA5IEwgMjIuOTMgMzAuMSBMIDIyLjk5IDMwLjExIEwgMjMuMDUgMzAuMTIgTCAyMy4xMSAzMC4xMyBMIDIzLjE3IDMwLjE1IEwgMjMuMjMgMzAuMTcgTCAyMy4yOSAzMC4xOSBMIDIzLjM0IDMwLjIyIEwgMjMuNCAzMC4yNCBMIDIzLjQ2IDMwLjI3IEwgMjMuNTEgMzAuMyBMIDMyLjExIDM1LjIgTCAzMi4xNyAzNS4yMyBMIDMyLjIzIDM1LjI3IEwgMzIuMjkgMzUuMyBMIDMyLjM0IDM1LjM0IEwgMzIuMzkgMzUuMzggTCAzMi40NCAzNS40MiBMIDMyLjQ5IDM1LjQ2IEwgMzIuNTQgMzUuNTEgTCAzMi41OCAzNS41NiBMIDMyLjYyIDM1LjYgTCAzMi42NiAzNS42NSBMIDMyLjcgMzUuNyBMIDMyLjc0IDM1Ljc2IEwgMzIuNzcgMzUuODEgTCAzMi44IDM1Ljg2IEwgMzIuODMgMzUuOTIgTCAzMi44NiAzNS45OCBMIDMyLjg4IDM2LjAzIEwgMzIuOSAzNi4wOSBMIDMyLjkyIDM2LjE1IEwgMzIuOTQgMzYuMjEgTCAzMi45NiAzNi4yNyBMIDMyLjk3IDM2LjMzIEwgMzIuOTggMzYuMzkgTCAzMi45OSAzNi40NSBMIDMzIDM2LjUxIEwgMzMuMDEgMzYuNTggTCAzMy4wMSAzNi42NCBMIDMzLjAxIDM2LjcgTCAzMy4wMSA0Ni41IEwgMzMuMDEgNDYuNTYgTCAzMy4wMSA0Ni42MiBMIDMzIDQ2LjY5IEwgMzIuOTkgNDYuNzUgTCAzMi45OCA0Ni44MSBMIDMyLjk3IDQ2Ljg3IEwgMzIuOTYgNDYuOTMgTCAzMi45NCA0Ni45OSBMIDMyLjkyIDQ3LjA1IEwgMzIuOSA0Ny4xMSBMIDMyLjg4IDQ3LjE3IEwgMzIuODYgNDcuMjIgTCAzMi44MyA0Ny4yOCBMIDMyLjggNDcuMzMgTCAzMi43NyA0Ny4zOSBMIDMyLjc0IDQ3LjQ0IEwgMzIuNyA0Ny40OSBMIDMyLjY2IDQ3LjU0IEwgMzIuNjIgNDcuNTkgTCAzMi41OCA0Ny42NCBMIDMyLjU0IDQ3LjY5IEwgMzIuNDkgNDcuNzMgTCAzMi40NCA0Ny43OCBMIDMyLjM5IDQ3LjgyIEwgMzIuMzQgNDcuODYgTCAzMi4yOSA0Ny45IEwgMzIuMjMgNDcuOTMgTCAzMi4xNyA0Ny45NyBMIDMyLjExIDQ4IEwgMjguNjEgNTAgTCAyOC40MSA1MC4xIEwgMjguNTEgNTAuMiBMIDM0LjYxIDUzLjcgTCAzNC42MiA1My43MSBMIDM0LjYzIDUzLjcyIEwgMzQuNjQgNTMuNzMgTCAzNC42NSA1My43MyBMIDM0LjY2IDUzLjc0IEwgMzQuNjcgNTMuNzUgTCAzNC42OCA1My43NSBMIDM0LjY5IDUzLjc2IEwgMzQuNyA1My43NiBMIDM0LjcxIDUzLjc3IEwgMzQuNzIgNTMuNzcgTCAzNC43NCA1My43NyBMIDM0Ljc1IDUzLjc3IEwgMzQuNzYgNTMuNzcgTCAzNC43NyA1My43NyBMIDM0Ljc4IDUzLjc3IEwgMzQuNzkgNTMuNzcgTCAzNC44IDUzLjc3IEwgMzQuODEgNTMuNzcgTCAzNC44MiA1My43NiBMIDM0LjgzIDUzLjc2IEwgMzQuODQgNTMuNzUgTCAzNC44NSA1My43NSBMIDM0Ljg2IDUzLjc0IEwgMzQuODcgNTMuNzMgTCAzNC44OCA1My43MyBMIDM0Ljg5IDUzLjcyIEwgMzQuOSA1My43MSBMIDM0LjkxIDUzLjcgTCA0MC45MSA1MC4zIEwgNDEuMTEgNTAuMiBMIDQwLjkxIDUwLjEgTCAzNy40MSA0OC4xIEwgMzcuMzUgNDguMDcgTCAzNy4yOSA0OC4wMyBMIDM3LjIzIDQ4IEwgMzcuMTggNDcuOTYgTCAzNy4xMyA0Ny45MiBMIDM3LjA4IDQ3Ljg4IEwgMzcuMDMgNDcuODMgTCAzNi45OCA0Ny43OSBMIDM2Ljk0IDQ3Ljc0IEwgMzYuOSA0Ny42OSBMIDM2Ljg2IDQ3LjY0IEwgMzYuODIgNDcuNTkgTCAzNi43OCA0Ny41MyBMIDM2Ljc1IDQ3LjQ4IEwgMzYuNzIgNDcuNDIgTCAzNi42OSA0Ny4zNiBMIDM2LjY3IDQ3LjMgTCAzNi42NCA0Ny4yNCBMIDM2LjYyIDQ3LjE4IEwgMzYuNiA0Ny4xMiBMIDM2LjU4IDQ3LjA1IEwgMzYuNTYgNDYuOTkgTCAzNi41NSA0Ni45MiBMIDM2LjU0IDQ2Ljg1IEwgMzYuNTMgNDYuNzggTCAzNi41MiA0Ni43MSBMIDM2LjUyIDQ2LjY0IEwgMzYuNTEgNDYuNTcgTCAzNi41MSA0Ni41IEwgMzYuNTEgMzYuOCBMIDM2LjUxIDM2LjczIEwgMzYuNTIgMzYuNjYgTCAzNi41MiAzNi41OSBMIDM2LjUzIDM2LjUyIEwgMzYuNTQgMzYuNDUgTCAzNi41NSAzNi4zOCBMIDM2LjU2IDM2LjMxIEwgMzYuNTggMzYuMjUgTCAzNi42IDM2LjE4IEwgMzYuNjIgMzYuMTIgTCAzNi42NCAzNi4wNiBMIDM2LjY3IDM2IEwgMzYuNjkgMzUuOTQgTCAzNi43MiAzNS44OCBMIDM2Ljc1IDM1LjgyIEwgMzYuNzggMzUuNzcgTCAzNi44MiAzNS43MSBMIDM2Ljg2IDM1LjY2IEwgMzYuOSAzNS42MSBMIDM2Ljk0IDM1LjU2IEwgMzYuOTggMzUuNTEgTCAzNy4wMyAzNS40NyBMIDM3LjA4IDM1LjQyIEwgMzcuMTMgMzUuMzggTCAzNy4xOCAzNS4zNCBMIDM3LjIzIDM1LjMgTCAzNy4yOSAzNS4yNyBMIDM3LjM1IDM1LjIzIEwgMzcuNDEgMzUuMiBMIDQ1LjkxIDMwLjQgTCA0NS45NyAzMC4zNiBMIDQ2LjAzIDMwLjMyIEwgNDYuMDkgMzAuMjkgTCA0Ni4xNiAzMC4yNiBMIDQ2LjIyIDMwLjIzIEwgNDYuMjkgMzAuMiBMIDQ2LjM1IDMwLjE4IEwgNDYuNDIgMzAuMTYgTCA0Ni40OSAzMC4xNCBMIDQ2LjU1IDMwLjEzIEwgNDYuNjIgMzAuMTIgTCA0Ni42OSAzMC4xMSBMIDQ2Ljc2IDMwLjEgTCA0Ni44MyAzMC4xIEwgNDYuOSAzMC4xIEwgNDYuOTYgMzAuMSBMIDQ3LjAzIDMwLjExIEwgNDcuMSAzMC4xMiBMIDQ3LjE3IDMwLjEzIEwgNDcuMjQgMzAuMTQgTCA0Ny4zIDMwLjE2IEwgNDcuMzcgMzAuMTggTCA0Ny40NCAzMC4yIEwgNDcuNSAzMC4yMyBMIDQ3LjU3IDMwLjI2IEwgNDcuNjMgMzAuMjkgTCA0Ny42OSAzMC4zMiBMIDQ3Ljc1IDMwLjM2IEwgNDcuODEgMzAuNCBMIDUxLjQxIDMyLjUgTCA1MS42MSAzMi42IEwgNTEuNjEgMjUuMyBMIDUxLjYxIDI1LjI5IEwgNTEuNjEgMjUuMjggTCA1MS42MSAyNS4yNyBMIDUxLjYxIDI1LjI1IEwgNTEuNiAyNS4yNCBMIDUxLjYgMjUuMjMgTCA1MS41OSAyNS4yMSBMIDUxLjU5IDI1LjIgTCA1MS41OSAyNS4xOSBMIDUxLjU4IDI1LjE3IEwgNTEuNTcgMjUuMTYgTCA1MS41NyAyNS4xNSBMIDUxLjU2IDI1LjEzIEwgNTEuNTUgMjUuMTIgTCA1MS41NCAyNS4xMSBMIDUxLjU0IDI1LjA5IEwgNTEuNTMgMjUuMDggTCA1MS41MiAyNS4wNyBMIDUxLjUxIDI1LjA2IEwgNTEuNSAyNS4wNSBMIDUxLjQ5IDI1LjA0IEwgNTEuNDggMjUuMDMgTCA1MS40NyAyNS4wMiBMIDUxLjQ2IDI1LjAyIEwgNTEuNDUgMjUuMDEgTCA1MS40NCAyNS4wMSBMIDUxLjQzIDI1IEwgNTEuNDIgMjUgTCA1MS40MSAyNSBMIDQ1LjIxIDIxLjQgTCA0NS4wMSAyMS4zIEwgNDUuMDEgMjUuNCBMIDQ1LjAxIDI1LjQ2IEwgNDUuMDEgMjUuNTIgTCA0NSAyNS41OSBMIDQ0Ljk5IDI1LjY1IEwgNDQuOTggMjUuNzEgTCA0NC45NyAyNS43NyBMIDQ0Ljk2IDI1LjgzIEwgNDQuOTQgMjUuODkgTCA0NC45MiAyNS45NSBMIDQ0LjkgMjYuMDEgTCA0NC44OCAyNi4wNyBMIDQ0Ljg2IDI2LjEyIEwgNDQuODMgMjYuMTggTCA0NC44IDI2LjIzIEwgNDQuNzcgMjYuMjkgTCA0NC43NCAyNi4zNCBMIDQ0LjcgMjYuMzkgTCA0NC42NiAyNi40NCBMIDQ0LjYyIDI2LjQ5IEwgNDQuNTggMjYuNTQgTCA0NC41NCAyNi41OSBMIDQ0LjQ5IDI2LjYzIEwgNDQuNDQgMjYuNjggTCA0NC4zOSAyNi43MiBMIDQ0LjM0IDI2Ljc2IEwgNDQuMjkgMjYuOCBMIDQ0LjIzIDI2LjgzIEwgNDQuMTcgMjYuODcgTCA0NC4xMSAyNi45IEwgMzUuNjEgMzEuOCBMIDM1LjU2IDMxLjgzIEwgMzUuNSAzMS44NiBMIDM1LjQ1IDMxLjg4IEwgMzUuMzkgMzEuOTEgTCAzNS4zNCAzMS45MyBMIDM1LjI4IDMxLjk1IEwgMzUuMjIgMzEuOTYgTCAzNS4xNiAzMS45OCBMIDM1LjEgMzEuOTkgTCAzNS4wMyAzMiBMIDM0Ljk3IDMyLjAxIEwgMzQuOTEgMzIuMDIgTCAzNC44NSAzMi4wMiBMIDM0Ljc4IDMyLjAyIEwgMzQuNzIgMzIuMDIgTCAzNC42NSAzMi4wMiBMIDM0LjU5IDMyLjAyIEwgMzQuNTIgMzIuMDEgTCAzNC40NiAzMiBMIDM0LjM5IDMxLjk5IEwgMzQuMzIgMzEuOTggTCAzNC4yNiAzMS45NiBMIDM0LjE5IDMxLjk1IEwgMzQuMTMgMzEuOTMgTCAzNC4wNiAzMS45MSBMIDM0IDMxLjg4IEwgMzMuOTQgMzEuODYgTCAzMy44NyAzMS44MyBMIDMzLjgxIDMxLjggTCAyNS4zMSAyNi45IEwgMjUuMjUgMjYuODcgTCAyNS4xOSAyNi44MyBMIDI1LjEzIDI2LjggTCAyNS4wOCAyNi43NiBMIDI1LjAzIDI2LjcyIEwgMjQuOTggMjYuNjggTCAyNC45MyAyNi42MyBMIDI0Ljg4IDI2LjU5IEwgMjQuODQgMjYuNTQgTCAyNC44IDI2LjQ5IEwgMjQuNzYgMjYuNDQgTCAyNC43MiAyNi4zOSBMIDI0LjY4IDI2LjM0IEwgMjQuNjUgMjYuMjkgTCAyNC42MiAyNi4yMyBMIDI0LjU5IDI2LjE4IEwgMjQuNTcgMjYuMTIgTCAyNC41NCAyNi4wNyBMIDI0LjUyIDI2LjAxIEwgMjQuNSAyNS45NSBMIDI0LjQ4IDI1Ljg5IEwgMjQuNDYgMjUuODMgTCAyNC40NSAyNS43NyBMIDI0LjQ0IDI1LjcxIEwgMjQuNDMgMjUuNjUgTCAyNC40MiAyNS41OSBMIDI0LjQyIDI1LjUyIEwgMjQuNDEgMjUuNDYgTCAyNC40MSAyNS40IEwgMjQuNDEgMjEuMiBMIDI0LjMxIDIxLjIgTCAxOC4xMSAyNC43IFogTSAxNS41MiA0NS43NiBMIDE1LjU1IDQ1LjgxIEwgMTUuNTggNDUuODYgTCAxNS42IDQ1Ljg5IEwgMTUuNjEgNDUuOSBMIDE2LjczIDQ2LjU0IEwgMTcuODEgNDcuMTYgTCAyMS4wMSA0OSBMIDIxLjIxIDQ5LjEgTCAyMS4yMSA0Mi45IEwgMjEuMiA0Mi44MyBMIDIxLjE3IDQyLjc1IEwgMjEuMTIgNDIuNjggTCAyMS4wNyA0Mi42MiBMIDIxLjAxIDQyLjYgTCAxOS45MSA0MS45OCBMIDE4Ljg1IDQxLjM4IEwgMTUuNzEgMzkuNiBMIDE1LjUxIDM5LjMgTCAxNS41MSA0NS43IEwgMTUuNTIgNDUuNzYgWiBNIDQ4LjUxIDQyLjQgTCA0OC40NSA0Mi40NiBMIDQ4LjQgNDIuNTIgTCA0OC4zNSA0Mi41OCBMIDQ4LjMyIDQyLjY0IEwgNDguMzEgNDIuNyBMIDQ4LjMxIDQ5IEwgNDguNTEgNDguOSBMIDUzLjgxIDQ1LjkgTCA1My44NyA0NS44NCBMIDUzLjkyIDQ1Ljc4IEwgNTMuOTcgNDUuNzIgTCA1NCA0NS42NiBMIDU0LjAxIDQ1LjYgTCA1NC4wMSAzOS4zIEwgNTMuODEgMzkuNCBMIDQ4LjUxIDQyLjQgWiBNIDI0LjQxIDQyLjQgTCAyNC4zNSA0Mi40NiBMIDI0LjMgNDIuNTIgTCAyNC4yNSA0Mi41OCBMIDI0LjIyIDQyLjY0IEwgMjQuMjEgNDIuNyBMIDI0LjIxIDQ5IEwgMjQuNDEgNDguOSBMIDI5LjgxIDQ1LjggTCAyOS44NyA0NS43NCBMIDI5LjkyIDQ1LjY4IEwgMjkuOTcgNDUuNjIgTCAzMCA0NS41NiBMIDMwLjAxIDQ1LjUgTCAzMC4wMSAzOS4zIEwgMjkuNzEgMzkuNCBMIDI0LjQxIDQyLjQgWiBNIDM5LjUyIDQ1LjY3IEwgMzkuNTUgNDUuNzUgTCAzOS42IDQ1LjgyIEwgMzkuNjUgNDUuODggTCAzOS43MSA0NS45IEwgNDUuMDEgNDguOSBMIDQ1LjIxIDQ5IEwgNDUuMjEgNDIuNyBMIDQ1LjIgNDIuNjQgTCA0NS4xNyA0Mi41OCBMIDQ1LjEyIDQyLjUyIEwgNDUuMDcgNDIuNDYgTCA0NS4wMSA0Mi40IEwgNDMuMjIgNDEuMzggTCA0Mi4wNSA0MC43MiBMIDQwLjYxIDM5LjkgTCAzOS41MSAzOS4zIEwgMzkuNTEgNDUuNiBMIDM5LjUyIDQ1LjY3IFogTSA0Ni42NyAzMy4zNSBMIDQ2LjYxIDMzLjQgTCA0NS40OSAzNC4wNCBMIDQ0LjQxIDM0LjY2IEwgNDEuMjEgMzYuNSBMIDQxLjExIDM2LjYgTCA0MS4yMSAzNi43IEwgNDYuNjEgMzkuOCBMIDQ2LjY3IDM5Ljg1IEwgNDYuNzMgMzkuODcgTCA0Ni43OSAzOS44NyBMIDQ2Ljg1IDM5Ljg1IEwgNDYuOTEgMzkuOCBMIDQ3LjcgMzkuMzQgTCA0OC40NiAzOC45IEwgNTAuNzEgMzcuNiBMIDUyLjQxIDM2LjYgTCA0OS4xNSAzNC43IEwgNDguMDUgMzQuMDYgTCA0Ni45MSAzMy40IEwgNDYuODUgMzMuMzUgTCA0Ni43OSAzMy4zMyBMIDQ2LjczIDMzLjMzIEwgNDYuNjcgMzMuMzUgWiBNIDIyLjY3IDMzLjM1IEwgMjIuNjEgMzMuNCBMIDE3LjkxIDM2LjEgTCAxNy4xMSAzNi42IEwgMjIuNjEgMzkuOCBMIDIyLjkxIDM5LjggTCAyOC4yMSAzNi44IEwgMjguNDEgMzYuNyBMIDI4LjMxIDM2LjUgTCAyNS4xMSAzNC42NiBMIDI0LjAzIDM0LjA0IEwgMjIuOTEgMzMuNCBMIDIyLjg1IDMzLjM1IEwgMjIuNzkgMzMuMzMgTCAyMi43MyAzMy4zMyBMIDIyLjY3IDMzLjM1IFogTSAyNy41MiAyNC41NyBMIDI3LjU1IDI0LjY1IEwgMjcuNiAyNC43MiBMIDI3LjY1IDI0Ljc4IEwgMjcuNzEgMjQuOCBMIDMzLjAxIDI3LjggTCAzMy4yMSAyNy45IEwgMzMuMjEgMjEuNiBMIDMzLjIgMjEuNTQgTCAzMy4xNyAyMS40OCBMIDMzLjEyIDIxLjQyIEwgMzMuMDcgMjEuMzYgTCAzMy4wMSAyMS4zIEwgMzIuMSAyMC43OCBMIDMxLjIyIDIwLjI4IEwgMzAuMDUgMTkuNjIgTCAyOC42MSAxOC44IEwgMjcuNTEgMTguMiBMIDI3LjUxIDI0LjUgTCAyNy41MiAyNC41NyBaIE0gMzYuNTEgMjEuMyBMIDM2LjQ1IDIxLjM2IEwgMzYuNCAyMS40MiBMIDM2LjM1IDIxLjQ4IEwgMzYuMzIgMjEuNTQgTCAzNi4zMSAyMS42IEwgMzYuMzEgMjcuOSBMIDM2LjUxIDI3LjggTCA0MS44MSAyNC44IEwgNDEuODcgMjQuNzQgTCA0MS45MiAyNC42OCBMIDQxLjk3IDI0LjYyIEwgNDIgMjQuNTYgTCA0Mi4wMSAyNC41IEwgNDIuMDEgMTguMiBMIDQxLjgxIDE4LjMgTCAzNi41MSAyMS4zIFogTSAzNC41NyAxMi4zNSBMIDM0LjUxIDEyLjQgTCAzMC45MSAxNC41IEwgMjkuMTEgMTUuNSBMIDMyLjM3IDE3LjM5IEwgMzMuNDcgMTguMDMgTCAzNC42MSAxOC43IEwgMzQuNjcgMTguNzUgTCAzNC43MyAxOC43NyBMIDM0Ljc5IDE4Ljc3IEwgMzQuODUgMTguNzUgTCAzNC45MSAxOC43IEwgNDAuMjEgMTUuNyBMIDQwLjQxIDE1LjYgTCA0MC4yMSAxNS41IEwgMzcuMDEgMTMuNjYgTCAzNS45MyAxMy4wNCBMIDM0LjgxIDEyLjQgTCAzNC43NSAxMi4zNSBMIDM0LjY5IDEyLjMzIEwgMzQuNjMgMTIuMzMgTCAzNC41NyAxMi4zNSBaIiBzdHlsZT0iZmlsbDogcmdiKDI1NSwgMjU1LCAyNTUpOyIvPiYjeGE7ICAgIDxnPiYjeGE7ICAgICAgPHBhdGggZD0iTSAzNS4wNSA5LjAyIEwgMzUuMDcgOS4wMyBMIDM1LjEgOS4wNCBMIDM1LjEyIDkuMDUgTCAzNS4xNCA5LjA2IEwgMzUuMTYgOS4wNyBMIDM1LjE5IDkuMDggTCAzNS4yMSA5LjA5IEwgMzUuMjQgOS4xIEwgMzUuMjYgOS4xMSBMIDM1LjI5IDkuMTIgTCAzNS4zMSA5LjEzIEwgMzUuMzkgOS4xNiBMIDM1LjQxIDkuMTcgTCAzNS40NCA5LjE4IEwgMzUuNDYgOS4xOSBMIDM1LjQ5IDkuMiBMIDM1LjUxIDkuMjEgTCAzNS41MyA5LjIyIEwgMzUuNTYgOS4yMyBMIDM1LjU4IDkuMjQgTCAzNS42IDkuMjUgTCAzNS42MyA5LjI2IEwgMzUuNjUgOS4yNyBMIDM1LjY3IDkuMjggTCAzNS42OSA5LjI5IEwgMzUuNzEgOS4zIEwgMzcuNTEgMTAuMyBMIDQ0LjIxIDE0LjEgTCA0NC4yNyAxNC4xMyBMIDQ0LjMzIDE0LjE2IEwgNDQuMzggMTQuMiBMIDQ0LjQzIDE0LjIzIEwgNDQuNDkgMTQuMjcgTCA0NC41MyAxNC4zMSBMIDQ0LjU4IDE0LjM1IEwgNDQuNjMgMTQuNCBMIDQ0LjY3IDE0LjQ0IEwgNDQuNzEgMTQuNDkgTCA0NC43NSAxNC41NCBMIDQ0Ljc5IDE0LjU4IEwgNDQuODIgMTQuNjMgTCA0NC44NSAxNC42OCBMIDQ0Ljg5IDE0Ljc0IEwgNDQuOTEgMTQuNzkgTCA0NC45NCAxNC44NCBMIDQ0Ljk3IDE0LjkgTCA0NC45OSAxNC45NSBMIDQ1LjAxIDE1LjAxIEwgNDUuMDMgMTUuMDcgTCA0NS4wNSAxNS4xMiBMIDQ1LjA2IDE1LjE4IEwgNDUuMDcgMTUuMjQgTCA0NS4wOSAxNS4zIEwgNDUuMDkgMTUuMzYgTCA0NS4xIDE1LjQyIEwgNDUuMTEgMTUuNDggTCA0NS4xMSAxNS41NCBMIDQ1LjExIDE1LjYgTCA0NS4xMSAxNy40IEwgNDUuMTEgMTcuNDEgTCA0NS4xMSAxNy40MiBMIDQ1LjExIDE3LjQzIEwgNDUuMTIgMTcuNDQgTCA0NS4xMiAxNy40NiBMIDQ1LjEyIDE3LjQ3IEwgNDUuMTMgMTcuNDggTCA0NS4xMyAxNy40OSBMIDQ1LjE0IDE3LjUxIEwgNDUuMTQgMTcuNTIgTCA0NS4xNSAxNy41MyBMIDQ1LjE1IDE3LjU1IEwgNDUuMTYgMTcuNTYgTCA0NS4xNyAxNy41NyBMIDQ1LjE3IDE3LjU5IEwgNDUuMTggMTcuNiBMIDQ1LjE5IDE3LjYxIEwgNDUuMiAxNy42MiBMIDQ1LjIxIDE3LjYzIEwgNDUuMjEgMTcuNjQgTCA0NS4yMiAxNy42NSBMIDQ1LjIzIDE3LjY2IEwgNDUuMjQgMTcuNjcgTCA0NS4yNSAxNy42OCBMIDQ1LjI2IDE3LjY4IEwgNDUuMjcgMTcuNjkgTCA0NS4yOCAxNy42OSBMIDQ1LjI5IDE3LjcgTCA0NS4zIDE3LjcgTCA0NS4zMSAxNy43IEwgNTMuNzEgMjIuNSBMIDUzLjc3IDIyLjUzIEwgNTMuODMgMjIuNTYgTCA1My44OSAyMi42IEwgNTMuOTQgMjIuNjQgTCA1NCAyMi42NyBMIDU0LjA1IDIyLjcxIEwgNTQuMSAyMi43NiBMIDU0LjE1IDIyLjggTCA1NC4yIDIyLjg1IEwgNTQuMjQgMjIuOSBMIDU0LjI5IDIyLjk0IEwgNTQuMzMgMjMgTCA1NC4zNyAyMy4wNSBMIDU0LjQgMjMuMSBMIDU0LjQ0IDIzLjE2IEwgNTQuNDcgMjMuMjEgTCA1NC41MSAyMy4yNyBMIDU0LjU0IDIzLjMzIEwgNTQuNTYgMjMuMzkgTCA1NC41OSAyMy40NSBMIDU0LjYxIDIzLjUxIEwgNTQuNjMgMjMuNTcgTCA1NC42NSAyMy42NCBMIDU0LjY3IDIzLjcgTCA1NC42OCAyMy43NyBMIDU0LjY5IDIzLjgzIEwgNTQuNyAyMy45IEwgNTQuNzEgMjMuOTYgTCA1NC43MSAyNC4wMyBMIDU0LjcxIDI0LjEgTCA1NC43MSAzMy45IEwgNTQuNzEgMzMuOTEgTCA1NC43MSAzMy45MiBMIDU0LjcxIDMzLjkzIEwgNTQuNzIgMzMuOTQgTCA1NC43MiAzMy45NSBMIDU0LjcyIDMzLjk2IEwgNTQuNzMgMzMuOTcgTCA1NC43MyAzMy45OCBMIDU0Ljc0IDMzLjk5IEwgNTQuNzQgMzQgTCA1NC43NSAzNC4wMSBMIDU0Ljc1IDM0LjAyIEwgNTQuNzYgMzQuMDMgTCA1NC43NyAzNC4wNCBMIDU0Ljc3IDM0LjA1IEwgNTQuNzggMzQuMDYgTCA1NC43OSAzNC4wNyBMIDU0LjggMzQuMDggTCA1NC44MSAzNC4wOSBMIDU0LjgxIDM0LjEgTCA1NC44MiAzNC4xMSBMIDU0LjgzIDM0LjEyIEwgNTQuODQgMzQuMTMgTCA1NC44NSAzNC4xNCBMIDU0Ljg2IDM0LjE1IEwgNTQuODcgMzQuMTYgTCA1NC44OCAzNC4xNyBMIDU0LjkxIDM0LjIgTCA1Ni4zMSAzNSBMIDU2LjM3IDM1LjAzIEwgNTYuNDMgMzUuMDYgTCA1Ni40OCAzNS4xIEwgNTYuNTQgMzUuMTMgTCA1Ni41OSAzNS4xNyBMIDU2LjY0IDM1LjIxIEwgNTYuNjkgMzUuMjYgTCA1Ni43NCAzNS4zIEwgNTYuNzkgMzUuMzQgTCA1Ni44MyAzNS4zOSBMIDU2Ljg4IDM1LjQ0IEwgNTYuOTIgMzUuNDkgTCA1Ni45NSAzNS41NCBMIDU2Ljk5IDM1LjU5IEwgNTcuMDIgMzUuNjUgTCA1Ny4wNSAzNS43IEwgNTcuMDggMzUuNzYgTCA1Ny4xMSAzNS44MiBMIDU3LjEzIDM1Ljg4IEwgNTcuMTYgMzUuOTQgTCA1Ny4xNyAzNiBMIDU3LjE5IDM2LjA2IEwgNTcuMiAzNi4xMyBMIDU3LjIxIDM2LjE5IEwgNTcuMjIgMzYuMjYgTCA1Ny4yMyAzNi4zMyBMIDU3LjIzIDM2LjM5IEwgNTcuMjIgMzYuNDYgTCA1Ny4yMiAzNi41MyBMIDU3LjIxIDM2LjYgTCA1Ny4yMSA0Ni4zIEwgNTcuMjEgNDYuMzcgTCA1Ny4yMSA0Ni40NCBMIDU3LjIgNDYuNTEgTCA1Ny4xOSA0Ni41NyBMIDU3LjE5IDQ2LjY0IEwgNTcuMTcgNDYuNzEgTCA1Ny4xNiA0Ni43NyBMIDU3LjE1IDQ2LjgzIEwgNTcuMTMgNDYuOSBMIDU3LjExIDQ2Ljk2IEwgNTcuMDkgNDcuMDIgTCA1Ny4wNyA0Ny4wOCBMIDU3LjA0IDQ3LjE0IEwgNTcuMDEgNDcuMTkgTCA1Ni45OSA0Ny4yNSBMIDU2Ljk1IDQ3LjMgTCA1Ni45MiA0Ny4zNiBMIDU2Ljg5IDQ3LjQxIEwgNTYuODUgNDcuNDYgTCA1Ni44MSA0Ny41MSBMIDU2Ljc3IDQ3LjU1IEwgNTYuNzMgNDcuNiBMIDU2LjY4IDQ3LjY0IEwgNTYuNjMgNDcuNjggTCA1Ni41OSA0Ny43MyBMIDU2LjUzIDQ3Ljc2IEwgNTYuNDggNDcuOCBMIDU2LjQzIDQ3Ljg0IEwgNTYuMzcgNDcuODcgTCA1Ni4zMSA0Ny45IEwgNDcuNzEgNTIuOCBMIDQ3LjY2IDUyLjgzIEwgNDcuNjEgNTIuODYgTCA0Ny41NiA1Mi44OCBMIDQ3LjUxIDUyLjkgTCA0Ny40NSA1Mi45MiBMIDQ3LjQgNTIuOTQgTCA0Ny4zNSA1Mi45NiBMIDQ3LjI5IDUyLjk4IEwgNDcuMjQgNTIuOTkgTCA0Ny4xOSA1MyBMIDQ3LjEzIDUzLjAxIEwgNDcuMDggNTMuMDIgTCA0Ny4wMiA1My4wMiBMIDQ2Ljk3IDUzLjAyIEwgNDYuOTEgNTMuMDIgTCA0Ni44NiA1My4wMiBMIDQ2LjggNTMuMDIgTCA0Ni43NSA1My4wMiBMIDQ2LjY5IDUzLjAxIEwgNDYuNjQgNTMgTCA0Ni41OCA1Mi45OSBMIDQ2LjUzIDUyLjk4IEwgNDYuNDcgNTIuOTYgTCA0Ni40MiA1Mi45NCBMIDQ2LjM3IDUyLjkyIEwgNDYuMzIgNTIuOSBMIDQ2LjI2IDUyLjg4IEwgNDYuMjEgNTIuODYgTCA0Ni4xNiA1Mi44MyBMIDQ2LjExIDUyLjggTCA0NC41MSA1MS45IEwgNDQuNSA1MS44OSBMIDQ0LjQ5IDUxLjg4IEwgNDQuNDggNTEuODcgTCA0NC40NyA1MS44NiBMIDQ0LjQ1IDUxLjg2IEwgNDQuNDQgNTEuODUgTCA0NC40MyA1MS44NSBMIDQ0LjQxIDUxLjg0IEwgNDQuNCA1MS44NCBMIDQ0LjM5IDUxLjgzIEwgNDQuMzcgNTEuODMgTCA0NC4zNiA1MS44MyBMIDQ0LjM0IDUxLjgzIEwgNDQuMzMgNTEuODIgTCA0NC4zMSA1MS44MiBMIDQ0LjMgNTEuODIgTCA0NC4yOCA1MS44MyBMIDQ0LjI3IDUxLjgzIEwgNDQuMjUgNTEuODMgTCA0NC4yNCA1MS44MyBMIDQ0LjIyIDUxLjg0IEwgNDQuMjEgNTEuODQgTCA0NC4xOSA1MS44NSBMIDQ0LjE4IDUxLjg1IEwgNDQuMTcgNTEuODYgTCA0NC4xNiA1MS44NiBMIDQ0LjE0IDUxLjg3IEwgNDQuMTMgNTEuODggTCA0NC4xMiA1MS44OSBMIDQ0LjExIDUxLjkgTCAzOC44MSA1NC45IEwgMzUuNDEgNTYuOSBMIDM0LjIxIDU2LjkgTCAzMy45MSA1Ni43IEwgMjUuNjEgNTEuOSBMIDI1LjYgNTEuODkgTCAyNS41OSA1MS44OCBMIDI1LjU4IDUxLjg3IEwgMjUuNTcgNTEuODYgTCAyNS41NiA1MS44NiBMIDI1LjU1IDUxLjg1IEwgMjUuNTQgNTEuODUgTCAyNS41MyA1MS44NCBMIDI1LjUyIDUxLjg0IEwgMjUuNTEgNTEuODMgTCAyNS41IDUxLjgzIEwgMjUuNDkgNTEuODMgTCAyNS40OCA1MS44MyBMIDI1LjQ3IDUxLjgyIEwgMjUuNDYgNTEuODIgTCAyNS40NSA1MS44MiBMIDI1LjQ0IDUxLjgzIEwgMjUuNDMgNTEuODMgTCAyNS40MiA1MS44MyBMIDI1LjQxIDUxLjgzIEwgMjUuNCA1MS44NCBMIDI1LjM5IDUxLjg0IEwgMjUuMzggNTEuODUgTCAyNS4zNyA1MS44NSBMIDI1LjM2IDUxLjg2IEwgMjUuMzUgNTEuODYgTCAyNS4zNCA1MS44NyBMIDI1LjMzIDUxLjg4IEwgMjUuMzIgNTEuODkgTCAyNS4zMSA1MS45IEwgMjMuNzEgNTIuOCBMIDIzLjY2IDUyLjgzIEwgMjMuNjEgNTIuODYgTCAyMy41NiA1Mi44OCBMIDIzLjUxIDUyLjkgTCAyMy40NSA1Mi45MiBMIDIzLjQgNTIuOTQgTCAyMy4zNSA1Mi45NiBMIDIzLjI5IDUyLjk4IEwgMjMuMjQgNTIuOTkgTCAyMy4xOSA1MyBMIDIzLjEzIDUzLjAxIEwgMjMuMDggNTMuMDIgTCAyMy4wMiA1My4wMiBMIDIyLjk3IDUzLjAyIEwgMjIuOTEgNTMuMDIgTCAyMi44NiA1My4wMiBMIDIyLjggNTMuMDIgTCAyMi43NSA1My4wMiBMIDIyLjY5IDUzLjAxIEwgMjIuNjQgNTMgTCAyMi41OCA1Mi45OSBMIDIyLjUzIDUyLjk4IEwgMjIuNDcgNTIuOTYgTCAyMi40MiA1Mi45NCBMIDIyLjM3IDUyLjkyIEwgMjIuMzIgNTIuOSBMIDIyLjI2IDUyLjg4IEwgMjIuMjEgNTIuODYgTCAyMi4xNiA1Mi44MyBMIDIyLjExIDUyLjggTCAxMy40MSA0Ny44IEwgMTMuMzYgNDcuNzcgTCAxMy4zMSA0Ny43NCBMIDEzLjI3IDQ3LjcgTCAxMy4yMiA0Ny42NyBMIDEzLjE4IDQ3LjYzIEwgMTMuMTQgNDcuNiBMIDEzLjA5IDQ3LjU2IEwgMTMuMDYgNDcuNTIgTCAxMy4wMiA0Ny40OCBMIDEyLjk4IDQ3LjQ0IEwgMTIuOTUgNDcuMzkgTCAxMi45MSA0Ny4zNSBMIDEyLjg4IDQ3LjMgTCAxMi44NSA0Ny4yNiBMIDEyLjgyIDQ3LjIxIEwgMTIuOCA0Ny4xNiBMIDEyLjc3IDQ3LjExIEwgMTIuNzUgNDcuMDYgTCAxMi43MyA0Ny4wMSBMIDEyLjcxIDQ2Ljk2IEwgMTIuNjkgNDYuOTEgTCAxMi42NyA0Ni44NiBMIDEyLjY2IDQ2LjggTCAxMi42NSA0Ni43NSBMIDEyLjY0IDQ2LjY5IEwgMTIuNjMgNDYuNjMgTCAxMi42MiA0Ni41OCBMIDEyLjYxIDQ2LjUyIEwgMTIuNjEgNDYuNDYgTCAxMi42MSA0Ni40IEwgMTIuNjEgMzYuNCBMIDEyLjYxIDM2LjM1IEwgMTIuNjEgMzYuMyBMIDEyLjYyIDM2LjI1IEwgMTIuNjMgMzYuMiBMIDEyLjY0IDM2LjE1IEwgMTIuNjUgMzYuMSBMIDEyLjY2IDM2LjA1IEwgMTIuNjcgMzYgTCAxMi42OSAzNS45NSBMIDEyLjcxIDM1LjkxIEwgMTIuNzMgMzUuODYgTCAxMi43NSAzNS44MSBMIDEyLjc3IDM1Ljc3IEwgMTIuOCAzNS43MiBMIDEyLjgyIDM1LjY3IEwgMTIuODUgMzUuNjMgTCAxMi44OCAzNS41OSBMIDEyLjkxIDM1LjU0IEwgMTIuOTUgMzUuNSBMIDEyLjk4IDM1LjQ2IEwgMTMuMDIgMzUuNDIgTCAxMy4wNiAzNS4zOCBMIDEzLjA5IDM1LjM0IEwgMTMuMTQgMzUuMyBMIDEzLjE4IDM1LjI3IEwgMTMuMjIgMzUuMjMgTCAxMy4yNyAzNS4yIEwgMTMuMzEgMzUuMTYgTCAxMy4zNiAzNS4xMyBMIDEzLjQxIDM1LjEgTCAxMy40NiAzNS4wNyBMIDEzLjUxIDM1LjA0IEwgMTMuNTYgMzUuMDEgTCAxMy42MSAzNC45OCBMIDEzLjY2IDM0Ljk1IEwgMTMuNzEgMzQuOTIgTCAxMy43NiAzNC44OSBMIDEzLjgxIDM0Ljg2IEwgMTMuODYgMzQuODMgTCAxMy45MSAzNC44IEwgMTMuOTYgMzQuNzcgTCAxNC4wMSAzNC43NSBMIDE0LjA2IDM0LjcyIEwgMTQuMTEgMzQuNjkgTCAxNC4xNiAzNC42NiBMIDE0LjIxIDM0LjYzIEwgMTQuMjYgMzQuNjEgTCAxNC4zMSAzNC41OCBMIDE0LjM2IDM0LjU1IEwgMTQuNDEgMzQuNTMgTCAxNC40NiAzNC41IEwgMTQuNTEgMzQuNDggTCAxNC41NiAzNC40NSBMIDE0LjYxIDM0LjQzIEwgMTQuNjYgMzQuNDEgTCAxNC43MSAzNC4zOCBMIDE0Ljc2IDM0LjM2IEwgMTQuODEgMzQuMzQgTCAxNC44NiAzNC4zMiBMIDE0LjkxIDM0LjMgTCAxNC45MiAzNC4yOSBMIDE0LjkzIDM0LjI4IEwgMTQuOTQgMzQuMjcgTCAxNC45NSAzNC4yNiBMIDE0Ljk2IDM0LjI1IEwgMTQuOTcgMzQuMjQgTCAxNC45OCAzNC4yMyBMIDE0Ljk5IDM0LjIyIEwgMTUgMzQuMjEgTCAxNS4wMSAzNC4yIEwgMTUuMDIgMzQuMTggTCAxNS4wMiAzNC4xNyBMIDE1LjAzIDM0LjE2IEwgMTUuMDQgMzQuMTUgTCAxNS4wNSAzNC4xNCBMIDE1LjA2IDM0LjEyIEwgMTUuMDYgMzQuMTEgTCAxNS4wNyAzNC4xIEwgMTUuMDggMzQuMDggTCAxNS4wOCAzNC4wNyBMIDE1LjA5IDM0LjA2IEwgMTUuMDkgMzQuMDQgTCAxNS4xIDM0LjAyIEwgMTUuMSAzNC4wMSBMIDE1LjEgMzMuOTkgTCAxNS4xMSAzMy45NyBMIDE1LjExIDMzLjk2IEwgMTUuMTEgMzMuOTQgTCAxNS4xMSAzMy45MiBMIDE1LjExIDMzLjkgTCAxNS4xMSAyMy43IEwgMTUuMTIgMjMuNjUgTCAxNS4xMyAyMy42IEwgMTUuMTUgMjMuNTUgTCAxNS4xNiAyMy41IEwgMTUuMTggMjMuNDUgTCAxNS4xOSAyMy40IEwgMTUuMjEgMjMuMzUgTCAxNS4yMyAyMy4zIEwgMTUuMjUgMjMuMjYgTCAxNS4yOCAyMy4yMSBMIDE1LjMgMjMuMTYgTCAxNS4zMyAyMy4xMiBMIDE1LjM1IDIzLjA3IEwgMTUuMzggMjMuMDMgTCAxNS40MSAyMi45OSBMIDE1LjQ0IDIyLjk0IEwgMTUuNDcgMjIuOSBMIDE1LjUxIDIyLjg2IEwgMTUuNTQgMjIuODMgTCAxNS41OCAyMi43OSBMIDE1LjYxIDIyLjc1IEwgMTUuNjUgMjIuNzIgTCAxNS42OSAyMi42OCBMIDE1LjczIDIyLjY1IEwgMTUuNzggMjIuNjIgTCAxNS44MiAyMi41OSBMIDE1Ljg3IDIyLjU3IEwgMTUuOTEgMjIuNTQgTCAxNS45NiAyMi41MiBMIDE2LjAxIDIyLjUgTCAyNC41MSAxNy43IEwgMjQuNTMgMTcuNjkgTCAyNC41NSAxNy42OCBMIDI0LjU3IDE3LjY3IEwgMjQuNTggMTcuNjYgTCAyNC42IDE3LjY1IEwgMjQuNjEgMTcuNjQgTCAyNC42MiAxNy42MyBMIDI0LjYzIDE3LjYyIEwgMjQuNjQgMTcuNjEgTCAyNC42NSAxNy42IEwgMjQuNjYgMTcuNTggTCAyNC42NyAxNy41NyBMIDI0LjY3IDE3LjU2IEwgMjQuNjggMTcuNTUgTCAyNC42OSAxNy41NCBMIDI0LjY5IDE3LjUyIEwgMjQuNjkgMTcuNTEgTCAyNC43IDE3LjUgTCAyNC43IDE3LjQ4IEwgMjQuNyAxNy40NyBMIDI0LjcxIDE3LjQ2IEwgMjQuNzEgMTcuNDQgTCAyNC43MSAxNy40MiBMIDI0LjcxIDE3LjQxIEwgMjQuNzEgMTcuMzkgTCAyNC43MSAxNy4zNyBMIDI0LjcxIDE3LjM2IEwgMjQuNzEgMTcuMzQgTCAyNC43MSAxNy4zMiBMIDI0LjcxIDE1LjYgTCAyNC43MSAxNS41MyBMIDI0LjcyIDE1LjQ2IEwgMjQuNzIgMTUuMzkgTCAyNC43MyAxNS4zMiBMIDI0Ljc0IDE1LjI1IEwgMjQuNzYgMTUuMTggTCAyNC43NyAxNS4xMiBMIDI0Ljc5IDE1LjA1IEwgMjQuODEgMTQuOTggTCAyNC44NCAxNC45MiBMIDI0Ljg2IDE0Ljg1IEwgMjQuODkgMTQuNzkgTCAyNC45MiAxNC43MyBMIDI0Ljk1IDE0LjY3IEwgMjQuOTkgMTQuNjEgTCAyNS4wMiAxNC41NiBMIDI1LjA2IDE0LjUgTCAyNS4xIDE0LjQ1IEwgMjUuMTQgMTQuNCBMIDI1LjE5IDE0LjM1IEwgMjUuMjMgMTQuMyBMIDI1LjI4IDE0LjI2IEwgMjUuMzMgMTQuMjEgTCAyNS4zOCAxNC4xOCBMIDI1LjQzIDE0LjE0IEwgMjUuNDggMTQuMSBMIDI1LjU0IDE0LjA3IEwgMjUuNTkgMTQuMDUgTCAyNS42NSAxNC4wMiBMIDI1LjcxIDE0IEwgMzEuNzEgMTAuNiBMIDMxLjc3IDEwLjU1IEwgMzEuODQgMTAuNSBMIDMxLjkxIDEwLjQ1IEwgMzEuOTggMTAuNCBMIDMyLjA1IDEwLjM1IEwgMzIuMTMgMTAuMyBMIDMyLjIxIDEwLjI1IEwgMzIuMjkgMTAuMiBMIDMyLjM3IDEwLjE1IEwgMzIuNDYgMTAuMSBMIDMyLjU0IDEwLjA0IEwgMzIuNjMgOS45OSBMIDMyLjcyIDkuOTQgTCAzMi44MiA5Ljg5IEwgMzIuOTEgOS44NCBMIDMzLjAxIDkuNzggTCAzMy4xIDkuNzMgTCAzMy4yIDkuNjggTCAzMy4zIDkuNjIgTCAzMy40IDkuNTcgTCAzMy41IDkuNTIgTCAzMy42IDkuNDYgTCAzMy43IDkuNCBMIDMzLjggOS4zNSBMIDMzLjkxIDkuMjkgTCAzNC4wMSA5LjIzIEwgMzQuMTEgOS4xOCBMIDM0LjIxIDkuMTIgTCAzNC4zMSA5LjA2IEwgMzQuNDEgOSBMIDM1LjAxIDkgTCAzNS4wMyA5LjAxIEwgMzUuMDUgOS4wMiBaIE0gMTguMTEgMjQuNyBMIDE4LjA5IDI0LjcyIEwgMTguMDggMjQuNzMgTCAxOC4wNyAyNC43NCBMIDE4LjA2IDI0Ljc1IEwgMTguMDUgMjQuNzYgTCAxOC4wNCAyNC43NyBMIDE4LjAzIDI0Ljc4IEwgMTguMDIgMjQuNzkgTCAxOC4wMiAyNC44IEwgMTguMDEgMjQuODEgTCAxOCAyNC44MiBMIDE3Ljk5IDI0LjgzIEwgMTcuOTkgMjQuODQgTCAxNy45OCAyNC44NSBMIDE3Ljk4IDI0Ljg2IEwgMTcuOTggMjQuODggTCAxNy45NyAyNC44OSBMIDE3Ljk3IDI0LjkgTCAxNy45NyAyNC45MSBMIDE3Ljk3IDI0LjkyIEwgMTcuOTcgMjQuOTMgTCAxNy45NyAyNC45NCBMIDE3Ljk4IDI0Ljk1IEwgMTcuOTggMjQuOTYgTCAxNy45OSAyNC45NyBMIDE3Ljk5IDI0Ljk4IEwgMTggMjQuOTkgTCAxOC4wMSAyNSBMIDE4LjAxIDMyLjUgTCAxOC4xMSAzMi40IEwgMjEuODEgMzAuMyBMIDIxLjg3IDMwLjI3IEwgMjEuOTIgMzAuMjQgTCAyMS45OCAzMC4yMiBMIDIyLjA0IDMwLjE5IEwgMjIuMDkgMzAuMTcgTCAyMi4xNSAzMC4xNSBMIDIyLjIxIDMwLjEzIEwgMjIuMjcgMzAuMTIgTCAyMi4zMyAzMC4xMSBMIDIyLjM5IDMwLjEgTCAyMi40NSAzMC4wOSBMIDIyLjUxIDMwLjA4IEwgMjIuNTcgMzAuMDggTCAyMi42MyAzMC4wNyBMIDIyLjY5IDMwLjA3IEwgMjIuNzUgMzAuMDggTCAyMi44MSAzMC4wOCBMIDIyLjg3IDMwLjA5IEwgMjIuOTMgMzAuMSBMIDIyLjk5IDMwLjExIEwgMjMuMDUgMzAuMTIgTCAyMy4xMSAzMC4xMyBMIDIzLjE3IDMwLjE1IEwgMjMuMjMgMzAuMTcgTCAyMy4yOSAzMC4xOSBMIDIzLjM0IDMwLjIyIEwgMjMuNCAzMC4yNCBMIDIzLjQ2IDMwLjI3IEwgMjMuNTEgMzAuMyBMIDMyLjExIDM1LjIgTCAzMi4xNyAzNS4yMyBMIDMyLjIzIDM1LjI3IEwgMzIuMjkgMzUuMyBMIDMyLjM0IDM1LjM0IEwgMzIuMzkgMzUuMzggTCAzMi40NCAzNS40MiBMIDMyLjQ5IDM1LjQ2IEwgMzIuNTQgMzUuNTEgTCAzMi41OCAzNS41NiBMIDMyLjYyIDM1LjYgTCAzMi42NiAzNS42NSBMIDMyLjcgMzUuNyBMIDMyLjc0IDM1Ljc2IEwgMzIuNzcgMzUuODEgTCAzMi44IDM1Ljg2IEwgMzIuODMgMzUuOTIgTCAzMi44NiAzNS45OCBMIDMyLjg4IDM2LjAzIEwgMzIuOSAzNi4wOSBMIDMyLjkyIDM2LjE1IEwgMzIuOTQgMzYuMjEgTCAzMi45NiAzNi4yNyBMIDMyLjk3IDM2LjMzIEwgMzIuOTggMzYuMzkgTCAzMi45OSAzNi40NSBMIDMzIDM2LjUxIEwgMzMuMDEgMzYuNTggTCAzMy4wMSAzNi42NCBMIDMzLjAxIDM2LjcgTCAzMy4wMSA0Ni41IEwgMzMuMDEgNDYuNTYgTCAzMy4wMSA0Ni42MiBMIDMzIDQ2LjY5IEwgMzIuOTkgNDYuNzUgTCAzMi45OCA0Ni44MSBMIDMyLjk3IDQ2Ljg3IEwgMzIuOTYgNDYuOTMgTCAzMi45NCA0Ni45OSBMIDMyLjkyIDQ3LjA1IEwgMzIuOSA0Ny4xMSBMIDMyLjg4IDQ3LjE3IEwgMzIuODYgNDcuMjIgTCAzMi44MyA0Ny4yOCBMIDMyLjggNDcuMzMgTCAzMi43NyA0Ny4zOSBMIDMyLjc0IDQ3LjQ0IEwgMzIuNyA0Ny40OSBMIDMyLjY2IDQ3LjU0IEwgMzIuNjIgNDcuNTkgTCAzMi41OCA0Ny42NCBMIDMyLjU0IDQ3LjY5IEwgMzIuNDkgNDcuNzMgTCAzMi40NCA0Ny43OCBMIDMyLjM5IDQ3LjgyIEwgMzIuMzQgNDcuODYgTCAzMi4yOSA0Ny45IEwgMzIuMjMgNDcuOTMgTCAzMi4xNyA0Ny45NyBMIDMyLjExIDQ4IEwgMjguNjEgNTAgTCAyOC40MSA1MC4xIEwgMjguNTEgNTAuMiBMIDM0LjYxIDUzLjcgTCAzNC42MiA1My43MSBMIDM0LjYzIDUzLjcyIEwgMzQuNjQgNTMuNzMgTCAzNC42NSA1My43MyBMIDM0LjY2IDUzLjc0IEwgMzQuNjcgNTMuNzUgTCAzNC42OCA1My43NSBMIDM0LjY5IDUzLjc2IEwgMzQuNyA1My43NiBMIDM0LjcxIDUzLjc3IEwgMzQuNzIgNTMuNzcgTCAzNC43NCA1My43NyBMIDM0Ljc1IDUzLjc3IEwgMzQuNzYgNTMuNzcgTCAzNC43NyA1My43NyBMIDM0Ljc4IDUzLjc3IEwgMzQuNzkgNTMuNzcgTCAzNC44IDUzLjc3IEwgMzQuODEgNTMuNzcgTCAzNC44MiA1My43NiBMIDM0LjgzIDUzLjc2IEwgMzQuODQgNTMuNzUgTCAzNC44NSA1My43NSBMIDM0Ljg2IDUzLjc0IEwgMzQuODcgNTMuNzMgTCAzNC44OCA1My43MyBMIDM0Ljg5IDUzLjcyIEwgMzQuOSA1My43MSBMIDM0LjkxIDUzLjcgTCA0MC45MSA1MC4zIEwgNDEuMTEgNTAuMiBMIDQwLjkxIDUwLjEgTCAzNy40MSA0OC4xIEwgMzcuMzUgNDguMDcgTCAzNy4yOSA0OC4wMyBMIDM3LjIzIDQ4IEwgMzcuMTggNDcuOTYgTCAzNy4xMyA0Ny45MiBMIDM3LjA4IDQ3Ljg4IEwgMzcuMDMgNDcuODMgTCAzNi45OCA0Ny43OSBMIDM2Ljk0IDQ3Ljc0IEwgMzYuOSA0Ny42OSBMIDM2Ljg2IDQ3LjY0IEwgMzYuODIgNDcuNTkgTCAzNi43OCA0Ny41MyBMIDM2Ljc1IDQ3LjQ4IEwgMzYuNzIgNDcuNDIgTCAzNi42OSA0Ny4zNiBMIDM2LjY3IDQ3LjMgTCAzNi42NCA0Ny4yNCBMIDM2LjYyIDQ3LjE4IEwgMzYuNiA0Ny4xMiBMIDM2LjU4IDQ3LjA1IEwgMzYuNTYgNDYuOTkgTCAzNi41NSA0Ni45MiBMIDM2LjU0IDQ2Ljg1IEwgMzYuNTMgNDYuNzggTCAzNi41MiA0Ni43MSBMIDM2LjUyIDQ2LjY0IEwgMzYuNTEgNDYuNTcgTCAzNi41MSA0Ni41IEwgMzYuNTEgMzYuOCBMIDM2LjUxIDM2LjczIEwgMzYuNTIgMzYuNjYgTCAzNi41MiAzNi41OSBMIDM2LjUzIDM2LjUyIEwgMzYuNTQgMzYuNDUgTCAzNi41NSAzNi4zOCBMIDM2LjU2IDM2LjMxIEwgMzYuNTggMzYuMjUgTCAzNi42IDM2LjE4IEwgMzYuNjIgMzYuMTIgTCAzNi42NCAzNi4wNiBMIDM2LjY3IDM2IEwgMzYuNjkgMzUuOTQgTCAzNi43MiAzNS44OCBMIDM2Ljc1IDM1LjgyIEwgMzYuNzggMzUuNzcgTCAzNi44MiAzNS43MSBMIDM2Ljg2IDM1LjY2IEwgMzYuOSAzNS42MSBMIDM2Ljk0IDM1LjU2IEwgMzYuOTggMzUuNTEgTCAzNy4wMyAzNS40NyBMIDM3LjA4IDM1LjQyIEwgMzcuMTMgMzUuMzggTCAzNy4xOCAzNS4zNCBMIDM3LjIzIDM1LjMgTCAzNy4yOSAzNS4yNyBMIDM3LjM1IDM1LjIzIEwgMzcuNDEgMzUuMiBMIDQ1LjkxIDMwLjQgTCA0NS45NyAzMC4zNiBMIDQ2LjAzIDMwLjMyIEwgNDYuMDkgMzAuMjkgTCA0Ni4xNiAzMC4yNiBMIDQ2LjIyIDMwLjIzIEwgNDYuMjkgMzAuMiBMIDQ2LjM1IDMwLjE4IEwgNDYuNDIgMzAuMTYgTCA0Ni40OSAzMC4xNCBMIDQ2LjU1IDMwLjEzIEwgNDYuNjIgMzAuMTIgTCA0Ni42OSAzMC4xMSBMIDQ2Ljc2IDMwLjEgTCA0Ni44MyAzMC4xIEwgNDYuOSAzMC4xIEwgNDYuOTYgMzAuMSBMIDQ3LjAzIDMwLjExIEwgNDcuMSAzMC4xMiBMIDQ3LjE3IDMwLjEzIEwgNDcuMjQgMzAuMTQgTCA0Ny4zIDMwLjE2IEwgNDcuMzcgMzAuMTggTCA0Ny40NCAzMC4yIEwgNDcuNSAzMC4yMyBMIDQ3LjU3IDMwLjI2IEwgNDcuNjMgMzAuMjkgTCA0Ny42OSAzMC4zMiBMIDQ3Ljc1IDMwLjM2IEwgNDcuODEgMzAuNCBMIDUxLjQxIDMyLjUgTCA1MS42MSAzMi42IEwgNTEuNjEgMjUuMyBMIDUxLjYxIDI1LjI5IEwgNTEuNjEgMjUuMjggTCA1MS42MSAyNS4yNyBMIDUxLjYxIDI1LjI1IEwgNTEuNiAyNS4yNCBMIDUxLjYgMjUuMjMgTCA1MS41OSAyNS4yMSBMIDUxLjU5IDI1LjIgTCA1MS41OSAyNS4xOSBMIDUxLjU4IDI1LjE3IEwgNTEuNTcgMjUuMTYgTCA1MS41NyAyNS4xNSBMIDUxLjU2IDI1LjEzIEwgNTEuNTUgMjUuMTIgTCA1MS41NCAyNS4xMSBMIDUxLjU0IDI1LjA5IEwgNTEuNTMgMjUuMDggTCA1MS41MiAyNS4wNyBMIDUxLjUxIDI1LjA2IEwgNTEuNSAyNS4wNSBMIDUxLjQ5IDI1LjA0IEwgNTEuNDggMjUuMDMgTCA1MS40NyAyNS4wMiBMIDUxLjQ2IDI1LjAyIEwgNTEuNDUgMjUuMDEgTCA1MS40NCAyNS4wMSBMIDUxLjQzIDI1IEwgNTEuNDIgMjUgTCA1MS40MSAyNSBMIDQ1LjIxIDIxLjQgTCA0NS4wMSAyMS4zIEwgNDUuMDEgMjUuNCBMIDQ1LjAxIDI1LjQ2IEwgNDUuMDEgMjUuNTIgTCA0NSAyNS41OSBMIDQ0Ljk5IDI1LjY1IEwgNDQuOTggMjUuNzEgTCA0NC45NyAyNS43NyBMIDQ0Ljk2IDI1LjgzIEwgNDQuOTQgMjUuODkgTCA0NC45MiAyNS45NSBMIDQ0LjkgMjYuMDEgTCA0NC44OCAyNi4wNyBMIDQ0Ljg2IDI2LjEyIEwgNDQuODMgMjYuMTggTCA0NC44IDI2LjIzIEwgNDQuNzcgMjYuMjkgTCA0NC43NCAyNi4zNCBMIDQ0LjcgMjYuMzkgTCA0NC42NiAyNi40NCBMIDQ0LjYyIDI2LjQ5IEwgNDQuNTggMjYuNTQgTCA0NC41NCAyNi41OSBMIDQ0LjQ5IDI2LjYzIEwgNDQuNDQgMjYuNjggTCA0NC4zOSAyNi43MiBMIDQ0LjM0IDI2Ljc2IEwgNDQuMjkgMjYuOCBMIDQ0LjIzIDI2LjgzIEwgNDQuMTcgMjYuODcgTCA0NC4xMSAyNi45IEwgMzUuNjEgMzEuOCBMIDM1LjU2IDMxLjgzIEwgMzUuNSAzMS44NiBMIDM1LjQ1IDMxLjg4IEwgMzUuMzkgMzEuOTEgTCAzNS4zNCAzMS45MyBMIDM1LjI4IDMxLjk1IEwgMzUuMjIgMzEuOTYgTCAzNS4xNiAzMS45OCBMIDM1LjEgMzEuOTkgTCAzNS4wMyAzMiBMIDM0Ljk3IDMyLjAxIEwgMzQuOTEgMzIuMDIgTCAzNC44NSAzMi4wMiBMIDM0Ljc4IDMyLjAyIEwgMzQuNzIgMzIuMDIgTCAzNC42NSAzMi4wMiBMIDM0LjU5IDMyLjAyIEwgMzQuNTIgMzIuMDEgTCAzNC40NiAzMiBMIDM0LjM5IDMxLjk5IEwgMzQuMzIgMzEuOTggTCAzNC4yNiAzMS45NiBMIDM0LjE5IDMxLjk1IEwgMzQuMTMgMzEuOTMgTCAzNC4wNiAzMS45MSBMIDM0IDMxLjg4IEwgMzMuOTQgMzEuODYgTCAzMy44NyAzMS44MyBMIDMzLjgxIDMxLjggTCAyNS4zMSAyNi45IEwgMjUuMjUgMjYuODcgTCAyNS4xOSAyNi44MyBMIDI1LjEzIDI2LjggTCAyNS4wOCAyNi43NiBMIDI1LjAzIDI2LjcyIEwgMjQuOTggMjYuNjggTCAyNC45MyAyNi42MyBMIDI0Ljg4IDI2LjU5IEwgMjQuODQgMjYuNTQgTCAyNC44IDI2LjQ5IEwgMjQuNzYgMjYuNDQgTCAyNC43MiAyNi4zOSBMIDI0LjY4IDI2LjM0IEwgMjQuNjUgMjYuMjkgTCAyNC42MiAyNi4yMyBMIDI0LjU5IDI2LjE4IEwgMjQuNTcgMjYuMTIgTCAyNC41NCAyNi4wNyBMIDI0LjUyIDI2LjAxIEwgMjQuNSAyNS45NSBMIDI0LjQ4IDI1Ljg5IEwgMjQuNDYgMjUuODMgTCAyNC40NSAyNS43NyBMIDI0LjQ0IDI1LjcxIEwgMjQuNDMgMjUuNjUgTCAyNC40MiAyNS41OSBMIDI0LjQyIDI1LjUyIEwgMjQuNDEgMjUuNDYgTCAyNC40MSAyNS40IEwgMjQuNDEgMjEuMiBMIDI0LjMxIDIxLjIgTCAxOC4xMSAyNC43IFogTSAxNS41MiA0NS43NiBMIDE1LjU1IDQ1LjgxIEwgMTUuNTggNDUuODYgTCAxNS42IDQ1Ljg5IEwgMTUuNjEgNDUuOSBMIDE2LjczIDQ2LjU0IEwgMTcuODEgNDcuMTYgTCAyMS4wMSA0OSBMIDIxLjIxIDQ5LjEgTCAyMS4yMSA0Mi45IEwgMjEuMiA0Mi44MyBMIDIxLjE3IDQyLjc1IEwgMjEuMTIgNDIuNjggTCAyMS4wNyA0Mi42MiBMIDIxLjAxIDQyLjYgTCAxOS45MSA0MS45OCBMIDE4Ljg1IDQxLjM4IEwgMTUuNzEgMzkuNiBMIDE1LjUxIDM5LjMgTCAxNS41MSA0NS43IEwgMTUuNTIgNDUuNzYgWiBNIDQ4LjUxIDQyLjQgTCA0OC40NSA0Mi40NiBMIDQ4LjQgNDIuNTIgTCA0OC4zNSA0Mi41OCBMIDQ4LjMyIDQyLjY0IEwgNDguMzEgNDIuNyBMIDQ4LjMxIDQ5IEwgNDguNTEgNDguOSBMIDUzLjgxIDQ1LjkgTCA1My44NyA0NS44NCBMIDUzLjkyIDQ1Ljc4IEwgNTMuOTcgNDUuNzIgTCA1NCA0NS42NiBMIDU0LjAxIDQ1LjYgTCA1NC4wMSAzOS4zIEwgNTMuODEgMzkuNCBMIDQ4LjUxIDQyLjQgWiBNIDI0LjQxIDQyLjQgTCAyNC4zNSA0Mi40NiBMIDI0LjMgNDIuNTIgTCAyNC4yNSA0Mi41OCBMIDI0LjIyIDQyLjY0IEwgMjQuMjEgNDIuNyBMIDI0LjIxIDQ5IEwgMjQuNDEgNDguOSBMIDI5LjgxIDQ1LjggTCAyOS44NyA0NS43NCBMIDI5LjkyIDQ1LjY4IEwgMjkuOTcgNDUuNjIgTCAzMCA0NS41NiBMIDMwLjAxIDQ1LjUgTCAzMC4wMSAzOS4zIEwgMjkuNzEgMzkuNCBMIDI0LjQxIDQyLjQgWiBNIDM5LjUyIDQ1LjY3IEwgMzkuNTUgNDUuNzUgTCAzOS42IDQ1LjgyIEwgMzkuNjUgNDUuODggTCAzOS43MSA0NS45IEwgNDUuMDEgNDguOSBMIDQ1LjIxIDQ5IEwgNDUuMjEgNDIuNyBMIDQ1LjIgNDIuNjQgTCA0NS4xNyA0Mi41OCBMIDQ1LjEyIDQyLjUyIEwgNDUuMDcgNDIuNDYgTCA0NS4wMSA0Mi40IEwgNDMuMjIgNDEuMzggTCA0Mi4wNSA0MC43MiBMIDQwLjYxIDM5LjkgTCAzOS41MSAzOS4zIEwgMzkuNTEgNDUuNiBMIDM5LjUyIDQ1LjY3IFogTSA0Ni42NyAzMy4zNSBMIDQ2LjYxIDMzLjQgTCA0NS40OSAzNC4wNCBMIDQ0LjQxIDM0LjY2IEwgNDEuMjEgMzYuNSBMIDQxLjExIDM2LjYgTCA0MS4yMSAzNi43IEwgNDYuNjEgMzkuOCBMIDQ2LjY3IDM5Ljg1IEwgNDYuNzMgMzkuODcgTCA0Ni43OSAzOS44NyBMIDQ2Ljg1IDM5Ljg1IEwgNDYuOTEgMzkuOCBMIDQ3LjcgMzkuMzQgTCA0OC40NiAzOC45IEwgNTAuNzEgMzcuNiBMIDUyLjQxIDM2LjYgTCA0OS4xNSAzNC43IEwgNDguMDUgMzQuMDYgTCA0Ni45MSAzMy40IEwgNDYuODUgMzMuMzUgTCA0Ni43OSAzMy4zMyBMIDQ2LjczIDMzLjMzIEwgNDYuNjcgMzMuMzUgWiBNIDIyLjY3IDMzLjM1IEwgMjIuNjEgMzMuNCBMIDE3LjkxIDM2LjEgTCAxNy4xMSAzNi42IEwgMjIuNjEgMzkuOCBMIDIyLjkxIDM5LjggTCAyOC4yMSAzNi44IEwgMjguNDEgMzYuNyBMIDI4LjMxIDM2LjUgTCAyNS4xMSAzNC42NiBMIDI0LjAzIDM0LjA0IEwgMjIuOTEgMzMuNCBMIDIyLjg1IDMzLjM1IEwgMjIuNzkgMzMuMzMgTCAyMi43MyAzMy4zMyBMIDIyLjY3IDMzLjM1IFogTSAyNy41MiAyNC41NyBMIDI3LjU1IDI0LjY1IEwgMjcuNiAyNC43MiBMIDI3LjY1IDI0Ljc4IEwgMjcuNzEgMjQuOCBMIDMzLjAxIDI3LjggTCAzMy4yMSAyNy45IEwgMzMuMjEgMjEuNiBMIDMzLjIgMjEuNTQgTCAzMy4xNyAyMS40OCBMIDMzLjEyIDIxLjQyIEwgMzMuMDcgMjEuMzYgTCAzMy4wMSAyMS4zIEwgMzIuMSAyMC43OCBMIDMxLjIyIDIwLjI4IEwgMzAuMDUgMTkuNjIgTCAyOC42MSAxOC44IEwgMjcuNTEgMTguMiBMIDI3LjUxIDI0LjUgTCAyNy41MiAyNC41NyBaIE0gMzYuNTEgMjEuMyBMIDM2LjQ1IDIxLjM2IEwgMzYuNCAyMS40MiBMIDM2LjM1IDIxLjQ4IEwgMzYuMzIgMjEuNTQgTCAzNi4zMSAyMS42IEwgMzYuMzEgMjcuOSBMIDM2LjUxIDI3LjggTCA0MS44MSAyNC44IEwgNDEuODcgMjQuNzQgTCA0MS45MiAyNC42OCBMIDQxLjk3IDI0LjYyIEwgNDIgMjQuNTYgTCA0Mi4wMSAyNC41IEwgNDIuMDEgMTguMiBMIDQxLjgxIDE4LjMgTCAzNi41MSAyMS4zIFogTSAzNC41NyAxMi4zNSBMIDM0LjUxIDEyLjQgTCAzMC45MSAxNC41IEwgMjkuMTEgMTUuNSBMIDMyLjM3IDE3LjM5IEwgMzMuNDcgMTguMDMgTCAzNC42MSAxOC43IEwgMzQuNjcgMTguNzUgTCAzNC43MyAxOC43NyBMIDM0Ljc5IDE4Ljc3IEwgMzQuODUgMTguNzUgTCAzNC45MSAxOC43IEwgNDAuMjEgMTUuNyBMIDQwLjQxIDE1LjYgTCA0MC4yMSAxNS41IEwgMzcuMDEgMTMuNjYgTCAzNS45MyAxMy4wNCBMIDM0LjgxIDEyLjQgTCAzNC43NSAxMi4zNSBMIDM0LjY5IDEyLjMzIEwgMzQuNjMgMTIuMzMgTCAzNC41NyAxMi4zNSBaIiBzdHlsZT0iZmlsbDogcmdiKDI1NSwgMjU1LCAyNTUpOyIvPiYjeGE7ICAgIDwvZz4mI3hhOyAgPC9nPiYjeGE7PC9zdmc+;aspect=fixed;shadow=0;glass=0;dashed=1;dashPattern=1 4;strokeColor=#000000;strokeWidth=1;fillColor=none;gradientColor=none;align=center;fontSize=12;" parent="1" vertex="1">
            <mxGeometry x="450" y="250" width="60" height="60" as="geometry" />
          </mxCell>
        </UserObject>
        <mxCell id="TuEcQPFBkwgy0ww-vpvm-108" style="edgeStyle=orthogonalEdgeStyle;rounded=0;orthogonalLoop=1;jettySize=auto;html=1;entryX=0;entryY=0.5;entryDx=0;entryDy=0;strokeColor=#000000;fontColor=#D9D9D9;fontSize=12;" parent="1" target="TuEcQPFBkwgy0ww-vpvm-125" edge="1">
          <mxGeometry relative="1" as="geometry">
            <mxPoint x="510" y="40" as="sourcePoint" />
          </mxGeometry>
        </mxCell>
        <mxCell id="TuEcQPFBkwgy0ww-vpvm-113" style="edgeStyle=orthogonalEdgeStyle;rounded=0;orthogonalLoop=1;jettySize=auto;html=1;exitX=0.5;exitY=1;exitDx=0;exitDy=0;entryX=0.5;entryY=0;entryDx=0;entryDy=0;fontColor=#D9D9D9;strokeColor=#000000;fontSize=12;" parent="1" source="TuEcQPFBkwgy0ww-vpvm-115" target="TuEcQPFBkwgy0ww-vpvm-117" edge="1">
          <mxGeometry relative="1" as="geometry" />
        </mxCell>
        <mxCell id="TuEcQPFBkwgy0ww-vpvm-114" style="edgeStyle=orthogonalEdgeStyle;rounded=0;orthogonalLoop=1;jettySize=auto;html=1;exitX=1;exitY=0.5;exitDx=0;exitDy=0;entryX=0;entryY=0.5;entryDx=0;entryDy=0;strokeColor=#000000;fontColor=#D9D9D9;fontSize=12;" parent="1" source="TuEcQPFBkwgy0ww-vpvm-115" target="TuEcQPFBkwgy0ww-vpvm-121" edge="1">
          <mxGeometry relative="1" as="geometry" />
        </mxCell>
        <UserObject label="Unit Tests" tooltip="A Third Party Client is an external client which interacts with a process, service, or system." id="TuEcQPFBkwgy0ww-vpvm-115">
          <mxCell style="shape=image;editableCssRules=\.[haloColor,layerColor];imageAspect=0;aspect=fixed;verticalLabelPosition=bottom;verticalAlign=top;image=data:image/svg+xml,PHN2ZyB4bWxucz0iaHR0cDovL3d3dy53My5vcmcvMjAwMC9zdmciIHZpZXdCb3g9IjAgMCA2MC41IDYwLjUiPiYjeGE7ICA8c3R5bGUgdHlwZT0idGV4dC9jc3MiPi5oYWxvQ29sb3IgeyBmaWxsOiByZ2IoMTEwLCAxOTAsIDc0KTsgfSAubGF5ZXJDb2xvciB7IGZpbGw6IHJnYigxMTAsIDE5MCwgNzQpOyB9IDwvc3R5bGU+JiN4YTsgIDxjaXJjbGUgY3g9IjMwLjMiIGN5PSIzMC4zIiByPSIzMC4zIiBmaWxsPSIjYTJhMmEyIiBzdHlsZT0iIiBjbGFzcz0iaGFsb0NvbG9yIi8+JiN4YTsgIDxjaXJjbGUgY2xhc3M9ImxheWVyQ29sb3IiIGN4PSIzMC4zOSIgY3k9IjI5Ljk3NyIgcj0iMjUuMyIgZmlsbD0iI2EyYTJhMiIgc3R5bGU9IiIvPiYjeGE7ICA8cGF0aCBkPSJNIDM4LjA0MiAyMC4zNjYgTCAzNS40NDIgMjAuMzY2IEMgMzUuNDQyIDIyLjE2NiAzNS4wNDIgMjQuMDY2IDM0LjM0MiAyNS43NjYgTCAyNi4yNDIgMjEuODY2IEMgMjcuMDQyIDE5LjE2NiAyNS41NDIgMTYuMjY2IDIyLjc0MiAxNS40NjYgQyAyMS4zOTcgMTUuMDcyIDE5Ljk0OSAxNS4yNTMgMTguNzQyIDE1Ljk2NiBMIDE2Ljg0MiAxNC4wNjYgTCAxNS4wNDIgMTUuODY2IEwgMTYuOTQyIDE3Ljc2NiBDIDE1LjU0MiAyMC4xNjYgMTYuMzQyIDIzLjM2NiAxOC43NDIgMjQuNzY2IEMgMTkuOTQyIDI1LjQ2NiAyMS40NDIgMjUuNjY2IDIyLjc0MiAyNS4yNjYgTCAzMy44NDIgNDguMTY2IEwgMzUuMDQyIDQ3LjU2NiBMIDI4Ljk0MiAzNS4wNjYgQyAzMi4wMzQgMzMuNDc1IDM0LjU1MSAzMC45NTggMzYuMTQyIDI3Ljg2NiBMIDQ4Ljc0MiAzMy45NjYgTCA0OS4zNDIgMzIuNzY2IEwgMzYuODQyIDI2LjY2NiBDIDM3LjY0MiAyNC43NjYgMzguMDQyIDIyLjU2NiAzOC4wNDIgMjAuMzY2IFogTSAyMC40NDIgMTkuNDY2IEMgMjAuOTQyIDE4Ljk2NiAyMS43NDIgMTguOTY2IDIyLjI0MiAxOS40NjYgQyAyMi43NDIgMTkuOTY2IDIyLjc0MiAyMC43NjYgMjIuMjQyIDIxLjI2NiBDIDIxLjc0MiAyMS43NjYgMjAuOTQyIDIxLjc2NiAyMC40NDIgMjEuMjY2IEMgMjAuMDQyIDIwLjc2NiAyMC4wNDIgMTkuOTY2IDIwLjQ0MiAxOS40NjYgWiBNIDI3Ljk0MiAzMi43NjYgTCAyNC4wNDIgMjQuNjY2IEMgMjQuODQyIDI0LjI2NiAyNS40NDIgMjMuNTY2IDI1Ljg0MiAyMi44NjYgTCAzMy45NDIgMjYuNzY2IEMgMzIuNTQyIDI5LjM2NiAzMC40NDIgMzEuNDY2IDI3Ljk0MiAzMi43NjYgWiIgZmlsbD0iI2ZmZiIvPiYjeGE7PC9zdmc+;shadow=0;glass=0;dashed=1;dashPattern=1 4;strokeColor=#000000;strokeWidth=1;fillColor=none;gradientColor=none;align=center;fontColor=#000000;fontSize=12;" parent="1" vertex="1">
            <mxGeometry x="130" y="10" width="60" height="60" as="geometry" />
          </mxCell>
        </UserObject>
        <mxCell id="TuEcQPFBkwgy0ww-vpvm-116" style="edgeStyle=orthogonalEdgeStyle;rounded=0;orthogonalLoop=1;jettySize=auto;html=1;exitX=0.5;exitY=1;exitDx=0;exitDy=0;entryX=0.5;entryY=0;entryDx=0;entryDy=0;strokeColor=#000000;fontColor=#D9D9D9;fontSize=12;" parent="1" source="TuEcQPFBkwgy0ww-vpvm-117" target="TuEcQPFBkwgy0ww-vpvm-118" edge="1">
          <mxGeometry relative="1" as="geometry" />
        </mxCell>
        <mxCell id="TuEcQPFBkwgy0ww-vpvm-117" value="Code Linter" style="shape=image;editableCssRules=\.[haloColor,layerColor];verticalLabelPosition=bottom;labelBackgroundColor=none;verticalAlign=top;aspect=fixed;imageAspect=0;image=data:image/svg+xml,PHN2ZyB4bWxucz0iaHR0cDovL3d3dy53My5vcmcvMjAwMC9zdmciIHZpZXdCb3g9IjAgMCA1OS41IDU5LjUiPiYjeGE7ICA8c3R5bGUgdHlwZT0idGV4dC9jc3MiPi5oYWxvQ29sb3IgeyBmaWxsOiByZ2IoMTEwLCAxOTAsIDc0KTsgfSAubGF5ZXJDb2xvciB7IGZpbGw6IHJnYigxMTAsIDE5MCwgNzQpOyB9IDwvc3R5bGU+JiN4YTsgIDxjaXJjbGUgY3g9IjI5LjgiIGN5PSIyOS44IiByPSIyOS44IiBjbGFzcz0iaGFsb0NvbG9yIiBzdHlsZT0iIiBmaWxsPSIjYTJhMmEyIi8+JiN4YTsgIDxjaXJjbGUgZmlsbD0iI2EyYTJhMiIgY2xhc3M9ImxheWVyQ29sb3IiIGN4PSIyOS43NyIgY3k9IjI5LjgyNSIgcj0iMjQuOCIgc3R5bGU9IiIvPiYjeGE7ICA8ZyBmaWxsPSIjZmZmIiB0cmFuc2Zvcm09Im1hdHJpeCgwLjg2MzU1MSwgMCwgMCwgMC44NjM1NTEsIDMuNjcyNjM2LCAzLjY5NjI1MikiPiYjeGE7ICAgIDxwYXRoIGQ9Ik00My40IDI0LjVjLTEuMSAwLTEuOS44LTEuOSAxLjkgMCAuNy4zIDEuMy45IDEuNmwtMy43IDguMmMtLjIgMC0uMy0uMS0uNS0uMS0uNCAwLS44LjEtMS4xLjNsLS44LTRjLjctLjMgMS4yLTEgMS4yLTEuOCAwLTEuMS0uOS0xLjktMi0xLjktLjYgMC0xLjEuMi0xLjUuNmwtMi0uNGMtLjEtMS0uOS0xLjctMS45LTEuOC0uMSAwLS4yLjEtLjQuMWwtMS41LTQuOGMuMS0uMy4xLS41LjItLjggMC0xLjEtLjktMi0xLjktMi0xLjEgMC0xLjkuOC0xLjkgMS45bC03LjggNi42Yy0uNy0uOC0xLjktLjktMi43LS4ycy0uOSAxLjktLjIgMi43IDEuOS45IDIuNy4yYy40LS4zLjYtLjguNi0xLjNWMjlsNy42LTYuNWExLjc4IDEuNzggMCAwIDAgMS42IDFjLjQgMCAuOC0uMSAxLjEtLjRsMS40IDQuM2MtLjUuMy0uOC45LS44IDEuNSAwIDEuMS45IDEuOSAxLjkgMS45LjggMCAxLjUtLjUgMS43LTEuMmwxLjYuNHYuNWMuMSAxIC44IDEuOCAxLjggMS45bDEgNC44Yy0uMS4yLS4xLjUtLjEuNyAwIDEuMS44IDEuOSAxLjkgMS45czEuOS0uOCAxLjktMS45YzAtLjYtLjItMS4xLS42LTEuNWwzLjgtOC4zaC4zYzEuMS4xIDItLjcgMi4xLTEuOHMtLjctMi0xLjgtMi4xYzAgLjMtLjEuMy0uMi4zem0tMjguMSA2LjJhMS4xMSAxLjExIDAgMCAxLTEuMS0xLjEgMS4xMSAxLjExIDAgMCAxIDEuMS0xLjEgMS4xMSAxLjExIDAgMCAxIDEuMSAxLjEgMS4xMSAxLjExIDAgMCAxLTEuMSAxLjF6bTExLjEtNy45YTEuMTEgMS4xMSAwIDAgMS0xLjEtMS4xIDEuMTEgMS4xMSAwIDAgMSAxLjEtMS4xIDEuMTEgMS4xMSAwIDAgMSAxLjEgMS4xIDEuMTEgMS4xMSAwIDAgMS0xLjEgMS4xem0zLjcgNy40YTEuMTEgMS4xMSAwIDAgMS0xLjEtMS4xIDEuMTEgMS4xMSAwIDAgMSAxLjEtMS4xYy42IDAgMSAuNSAxLjEgMSAwIC43LS41IDEuMS0xLjEgMS4yIDAtLjEgMC0uMSAwIDB6bTEuOS0uN3YtLjQuNHptMi40IDEuMmExLjExIDEuMTEgMCAwIDEgMS4xLTEuMSAxLjExIDEuMTEgMCAwIDEgMS4xIDEuMSAxLjExIDEuMTEgMCAwIDEtMS4xIDEuMWMtLjcgMC0xLjEtLjUtMS4xLTEuMXptMSAxLjl6bTIuNyA2LjZhMS4xMSAxLjExIDAgMCAxLTEuMS0xLjEgMS4xMSAxLjExIDAgMCAxIDEuMS0xLjEgMS4xMSAxLjExIDAgMCAxIDEuMSAxLjEgMS4yNyAxLjI3IDAgMCAxLTEuMSAxLjF6bTUuMy0xMS42YTEuMTEgMS4xMSAwIDAgMS0xLjEtMS4xIDEuMTEgMS4xMSAwIDAgMSAxLjEtMS4xIDEuMTEgMS4xMSAwIDAgMSAxLjEgMS4xIDEuMjcgMS4yNyAwIDAgMS0xLjEgMS4xek04LjMgMTZsLjMgMS42IDUuNi0uOS40IDUuNiAxLjYtLjEtLjUtNy40eiIvPiYjeGE7ICAgIDxwYXRoIGQ9Ik0yOS45IDUxLjhhMjIuMiAyMi4yIDAgMCAxLTUuMS0uNmMtMTEuNi0yLjgtMTguOC0xNC40LTE2LTI2IC45LTMuNyAyLjctNy4xIDUuNC05LjlsMS40IDEuM2MtNy41IDgtNyAyMC40LjkgMjcuOSA2LjUgNi4xIDE2LjIgNy4xIDIzLjcgMi41bDEgMS42Yy0zLjUgMi4xLTcuNCAzLjItMTEuMyAzLjJ6bTIyLjMtOC43bC0uNC0xLjYtNS41IDEuNC0uOS01LjctMS42LjMgMS4xIDcuM3oiLz4mI3hhOyAgICA8cGF0aCBkPSJNNDYuMyA0NC4xbC0xLjQtMS4yYzctOC4zIDYtMjAuOC0yLjMtMjcuOC02LjUtNS41LTE1LjgtNi4yLTIzLTEuOGwtMS0xLjZjMTAuMS02LjIgMjMuNC0zIDI5LjYgNy4yIDQuOSA3LjkgNC4xIDE4LjEtMS45IDI1LjJ6Ii8+JiN4YTsgIDwvZz4mI3hhOzwvc3ZnPg==;fontColor=#000000;fontSize=12;" parent="1" vertex="1">
          <mxGeometry x="130" y="130" width="60" height="60" as="geometry" />
        </mxCell>
        <mxCell id="TuEcQPFBkwgy0ww-vpvm-118" value="Coverage&#xa;Report" style="shape=image;editableCssRules=\.[haloColor,layerColor];verticalLabelPosition=bottom;labelBackgroundColor=none;verticalAlign=top;aspect=fixed;imageAspect=0;image=data:image/svg+xml,PHN2ZyB4bWxucz0iaHR0cDovL3d3dy53My5vcmcvMjAwMC9zdmciIHZpZXdCb3g9IjAgMCA2MCA2MCI+JiN4YTsgIDxzdHlsZSB0eXBlPSJ0ZXh0L2NzcyI+LmhhbG9Db2xvciB7IGZpbGw6IHJnYigxMTAsIDE5MCwgNzQpOyB9IC5sYXllckNvbG9yIHsgZmlsbDogcmdiKDExMCwgMTkwLCA3NCk7IH0gPC9zdHlsZT4mI3hhOyAgPGVsbGlwc2UgY3g9IjMwIiBjeT0iMjkuOTUiIHJ4PSIzMCIgcnk9IjMwIiBmaWxsPSIjYTJhMmEyIiBzdHlsZT0iIiBjbGFzcz0iaGFsb0NvbG9yIi8+JiN4YTsgIDxlbGxpcHNlIGN4PSIzMCIgY3k9IjMwIiByeD0iMjUiIHJ5PSIyNSIgZmlsbD0iI2EyYTJhMiIgY2xhc3M9ImxheWVyQ29sb3IiLz4mI3hhOyAgPHBhdGggZD0iTSAyNS44NiAzNi40NDUgQyAyMy41OTMgMzQuMTggMjMuNTkzIDMwLjUwOSAyNS44NiAyOC4xNjUgQyAyOC4xMjUgMjUuODIxIDMxLjc5NiAyNS44OTkgMzQuMTQgMjguMTY1IEMgMzYuNDA3IDMwLjQzIDM2LjQwNyAzNC4xMDIgMzQuMTQgMzYuNDQ1IEwgMzUuNzgyIDM4LjA4NyBDIDM4Ljk4NSAzNC45NjEgMzguOTg1IDI5LjcyNyAzNS43ODIgMjYuNjAyIEMgMzIuNTc5IDIzLjQ3NyAyNy40MjEgMjMuMzk5IDI0LjIxOCAyNi42MDIgQyAyMS4wMTUgMjkuNzkxIDIxLjAxNSAzNC45NzYgMjQuMjE4IDM4LjE2NCBMIDI1Ljg2IDM2LjQ0NSBaIE0gMjguODI4IDQwLjUwOCBMIDMxLjE3MiA0MC41MDggTCAzMCAzMC4wMzkgWiBNIDEyLjUgMTUuOTc3IEwgMTIuNSA0NC4wMjMgTCA0Ny41IDQ0LjAyMyBMIDQ3LjUgMTUuOTc3IEwgMTIuNSAxNS45NzcgWiBNIDQ2LjMyOCA0Mi44NTIgTCAxMy42NzIgNDIuODUyIEwgMTMuNjcyIDIxLjgzNiBMIDQ2LjMyOCAyMS44MzYgTCA0Ni4zMjggNDIuODUyIFoiIGZpbGw9IiNmZmYiLz4mI3hhOzwvc3ZnPg==;fontColor=#000000;fontSize=12;" parent="1" vertex="1">
          <mxGeometry x="130" y="250" width="60" height="60" as="geometry" />
        </mxCell>
        <mxCell id="TuEcQPFBkwgy0ww-vpvm-119" style="edgeStyle=orthogonalEdgeStyle;rounded=0;orthogonalLoop=1;jettySize=auto;html=1;exitX=1;exitY=0.5;exitDx=0;exitDy=0;entryX=0;entryY=0.5;entryDx=0;entryDy=0;strokeColor=#000000;fontColor=#D9D9D9;fontSize=12;" parent="1" source="TuEcQPFBkwgy0ww-vpvm-121" edge="1">
          <mxGeometry relative="1" as="geometry">
            <mxPoint x="450" y="40" as="targetPoint" />
          </mxGeometry>
        </mxCell>
        <mxCell id="TuEcQPFBkwgy0ww-vpvm-120" style="edgeStyle=orthogonalEdgeStyle;rounded=0;orthogonalLoop=1;jettySize=auto;html=1;exitX=0.5;exitY=1;exitDx=0;exitDy=0;entryX=0.5;entryY=0;entryDx=0;entryDy=0;strokeColor=#000000;fontColor=#D9D9D9;fontSize=12;" parent="1" source="TuEcQPFBkwgy0ww-vpvm-121" target="TuEcQPFBkwgy0ww-vpvm-122" edge="1">
          <mxGeometry relative="1" as="geometry" />
        </mxCell>
        <UserObject label="SAST Scans" tooltip="Service Discovery is a process, service, or system that monitors the state of another process, service, or system." id="TuEcQPFBkwgy0ww-vpvm-121">
          <mxCell style="shape=image;editableCssRules=\.[haloColor,layerColor];imageAspect=0;aspect=fixed;verticalLabelPosition=bottom;verticalAlign=top;image=data:image/svg+xml,PHN2ZyB4bWxucz0iaHR0cDovL3d3dy53My5vcmcvMjAwMC9zdmciIHZpZXdCb3g9IjAgMCA1OS41IDU5LjUiPiYjeGE7ICA8c3R5bGUgdHlwZT0idGV4dC9jc3MiPi5oYWxvQ29sb3IgeyBmaWxsOiByZ2IoMjI3LCAzNiwgMjcpOyB9IC5sYXllckNvbG9yIHsgZmlsbDogcmdiKDIyNywgMzYsIDI3KTsgfSA8L3N0eWxlPiYjeGE7ICA8Y2lyY2xlIGN4PSIyOS44IiBjeT0iMjkuOCIgcj0iMjkuOCIgZmlsbD0iI2EyYTJhMiIgY2xhc3M9ImhhbG9Db2xvciIvPiYjeGE7ICA8Y2lyY2xlIGZpbGw9IiNhMmEyYTIiIGNsYXNzPSJsYXllckNvbG9yIiBjeD0iMjkuNzciIGN5PSIyOS44MjUiIHI9IjI0LjgiIHN0eWxlPSIiLz4mI3hhOyAgPGcgZmlsbD0iI2ZmZiIgdHJhbnNmb3JtPSJtYXRyaXgoMSwgMCwgMCwgMSwgLTAuMTgyNDksIC0xLjEzMjQ1NSkiPiYjeGE7ICAgIDxwYXRoIGQ9Ik0yNS4xIDEyLjNhMTIuNzYgMTIuNzYgMCAwIDAtMTIuOCAxMi44IDEyLjc2IDEyLjc2IDAgMCAwIDEyLjggMTIuOCAxMi43NiAxMi43NiAwIDAgMCAxMi44LTEyLjhjMC03LTUuNy0xMi44LTEyLjgtMTIuOHptMCAyNC40YTExLjYxIDExLjYxIDAgMCAxLTExLjYtMTEuNiAxMS42MSAxMS42MSAwIDAgMSAxMS42LTExLjYgMTEuNjEgMTEuNjEgMCAwIDEgMTEuNiAxMS42IDExLjYxIDExLjYxIDAgMCAxLTExLjYgMTEuNnptMTAuNDQzIDIuMzQybDMuNDY1LTMuNDY1IDguMTMyIDguMTMyLTMuNDY1IDMuNDY1eiIvPiYjeGE7ICAgIDxjaXJjbGUgY3g9IjM1LjYiIGN5PSIzNS42IiByPSIxLjIiLz4mI3hhOyAgPC9nPiYjeGE7PC9zdmc+;shadow=0;glass=0;dashed=1;dashPattern=1 4;strokeColor=#000000;strokeWidth=1;fillColor=none;gradientColor=none;align=center;fontColor=#000000;fontSize=12;" parent="1" vertex="1">
            <mxGeometry x="290" y="10" width="60" height="60" as="geometry" />
          </mxCell>
        </UserObject>
        <UserObject label="Source SBOM" tooltip="A Cache stores data so that future requests for that data can be served faster." id="TuEcQPFBkwgy0ww-vpvm-122">
          <mxCell style="shape=image;editableCssRules=\.[haloColor,layerColor];imageAspect=0;aspect=fixed;verticalLabelPosition=bottom;verticalAlign=top;image=data:image/svg+xml,PHN2ZyB4bWxucz0iaHR0cDovL3d3dy53My5vcmcvMjAwMC9zdmciIHZpZXdCb3g9IjAgMCA1OS41IDU5LjUiPiYjeGE7ICA8c3R5bGUgdHlwZT0idGV4dC9jc3MiPi5oYWxvQ29sb3IgeyBmaWxsOiByZ2IoMjI3LCAzNiwgMjcpOyB9IC5sYXllckNvbG9yIHsgZmlsbDogcmdiKDIyNywgMzYsIDI3KTsgfSA8L3N0eWxlPiYjeGE7ICA8Y2lyY2xlIGN4PSIyOS44IiBjeT0iMjkuOCIgcj0iMjkuOCIgY2xhc3M9ImhhbG9Db2xvciIgc3R5bGU9IiIgZmlsbD0iI2EyYTJhMiIvPiYjeGE7ICA8Y2lyY2xlIGZpbGw9IiNhMmEyYTIiIGNsYXNzPSJsYXllckNvbG9yIiBjeD0iMjkuNzciIGN5PSIyOS44MjUiIHI9IjI0LjgiIHN0eWxlPSIiLz4mI3hhOyAgPGcgdHJhbnNmb3JtPSJtYXRyaXgoMSwgMCwgMCwgMSwgLTUxLjUyMTYxOCwgNC4yMTQwMDkpIj4mI3hhOyAgICA8cmVjdCBpZD0ic3ZnXzUiIHN0cm9rZT0iI2ZmZmZmZiIgaGVpZ2h0PSI1LjIyMiIgd2lkdGg9IjguMzc5IiB5PSIxMi4xMDkiIHg9IjgxLjQ1NiIgc3Ryb2tlLXdpZHRoPSIwIiBmaWxsPSIjZmZmZmZmIi8+JiN4YTsgICAgPHJlY3QgaWQ9InN2Z183IiBzdHJva2U9IiNmZmZmZmYiIGhlaWdodD0iNS4yMjIiIHdpZHRoPSI4LjM3OSIgeT0iMTIuMTYiIHg9IjkxLjUyMyIgc3Ryb2tlLXdpZHRoPSIwIiBmaWxsPSIjZmZmZmZmIi8+JiN4YTsgICAgPHJlY3QgaWQ9InN2Z18zIiBzdHJva2U9IiNmZmZmZmYiIGhlaWdodD0iNS4yMjIiIHdpZHRoPSI4LjM3OSIgeT0iMTIuMTczIiB4PSI2Mi4zNjUiIHN0cm9rZS13aWR0aD0iMCIgZmlsbD0iI2ZmZmZmZiIvPiYjeGE7ICAgIDxyZWN0IGlkPSJzdmdfNiIgc3Ryb2tlPSIjZmZmZmZmIiBoZWlnaHQ9IjUuMjIyIiB3aWR0aD0iOC4zNzkiIHk9IjE5LjEyNiIgeD0iNzEuNjU1IiBzdHJva2Utd2lkdGg9IjAiIGZpbGw9IiNmZmZmZmYiLz4mI3hhOyAgICA8cmVjdCBpZD0ic3ZnXzgiIHN0cm9rZT0iI2ZmZmZmZiIgaGVpZ2h0PSI1LjIyMiIgd2lkdGg9IjguMzc5IiB5PSIzMy4xNTkiIHg9IjkxLjI1OCIgc3Ryb2tlLXdpZHRoPSIwIiBmaWxsPSIjZmZmZmZmIi8+JiN4YTsgICAgPHJlY3QgaWQ9InN2Z185IiBzdHJva2U9IiNmZmZmZmYiIGhlaWdodD0iNS4yMjIiIHdpZHRoPSI4LjM3OSIgeT0iMTIuMTA5IiB4PSI4MC45ODIiIHN0cm9rZS13aWR0aD0iMCIgZmlsbD0iI2ZmZmZmZiIvPiYjeGE7ICAgIDxyZWN0IGlkPSJzdmdfMTEiIHN0cm9rZT0iI2ZmZmZmZiIgaGVpZ2h0PSI1LjIyMiIgd2lkdGg9IjguMzc5IiB5PSIzMy40ODUiIHg9IjcxLjY1NSIgc3Ryb2tlLXdpZHRoPSIwIiBmaWxsPSIjZmZmZmZmIi8+JiN4YTsgICAgPHJlY3QgaWQ9InN2Z18xMiIgc3Ryb2tlPSIjZmZmZmZmIiBoZWlnaHQ9IjUuMjIyIiB3aWR0aD0iOC4zNzkiIHk9IjMzLjY0OSIgeD0iNjIuMDExIiBzdHJva2Utd2lkdGg9IjAiIGZpbGw9IiNmZmZmZmYiLz4mI3hhOyAgICA8cmVjdCBpZD0ic3ZnXzEzIiBzdHJva2U9IiNmZmZmZmYiIGhlaWdodD0iNS4yMjIiIHdpZHRoPSI4LjM3OSIgeT0iMjYuNzk1IiB4PSI2MS44NTMiIHN0cm9rZS13aWR0aD0iMCIgZmlsbD0iI2ZmZmZmZiIvPiYjeGE7ICAgIDxyZWN0IGlkPSJzdmdfMTQiIHN0cm9rZT0iI2ZmZmZmZiIgaGVpZ2h0PSI1LjIyMiIgd2lkdGg9IjguMzc5IiB5PSIyNi43OTUiIHg9IjcxLjY1NSIgc3Ryb2tlLXdpZHRoPSIwIiBmaWxsPSIjZmZmZmZmIi8+JiN4YTsgICAgPHJlY3QgaWQ9InN2Z18xNSIgc3Ryb2tlPSIjZmZmZmZmIiBoZWlnaHQ9IjUuMjIyIiB3aWR0aD0iOC4zNzkiIHk9IjI2Ljc5NSIgeD0iODEuNDU2IiBzdHJva2Utd2lkdGg9IjAiIGZpbGw9IiNmZmZmZmYiLz4mI3hhOyAgICA8cmVjdCBpZD0ic3ZnXzE2IiBzdHJva2U9IiNmZmZmZmYiIGhlaWdodD0iNS4yMjIiIHdpZHRoPSI4LjM3OSIgeT0iMTkuMjg5IiB4PSI5MS40MTYiIHN0cm9rZS13aWR0aD0iMCIgZmlsbD0iI2ZmZmZmZiIvPiYjeGE7ICA8L2c+JiN4YTs8L3N2Zz4=;shadow=0;glass=0;dashed=1;dashPattern=1 4;strokeColor=#000000;strokeWidth=1;fillColor=none;gradientColor=none;align=center;fontColor=#000000;fontSize=12;" parent="1" vertex="1">
            <mxGeometry x="290" y="130" width="60" height="60" as="geometry" />
          </mxCell>
        </UserObject>
        <mxCell id="TuEcQPFBkwgy0ww-vpvm-123" style="edgeStyle=orthogonalEdgeStyle;rounded=0;orthogonalLoop=1;jettySize=auto;html=1;exitX=1;exitY=0.5;exitDx=0;exitDy=0;entryX=0;entryY=0.5;entryDx=0;entryDy=0;strokeColor=#000000;fontColor=#D9D9D9;fontSize=12;" parent="1" source="TuEcQPFBkwgy0ww-vpvm-125" target="TuEcQPFBkwgy0ww-vpvm-127" edge="1">
          <mxGeometry relative="1" as="geometry" />
        </mxCell>
        <mxCell id="TuEcQPFBkwgy0ww-vpvm-124" style="edgeStyle=orthogonalEdgeStyle;rounded=0;orthogonalLoop=1;jettySize=auto;html=1;exitX=0.5;exitY=1;exitDx=0;exitDy=0;entryX=0.5;entryY=0;entryDx=0;entryDy=0;strokeColor=#000000;fontColor=#D9D9D9;fontSize=12;" parent="1" source="TuEcQPFBkwgy0ww-vpvm-125" target="TuEcQPFBkwgy0ww-vpvm-126" edge="1">
          <mxGeometry relative="1" as="geometry" />
        </mxCell>
        <mxCell id="TuEcQPFBkwgy0ww-vpvm-125" value="Tag Release" style="shape=image;editableCssRules=\.[haloColor,layerColor];imageAspect=0;aspect=fixed;verticalLabelPosition=bottom;verticalAlign=top;image=data:image/svg+xml,PHN2ZyB4bWxucz0iaHR0cDovL3d3dy53My5vcmcvMjAwMC9zdmciIHdpZHRoPSIxMDAuMDMyIiBoZWlnaHQ9IjEwMC4wMzIiIHZpZXdCb3g9IjAgMCA3NSA3NSIgZmlsbD0ibm9uZSIgZmlsbC1ydWxlPSJldmVub2RkIiBvdmVyZmxvdz0idmlzaWJsZSIgc3Ryb2tlLWxpbmVjYXA9InNxdWFyZSIgc3Ryb2tlLW1pdGVybGltaXQ9IjMiIGNvbG9yLWludGVycG9sYXRpb24tZmlsdGVycz0ic1JHQiI+JiN4YTsgIDxzdHlsZSB0eXBlPSJ0ZXh0L2NzcyI+LmhhbG9Db2xvciB7IGZpbGw6IHJnYigxNzgsIDEwMiwgMjU1KTsgfSAubGF5ZXJDb2xvciB7IGZpbGw6IHJnYigxNzgsIDEwMiwgMjU1KTsgfSA8L3N0eWxlPiYjeGE7ICA8Y2lyY2xlIHI9IjM3LjUiIGN4PSIzNy41IiBjeT0iMzcuNSIgY29sb3ItaW50ZXJwb2xhdGlvbi1maWx0ZXJzPSJzUkdCIiBmaWxsPSIjYTJhMmEyIiBjbGFzcz0iaGFsb0NvbG9yIi8+JiN4YTsgIDxjaXJjbGUgZmlsbD0iI2EyYTJhMiIgcj0iMzIuNSIgY3g9IjM3LjQ0OSIgY3k9IjM3LjUwMyIgY29sb3ItaW50ZXJwb2xhdGlvbi1maWx0ZXJzPSJzUkdCIiBzdHlsZT0iIiBjbGFzcz0ibGF5ZXJDb2xvciIvPiYjeGE7ICA8cGF0aCBkPSJNIDE1LjI3OSA0Ny42MDEgTCA2MC4xNDEgNDcuNjAxIEwgNjAuMTQxIDUwLjMyMyBMIDE1LjI3OSA1MC4zMjMgWiBNIDE2Ljc3IDI0LjA5MiBMIDU4LjQwMiAyNC4wOTIgTCA1OC40MDIgMjYuODE0IEwgMTYuNzcgMjYuODE0IFogTSAxMi4yOTYgNTEuOTMxIEwgNjMgNTEuOTMxIEwgNjMgNTQuNjUzIEwgMTIuMjk2IDU0LjY1MyBaIE0gMzcuNjQ4IDEzLjU3NiBMIDEzLjc4NyAyMS40OTQgTCAxMy43ODcgMjIuOTc5IEwgNjEuNTA4IDIyLjk3OSBMIDYxLjUwOCAyMS40OTQgWiBNIDE2Ljc3IDI4LjE3NSBMIDIxLjk4OSAyOC4xNzUgTCAyMS45ODkgNDYuNDg3IEwgMTYuNzcgNDYuNDg3IFogTSA1My4zMDYgMjguMTc1IEwgNTguNTI2IDI4LjE3NSBMIDU4LjUyNiA0Ni40ODcgTCA1My4zMDYgNDYuNDg3IFogTSAzNS4wMzggMjguMTc1IEwgNDAuMjU4IDI4LjE3NSBMIDQwLjI1OCA0Ni40ODcgTCAzNS4wMzggNDYuNDg3IFogTSAyNS45NjYgMjguMTc1IEwgMzEuMTg2IDI4LjE3NSBMIDMxLjE4NiA0Ni40ODcgTCAyNS45NjYgNDYuNDg3IFogTSA0NC4zNTkgMjguMTc1IEwgNDkuNTc4IDI4LjE3NSBMIDQ5LjU3OCA0Ni40ODcgTCA0NC4zNTkgNDYuNDg3IFoiIGZpbGw9IiNmZmYiIHN0eWxlPSIiLz4mI3hhOzwvc3ZnPg==;perimeter=rectanglePerimeter;fontColor=#000000;fontSize=12;" parent="1" vertex="1">
          <mxGeometry x="610" y="10" width="60" height="60" as="geometry" />
        </mxCell>
        <mxCell id="TuEcQPFBkwgy0ww-vpvm-126" value="Deploy" style="shape=image;editableCssRules=\.[haloColor,layerColor];verticalLabelPosition=bottom;labelBackgroundColor=none;verticalAlign=top;aspect=fixed;imageAspect=0;image=data:image/svg+xml,PHN2ZyB4bWxucz0iaHR0cDovL3d3dy53My5vcmcvMjAwMC9zdmciIHZpZXdCb3g9IjAgMCA1OS41IDU5LjUiPiYjeGE7ICA8c3R5bGUgdHlwZT0idGV4dC9jc3MiPi5oYWxvQ29sb3IgeyBmaWxsOiByZ2IoMTc4LCAxMDIsIDI1NSk7IH0gLmxheWVyQ29sb3IgeyBmaWxsOiByZ2IoMTc4LCAxMDIsIDI1NSk7IH0gPC9zdHlsZT4mI3hhOyAgPGNpcmNsZSBjeD0iMjkuOCIgY3k9IjI5LjgiIHI9IjI5LjgiIGNsYXNzPSJoYWxvQ29sb3IiIHN0eWxlPSIiIGZpbGw9IiNhMmEyYTIiLz4mI3hhOyAgPGNpcmNsZSBmaWxsPSIjYTJhMmEyIiBjbGFzcz0ibGF5ZXJDb2xvciIgY3g9IjI5Ljc3IiBjeT0iMjkuODI1IiByPSIyNC44IiBzdHlsZT0iIi8+JiN4YTsgIDxwYXRoIGQ9Ik0gMTMuMjc2IDQyLjM0NyBMIDE1LjcyNiAzOS4xODUgTCAxNi40MzggMzkuNzM1IEwgMTMuOTg4IDQyLjg5NyBaIE0gMTMuNjU2IDQ1LjE5NyBMIDE3LjMyNiA0MS41MTMgTCAxNy45NjQgNDIuMTQ4IEwgMTQuMjk0IDQ1LjgzMiBaIE0gMTYuNTI2IDQ1LjQyOSBMIDE5Ljc3MSA0Mi45MjMgTCAyMC4zMjEgNDMuNjM1IEwgMTcuMDc2IDQ2LjE0MSBaIE0gNDUuMDgzIDE0LjQ5MiBDIDQ1LjA4MyAxNC40OTIgMzcuNzgzIDguMjkyIDI2LjI4MyAyNC44OTIgTCAyNC45ODMgMjYuNjkyIEMgMTguMzgzIDI2LjM5MiAxNC41ODMgMzMuMTkyIDE0LjU4MyAzMy4xOTIgTCAxOS42ODMgMzQuNTkyIEwgMTguNDgzIDM2LjI5MiBMIDE4LjQ4MyAzNi4zOTIgQyAxOC40ODMgMzYuMzkyIDE4LjA4MyAzNi45OTIgMjAuMDgzIDM5LjI5MiBMIDIwLjE4MyAzOS4zOTIgQyAyMC4yODMgMzkuNDkyIDIwLjM4MyAzOS40OTIgMjAuNDgzIDM5LjU5MiBDIDIyLjM4MyA0MS4xOTIgMjMuMDgzIDQxLjE5MiAyMy4yODMgNDEuMTkyIEwgMjMuNDgzIDQxLjA5MiBMIDI1LjI4MyAzOS44OTIgTCAyNi42ODMgNDUuMTkyIEMgMjYuNjgzIDQ1LjE5MiAzMy40ODMgNDEuMzkyIDMzLjA4MyAzNC43OTIgTCAzMy4wODMgMzQuNDkyIEwgMzQuNzgzIDMzLjI5MiBDIDUxLjI4MyAyMS43OTIgNDUuMDgzIDE0LjQ5MiA0NS4wODMgMTQuNDkyIFogTSAzNS42ODMgMjcuMjkyIEMgMzMuODgzIDI3LjI5MiAzMi40ODMgMjUuODkyIDMyLjM4MyAyNC4wOTIgQyAzMi4zODMgMjIuMjkyIDMzLjc4MyAyMC44OTIgMzUuNTgzIDIwLjc5MiBDIDM3LjM4MyAyMC43OTIgMzguNzgzIDIyLjE5MiAzOC44ODMgMjMuOTkyIEMgMzguODgzIDI1Ljc5MiAzNy40ODMgMjcuMjkyIDM1LjY4MyAyNy4yOTIgWiIgZmlsbD0iI2ZmZiIvPiYjeGE7PC9zdmc+;fontColor=#000000;fontSize=12;" parent="1" vertex="1">
          <mxGeometry x="610" y="130" width="60" height="60" as="geometry" />
        </mxCell>
        <UserObject label="Notify" tooltip="A Message Queue is a software-engineering component used for inter-process communication, or for inter-thread communication within the same process." id="TuEcQPFBkwgy0ww-vpvm-127">
          <mxCell style="shape=image;editableCssRules=\.[haloColor,layerColor];imageAspect=0;aspect=fixed;verticalLabelPosition=bottom;verticalAlign=top;image=data:image/svg+xml,PHN2ZyB4bWxucz0iaHR0cDovL3d3dy53My5vcmcvMjAwMC9zdmciIHZpZXdCb3g9IjAgMCA1OC44IDU4LjciPiYjeGE7ICA8c3R5bGUgdHlwZT0idGV4dC9jc3MiPi5oYWxvQ29sb3IgeyBmaWxsOiByZ2IoMjUxLCAxNzEsIDI0KTsgfSAubGF5ZXJDb2xvciB7IGZpbGw6IHJnYigyNTEsIDE3MSwgMjQpOyB9IDwvc3R5bGU+JiN4YTsgIDxjaXJjbGUgY3g9IjI5LjQ1NCIgY3k9IjI5LjQzMyIgcj0iMjkuNCIgY2xhc3M9ImhhbG9Db2xvciIgc3R5bGU9IiIgZmlsbD0iI2EyYTJhMiIvPiYjeGE7ICA8Y2lyY2xlIGNsYXNzPSJsYXllckNvbG9yIiBjeD0iMjkuMjM3IiBjeT0iMjkuNjA1IiByPSIyNC44NzgiIHN0eWxlPSIiIHRyYW5zZm9ybT0ibWF0cml4KDAuOTgwNzY5LCAwLCAwLCAxLCAwLjY5MDgxMywgLTAuMTYpIi8+JiN4YTsgIDxwYXRoIGQ9Ik0gMjkuNjIgMTEuMzM1IEwgOS45MiAyMC43MzUgTCA5LjkyIDM5LjYzNSBMIDQ5LjQyIDM5LjYzNSBMIDQ5LjQyIDIwLjczNSBMIDI5LjYyIDExLjMzNSBaIE0gMTcuODIgMTkuNjM1IEwgNDEuNTIgMTkuNjM1IEwgNDEuNTIgMjQuNjM1IEwgMjkuNjIgMzAuMzM1IEwgMTcuNzIgMjQuNjM1IEwgMTcuNzIgMTkuNjM1IFogTSA0OC4xMiAzOC40MzUgTCAxMS4xMiAzOC40MzUgTCAxMS4xMiAyMi41MzUgTCAyOS41MiAzMS4zMzUgTCA0Ny45MiAyMi41MzUgTCA0OC4xMiAzOC40MzUgWiIgZmlsbD0iI2ZmZiIvPiYjeGE7PC9zdmc+;shadow=0;glass=0;dashed=1;dashPattern=1 4;strokeColor=#000000;strokeWidth=1;fillColor=none;gradientColor=none;align=center;fontColor=#000000;fontSize=12;" parent="1" vertex="1">
            <mxGeometry x="770" y="10" width="60" height="60" as="geometry" />
          </mxCell>
        </UserObject>
        <mxCell id="TuEcQPFBkwgy0ww-vpvm-132" style="edgeStyle=orthogonalEdgeStyle;rounded=0;orthogonalLoop=1;jettySize=auto;html=1;exitX=1;exitY=0.5;exitDx=0;exitDy=0;" parent="1" source="TuEcQPFBkwgy0ww-vpvm-131" target="TuEcQPFBkwgy0ww-vpvm-115" edge="1">
          <mxGeometry relative="1" as="geometry" />
        </mxCell>
        <mxCell id="Z7yxuIP9AFndSdzFpjQd-9" style="edgeStyle=orthogonalEdgeStyle;rounded=0;orthogonalLoop=1;jettySize=auto;html=1;exitX=0.5;exitY=1;exitDx=0;exitDy=0;entryX=0.5;entryY=0;entryDx=0;entryDy=0;" parent="1" source="TuEcQPFBkwgy0ww-vpvm-131" target="Z7yxuIP9AFndSdzFpjQd-8" edge="1">
          <mxGeometry relative="1" as="geometry" />
        </mxCell>
        <UserObject label="Pull Source&#xa;Code" tooltip="A Web Layer is the Web component of a multi-layer architecture." id="TuEcQPFBkwgy0ww-vpvm-131">
          <mxCell style="shape=image;editableCssRules=\.[haloColor,layerColor];imageAspect=0;aspect=fixed;verticalLabelPosition=bottom;verticalAlign=top;image=data:image/svg+xml,PHN2ZyB4bWxucz0iaHR0cDovL3d3dy53My5vcmcvMjAwMC9zdmciIHZpZXdCb3g9IjAgMCA2MC4zIDYwLjIiPiYjeGE7ICA8c3R5bGUgdHlwZT0idGV4dC9jc3MiPi5oYWxvQ29sb3IgeyBmaWxsOiByZ2IoMCwgMTg4LCAyMzUpOyB9IC5sYXllckNvbG9yIHsgZmlsbDogcmdiKDAsIDE4OCwgMjM1KTsgfSA8L3N0eWxlPiYjeGE7ICA8Y2lyY2xlIGN4PSIzMC4wNjMiIGN5PSIzMC4xMDYiIHI9IjMwLjEiIHN0eWxlPSIiIGZpbGw9IiNhMmEyYTIiIGNsYXNzPSJoYWxvQ29sb3IiLz4mI3hhOyAgPGNpcmNsZSBjbGFzcz0ibGF5ZXJDb2xvciIgY3g9IjMwLjIzMiIgY3k9IjI5LjgzIiByPSIyNS4xIiBmaWxsPSIjYTJhMmEyIiBzdHlsZT0iIi8+JiN4YTsgIDxwYXRoIGQ9Ik0gNDIuMDIyIDI5LjM5NCBMIDQwLjUyMiAzMC45OTQgTCA0NC4xMjIgMzQuNTk0IEwgMzguMDIyIDM0LjU5NCBMIDM4LjAyMiAyMS4zOTQgTCAyOS4yMjIgMTIuNTk0IEwgMTYuMDIyIDEyLjU5NCBMIDE2LjAyMiA0NS40OTQgTCAzNy45MjIgNDUuNDk0IEwgMzcuOTIyIDM2LjY5NCBMIDQ0LjEyMiAzNi42OTQgTCA0MC41MjIgNDAuMjk0IEwgNDIuMDIyIDQxLjc5NCBMIDQ4LjMyMiAzNS40OTQgTCA0Mi4wMjIgMjkuMzk0IFogTSAzNS44MjIgNDMuMjk0IEwgMTguMjIyIDQzLjI5NCBMIDE4LjIyMiAxNC43OTQgTCAyOC4xMjIgMTQuNzk0IEwgMjguMTIyIDIyLjQ5NCBMIDM1LjgyMiAyMi40OTQgTCAzNS44MjIgMzQuNTk0IEwgMjguMTIyIDM0LjU5NCBMIDI4LjEyMiAzNi43OTQgTCAzNS44MjIgMzYuNzk0IEwgMzUuODIyIDQzLjI5NCBaIiBmaWxsPSIjZmZmIi8+JiN4YTs8L3N2Zz4=;shadow=0;glass=0;dashed=1;dashPattern=1 4;strokeColor=#000000;strokeWidth=1;fillColor=none;gradientColor=none;align=center;fontColor=#000000;" parent="1" vertex="1">
            <mxGeometry x="-30" y="10" width="60" height="60" as="geometry" />
          </mxCell>
        </UserObject>
        <UserObject label="Pull Source&#xa;Code" tooltip="A Web Layer is the Web component of a multi-layer architecture." id="Z7yxuIP9AFndSdzFpjQd-8">
          <mxCell style="shape=image;editableCssRules=\.[haloColor,layerColor];imageAspect=0;aspect=fixed;verticalLabelPosition=bottom;verticalAlign=top;image=data:image/svg+xml,PHN2ZyB4bWxucz0iaHR0cDovL3d3dy53My5vcmcvMjAwMC9zdmciIHdpZHRoPSIxMDAuMDMyIiBoZWlnaHQ9IjEwMC4wMzIiIHZpZXdCb3g9IjAgMCA3NSA3NSIgZmlsbD0ibm9uZSIgZmlsbC1ydWxlPSJldmVub2RkIiBvdmVyZmxvdz0idmlzaWJsZSIgc3Ryb2tlLWxpbmVjYXA9InNxdWFyZSIgc3Ryb2tlLW1pdGVybGltaXQ9IjMiIGNvbG9yLWludGVycG9sYXRpb24tZmlsdGVycz0ic1JHQiI+JiN4YTsgIDxzdHlsZSB0eXBlPSJ0ZXh0L2NzcyI+LmhhbG9Db2xvciB7IGZpbGw6IHJnYigwLCAxODgsIDIzNSk7IH0gLmxheWVyQ29sb3IgeyBmaWxsOiByZ2IoMCwgMTg4LCAyMzUpOyB9IDwvc3R5bGU+JiN4YTsgIDxjaXJjbGUgcj0iMzcuNSIgY3g9IjM3LjUiIGN5PSIzNy41IiBjb2xvci1pbnRlcnBvbGF0aW9uLWZpbHRlcnM9InNSR0IiIGZpbGw9IiNhMmEyYTIiIGNsYXNzPSJoYWxvQ29sb3IiLz4mI3hhOyAgPGNpcmNsZSBmaWxsPSIjYTJhMmEyIiByPSIzMi41IiBjeD0iMzcuNDQ5IiBjeT0iMzcuNTAzIiBjb2xvci1pbnRlcnBvbGF0aW9uLWZpbHRlcnM9InNSR0IiIHN0eWxlPSIiIGNsYXNzPSJsYXllckNvbG9yIi8+JiN4YTsgIDxwYXRoIGQ9Ik0gMjEuMTgzIDIzLjg1MiBMIDU0Ljg4MyAyMy44NTIgTCA1NC44ODMgNDcuOTUyIEwgMjEuMTgzIDQ3Ljk1MiBaIiBzdHlsZT0iIiBjbGFzcz0ibGF5ZXJDb2xvciIvPiYjeGE7ICA8cGF0aCBkPSJNIDUxLjY3OSA1NC40NjIgTCAzMS42MzQgNTYuMzc4IEMgMzEuMjg0IDU2LjM3OCAzMC45MzUgNTYuMzc4IDMwLjkzNSA1Ni44MjkgQyAzMC43MzYgNTcuOTM2IDI5LjYyIDU4LjY1NyAyOC40ODcgNTguNDA3IEMgMjcuOTA1IDU4LjI5NSAyNy40MzggNTcuOTU3IDI3LjIwNSA1Ny42MTggQyAyNi43MzkgNTYuOTQyIDI2LjczOSA1Ni4wNCAyNy4yMDUgNTUuMzY0IEwgMjcuNDM4IDU1LjAyNiBMIDE1LjIwMiAzOC4yMyBMIDIzLjk0MiAxOS44NTYgQyAyMy4yNDMgMTkuNDA1IDIyLjc3NyAxOC41MDMgMjMuMDEgMTcuNzE0IEMgMjMuMTI2IDE2LjgxMiAyMy45NDIgMTYuMTM2IDI0Ljg3NCAxNi4wMjMgQyAyNS44MDcgMTUuOTEgMjYuNjIzIDE2LjM2MSAyNi45NzIgMTcuMTUgQyAyNy4yMDUgMTcuNjAxIDI3LjMyMiAxNy42MDEgMjcuNzg4IDE3LjYwMSBMIDM3LjY5NCAxNi42OTkgTCA0Ny45NDkgMTUuNzk4IEwgNTkuNzIgMzEuOTE3IEMgNTkuODM3IDMyLjE0MyA2MC4xODYgMzIuMjU1IDYwLjQxOSAzMi4xNDMgQyA2MS40NjggMzEuODA0IDYyLjYzNCAzMi4zNjggNjIuOTgzIDMzLjQ5NSBDIDYzLjEgMzMuOTQ2IDYzLjEgMzQuNTEgNjIuODY3IDM0Ljk2MSBDIDYyLjUxNyAzNS43NSA2MS43MDEgMzYuMjAxIDYwLjc2OSAzNi4wODggQyA2MC40MTkgMzUuOTc1IDYwLjA3IDM2LjIwMSA2MC4wNyAzNi41MzkgTCA1MS43OTUgNTMuODk4IEMgNTEuNzk1IDU0LjAxMSA1MS42NzkgNTQuMjM3IDUxLjY3OSA1NC40NjIgWiBNIDQ1Ljg1MiAzOC4xMTcgTCA0NS44NTIgMzcuODkyIEwgNDQuNTcgMzEuNTc5IEMgNDQuNDUzIDMxLjM1NCA0NC4zMzcgMzEuMTI4IDQ0LjEwNCAzMS4wMTUgTCAzNy4yMjggMjguNjQ4IEMgMzYuOTk1IDI4LjUzNSAzNi43NjIgMjguNjQ4IDM2LjUyOSAyOC43NjEgTCAzMS41MTcgMzIuOTMyIEMgMzEuNDAxIDMzLjE1NyAzMS4yODQgMzMuMzgzIDMxLjI4NCAzMy42MDggTCAzMi42ODMgNDAuMzcyIEMgMzIuNzk5IDQwLjU5NyAzMi45MTYgNDAuODIyIDMzLjE0OSA0MC45MzUgTCAzOS41NTkgNDMuMDc3IEMgMzkuNzkyIDQzLjE5IDQwLjAyNSA0My4wNzcgNDAuMjU4IDQyLjk2NCBMIDQ1LjYxOSAzOC40NTUgQyA0NS43MzUgMzguMzQyIDQ1Ljg1MiAzOC4yMyA0NS44NTIgMzguMTE3IFogTSAyNC43NTggMzAuMzM5IEwgMjQuNjQxIDMwLjMzOSBMIDE1Ljc4NCAzOC4yMyBMIDI1LjkyMyA0My43NTMgQyAyNS44MDcgNDMuMzAyIDI1LjgwNyA0Mi45NjQgMjUuNjkgNDIuNjI2IEwgMjUuMzQxIDQwLjU5NyBDIDI1LjM0MSA0MC40ODQgMjUuMTA4IDQwLjM3MiAyNC45OTEgNDAuMzcyIEMgMjMuOTQyIDQwLjI1OSAyMy4xMjYgMzkuNDcgMjMuMDEgMzguNDU1IEMgMjMuMDEgMzcuNTUzIDIzLjU5MyAzNi42NTIgMjQuNTI1IDM2LjMxMyBDIDI0Ljc0MyAzNi4yMDYgMjQuODc5IDM1Ljk4OCAyNC44NzQgMzUuNzUgTCAyNC44NzQgMzMuNjA4IEMgMjQuNzU4IDMyLjQ4MSAyNC43NTggMzEuMzU0IDI0Ljc1OCAzMC4zMzkgWiBNIDQwLjAyNSA1MC4xNzkgTCA1MS4yMTMgNTQuMDExIEwgNTEuNTYyIDQyLjUxMyBMIDQ5LjIzMSA0NC41NDIgQyA0OS44MTQgNDUuODk1IDQ5LjY5OCA0Ni43OTcgNDguNzY1IDQ3LjM2IEMgNDcuODMzIDQ4LjAzNyA0Ni40MzQgNDcuOTI0IDQ1LjczNSA0Ny4wMjIgTCA0MC4wMjUgNTAuMTc5IFogTSAxNi40ODQgMzguOTA2IEwgMTYuNDg0IDM5LjI0NCBMIDI3LjMyMiA1NC4xMjQgQyAyNy40NTUgNTQuMjY0IDI3LjYxMiA1NC4zNzkgMjcuNzg4IDU0LjQ2MiBDIDI3LjkwNSA1NC4yMzcgMjcuOTA1IDU0LjEyNCAyNy45MDUgNTMuODk4IEwgMjYuMjczIDQ1LjQ0NCBDIDI2LjI3MyA0NC41NDIgMjUuNjkgNDMuNzUzIDI0Ljc1OCA0My40MTUgQyAyNC4yOTIgNDMuMTkgMjMuOTQyIDQyLjk2NCAyMy41OTMgNDIuNzM5IEwgMTYuNDg0IDM4LjkwNiBaIE0gNTAuMTY0IDU0LjEyNCBMIDUwLjA0NyA1NC4wMTEgTCAzOS43OTIgNTAuNTE3IEMgMzkuNjE0IDUwLjQwMyAzOS4zODUgNTAuNDAzIDM5LjIwOSA1MC41MTcgTCAzMC45MzUgNTUuMTM4IEMgMzAuODE4IDU1LjI1MSAzMC44MTggNTUuNDc3IDMwLjcwMSA1NS41ODkgQyAzMC44MyA1NS43MDkgMzAuOTkyIDU1Ljc4NyAzMS4xNjggNTUuODE1IEMgMzEuNjM0IDU1LjgxNSAzMi4xIDU1LjcwMiAzMi41NjYgNTUuNzAyIEwgNDYuNzg0IDU0LjQ2MiBMIDUwLjE2NCA1NC4xMjQgWiBNIDM4LjA0NCAyMS4zMjEgTCAzOC4wNDQgMjEuNDM0IEMgMzguODU5IDIxLjY1OSAzOS43OTIgMjEuOTk3IDQwLjYwNyAyMi4xMSBDIDQwLjg0IDIyLjExIDQxLjA3NCAyMS45OTcgNDEuMTkgMjEuODg1IEMgNDEuNzczIDIxLjA5NiA0Mi44MjIgMjAuODcgNDMuNzU0IDIxLjMyMSBDIDQ0LjY4IDIxLjczNiA0NS4xNzEgMjIuNzMxIDQ0LjkxOSAyMy42ODggQyA0NC44MDMgMjMuOTE0IDQ0LjkxOSAyNC4yNTIgNDUuMTUyIDI0LjM2NSBMIDQ5LjU4MSAyNy4wNyBDIDQ5LjY5OCAyNy4xODMgNDkuODE0IDI3LjE4MyA1MC4wNDcgMjcuMjk2IEwgNDcuNDgzIDE2LjM2MSBMIDM4LjA0NCAyMS4zMjEgWiBNIDE2LjEzNCAzNy4xMDMgQyAxNi4yNTEgMzcuMTAzIDE2LjM2NyAzNi45OSAxNi40ODQgMzYuODc3IEwgMjQuNDA4IDI5Ljc3NSBDIDI0LjYxOSAyOS41NjIgMjQuNzQ0IDI5LjI4MiAyNC43NTggMjguOTg2IEwgMjQuNzU4IDIwLjE5NCBDIDI0Ljc1OCAyMC4wODEgMjQuNjQxIDE5Ljk2OCAyNC41MjUgMTkuODU2IEMgMjQuNTI1IDE5Ljg1NiAyNC4yOTIgMTkuOTY4IDI0LjE3NSAyMC4wODEgQyAyNC4wNTkgMjAuMTk0IDI0LjA1OSAyMC4zMDcgMjQuMDU5IDIwLjQxOSBMIDE2LjQ4NCAzNi40MjYgTCAxNi4xMzQgMzcuMTAzIFogTSA1MS42NzkgNTIuODg0IEMgNTEuNzk1IDUyLjc3MSA1MS45MTIgNTIuNjU4IDUxLjkxMiA1Mi41NDYgTCA1OS43MiAzNi4yMDEgTCA1OS43MiAzNS42MzcgQyA1OS40ODcgMzUuNjM3IDU5LjM3IDM1Ljc1IDU5LjEzNyAzNS44NjMgTCA1My4zMSA0MC44MjIgQyA1Mi4yNjEgNDEuNDk5IDUxLjc5NSA0Mi43MzkgNTEuNzk1IDQzLjg2NiBMIDUxLjY3OSA1Mi44ODQgWiBNIDQ4LjQxNiAxNy4xNSBMIDQ4LjQxNiAxNy40ODggTCA1MC43NDYgMjcuMTgzIEMgNTAuODYzIDI3LjQwOCA1MC45NzkgMjcuNjM0IDUxLjMyOSAyNy44NTkgTCA1OS4wMjEgMzIuNDgxIEMgNTkuMTM3IDMyLjU5NCA1OS4yNTQgMzIuNTk0IDU5LjM3IDMyLjcwNiBMIDU5LjcyIDMyLjcwNiBMIDU5LjcyIDMyLjM2OCBDIDU5LjcyIDMyLjI1NSA1OS42MDMgMzIuMTQzIDU5LjQ4NyAzMi4wMyBMIDQ4Ljk5OCAxNy43MTQgQyA0OC42NDkgMTcuNDg4IDQ4LjUzMiAxNy4zNzYgNDguNDE2IDE3LjE1IFogTSA0Ni41NTEgMTYuMjQ5IEwgNDYuMDg1IDE2LjI0OSBMIDQxLjc3MyAxNi41ODcgTCAzMC41ODUgMTcuNzE0IEwgMjcuNDM4IDE4LjA1MiBDIDI3LjMyMiAxOC4wNTIgMjcuMjA1IDE4LjE2NSAyNy4wODkgMTguMjc4IEMgMjcuMjA1IDE4LjM5IDI3LjMyMiAxOC4zOSAyNy40MzggMTguNTAzIEMgMjcuNTU1IDE4LjUwMyAyNy42NzEgMTguNjE2IDI3Ljc4OCAxOC42MTYgTCAzNi44NzggMjEuMjA4IEMgMzcuMjI4IDIxLjMyMSAzNy41NzcgMjEuMjA4IDM3LjkyNyAyMS4wOTYgQyA0MC42MjEgMTkuNjI1IDQzLjM0MSAxOC4xOTYgNDYuMDg1IDE2LjgxMiBDIDQ2LjA4NSAxNi41ODcgNDYuMjAxIDE2LjM2MSA0Ni41NTEgMTYuMjQ5IFogTSAzMy42MTUgNDcuOTI0IEwgMzMuNjE1IDQ3LjU4NiBMIDMyLjMzMyA0MS4xNjEgQyAzMi4yMTcgNDAuOTM1IDMyLjEgNDAuNzEgMzEuODY3IDQwLjU5NyBMIDI3LjMyMiAzOS4xMzIgQyAyNi41MDYgMzguOTA2IDI2LjUwNiA0MC4wMzMgMjUuODA3IDQwLjE0NiBDIDI1LjY5IDQwLjE0NiAyNS42OSA0MC4zNzIgMjUuNjkgNDAuNDg0IEwgMjUuNjkgNDAuNTk3IEwgMjYuMjczIDQzLjY0MSBDIDI2LjM5IDQzLjg2NiAyNi41MDYgNDQuMDkxIDI2LjczOSA0NC4yMDQgTCAyOS4zMDMgNDUuNjcgTCAzMy42MTUgNDcuOTI0IFogTSAzNC40MzEgNDguMjYyIEwgMzkuMzI1IDQ5Ljk1MyBDIDM5LjU1OSA0OS45NTMgMzkuNzkyIDQ5Ljk1MyAzOS45MDggNDkuNzI4IEwgNDQuNDUzIDQ3LjI0OCBDIDQ1LjE1MiA0Ni45MSA0NS42MTkgNDYuNTcxIDQ1LjM4NiA0NS42NyBDIDQ1LjI2OSA0NS4zMzEgNDUuMjY5IDQ1LjIxOSA0NC45MTkgNDUuMTA2IEwgNDAuNjA3IDQzLjY0MSBDIDQwLjM3NCA0My42NDEgNDAuMDI1IDQzLjY0MSAzOS43OTIgNDMuODY2IEwgMzUuMzYzIDQ3LjQ3MyBMIDM0LjQzMSA0OC4yNjIgWiBNIDI5LjMwMyAyNi4wNTYgTCAyNS41NzQgMjkuMzI1IEMgMjUuMzQxIDI5LjU1IDI1LjIyNCAyOS44ODggMjUuMjI0IDMwLjIyNiBMIDI1LjIyNCAzNC43MzUgQyAyNS4yMjQgMzUuNTI0IDI1LjEwOCAzNi4yMDEgMjYuMTU2IDM2LjQyNiBDIDI2LjMyOCAzNi42NTcgMjYuNjgzIDM2LjY1NyAyNi44NTYgMzYuNDI2IEwgMzAuMzUyIDMzLjM4MyBDIDMwLjQ2OCAzMy4yNyAzMC41ODUgMzMuMDQ0IDMwLjU4NSAzMi44MTkgTCAyOS4zMDMgMjYuMDU2IFogTSA0NC42ODYgMjQuNDc3IEMgNDQuNDUzIDI0LjcwMyA0NC4xMDQgMjQuODE2IDQzLjg3MSAyNS4wNDEgQyA0My41MjEgMjUuMTU0IDQzLjUyMSAyNS4yNjYgNDMuNTIxIDI1LjYwNSBMIDQ0LjQ1MyAzMC4zMzkgQyA0NC41NyAzMC41NjUgNDQuNjg2IDMwLjc5IDQ0LjkxOSAzMC45MDMgTCA0OC40MTYgMzIuMTQzIEwgNTEuMzI5IDMzLjE1NyBMIDUxLjMyOSAzMi45MzIgTCA1MC4xNjQgMjguMTk3IEMgNTAuMTY0IDI4LjA4NSA1MC4wNDcgMjcuOTcyIDQ5LjkzMSAyNy44NTkgTCA0NC42ODYgMjQuNDc3IFogTSA0MC44NCAyMi42NzQgTCAzNy45MjcgMjEuODg1IEMgMzcuNTc3IDIxLjc3MiAzNy4yMjggMjEuODg1IDM2Ljk5NSAyMS45OTcgTCAzMC43MDEgMjUuMzc5IEMgMzAuNTg1IDI1LjQ5MiAzMC4zNTIgMjUuNjA1IDMwLjExOSAyNS43MTcgQyAzMC4zNTIgMjUuODMgMzAuNTg1IDI1Ljk0MyAzMC43MDEgMjUuOTQzIEwgMzUuNTk2IDI3LjYzNCBDIDM2LjQxMiAyOC4wODUgMzcuNDYxIDI3Ljg1OSAzOC4wNDQgMjcuMTgzIEMgMzkuMDkyIDI2LjE2OCA0MC4yNTggMjUuMzc5IDQxLjE5IDI0LjQ3NyBMIDQwLjg0IDIyLjY3NCBaIE0gNTEuNjc5IDMzLjk0NiBMIDQ2LjY2OCAzOC4xMTcgQyA0Ni4zMTggMzguMzQyIDQ2LjIwMSAzOC43OTMgNDYuMzE4IDM5LjEzMiBMIDQ3LjAxNyA0Mi44NTEgQyA0Ny4xMzQgNDMuNDE1IDQ3LjI1IDQzLjg2NiA0Ny45NDkgNDMuNzUzIEMgNDguMTgzIDQzLjc1MyA0OC4yOTkgNDMuODY2IDQ4LjUzMiA0My45NzkgQyA0OC44ODIgNDQuMjA0IDQ4Ljk5OCA0NC4wOTEgNDkuMjMxIDQzLjg2NiBDIDQ5LjgxNCA0My4zMDIgNTAuNTEzIDQyLjczOSA1MS4yMTMgNDIuMTc1IEMgNTEuNDQ2IDQxLjk1IDUxLjU2MiA0MS43MjQgNTEuNTYyIDQxLjQ5OSBMIDUxLjY3OSAzNS41MjQgTCA1MS42NzkgMzMuOTQ2IFogTSAyNi41MDYgNDQuNTQyIEwgMjYuNTA2IDQ0Ljg4MSBMIDI4LjI1NCA1My43ODYgQyAyOC4zNzEgNTQuNTc1IDI4Ljk1MyA1NC4yMzcgMjkuNDIgNTQuNDYyIEMgMjkuODg2IDU0LjY4OCAyOS44ODYgNTQuMzQ5IDMwLjAwMiA1NC4xMjQgTCAzMy4zODIgNDguOTM5IEMgMzMuNDk4IDQ4LjgyNiAzMy40OTggNDguNzEzIDMzLjYxNSA0OC40ODggTCAyNi41MDYgNDQuNTQyIFogTSAzNi43NjIgMjEuNTQ3IEMgMzYuNjQ1IDIxLjU0NyAzNi42NDUgMjEuNDM0IDM2LjUyOSAyMS40MzQgTCAyNy4zMjIgMTguODQxIEMgMjYuNzM5IDE4LjYxNiAyNi43MzkgMTkuMjkyIDI2LjM5IDE5LjUxOCBDIDI2LjI3MyAxOS41MTggMjYuMjczIDE5Ljk2OCAyNi4zOSAyMC4wODEgTCAyOS4zMDMgMjUuMTU0IEMgMjkuNDIgMjUuMjY2IDI5LjQyIDI1LjM3OSAyOS41MzYgMjUuNDkyIEwgMzYuNzYyIDIxLjU0NyBaIE0gNTIuMDI4IDQxLjM4NiBDIDUyLjE0NSA0MS4yNzMgNTIuMzc4IDQxLjE2MSA1Mi40OTUgNDEuMDQ4IEwgNTguNzg4IDM1LjYzNyBDIDU5LjM3IDM1LjE4NiA1OS4wMjEgMzQuODQ4IDU4LjkwNCAzNC41MSBDIDU4Ljc5MiAzNC4yOTkgNTguNTY2IDM0LjE2OCA1OC4zMjIgMzQuMTcyIEwgNTIuMDI4IDMzLjgzNCBMIDUyLjAyOCA0MS4zODYgWiBNIDMyLjY4MyA0MC44MjIgTCAzNC4wODEgNDcuODExIEwgMzkuNjc1IDQzLjE5IEwgMzIuNjgzIDQwLjgyMiBaIE0gNDQuMzM3IDMwLjY3NyBDIDQ0LjEwNCAyOC44NzQgNDMuNjM3IDI3LjE4MyA0My4yODggMjUuNDkyIEMgNDMuMjg4IDI1LjM3OSA0My4xNzEgMjUuMjY2IDQzLjA1NSAyNS4yNjYgQyA0Mi40NzIgMjUuMTU0IDQxLjg4OSAyNC45MjggNDEuMzA3IDI0LjgxNiBMIDM3LjIyOCAyOC4zMSBMIDQ0LjMzNyAzMC42NzcgWiBNIDMxLjE2OCAzMi45MzIgTCAzNi42NDUgMjguNDIzIEwgMjkuNzY5IDI2LjA1NiBMIDMxLjE2OCAzMi45MzIgWiBNIDQ2LjA4NSAzOC4wMDQgTCA1MS41NjIgMzMuNDk1IEwgNDQuNjg2IDMxLjEyOCBMIDQ2LjA4NSAzOC4wMDQgWiBNIDMwLjgxOCAzMy40OTUgTCAyNi44NTYgMzYuNzY0IEMgMjYuNzM5IDM2Ljg3NyAyNi43MzkgMzYuOTkgMjYuODU2IDM3LjEwMyBDIDI2Ljk3MiAzNy42NjYgMjcuMDg5IDM4LjIzIDI3LjMyMiAzOC43OTMgTCAzMi4zMzMgNDAuNDg0IEwgMzAuODE4IDMzLjQ5NSBaIE0gNDUuMzg2IDQ0Ljk5MyBMIDQ3LjAxNyA0My42NDEgTCA0Ni4wODUgMzguNjgxIEwgNDAuNDkxIDQzLjMwMiBMIDQ1LjM4NiA0NC45OTMgWiBNIDI1LjIyNCAyOC45ODYgTCAyNS4zNDEgMjkuMDk5IEwgMjguOTUzIDI1LjgzIEMgMjkuMDcgMjUuNzE3IDI4Ljk1MyAyNS4zNzkgMjguOTUzIDI1LjI2NiBMIDI2LjE1NiAyMC40MTkgQyAyNi4wNCAyMC4xOTQgMjUuOTIzIDE5Ljg1NiAyNS41NzQgMTkuOTY4IEMgMjUuMzQxIDIwLjA4MSAyNS4yMjQgMjAuNDE5IDI1LjIyNCAyMC42NDUgTCAyNS4yMjQgMjguOTg2IFogTSAzOC45NzYgNTAuMTc5IEwgMzQuNTQ3IDQ4LjcxMyBDIDM0LjE5OCA0OC42IDMzLjk2NSA0OC43MTMgMzMuNzMyIDQ5LjA1MSBDIDMyLjU2MyA1MC43NTUgMzEuNDM3IDUyLjQ4NCAzMC4zNTIgNTQuMjM3IEMgMzAuMjM1IDU0LjQ2MiAzMC4yMzUgNTQuNjg4IDMwLjIzNSA1NC45MTMgQyAzMC40NjggNTQuOTEzIDMwLjcwMSA1NC44IDMwLjkzNSA1NC44IEwgMzcuOTI3IDUwLjk2OCBMIDM4Ljk3NiA1MC4xNzkgWiBNIDUwLjg2MyAyOC4xOTcgTCA1MS45MTIgMzIuNTk0IEMgNTEuOTEyIDMzLjA0NCA1Mi4yNjEgMzMuMjcgNTIuNzI4IDMzLjI3IEwgNTguMzIyIDMzLjYwOCBDIDU4LjU1NSAzMy42MDggNTguNzg4IDMzLjM4MyA1OC45MDQgMzMuMzgzIEMgNTguNzg4IDMzLjE1NyA1OC42NzEgMzIuOTMyIDU4LjU1NSAzMi44MTkgTCA1MS4zMjkgMjguNTM1IEwgNTAuODYzIDI4LjE5NyBaIiBzdHlsZT0iIi8+JiN4YTsgIDxnIGZpbGw9IiNmZmYiIHRyYW5zZm9ybT0ibWF0cml4KDEuNDAyMTE3LCAwLCAwLCAxLjM1NjIwOCwgLTYuODA4MDgzLCAtNi4xOTIwMTkpIiBzdHlsZT0iIj4mI3hhOyAgICA8cGF0aCBkPSJNMzkgMzQuMWMtLjEuMS0uMS4yLS4yLjNsLTQuNiA0Yy0uMi4xLS40LjEtLjYuMWwtNS41LTEuOWMtLjItLjEtLjMtLjMtLjQtLjVsLTEuMi02YzAtLjIgMC0uNC4yLS42bDQuMy0zLjdjLjItLjEuNC0uMi42LS4xbDUuOSAyLjFjLjIuMS40LjIuNC41bDEuMSA1LjZ2LjJ6bS0xOC4xLTYuOXY0LjdhLjU1LjU1IDAgMCAxLS4zLjVjLS44LjMtMS4zIDEtMS4zIDEuOS4xLjkuOCAxLjYgMS43IDEuNy4xIDAgLjMuMS4zLjJsLjMgMS44YzAgLjMuMS42LjIgMWwtOC43LTQuOSA3LjYtNyAuMi4xek0zNCA0NC44bDQuOC0yLjhjLjYuOCAxLjggMSAyLjYuNC44LS41LjktMS40LjQtMi41bDItMS44LS4yIDEwLjEtOS42LTMuNHptLTIwLjItMTBsNi4xIDMuNSAxIC42Yy43LjMgMS4yLjkgMS4zIDEuN2wxLjQgNy41YzAgLjIgMCAuMy0uMS41LS4xLS4xLS4zLS4yLS40LS4zbC05LjMtMTMuMnYtLjN6Ii8+JiN4YTsgICAgPHBhdGggZD0iTTQyLjcgNDguM2wtMi45LjMtMTIuMiAxLjFjLS40IDAtLjguMS0xLjIuMWEuNzYuNzYgMCAwIDEtLjQtLjJjLjEtLjEuMS0uMy4yLS40bDcuMS00LjFhLjQ1LjQ1IDAgMCAxIC41IDBsOC44IDMuMS4xLjF6TTMyLjMgMTkuMmw4LjItNC41IDIuMiA5LjdhLjc2Ljc2IDAgMCAxLS40LS4ybC0zLjgtMi40Yy0uMi0uMS0uMy0uNC0uMi0uNmExLjgyIDEuODIgMCAwIDAtMS0yLjFjLS44LS40LTEuNy0uMS0yLjIuNS0uMS4yLS4zLjItLjUuMi0uOCAwLTEuNi0uMy0yLjMtLjZ6bS0xOC44IDE0Yy4xLS4zLjItLjQuMi0uNWw2LjUtMTQuMmMwLS4xLjEtLjIuMS0uMy4xLS4xLjItLjIuMy0uMi4xLjEuMi4yLjIuM3Y3LjhjMCAuMy0uMS41LS4zLjdsLTYuOCA2LjNzLS4xLjEtLjIuMXptMzAuNSAxNGwuMS03LjljLS4xLTEuMS40LTIuMSAxLjMtMi43bDUtNC40Yy4xLS4xLjMtLjIuNS0uMnYuNUw0NC4yIDQ3YzAgLjEtLjEuMi0uMS4zbC0uMS0uMXptLTIuOC0zMS43Yy4yLjIuMy40LjQuNWw5IDEyLjdjLjEuMS4xLjIuMi4zdi4zaC0uM2MtLjEgMC0uMi0uMS0uMy0uMkw0My43IDI1Yy0uMi0uMS0uNC0uMy0uNS0uNmwtMi04LjZjLS4xLS4xLS4xLS4yIDAtLjN6bS0xLjYtLjhjLS4yLjEtLjMuMi0uNS4zbC03IDMuOGMtLjMuMS0uNi4yLS45LjFsLTcuOC0yLjNjLS4xIDAtLjIgMC0uMy0uMXMtLjItLjEtLjMtLjJjLjEtLjEuMi0uMi4zLS4ybDIuNy0uMyA5LjYtLjkgMy43LS4zYS45LjkgMCAwIDAgLjUuMXpNMjguNSA0Mi44bC0zLjctMi4xLTIuMi0xLjNjLS4yLS4xLS4zLS4zLS40LS41bC0uNS0yLjd2LS4xbC4xLS4zYy42LS4xLjYtMS4xIDEuMy0uOWwzLjkgMS4zYy4yLjEuMy4zLjQuNWwxLjEgNS43di40em0uNy4zbC44LS43IDMuOC0zLjJjLjItLjIuNC0uMi43LS4ybDMuNyAxLjNjLjMuMS4zLjMuNC41LjIuOC0uMiAxLjEtLjggMS40bC0zLjkgMi4yYy0uMi4xLS4zLjItLjUuMmwtNC4yLTEuNXoiLz4mI3hhOyAgICA8cGF0aCBkPSJNMjQuOCAyMy40bDEuMiA2YzAgLjItLjEuNC0uMi41bC0zIDIuN2EuMzcuMzcgMCAwIDEtLjYgMGMtLjktLjItLjgtLjgtLjgtMS41di00YzAtLjMuMS0uNi4zLS44bDMuMS0yLjl6TTM4IDIybDQuNiAyLjljLjEuMS4yLjIuMi4zbDEgNC4ydi4ybC0yLjUtLjktMy0xLjFjLS4yLS4xLS40LS4zLS40LS41bC0uOC00LjJjMC0uMyAwLS40LjMtLjUuMi0uMS40LS4zLjYtLjR6bS0zLjMtMS42bC40IDEuNmMtLjkuOC0xLjkgMS41LTIuNyAyLjQtLjUuNi0xLjQuOC0yLjEuNC0xLjQtLjYtMi44LTEtNC4yLTEuNS0uMi0uMS0uMy0uMS0uNS0uMi4yLS4xLjMtLjIuNS0uM2w1LjQtM2MuMy0uMS41LS4yLjgtLjEuNy4xIDEuNi41IDIuNC43em05LjMgMTB2MS40bC0uMSA1LjNjMCAuMi0uMS41LS4zLjYtLjUuNS0xLjEgMS0xLjcgMS41LS4yLjItLjQuMy0uNi4xLS4xLS4xLS4zLS4yLS41LS4yLS42LjEtLjctLjMtLjgtLjhsLS42LTMuM2MtLjEtLjQgMC0uNy4zLS45bDQuMy0zLjd6bS0yMS42IDkuNGw2LjEgMy40Yy0uMS4yLS4xLjMtLjIuNGwtMi45IDQuNmMtLjEuMi0uMi41LS41LjNzLS44LjEtMS0uNkwyMi40IDQwdi0uMnptOC44LTIwLjRsLTYuMSAzLjRjLS4xLS4xLS4xLS4yLS4yLS4zTDIyLjQgMThjLS4xLS4xLS4xLS40IDAtLjUuMy0uMi4yLS43LjgtLjZsNy44IDIuM2MwIC4xLjEuMi4yLjJ6TTQ0LjQgMzd2LTYuOGw1LjQuM2EuNTUuNTUgMCAwIDEgLjUuM2MuMS4zLjQuNi0uMSAxbC01LjQgNC44LS40LjR6bS0xNi42LS40bDYgMi4xLTQuOCA0LjEtMS4yLTYuMnoiLz4mI3hhOyAgICA8cGF0aCBkPSJNMzcuOCAyNy41bC02LjItMi4yIDMuNS0zLjFhMTEuMzEgMTEuMzEgMCAwIDAgMS41LjRjLjEgMCAuMi4xLjIuMi40IDEuNS43IDMgMSA0Ljd6bS0xMS40IDJsLTEuMi02LjIgNS45IDIuMS00LjcgNC4xem0xMi44IDQuNkwzOCAyOGw1LjggMi4xLTQuNiA0ek0yNi4xIDMwbDEuMiA2LjMtNC4zLTEuNmMtLjItLjYtLjMtMS4xLS40LTEuNXYtLjNsMy41LTIuOXptMTIuNSAxMC4ybC00LjItMS41IDQuOC00LjEuOCA0LjQtMS40IDEuMnpNMjEuMyAyNnYtNy40YzAtLjIuMS0uNC4zLS42LjMtLjIuNC4yLjUuNGwyLjQgNC4zYy4xLjEuMS40IDAgLjUtMSAxLTIuMSAxLjktMy4yIDIuOHptMTEuOCAxOC44bC0xIC42LTYgMy40Yy0uMS4xLS4zLjItLjUuMiAwLS4yIDAtLjQuMS0uNmwyLjktNC42Yy4yLS4zLjMtLjQuNy0uMyAxLjIuNSAyLjUuOSAzLjggMS4zem0xMC4yLTE5LjVsLjUuMyA2LjEgMy44Yy4yLjEuMi4zLjMuNS0uMi4xLS40LjItLjUuMmwtNC44LS4zYy0uNCAwLS43LS4yLS43LS42LS4yLTEuMi0uNS0yLjUtLjktMy45eiIvPiYjeGE7ICA8L2c+JiN4YTs8L3N2Zz4=;shadow=0;glass=0;dashed=1;dashPattern=1 4;strokeColor=#000000;strokeWidth=1;fillColor=none;gradientColor=none;align=center;fontColor=#000000;mageAspect=0;" parent="1" vertex="1">
            <mxGeometry x="-30" y="130" width="60" height="60" as="geometry" />
          </mxCell>
        </UserObject>
        <mxCell id="TuEcQPFBkwgy0ww-vpvm-53" value="Still" style="" parent="0" />
        <mxCell id="TuEcQPFBkwgy0ww-vpvm-133" value="&lt;font face=&quot;Verdana&quot; size=&quot;1&quot;&gt;&lt;b style=&quot;font-size: 24px;&quot;&gt;A Generic CI Pipeline&lt;/b&gt;&lt;/font&gt;" style="text;html=1;align=center;verticalAlign=middle;whiteSpace=wrap;rounded=0;fontColor=#808080;" parent="TuEcQPFBkwgy0ww-vpvm-53" vertex="1">
          <mxGeometry y="-70" width="800" height="30" as="geometry" />
        </mxCell>
      </root>
    </mxGraphModel>
  </diagram>
</mxfile>
